<svg width="13" height="12" viewBox="0 0 8 7" fill="none" xmlns="http://www.w3.org/2000/svg">
<path d="M3.99095 4.90715C3.91945 4.90715 3.84956 4.9276 3.79011 4.96593C3.73066 5.00426 3.68432 5.05873 3.65696 5.12247C3.6296 5.1862 3.62244 5.25633 3.63639 5.32399C3.65033 5.39166 3.68477 5.45381 3.73532 5.50259C3.78588 5.55137 3.8503 5.58459 3.92043 5.59804C3.99055 5.6115 4.06324 5.6046 4.1293 5.5782C4.19536 5.5518 4.25182 5.50709 4.29154 5.44973C4.33127 5.39237 4.35247 5.32493 4.35247 5.25595C4.35247 5.16344 4.31438 5.07472 4.24658 5.00931C4.17879 4.94389 4.08683 4.90715 3.99095 4.90715ZM7.84832 5.41988L4.93812 0.536675C4.84406 0.373965 4.70668 0.238436 4.54017 0.144089C4.37365 0.0497427 4.18405 0 3.99095 0C3.79785 0 3.60825 0.0497427 3.44174 0.144089C3.27523 0.238436 3.13785 0.373965 3.04378 0.536675L0.151662 5.41988C0.0543408 5.57824 0.0020465 5.75858 5.8855e-05 5.94267C-0.00192879 6.12677 0.0464606 6.30811 0.140342 6.46839C0.234223 6.62868 0.370272 6.76223 0.534754 6.85556C0.699236 6.94888 0.886328 6.99869 1.07714 6.99995H6.90477C7.09711 7.00178 7.2865 6.95422 7.45351 6.86214C7.62053 6.77007 7.75915 6.6368 7.85518 6.47599C7.95121 6.31518 8.00118 6.13262 7.99998 5.94704C7.99877 5.76145 7.94643 5.57952 7.84832 5.41988ZM7.2229 6.11748C7.19121 6.17188 7.14498 6.21708 7.08903 6.24837C7.03307 6.27965 6.96944 6.29589 6.90477 6.29537H1.07714C1.01247 6.29589 0.948839 6.27965 0.892883 6.24837C0.836928 6.21708 0.790696 6.17188 0.759008 6.11748C0.727278 6.06446 0.710574 6.00431 0.710574 5.94308C0.710574 5.88186 0.727278 5.82171 0.759008 5.76868L3.65113 0.885476C3.68147 0.828342 3.72756 0.780394 3.78433 0.746912C3.8411 0.713431 3.90634 0.695715 3.97288 0.695715C4.03941 0.695715 4.10466 0.713431 4.16143 0.746912C4.2182 0.780394 4.26429 0.828342 4.29463 0.885476L7.20482 5.76868C7.24069 5.82095 7.2613 5.88157 7.26448 5.94418C7.26766 6.00678 7.2533 6.06906 7.2229 6.12446V6.11748ZM3.99095 2.11674C3.89507 2.11674 3.80312 2.15349 3.73532 2.2189C3.66753 2.28432 3.62944 2.37303 3.62944 2.46554V3.86074C3.62944 3.95325 3.66753 4.04197 3.73532 4.10738C3.80312 4.1728 3.89507 4.20955 3.99095 4.20955C4.08683 4.20955 4.17879 4.1728 4.24658 4.10738C4.31438 4.04197 4.35247 3.95325 4.35247 3.86074V2.46554C4.35247 2.37303 4.31438 2.28432 4.24658 2.2189C4.17879 2.15349 4.08683 2.11674 3.99095 2.11674Z" fill="black"/>
</svg>
