<svg width="15" height="19" viewBox="0 0 15 19" fill="none" xmlns="http://www.w3.org/2000/svg">
<path d="M8.1615 1.97309C9.34411 0.384697 10.9882 0.376953 10.9882 0.376953C10.9882 0.376953 11.2328 1.87032 10.0579 3.3089C8.80345 4.84499 7.37759 4.59363 7.37759 4.59363C7.37759 4.59363 7.10985 3.38555 8.1615 1.97309ZM7.528 5.63973C8.13639 5.63973 9.26554 4.7875 10.7353 4.7875C13.2652 4.7875 14.2605 6.62198 14.2605 6.62198C14.2605 6.62198 12.3139 7.63616 12.3139 10.097C12.3139 12.8731 14.7388 13.8298 14.7388 13.8298C14.7388 13.8298 13.0437 18.6917 10.7541 18.6917C9.70253 18.6917 8.88497 17.9696 7.77696 17.9696C6.64781 17.9696 5.5273 18.7187 4.79749 18.7187C2.70676 18.7187 0.0654297 14.1067 0.0654297 10.3994C0.0654297 6.75199 2.30114 4.8386 4.39815 4.8386C5.76139 4.8386 6.81928 5.63973 7.528 5.63973Z" fill="#73737C"/>
</svg>
