<svg width="15" height="11" viewBox="0 0 15 11" fill="none" xmlns="http://www.w3.org/2000/svg">
<path d="M7.22631 5.06945L13.4214 1.08968C13.1723 0.902862 12.8699 0.800913 12.5585 0.798828H1.8941C1.58276 0.800913 1.28032 0.902862 1.03125 1.08968L7.22631 5.06945Z" fill="#9B9DA8"/>
<path d="M7.48767 6.05366L7.40526 6.09244H7.36648C7.32185 6.11238 7.27445 6.12545 7.22591 6.13122C7.18567 6.13629 7.14496 6.13629 7.10472 6.13122H7.06594L6.98353 6.09244L0.487928 1.89453C0.456893 2.01162 0.440609 2.13212 0.439453 2.25324V9.0397C0.439453 9.42538 0.592667 9.79528 0.86539 10.068C1.13811 10.3407 1.508 10.4939 1.89369 10.4939H12.5581C12.9438 10.4939 13.3137 10.3407 13.5864 10.068C13.8591 9.79528 14.0124 9.42538 14.0124 9.0397V2.25324C14.0112 2.13212 13.9949 2.01162 13.9639 1.89453L7.48767 6.05366Z" fill="#9B9DA8"/>
</svg>
