<svg width="20" height="19" viewBox="0 0 20 14" fill="none" xmlns="http://www.w3.org/2000/svg">
<path d="M18.5714 7C17.4405 5.08796 16.0231 3.65799 14.3192 2.71007C14.7731 3.55266 15 4.46412 15 5.44444C15 6.94329 14.5108 8.2254 13.5324 9.2908C12.5539 10.3562 11.3765 10.8889 10 10.8889C8.62351 10.8889 7.44606 10.3562 6.46763 9.2908C5.48921 8.2254 5 6.94329 5 5.44444C5 4.46412 5.22693 3.55266 5.6808 2.71007C3.97693 3.65799 2.55952 5.08796 1.42857 7C2.41815 8.66088 3.65885 9.98351 5.15067 10.9679C6.64249 11.9523 8.25893 12.4444 10 12.4444C11.7411 12.4444 13.3575 11.9523 14.8493 10.9679C16.3411 9.98351 17.5818 8.66088 18.5714 7ZM10.5357 2.33333C10.5357 2.1713 10.4836 2.03356 10.3795 1.92014C10.2753 1.80671 10.1488 1.75 10 1.75C9.06994 1.75 8.27195 2.11256 7.60603 2.83767C6.9401 3.56279 6.60714 4.43171 6.60714 5.44444C6.60714 5.60648 6.65923 5.74421 6.76339 5.85764C6.86756 5.97106 6.99405 6.02778 7.14286 6.02778C7.29167 6.02778 7.41815 5.97106 7.52232 5.85764C7.62649 5.74421 7.67857 5.60648 7.67857 5.44444C7.67857 4.74768 7.90551 4.1522 8.35938 3.65799C8.81324 3.16377 9.36012 2.91667 10 2.91667C10.1488 2.91667 10.2753 2.85995 10.3795 2.74653C10.4836 2.6331 10.5357 2.49537 10.5357 2.33333ZM20 7C20 7.27546 19.9256 7.55498 19.7768 7.83854C18.7351 9.70197 17.3344 11.1947 15.5748 12.3168C13.8151 13.4389 11.9568 14 10 14C8.04315 14 6.1849 13.4369 4.42522 12.3108C2.66555 11.1846 1.26488 9.69387 0.223214 7.83854C0.0744048 7.55498 0 7.27546 0 7C0 6.72454 0.0744048 6.44502 0.223214 6.16146C1.26488 4.30613 2.66555 2.81539 4.42522 1.68924C6.1849 0.563079 8.04315 0 10 0C11.9568 0 13.8151 0.563079 15.5748 1.68924C17.3344 2.81539 18.7351 4.30613 19.7768 6.16146C19.9256 6.44502 20 6.72454 20 7Z" fill="#C8C9CD"/>
</svg>
