<svg width="10" height="11" viewBox="0 0 10 11" fill="none" xmlns="http://www.w3.org/2000/svg">
<path d="M8.125 3.85V2.75C8.125 1.21 6.75 0 5 0C3.25 0 1.875 1.21 1.875 2.75V3.85C0.8125 3.85 0 4.565 0 5.5V9.35C0 10.285 0.8125 11 1.875 11H8.125C9.1875 11 10 10.285 10 9.35V5.5C10 4.565 9.1875 3.85 8.125 3.85ZM3.125 2.75C3.125 1.815 3.9375 1.1 5 1.1C6.0625 1.1 6.875 1.815 6.875 2.75V3.85H3.125V2.75ZM5.6875 7.425L5.625 7.48V8.25C5.625 8.58 5.375 8.8 5 8.8C4.625 8.8 4.375 8.58 4.375 8.25V7.48C4 7.15 3.9375 6.655 4.3125 6.325C4.6875 5.995 5.25 5.94 5.625 6.27C6 6.545 6.0625 7.095 5.6875 7.425Z" fill="#9B9DA8"/>
</svg>
