<svg width="614" height="861" viewBox="0 0 614 861" fill="none" xmlns="http://www.w3.org/2000/svg">
<g clip-path="url(#clip0_176_3223)">
<path d="M476.235 702.999C475.278 703.076 474.436 702.908 473.647 702.594H473.64C473.555 702.563 473.471 702.533 473.395 702.494C471.634 701.737 470.18 700.298 468.572 699.349C449.573 688.129 430.397 677.216 411.29 666.18C410.089 665.483 408.895 664.925 407.608 664.619C407.409 664.565 407.203 664.519 406.996 664.489H406.988C406.705 664.435 406.43 664.397 406.131 664.381C406.039 664.366 405.947 664.358 405.856 664.358C405.802 664.351 405.741 664.343 405.687 664.343C405.412 663.999 405.22 663.616 405.082 663.195C404.378 651.463 404.669 639.738 404.899 628.013C404.952 627.707 405.044 627.409 405.151 627.118C405.19 627.018 405.228 626.919 405.274 626.82C405.343 626.728 405.412 626.636 405.48 626.559C405.603 626.414 405.725 626.284 405.856 626.184C405.94 626.108 406.032 626.039 406.123 625.985C407.417 625.159 408.726 626.261 409.928 626.911C416.412 630.409 422.719 634.228 429.165 637.794C432.043 639.386 432.395 639.21 432.449 636.065C432.518 632.131 432.441 628.189 432.472 624.256C432.495 622.006 431.676 620.467 429.655 619.296C417.139 612.018 404.562 604.832 392.031 597.577C389.298 595.992 388.862 596.283 388.785 599.505C388.716 602.169 388.969 604.855 388.724 607.503C388.356 611.414 389.084 614.75 392.452 617.154C392.436 617.322 392.421 617.49 392.383 617.643C392.36 617.766 392.329 617.881 392.291 617.995C391.617 620.146 389.053 620.804 388.058 622.71C388.02 622.763 387.989 622.809 387.951 622.863C387.821 623.054 387.69 623.245 387.576 623.452C387.522 623.536 387.468 623.62 387.422 623.712C387.009 627.401 387.384 631.09 387.231 634.764C387.185 635.743 387.101 636.516 386.94 637.136C386.787 637.702 386.573 638.116 386.259 638.445C385.562 639.195 384.391 639.455 382.432 639.562C375.649 639.929 369.089 638.253 362.429 637.595C362.069 637.442 361.717 637.289 361.358 637.128C361.051 637.006 360.76 636.876 360.454 636.73H360.447C349.232 631.74 339.059 624.814 328.35 618.868C315.681 611.835 303.264 604.342 290.672 597.171C285.482 594.209 280.369 591.11 275.202 588.11C274.314 587.589 273.449 587.046 272.599 586.48C268.68 583.862 265.189 580.724 261.951 577.273C261.155 576.423 260.389 575.535 259.455 574.839H259.448C258.966 574.464 258.437 574.158 257.833 573.936C253.056 569.482 248.409 564.928 245.715 558.859C245.508 558.408 245.317 557.948 245.141 557.482C245.133 557.336 245.125 557.183 245.118 557.038C244.758 550.356 244.789 543.698 245.057 537.032C245.08 536.512 245.072 535.999 245.026 535.502C245.018 535.364 245.003 535.234 244.98 535.104C244.919 534.621 244.812 534.155 244.651 533.703C244.49 533.229 244.268 532.769 243.985 532.325C242.4 529.7 239.69 529.318 237.057 528.905C236.169 528.767 235.48 528.529 234.952 528.162C235.411 528.124 235.878 528.101 236.353 528.101C240.877 528.101 244.643 529.907 245.439 532.303C245.493 532.188 245.546 532.073 245.6 531.95C243.778 528.101 240.219 527.626 236.613 527.496C234.898 527.435 233.857 527.481 233.857 525.17C233.972 477.307 233.995 429.451 234.041 381.588C234.255 381.519 234.485 381.489 234.715 381.496C239.224 383.188 243.181 385.927 247.338 388.269C274.627 403.66 301.527 419.709 328.732 435.229C373.184 460.6 417.284 486.605 461.706 512.037C465.564 514.249 469.498 516.353 473.395 518.519C474.995 519.415 476.579 520.379 477.513 521.932C477.605 522.078 477.689 522.223 477.758 522.376C478.011 522.874 478.187 523.425 478.286 524.045C478.577 525.828 478.531 527.619 478.531 529.394C478.531 584.474 478.547 639.554 478.493 694.634C478.493 697.55 479.358 700.872 476.235 702.999Z" fill="#AD1829"/>
<path d="M383.205 309.61C379.898 307.712 376.53 305.906 373.307 303.878C373.215 303.817 373.123 303.763 373.031 303.717C371.531 302.868 370.322 302.99 368.791 303.878C324.109 329.776 279.412 355.629 234.715 381.496C241.022 386.938 248.7 390.152 255.804 394.277C285.605 411.581 315.551 428.648 345.397 445.883C371.5 460.952 397.535 476.144 423.615 491.251C441.436 501.575 459.287 511.853 477.13 522.155C477.345 522.262 477.559 522.338 477.758 522.377C478.998 522.652 479.978 521.772 480.966 521.183C494.607 513.017 508.408 505.126 522.195 497.205C551.957 480.1 581.765 463.072 611.375 445.707C611.497 445.638 611.612 445.569 611.734 445.5C612.699 444.651 613.472 443.755 612.538 442.408C611.719 441.834 610.946 441.191 610.089 440.694C561.426 412.561 512.756 384.443 464.094 356.325C461.224 357.389 462.226 359.937 462.211 361.851C462.104 379.943 462.142 398.035 462.165 416.12C462.165 419.028 461.912 421.668 459.073 423.413C452.045 427.729 445.049 432.107 437.669 435.834C437.31 436.018 436.942 436.202 436.582 436.378C436.575 436.378 436.567 436.378 436.559 436.378C434.255 435.949 432.395 434.571 430.42 433.462C417.728 426.405 405.419 418.66 392.613 411.834C386.94 408.811 384.82 405.298 384.912 398.754C385.302 371.257 385.095 343.743 385.042 316.238C385.042 314.148 385.608 311.799 383.855 310.13L383.205 309.618V309.61Z" fill="#D3485F"/>
<path d="M515.42 227.981C513.377 228.937 512.106 227.254 510.682 226.435C495.931 217.963 481.203 209.437 466.521 200.835C466.192 200.644 465.901 200.491 465.656 200.391C464.584 199.947 464.224 200.307 464.094 201.233C464.048 201.554 464.033 201.945 464.018 202.396C464.002 203.001 464.025 203.605 464.056 204.21C464.064 204.478 464.079 204.753 464.094 205.021V207.96C464.018 208.756 463.857 209.537 463.535 210.31C461.606 208.634 462.043 206.322 462.104 204.241C462.104 204.156 462.112 204.072 462.112 203.988C462.119 202.067 461.622 200.552 460.504 199.343C459.961 198.746 459.264 198.218 458.407 197.751C453.768 195.225 449.228 192.524 444.628 189.921C444.015 189.577 443.395 189.233 442.783 188.888C438.519 186.516 438.006 186.868 437.96 191.904C437.945 193.174 437.953 194.452 437.953 195.723C437.953 273.923 437.96 352.123 437.937 430.316C437.937 432.16 438.159 434.066 437.67 435.834C437.463 436.599 437.111 437.342 436.56 438.038C422.873 430.27 409.545 421.729 395.376 414.979C385.616 410.334 383.059 404.265 383.396 393.864C383.595 387.749 383.725 381.634 383.794 375.511C383.802 375.312 383.802 375.106 383.802 374.899C383.955 362.294 383.902 349.674 383.833 337.062L383.856 308.355C383.993 307.697 383.909 307 383.856 306.319C383.84 306.074 383.825 305.837 383.825 305.6C383.856 296.798 383.863 287.997 383.879 279.204C383.886 269.025 383.901 258.854 383.963 248.69C384.078 226.925 384.391 205.174 384.46 183.409C384.483 174.263 384.001 165.11 383.993 155.957C383.993 153.339 382.432 152.375 380.694 151.372C358.541 138.599 336.502 125.642 314.142 113.259C308.424 110.091 306.082 106.769 306.319 100.035C306.924 82.7461 306.587 65.4192 306.625 48.1001C308.003 47.35 309.044 48.1996 310.131 48.8195C333.364 61.9983 356.397 75.5138 379.661 88.639C382.562 90.2768 382.577 90.2462 382.746 86.8635C383.167 78.4603 383.526 70.0494 383.917 61.6462L384.659 62.0825C384.675 61.1794 384.675 60.2686 384.675 59.3656C384.675 56.1359 384.629 52.8986 384.522 49.6613C384.545 44.8398 384.575 40.0259 384.598 35.2044C384.636 28.5997 384.667 21.995 384.705 15.3979C388.265 15.6964 390.959 18 393.876 19.6072C407.448 27.1073 420.569 35.3881 434.194 42.8117C435.419 43.4852 436.651 44.2046 437.486 45.2913C437.57 45.3908 437.647 45.498 437.715 45.6128C438.06 46.1255 438.313 46.7148 438.45 47.4189C439.254 52.9139 438.037 58.34 438.014 63.7815C437.922 82.7308 437.884 101.68 438.037 120.606C438.006 120.882 438.006 121.142 438.029 121.379C438.052 121.601 438.098 121.808 438.159 121.992C438.573 123.216 439.79 123.813 441.007 124.51C464.27 137.719 487.319 151.311 510.537 164.597C512.175 165.538 513.958 166.396 514.984 167.995C515.053 168.102 515.122 168.209 515.175 168.324C515.428 168.783 515.612 169.288 515.719 169.87C516.301 185.085 515.864 200.292 515.956 215.491C515.979 219.654 516.408 223.856 515.42 227.981Z" fill="#EDECED"/>
<path d="M477.131 522.162C520.963 496.792 564.787 471.422 608.627 446.067C609.377 445.63 610.227 445.37 611.031 445.026C613.511 446.358 612.86 448.745 612.868 450.812C612.906 478.333 612.845 505.846 612.906 533.367C612.967 562.25 612.768 591.125 612.952 620.009C612.975 624.004 611.811 626.453 608.145 628.55C571.715 649.412 535.316 670.336 499.024 691.436C492.648 695.14 486.21 698.745 479.902 702.579C478.601 703.375 477.2 704.01 475.638 704.125C474.842 703.643 474.046 703.168 473.25 702.686C473.426 702.38 473.633 702.365 473.878 702.61C477.529 702.923 477.154 700.36 477.154 698.041C477.154 653.407 477.154 608.766 477.154 564.133C477.154 550.143 477.139 536.152 477.131 522.17V522.162Z" fill="#80111F"/>
<path d="M436.567 438.046C436.598 391.951 436.636 345.856 436.652 299.76C436.667 262.581 436.697 225.394 436.598 188.215C436.59 184.511 437.279 184.174 440.387 186.041C446.924 189.96 453.63 193.618 460.336 197.253C462.609 198.486 463.673 200.009 463.436 202.695C463.214 205.213 463.49 207.777 463.543 210.317C463.49 257.124 463.428 303.931 463.398 350.738C463.398 352.613 463.023 354.573 464.094 356.333C462.877 357.488 463.428 358.973 463.428 360.305C463.383 379.644 463.329 398.984 463.421 418.324C463.436 421.048 462.663 422.824 460.244 424.209C452.298 428.732 444.452 433.423 436.567 438.054V438.046Z" fill="#E4D8D7"/>
<path d="M514.64 168.194C489.226 153.576 463.812 138.951 438.39 124.341C437.624 123.905 436.629 123.63 437.425 122.428C438.022 120.859 439.469 120.232 440.77 119.474C445.815 116.543 450.722 113.359 455.927 110.742C459.249 109.073 461.706 106.609 464.049 103.884C463.949 106.203 464.73 107.688 466.981 108.989C491.178 122.948 515.275 137.076 539.411 151.135C540.85 151.969 542.236 152.505 542.221 154.686C542.137 173.391 542.167 192.095 542.129 210.799C542.129 211.396 541.777 211.986 541.585 212.583C539.672 211.06 540.215 208.871 540.207 206.927C540.146 191.689 540.177 176.444 540.177 161.207C540.177 160.189 540.162 159.171 540.154 158.161C540.146 155.62 538.944 155.398 537.008 156.5C532.92 158.827 528.924 161.299 524.882 163.702C522.701 165.003 520.511 166.296 518.215 167.391C517.09 167.926 516.003 168.715 514.632 168.209L514.64 168.194Z" fill="#FBFCFD"/>
<path d="M464.056 31.2328C463.803 30.9803 463.375 30.8119 462.686 30.766C462.67 30.7583 462.647 30.7583 462.632 30.7583C461.981 30.6665 461.384 30.8501 460.81 31.118C453.163 34.7609 446.266 39.7049 438.864 43.7764C438.244 44.1208 437.731 44.6182 437.486 45.2917C437.417 45.4601 437.371 45.6438 437.348 45.8351C437.126 51.5214 436.736 57.2078 436.713 62.8941C436.628 81.4148 436.674 99.9279 436.705 118.449C436.705 119.788 436.246 121.273 437.417 122.421C437.662 122.283 437.914 122.137 438.159 121.992C445.225 117.951 452.252 113.811 459.409 109.946C462.012 108.538 463.987 107.045 464.041 103.885C464.064 84.3536 464.087 64.8227 464.056 45.2917C464.056 41.5952 464.041 37.9064 464.033 34.2099C464.033 34.1257 464.041 34.0339 464.056 33.9344V31.2328Z" fill="#E6D8D8"/>
<path d="M384.659 62.0828C384.598 71.3967 384.2 80.703 383.924 90.0169C383.848 92.443 383.013 92.0986 381.436 91.1879C357.79 77.5881 334.121 64.019 310.46 50.4346C309.166 49.6922 307.903 48.881 306.625 48.1004C314.954 42.988 323.297 37.891 331.603 32.7327C332.797 31.998 333.639 32.3348 334.726 32.9623C346.553 39.8655 358.426 46.6922 370.245 53.6107L377.02 57.5903C378.619 58.5317 380.219 59.4807 381.819 60.4297C382.018 60.5445 382.194 60.644 382.355 60.7281H382.363L383.917 61.6465L384.659 62.0828Z" fill="#FBFCFD"/>
<path d="M26.7386 662.882C26.7386 666.188 26.7386 669.494 26.7386 672.8C28.1854 674.476 27.8868 676.482 27.8256 678.441C27.9174 679.665 27.8639 680.882 27.4199 682.038C25.6516 684.303 24.6641 682.022 23.447 681.303C22.5054 680.744 21.6021 679.321 20.5458 680.17C19.2521 681.211 20.5151 682.482 21.1122 683.5C22.5207 685.895 24.312 688.03 25.9961 690.234C26.907 691.428 28.0246 692.637 26.7156 694.252C26.7462 711.564 26.7769 728.875 26.8075 746.195C29.6857 753.679 26.2563 758.792 18.2493 758.937C15.9452 758.975 13.6946 758.738 11.5512 757.812C6.88176 755.799 5.35843 751.735 7.47118 746.929C7.54008 718.941 7.60132 690.954 7.67021 662.966C8.46632 662.17 9.30071 662.591 10.1351 662.889C14.8352 664.588 19.5353 664.619 24.2201 662.851C25.0622 662.53 25.8965 662.224 26.7233 662.882H26.7386Z" fill="#EDECED"/>
<path d="M168.125 832.607C168.125 813.007 168.125 793.407 168.125 773.799C166.755 771.695 166.947 769.345 167.038 767.011C166.862 765.618 166.87 764.218 167.038 762.825C167.191 760.406 167.008 757.98 167.176 755.562C167.352 753.029 168.684 751.995 171.004 753.182C175.099 755.286 179.133 754.582 183.267 753.434C186.788 752.462 187.531 752.944 187.615 756.381C187.906 767.799 186.765 779.187 186.604 790.598C186.865 805.889 185.923 821.196 187.301 836.471C189.988 842.234 187.301 847.706 181.169 848.885C179.156 849.275 177.12 849.267 175.091 849.007C168.409 848.142 165.745 844.362 167.475 837.834C167.942 836.073 167.398 834.267 168.141 832.599L168.125 832.607Z" fill="#EDECED"/>
<path d="M462.632 30.7581C454.204 35.7862 445.776 40.8067 437.348 45.8349C419.803 35.6867 402.25 25.5386 384.705 15.3981C393.057 10.4159 401.4 5.426 409.76 0.45142C411.474 -0.566456 412.921 0.328969 414.368 1.17082C429.356 9.92608 444.36 18.6584 459.325 27.4442C460.672 28.2325 462.479 28.707 462.632 30.7504V30.7581Z" fill="#FBFCFD"/>
<path d="M514.639 168.194C522.539 163.587 530.485 159.064 538.308 154.326C540.949 152.719 541.531 153.002 541.523 156.148C541.455 174.959 541.546 193.763 541.585 212.575C532.866 217.71 524.147 222.846 515.428 227.988C514.081 226.749 514.678 225.126 514.678 223.68C514.632 205.182 514.647 186.692 514.647 168.194H514.639Z" fill="#D9D5D6"/>
<path d="M247.537 608.253C247.376 611.559 247.583 614.881 247.475 618.195C247.407 618.562 247.368 618.922 247.361 619.289C247.345 619.932 247.384 620.567 247.399 621.218C247.537 626.973 246.044 629.276 241.053 631.06C236.529 632.682 229.839 631.19 227.389 627.998C225.896 626.07 225.766 623.781 225.858 621.493C225.889 620.667 225.919 619.848 225.95 619.021C226.011 616.687 226.019 614.353 225.789 612.018C225.789 598.518 225.529 585.01 225.919 571.533V571.388C225.935 567.255 228.767 564.293 230.466 560.857C231.025 559.724 231.867 558.752 232.472 557.635C233.031 556.586 233.383 555.5 232.449 554.466C231.66 553.609 230.696 553.51 229.678 553.969C228.706 554.405 227.764 554.826 227.09 553.548C227.098 547.441 227.098 541.341 227.106 535.234C227.328 535.188 227.557 535.165 227.764 535.165C229.846 535.157 231.354 537.048 233.49 537.094C237.784 537.178 242.063 537.476 244.651 533.703C244.934 533.29 245.202 532.823 245.439 532.303C245.493 532.188 245.546 532.073 245.6 531.951C246.649 540.698 245.845 549.484 246.151 558.247C246.159 558.469 246.166 558.699 246.174 558.921C246.013 558.913 245.86 558.89 245.715 558.859C243.656 558.438 243.319 556.135 241.926 554.987C240.915 554.153 240.058 552.415 238.481 553.739C237.218 554.803 238.213 556.074 238.871 557.153C240.785 560.321 243.12 563.183 245.401 566.084C246.335 567.27 247.483 568.365 247.43 570.079C247.376 570.408 247.345 570.745 247.33 571.081C247.292 571.77 247.315 572.467 247.338 573.163C247.56 579.025 247.812 584.88 246.963 590.72C246.113 596.59 247.82 602.383 247.537 608.253Z" fill="#E8E4E5"/>
<path d="M186.589 790.598C186.573 779.172 186.512 767.746 186.581 756.319C186.596 754.123 186.443 753.618 184.001 754.49C179.362 756.151 174.517 757.467 169.962 753.863C168.538 752.738 168.271 753.962 168.24 755.08C168.179 757.743 168.163 760.406 168.133 763.077C167.742 763.093 167.321 763.047 167.13 762.695C165.277 759.381 166.25 750.159 168.73 747.327C171.256 744.442 178.107 743.194 182.356 745.062C185.854 746.6 188.066 749.286 188.349 753.251C188.541 755.921 188.388 758.6 188.441 761.271C188.525 765.411 188.793 765.656 192.843 765.182C225.055 761.409 256.187 753.633 285.903 740.431C308.861 730.23 330.555 717.931 349.309 701.148C362.491 689.346 374.984 676.772 384.024 661.236C385.471 658.757 385.111 655.733 387.025 653.537C388.938 653.759 389.689 652.443 390.408 651.027C391.465 648.968 392.728 647.032 394.55 645.593C397.014 643.641 399.686 644.805 400.061 647.935C400.283 649.779 399.579 651.432 398.844 653.07C396.892 657.394 394.029 661.167 391.549 665.17C389.666 668.201 388.785 671.354 388.824 674.92C388.923 684.984 388.893 695.048 388.824 705.112C388.808 706.949 389.283 709.007 387.423 710.393C387.224 710.339 387.017 710.285 386.818 710.232C386.856 698.637 386.918 687.043 386.887 675.448C386.887 674.032 387.721 672.104 386.244 671.354C385.754 671.101 383.825 672.961 383.021 674.17C376.407 684.096 368.087 692.515 359.467 700.62C338.676 720.15 314.877 735.051 288.667 746.24C266.483 755.707 243.48 762.473 219.895 767.279C210.219 769.246 200.452 770.937 190.562 771.412C188.104 771.526 187.316 772.238 187.224 774.725C187.04 780.014 188.135 785.363 186.589 790.598Z" fill="#EDECED"/>
<path d="M227.098 553.548C227.688 553.747 228.239 554.015 228.744 553.318C230.451 550.938 232.058 552.515 233.536 553.579C235.335 554.872 234.608 556.441 233.658 557.88C231.186 561.645 228.667 565.388 227.052 569.635C212.332 593.054 193.195 612.24 170.59 627.991C151.161 641.529 130.233 652.244 107.942 660.287C88.0161 667.481 67.6847 673.152 46.848 677.04C42.0867 677.928 37.2794 678.509 32.4874 679.137C30.6349 679.382 28.6906 679.742 26.8228 679.007C26.7998 676.933 26.7769 674.866 26.7539 672.792C44.1305 671.53 61.1551 668.086 77.8657 663.425C108.501 654.884 137.651 642.792 164.068 624.784C188.617 608.054 209.155 587.421 224.419 561.775C225.919 559.25 227.159 556.602 227.106 553.548H227.098Z" fill="#EFEFF0"/>
<path d="M168.117 766.82C168.117 769.146 168.117 771.473 168.117 773.792C160.5 771.167 152.402 771.664 144.594 770.072C113.798 763.789 86.845 750.013 62.732 730.031C50.1473 719.6 39.4152 707.469 28.4916 695.461C28.0247 694.941 27.3204 694.642 26.7233 694.237C26.1798 690.318 22.4519 688.413 20.9515 685.114C20.0559 683.147 16.7873 681.234 19.3976 678.999C22.1534 676.642 23.3552 680.339 25.1541 681.578C25.6746 681.938 26.1569 682.344 26.6544 682.734C27.9252 682.964 28.5146 683.997 29.1729 684.915C36.8508 695.584 45.5008 705.426 55.0159 714.449C75.1559 733.544 97.4776 749.348 124.078 758.225C137.873 762.832 152.08 765.679 166.647 766.468C167.168 766.498 167.65 766.59 168.109 766.827L168.117 766.82Z" fill="#EDECED"/>
<path d="M475.638 704.117C497.492 691.42 519.34 678.708 541.217 666.042C564.075 652.802 586.948 639.585 609.859 626.437C611.887 625.274 611.727 623.644 611.727 621.876C611.742 603.531 611.765 585.194 611.765 566.849C611.765 527.856 611.765 488.856 611.765 449.863C611.765 448.217 611.964 446.533 611.03 445.033C611.972 444.413 612.408 443.503 612.538 442.416C614.505 442.975 613.908 444.59 613.908 445.898C613.908 504.897 613.885 563.888 613.954 622.886C613.954 625.412 613.112 626.728 610.992 627.945C567.305 653.063 523.665 678.257 479.993 703.398C478.723 704.125 477.421 705.9 475.645 704.125L475.638 704.117Z" fill="#80111F"/>
<path d="M406.139 664.122C406.353 664.229 406.583 664.298 406.828 664.313C407.486 664.19 407.724 664.481 407.601 665.116C406.445 666.096 406.797 667.443 406.797 668.668C406.782 681.341 406.82 694.015 406.767 706.689C406.767 708.587 407.119 709.742 408.994 710.89C412.286 712.911 414.001 716.179 413.679 720.235C409.232 727.123 402.151 728.194 394.978 727.926C389.122 727.704 383.389 726.105 380.112 720.304C380.112 715.452 380.686 710.99 386.826 710.232L386.979 710.316C387.737 710.921 387.882 711.801 388.096 712.666C389.658 719.018 397.719 721.72 402.847 717.648C404.83 716.071 404.73 713.867 404.746 711.732C404.807 701.194 404.761 690.655 404.776 680.117C404.776 676.305 404.723 672.502 404.807 668.691C404.845 667.076 404.639 665.338 406.139 664.129V664.122Z" fill="#FBFCFD"/>
<path d="M7.48682 746.922C7.90019 755.838 9.84453 757.781 18.2956 757.713C25.3993 757.659 26.4327 756.251 26.8155 746.179C34.6847 751.965 35.8789 754.651 33.6743 761.577C32.8552 760.031 32.105 760.108 30.5511 761.042C23.6387 765.174 16.244 766.078 8.49727 763.606C6.39983 762.932 4.26411 762.098 3.02401 760.292C1.46241 758.019 1.29401 760.062 0.635684 760.804C-1.33928 754.651 1.34759 749.218 7.47917 746.922H7.48682Z" fill="#FBFCFD"/>
<path d="M168.125 832.606C168.14 834.895 168.163 837.191 168.171 839.479C168.186 846.199 170.123 847.928 177.678 847.936C184.713 847.943 187.224 845.647 187.285 839.142C187.293 838.247 187.285 837.359 187.285 836.464C191.465 838.484 194.358 841.392 194.152 846.436C193.134 850.308 190.248 852.214 186.742 853.461C179.546 856.018 172.542 855.88 165.714 852.145C163.532 850.951 161.618 849.604 160.631 847.232C160.585 843.42 161.297 839.885 165.232 838.239C167.957 837.099 166.893 834.336 168.11 832.606H168.125Z" fill="#FBFCFD"/>
<path d="M245.026 535.502C244.184 536.933 242.554 537.683 240.487 537.943C240.28 537.966 240.074 537.997 239.867 538.02C239.852 538.027 239.836 538.027 239.821 538.027C238.535 538.196 237.241 538.349 235.963 538.395C232.779 538.509 229.709 537.958 227.106 535.234C227.328 535.188 227.558 535.165 227.765 535.165C227.336 534.576 227.099 533.925 227.099 533.252C227.099 530.673 230.505 528.537 234.953 528.162C235.412 528.124 235.879 528.101 236.353 528.101C240.877 528.101 244.644 529.907 245.44 532.303C245.493 532.188 245.547 532.073 245.601 531.951C245.784 533.435 245.562 534.606 245.026 535.502Z" fill="#FBFCFD"/>
<path d="M160.639 847.232C167.314 853.048 174.808 855.459 183.665 853.308C188.074 852.237 191.442 849.933 194.152 846.444C194.466 856.286 189.253 860.939 177.839 861.008C166.082 861.077 160.44 856.561 160.639 847.24V847.232Z" fill="#D4D3EC"/>
<path d="M380.113 720.296C391.266 730.406 405.06 728.003 413.68 720.235C415.157 730.659 402.557 735.182 393.494 733.712C383.006 732.013 379.921 728.776 380.113 720.296Z" fill="#D7DAFB"/>
<path d="M0.635742 760.804C0.80415 759.733 0.972558 758.653 1.14097 757.582C1.92177 758.171 2.76381 758.699 3.46806 759.373C9.56136 765.166 22.7048 765.373 30.8879 759.763C31.7759 759.159 32.5873 758.454 33.437 757.796C33.5136 759.059 33.5901 760.322 33.6667 761.585C30.8037 769.513 20.8064 773.149 10.3422 769.965C5.64205 768.534 1.07207 766.827 0.635742 760.812V760.804Z" fill="#DADAFB"/>
<path d="M26.7395 662.881C20.4012 666.356 14.0476 666.364 7.67875 662.958C7.58689 657.547 10.6718 655.167 17.6914 655.221C22.8814 655.259 26.8543 658.626 26.7318 662.881H26.7395Z" fill="#FBFCFD"/>
<path d="M407.601 665.116C407.341 664.849 407.081 664.581 406.828 664.313C407.287 662.193 408.405 663.708 408.994 664.053C430.26 676.405 451.494 688.811 472.722 701.232C473.211 701.523 473.51 702.143 473.893 702.602H473.571L473.265 702.678C451.831 690.372 430.405 678.058 408.971 665.759C408.535 665.514 408.068 665.323 407.617 665.109L407.601 665.116Z" fill="#AD1829"/>
<path d="M433.59 586.227C433.569 592.09 431.219 593.671 426.539 590.972C378.65 563.344 330.799 535.647 282.811 508.195C278.562 505.762 277.07 503.259 277.315 498.43C277.835 488.251 277.613 488.113 286.294 493.111C334.298 520.762 382.225 548.551 430.313 576.064C435.404 578.972 432.809 583.112 433.597 586.22L433.59 586.227Z" fill="#EBECEC"/>
<path d="M406.139 664.121C406.116 680.124 406.085 696.127 406.062 712.138C406.055 718.406 403.391 720.885 396.555 720.962C390.569 721.023 386.917 717.564 386.94 711.839C386.94 711.334 386.963 710.821 386.971 710.316C388.066 709.122 387.645 707.653 387.652 706.298C387.691 697.122 388.112 687.923 387.545 678.785C387.101 671.583 389.229 665.667 393.309 660.004C395.453 657.035 397.175 653.721 398.775 650.415C399.517 648.876 399.877 646.764 397.902 645.647C396.042 644.598 395.323 646.496 394.243 647.476C392.291 649.259 391.51 651.739 390.209 653.912C389.711 654.746 388.946 655.42 388.311 656.17C387.851 655.366 387.384 654.555 386.925 653.751C386.137 653.874 385.884 653.376 385.754 652.741C385.769 650.728 385.754 648.716 385.838 646.695C385.961 644.384 386.167 642.073 385.984 639.746C387.101 635.636 386.267 631.442 386.565 627.31C386.68 625.725 386.029 624.049 387.086 622.565C387.277 622.496 387.453 622.404 387.622 622.289C390.684 627.884 395.728 627.784 401.025 626.927C402.71 626.651 404.386 625.618 406.07 626.935C406.093 639.333 406.124 651.731 406.147 664.129L406.139 664.121Z" fill="#EDECED"/>
<path d="M394.535 532.594V540.89C391.618 540.568 389.613 538.464 387.24 537.109C364.834 524.29 342.512 511.318 320.068 498.552C316.983 496.8 315.276 495.047 315.766 491.243C316.24 487.501 316.041 483.667 316.133 479.878C320.068 480.667 323.145 483.192 326.49 485.106C346.906 496.784 367.153 508.762 387.653 520.28C392.958 523.264 396.64 526.318 394.535 532.586V532.594Z" fill="#ECECED"/>
<path d="M323.543 567.278C323.533 574.461 320.371 576.257 314.059 572.666C303.028 566.352 292.066 559.915 280.966 553.716C278.157 552.147 277.032 550.326 277.254 547.089C277.583 542.275 277.46 537.43 277.438 532.601C277.43 530.68 277.904 530.443 279.581 531.422C293.536 539.527 307.521 547.586 321.53 555.599C323.076 556.479 323.635 557.551 323.566 559.272C323.459 561.936 323.535 564.614 323.535 567.285L323.543 567.278Z" fill="#ECECEC"/>
<path d="M391.962 617.643C386.129 615.768 387.392 610.931 387.537 606.699C387.675 602.589 386.833 598.426 388.058 594.362C391.61 596.291 395.207 598.143 398.713 600.156C409.415 606.317 420.04 612.615 430.795 618.684C433.023 619.939 433.727 621.393 433.635 623.835C433.459 628.672 433.612 633.516 433.551 638.353C433.536 639.271 434.209 640.603 433.023 641.039C432.456 641.246 431.476 640.442 430.734 640.006C423.025 635.537 415.325 631.052 407.608 626.598C407.218 626.376 406.652 626.452 406.169 626.399C405.45 625.985 405.136 625.281 404.952 624.547C403.926 620.567 401.048 619.228 397.29 618.967C395.46 618.837 393.416 619.404 391.977 617.643H391.962Z" fill="#EDECEF"/>
<path d="M391.962 617.644C393.845 617.689 395.721 617.728 397.604 617.774C403.284 617.904 405.825 620.468 406.154 626.406C406.2 626.598 406.169 626.766 406.062 626.927C401.163 627.952 396.341 629.682 391.235 627.646C388.663 626.621 387.308 625.09 387.614 622.281C387.897 619.641 390.783 619.45 391.962 617.644Z" fill="#FAFBFD"/>
<path d="M372.304 595.166C372.366 596.972 371.791 597.761 370.061 596.758C360.034 590.957 350.013 585.156 339.993 579.347C338.194 578.306 337.98 576.347 338.822 575.061C339.71 573.699 341.072 575.322 342.037 575.865C351.345 581.123 360.6 586.465 369.862 591.791C371.217 592.572 372.565 593.36 372.304 595.166Z" fill="#E5E1E2"/>
<path d="M273.855 587.865C267.639 584.222 262.893 578.995 258.361 573.538C259.226 572.551 259.739 573.5 260.137 573.982C269.522 585.408 282.849 591.271 295.128 598.526C315.199 610.388 335.515 621.83 355.755 633.417C357.615 634.481 359.643 635.269 361.595 636.18C361.687 637.771 360.684 637.144 359.919 637.006C359.222 636.777 358.518 636.547 357.822 636.317C354.155 636.203 351.476 633.815 348.567 632.108C325.089 618.363 301.397 604.993 277.912 591.263C276.335 590.337 275.118 589.112 273.863 587.873L273.855 587.865Z" fill="#AD1829"/>
<path d="M359.911 636.998C360.47 636.723 361.029 636.447 361.588 636.172C368.898 637.427 376.193 638.69 383.672 638.453C385.762 638.384 386.19 637.366 386.175 635.583C386.129 631.289 386.175 626.996 386.198 622.695C386.198 622.61 386.336 622.457 386.412 622.45C386.634 622.45 386.856 622.503 387.086 622.542C387.032 628.595 386.971 634.649 386.918 640.695C377.732 640.802 368.776 639.256 359.926 636.991L359.911 636.998Z" fill="#AD1829"/>
<path d="M246.213 618.531C251.632 621.914 255.001 626.261 253.117 633.103C251.548 632.429 250.476 633.531 249.29 634.197C242.975 637.741 236.162 637.932 229.318 636.715C225.361 636.011 221.916 634.037 220.194 630.011C219.704 625.71 220.431 622.121 224.863 619.932C228.009 618.371 225.139 614.613 227.014 612.409C227.029 615.577 227.052 618.746 227.068 621.914C227.098 627.738 230.742 630.922 237.195 630.753C243.051 630.6 246.159 627.562 246.174 621.96C246.174 620.82 246.197 619.679 246.205 618.539L246.213 618.531Z" fill="#F2F1F0"/>
<path d="M386.251 652.948C382.653 650.904 379.048 648.861 375.45 646.825C379.27 646.856 383.082 646.894 386.902 646.932C386.894 648.96 387.69 651.08 386.251 652.955V652.948Z" fill="#AD1829"/>
<path d="M220.201 630.011C230.413 638.185 240.885 638.598 251.372 631.389C254.066 629.537 252.597 632.468 253.125 633.103C251.893 639.983 245.6 643.848 235.802 643.726C232.074 643.68 228.553 642.754 225.192 641.177C220.339 638.889 219.581 634.756 220.201 630.011Z" fill="#EDECED"/>
<path d="M387.032 648.822C387.032 648.822 344.18 646.741 308.126 624.891C272.951 603.569 245.554 571.364 236.698 555.936C236.323 555.277 236.43 554.451 236.966 553.915L238.673 552.208C239.369 551.512 240.517 551.566 241.145 552.323C248.058 560.642 285.49 604.977 315.681 619.61C349.209 635.866 357.622 638.498 386.902 640.702L387.025 648.815L387.032 648.822Z" fill="#EFEFF0"/>
<path d="M245.975 532.686H227.105V541.732H245.975V532.686Z" fill="#E8E4E5"/>
<path d="M245.967 532.685C245.967 533.412 245.737 534.101 245.332 534.744C244.405 536.213 242.507 537.384 240.119 537.981C240.103 537.989 240.088 537.989 240.073 537.989C238.978 538.265 237.784 538.418 236.536 538.418C236.406 538.418 236.268 538.418 236.138 538.402C232.334 538.318 229.119 536.856 227.779 534.821C227.343 534.17 227.098 533.443 227.098 532.693C227.098 529.831 230.573 527.458 235.105 527.045C235.572 526.999 236.046 526.976 236.536 526.976C241.152 526.976 244.987 528.981 245.806 531.637C245.913 531.974 245.967 532.333 245.967 532.693V532.685Z" fill="#FBFCFD"/>
</g>
<defs>
<clipPath id="clip0_176_3223">
<rect width="614" height="861" fill="white"/>
</clipPath>
</defs>
</svg>
