<svg width="16" height="15" viewBox="0 0 12 11" fill="none" xmlns="http://www.w3.org/2000/svg">
<path fill-rule="evenodd" clip-rule="evenodd" d="M6 11C9.3138 11 12 8.53765 12 5.5C12 2.46235 9.3138 0 6 0C2.6862 0 0 2.46235 0 5.5C0 8.53765 2.6862 11 6 11ZM7.8 4.4C7.8 4.83761 7.61036 5.25729 7.27279 5.56673C6.93523 5.87616 6.47739 6.05 6 6.05C5.52261 6.05 5.06477 5.87616 4.72721 5.56673C4.38964 5.25729 4.2 4.83761 4.2 4.4C4.2 3.96239 4.38964 3.54271 4.72721 3.23327C5.06477 2.92384 5.52261 2.75 6 2.75C6.47739 2.75 6.93523 2.92384 7.27279 3.23327C7.61036 3.54271 7.8 3.96239 7.8 4.4ZM2.4 8.25C2.81881 7.73734 3.36226 7.32127 3.98719 7.03485C4.61212 6.74842 5.30131 6.59953 6 6.6C6.69869 6.59953 7.38788 6.74842 8.01281 7.03485C8.63774 7.32127 9.1812 7.73734 9.6 8.25C9.1812 8.76266 8.63774 9.17873 8.01281 9.46515C7.38788 9.75158 6.69869 9.90047 6 9.9C5.30131 9.90047 4.61212 9.75158 3.98719 9.46515C3.36226 9.17873 2.81881 8.76266 2.4 8.25Z" fill="#9B9DA8"/>
</svg>
