<svg width="26" height="27" viewBox="0 0 26 27" fill="none" xmlns="http://www.w3.org/2000/svg">
<g clip-path="url(#clip0_188_127)">
<path d="M12.1104 3.38899C11.8286 3.38899 11.5371 3.39697 11.2473 3.38739C10.7254 3.36984 10.3464 2.98756 10.3576 2.50314C10.3681 2.07378 10.7535 1.72902 11.2529 1.71386C11.5323 1.70508 11.8117 1.71226 12.1586 1.71226C12.1586 1.42895 12.1489 1.16958 12.1602 0.91101C12.1867 0.330021 12.5215 -0.00755849 13.0514 -0.000375939C13.4914 0.00521049 13.8254 0.39227 13.8431 0.926971C13.8511 1.17517 13.8447 1.42416 13.8447 1.71226C14.1691 1.71226 14.4477 1.70747 14.7255 1.71306C15.2626 1.72503 15.6384 2.07777 15.6424 2.56699C15.6464 2.98038 15.2602 3.34988 14.7608 3.3834C14.471 3.40335 14.1779 3.38659 13.8479 3.38659C13.8479 3.75929 13.819 4.09208 13.8607 4.41609C13.8792 4.56214 14.0141 4.71776 14.1361 4.8231C15.8696 6.32745 17.6184 7.81424 19.3455 9.32576C20.7883 10.5875 20.6494 10.0839 20.5587 12.0057C20.5081 13.0767 20.8276 13.6864 21.7831 14.182C23.0477 14.8388 24.2176 15.6727 25.438 16.4157C25.8338 16.6568 26.0016 16.9752 26 17.4341C25.9904 20.24 25.996 23.0468 25.9952 25.8528C25.9952 26.6868 25.707 26.9701 24.8527 26.9717C19.0596 26.9813 13.2658 26.99 7.47275 26.998C5.37233 27.0004 3.2711 26.9996 1.17067 26.998C0.327611 26.998 0.00724791 26.678 0.00644499 25.8408C0.00564207 23.0612 0.0128683 20.2815 2.16687e-05 17.5019C-0.00238708 16.9792 0.195933 16.6296 0.641551 16.3599C2.12614 15.4605 3.59387 14.5347 5.07846 13.6345C5.32736 13.4837 5.42693 13.3193 5.41809 13.0304C5.39802 12.3927 5.42933 11.7535 5.40605 11.1158C5.38839 10.6346 5.57225 10.2826 5.93276 9.9714C7.80195 8.35851 9.6334 6.70094 11.5403 5.13435C12.1521 4.63157 12.2324 4.10485 12.1104 3.38979V3.38899ZM18.8541 25.299C18.8613 25.1537 18.8733 25.0244 18.8741 24.8951C18.8838 20.4667 18.8886 16.0375 18.9079 11.609C18.9095 11.2866 18.8155 11.0719 18.5698 10.862C16.7737 9.32736 14.9904 7.77912 13.2016 6.23647C13.1349 6.17901 13.0538 6.13751 12.9864 6.09362C12.931 6.13113 12.8956 6.15028 12.8659 6.17582C11.0088 7.78152 9.14924 9.38482 7.30173 11.0025C7.18451 11.1046 7.11064 11.3185 7.11064 11.4805C7.10421 12.9162 7.12509 14.3527 7.1267 15.7885C7.13071 18.794 7.1275 21.8003 7.1275 24.8058V25.2974H9.20464C9.20464 25.1218 9.20464 24.9662 9.20464 24.8097C9.21106 22.8681 9.17092 20.9248 9.23756 18.9855C9.30902 16.9081 11.2368 15.3024 13.3212 15.49C15.2442 15.6632 16.7344 17.1883 16.7753 19.1052C16.8155 21.0062 16.789 22.9088 16.7914 24.8105C16.7914 24.9662 16.7914 25.121 16.7914 25.2982H18.8557L18.8541 25.299ZM24.281 25.3013C24.2914 25.2343 24.3051 25.184 24.3051 25.1338C24.3067 22.7276 24.3107 20.3207 24.2978 17.9145C24.2978 17.7892 24.187 17.6176 24.0762 17.5474C23.018 16.8746 21.9485 16.2178 20.8806 15.5594C20.81 15.5155 20.7257 15.4948 20.6454 15.4629V25.3013H24.2818H24.281ZM5.37152 15.4261C5.21094 15.5219 5.09934 15.5874 4.98934 15.6552C3.98971 16.2705 2.9949 16.8938 1.98643 17.4947C1.75841 17.6304 1.68855 17.7788 1.68936 18.035C1.69899 20.3342 1.69498 22.6334 1.69578 24.9326C1.69578 25.0492 1.70541 25.1649 1.71103 25.2926H5.37233V15.4261H5.37152ZM10.8948 25.2734H15.0892C15.0892 23.1594 15.1382 21.0724 15.0707 18.9895C15.0306 17.7732 13.7483 16.9161 12.5809 17.1891C11.4777 17.4468 10.894 18.2106 10.89 19.43C10.8851 20.9583 10.8924 22.4874 10.8948 24.0157C10.8948 24.4259 10.8948 24.8361 10.8948 25.2734Z" fill="white"/>
<path d="M13.0297 13.6183C11.5908 13.6215 10.4395 12.517 10.4395 11.1332C10.4395 9.71342 11.6133 8.5714 13.0682 8.57619C14.3769 8.58018 15.5524 9.77727 15.558 11.1108C15.5637 12.4891 14.4283 13.6151 13.0289 13.6183H13.0297ZM12.9967 10.2537C12.5222 10.2585 12.1336 10.6464 12.1352 11.1132C12.1368 11.5737 12.5431 11.9695 13.0104 11.9648C13.4729 11.96 13.8791 11.5522 13.8735 11.0981C13.8679 10.6264 13.4753 10.2489 12.9967 10.2537Z" fill="white"/>
</g>
<defs>
<clipPath id="clip0_188_127">
<rect width="26" height="27" fill="white"/>
</clipPath>
</defs>
</svg>
