<svg width="281" height="180" viewBox="0 0 281 180" fill="none" xmlns="http://www.w3.org/2000/svg">
<rect width="281" height="180" rx="14" fill="white"/>
<path d="M135.456 70.9169V87.7573H145.843C148.316 87.7573 150.362 86.9263 151.981 85.2645C153.645 83.6048 154.476 81.6284 154.475 79.3355C154.475 77.0915 153.644 75.137 151.981 73.4721C150.361 71.7661 148.315 70.9128 145.843 70.9123H135.456V70.9169ZM135.456 93.6866V113.222H129.254V64.9883H145.71C149.891 64.9883 153.441 66.3805 156.36 69.1648C159.332 71.9481 160.817 75.3384 160.814 79.3355C160.814 83.4245 159.329 86.8372 156.359 89.5738C153.483 92.3152 149.933 93.6848 145.709 93.6828H135.456L135.456 93.6866ZM167.082 103.116C167.082 104.736 167.768 106.084 169.14 107.16C170.513 108.235 172.117 108.775 173.962 108.775C176.572 108.775 178.892 107.808 180.938 105.879C182.985 103.949 184.007 101.681 184.007 99.0798C182.075 97.5494 179.378 96.7854 175.916 96.7877C173.398 96.7877 171.296 97.3947 169.612 98.6088C167.928 99.8209 167.082 101.319 167.082 103.116H167.082ZM175.11 79.1373C179.698 79.1373 183.317 80.361 185.969 82.8085C188.62 85.2559 189.945 88.612 189.945 92.8766V113.221H184.011V108.642H183.741C181.18 112.412 177.764 114.297 173.494 114.297C169.853 114.297 166.806 113.22 164.355 111.067C161.902 108.906 160.676 106.21 160.677 102.979C160.677 99.567 161.969 96.8516 164.552 94.8323C167.135 92.813 170.586 91.8021 174.904 91.7995C178.59 91.7995 181.624 92.4728 184.008 93.8193V92.4036C184.008 90.2483 183.154 88.4189 181.446 86.9155C179.734 85.4092 177.741 84.6601 175.445 84.6601C171.98 84.6601 169.239 86.1201 167.22 89.0403L161.754 85.6024C164.771 81.2905 169.223 79.1349 175.11 79.1357L175.11 79.1373Z" fill="#5F6368"/>
<path d="M223.998 80.2109L203.291 127.768H196.886L204.575 111.13L190.953 80.2109H197.7L207.544 103.923H207.677L217.251 80.2109H223.998Z" fill="#5F6368"/>
<path d="M110.393 89.4774C110.395 87.5883 110.235 85.7026 109.915 83.8408H83.75V94.5142H98.7357C98.0934 97.9944 96.1484 100.956 93.1955 102.936V109.868H102.14C107.375 105.043 110.395 97.9099 110.395 89.4774H110.393Z" fill="#4285F4"/>
<path d="M83.747 116.562C91.2348 116.562 97.5383 114.105 102.136 109.868L93.1944 102.936C90.7051 104.612 87.4988 105.59 83.7489 105.59C76.5126 105.59 70.3703 100.717 68.173 94.1494H58.957V101.289C63.5232 110.344 72.9077 116.562 83.747 116.562Z" fill="#34A853"/>
<path d="M68.1685 94.1496C67.0084 90.7087 67.0084 86.9823 68.1685 83.5414V76.4004H58.9545C57.0118 80.261 56 84.5227 56 88.8445C56 93.1663 57.0118 97.4281 58.9545 101.289L68.1685 94.1496Z" fill="#FABB05"/>
<path d="M83.747 72.1009C87.8359 72.1009 91.5006 73.505 94.3906 76.2577V76.2616L102.31 68.351C97.5002 63.8763 91.2309 61.1309 83.747 61.1309C72.9073 61.1309 63.5232 67.3457 58.957 76.4008L68.1711 83.5399C70.3699 76.9721 76.5106 72.1009 83.747 72.1009Z" fill="#E94235"/>
</svg>
