<svg width="281" height="180" viewBox="0 0 281 180" fill="none" xmlns="http://www.w3.org/2000/svg">
<rect width="281" height="180" rx="14" fill="white"/>
<path d="M150.57 70.5814H160.921L155.715 108.481H145.364L150.57 70.5814ZM137.519 70.5814L130.534 92.4128L127.486 70.5814H120.245L111.099 92.3465L109.955 70.5814H99.9219L103.414 108.481H111.734L122.023 84.5114L125.642 108.481H133.836L147.361 70.5814H137.519ZM224.43 92.6079H199.854C199.98 97.5322 202.872 100.771 207.125 100.771C210.331 100.771 212.874 99.0227 214.84 95.6865L223.137 99.5339C220.287 105.262 214.278 109 206.869 109C196.77 109 190.073 102.07 190.073 90.9262C190.073 78.6818 197.949 70 209.061 70C218.842 70 225 76.7387 225 87.231C225 88.9791 224.809 90.7311 224.43 92.6079ZM215.219 85.3542C215.219 80.9489 212.805 78.1629 208.931 78.1629C205.056 78.1629 201.628 81.0776 200.737 85.3542H215.215H215.219ZM67.5689 82.0024L57 94.6018H75.8694L77.9924 88.6591H69.906L74.8481 82.8335L74.8634 82.6774L71.6503 77.0391H86.1016L74.8978 108.481H82.5634L96.0891 70.5814H61.1426L67.565 82.0024H67.5689ZM177.752 78.1629C181.405 78.1629 184.603 80.1646 187.399 83.5983L188.868 72.9148C186.263 71.116 182.74 70 178.073 70C168.801 70 163.595 75.5408 163.595 82.5682C163.595 87.4417 166.261 90.4228 170.645 92.3504L172.741 93.322C176.646 95.0232 177.695 95.866 177.695 97.6609C177.695 99.4558 175.931 100.704 173.25 100.704C168.82 100.72 165.232 98.4062 162.532 94.4535L161.036 105.34C164.111 107.732 168.051 108.996 173.25 108.996C182.063 108.996 187.475 103.814 187.475 96.623C187.475 91.7339 185.349 88.5889 179.982 86.1268L177.695 85.0264C174.52 83.5866 173.441 82.7906 173.441 81.2025C173.441 79.4856 174.917 78.159 177.76 78.159L177.752 78.1629Z" fill="#73737C"/>
</svg>
