<svg width="21" height="21" viewBox="0 0 21 21" fill="none" xmlns="http://www.w3.org/2000/svg">
  <path d="M20.5486 10.664C20.5486 9.83452 20.4797 9.22925 20.3306 8.60156H10.6382V12.3453H16.3274C16.2128 13.2756 15.5934 14.6767 14.2169 15.6182L14.1976 15.7436L17.2622 18.0635L17.4745 18.0842C19.4244 16.3244 20.5486 13.7352 20.5486 10.664Z" fill="#73737C"/>
  <path d="M10.6392 20.5278C13.4264 20.5278 15.7664 19.6311 17.4755 18.0843L14.2179 15.6183C13.3462 16.2124 12.1762 16.6271 10.6392 16.6271C7.90925 16.6271 5.59226 14.8674 4.76631 12.4351L4.64525 12.4451L1.45866 14.855L1.41699 14.9682C3.11459 18.2636 6.60158 20.5278 10.6392 20.5278Z" fill="#73737C"/>
  <path d="M4.76539 12.4354C4.54746 11.8078 4.42133 11.1352 4.42133 10.4403C4.42133 9.74528 4.54746 9.07277 4.75392 8.44509L4.74815 8.31141L1.52163 5.86279L1.41607 5.91186C0.716408 7.27935 0.314941 8.81499 0.314941 10.4403C0.314941 12.0655 0.716408 13.6011 1.41607 14.9686L4.76539 12.4354Z" fill="#73737C"/>
  <path d="M10.6392 4.25269C12.5776 4.25269 13.8852 5.07093 14.6308 5.75472L17.5443 2.97491C15.755 1.34964 13.4264 0.352051 10.6392 0.352051C6.60158 0.352051 3.11459 2.61621 1.41699 5.91158L4.75485 8.44481C5.59226 6.0125 7.90925 4.25269 10.6392 4.25269Z" fill="#73737C"/>
</svg>
