<svg width="666" height="781" viewBox="0 0 666 781" fill="none" xmlns="http://www.w3.org/2000/svg">
<g clip-path="url(#clip0_178_3309)">
<path d="M666 581.976L241.873 508.428L336.34 717.717L666 738.397V581.976Z" fill="white"/>
<path d="M341.096 265.961L226.257 319.318V530.824L241.873 508.427L283.671 514.959L341.096 563.361V265.961Z" fill="#E9E3E3"/>
<path d="M341.096 265.961L455.935 319.318V563.361H341.096V265.961Z" fill="white"/>
<path d="M226.257 319.319L341.096 58.0195V265.961L226.257 319.319Z" fill="#E6E4E4"/>
<path d="M455.935 319.319L341.096 58.0195V265.961L455.935 319.319Z" fill="#F0EEEE"/>
<path d="M249.246 369.546V462.84L311.753 444.551V343.541L280.5 311.103L249.246 369.546Z" fill="#D2CECE"/>
<path d="M261.42 381.913L292.575 323.644L280.5 311.103L249.246 369.546V462.84L261.42 459.276V381.913Z" fill="white"/>
<path d="M280.5 311.103L249.246 369.546L261.42 381.913L292.575 323.644L280.5 311.103Z" fill="#CE172D"/>
<path d="M433.119 369.546V462.84L370.623 444.551V343.541L401.866 311.103L433.119 369.546Z" fill="#D2CECE"/>
<path d="M420.957 381.913L389.79 323.644L401.866 311.103L433.119 369.546V462.84L420.957 459.276V381.913Z" fill="#E9E3E3"/>
<path d="M401.866 311.103L433.119 369.546L420.957 381.913L389.79 323.644L401.866 311.103Z" fill="#CE172D"/>
<path d="M327.206 55.9439L372.154 43.8923L356.701 39.4585L313.61 52.0426L327.206 55.9439Z" fill="#D2CECE"/>
<path d="M372.154 43.8921V21.2234L356.701 16.4854V39.4584L372.154 43.8921Z" fill="white"/>
<path d="M355.43 5.95516L341.117 0V87.9799L355.43 90.3707V5.95516Z" fill="white"/>
<path d="M356.701 16.4854L313.61 31.721V51.999L356.701 39.4584V16.4854Z" fill="#E9E3E3"/>
<path d="M326.805 5.95516L341.117 0V87.9799L326.805 90.3707V5.95516Z" fill="#E9E3E3"/>
<path d="M355.43 48.3804L341.117 44.0118L356.701 39.4585L372.154 43.8923L355.43 48.3804Z" fill="#D2CECE"/>
<path d="M79.7302 535.889L0 572.935V849.469H79.7302V535.889Z" fill="#E9E3E3"/>
<path d="M79.7305 535.889L159.472 572.935V849.469H79.7305V535.889Z" fill="white"/>
<path d="M0 572.935L79.7302 391.509V535.889L0 572.935Z" fill="#E6E4E4"/>
<path d="M159.472 572.935L79.7305 391.509V535.889L159.472 572.935Z" fill="#F0EEEE"/>
<path d="M15.9639 607.807V672.586L59.3583 659.893V589.757L37.6611 567.229L15.9639 607.807Z" fill="#D2CECE"/>
<path d="M143.627 607.807V672.586L100.232 659.893V589.757L121.93 567.229L143.627 607.807Z" fill="#D2CECE"/>
<path d="M135.179 616.392L113.547 575.934L121.93 567.229L143.628 607.807V672.586L135.179 670.108V616.392Z" fill="#E9E3E3"/>
<path d="M121.93 567.229L143.628 607.807L135.179 616.392L113.547 575.934L121.93 567.229Z" fill="#CE172D"/>
<path d="M70.098 390.074L101.297 381.706L90.5681 378.62L60.6611 387.368L70.098 390.074Z" fill="#D2CECE"/>
<path d="M101.298 381.707V365.971L90.5684 362.678V378.62L101.298 381.707Z" fill="white"/>
<path d="M89.6884 355.364L79.752 351.224V412.319L89.6884 413.971V355.364Z" fill="white"/>
<path d="M90.5681 362.678L60.6611 373.252V387.336L90.5681 378.62V362.678Z" fill="#E9E3E3"/>
<path d="M69.8154 355.364L79.7518 351.224V412.319L69.8154 413.971V355.364Z" fill="#E9E3E3"/>
<path d="M89.6884 384.814L79.752 381.782L90.568 378.62L101.297 381.706L89.6884 384.814Z" fill="#D2CECE"/>
<path d="M551.161 397.833L436.322 451.19V849.469H551.161V397.833Z" fill="#E9E3E3"/>
<path d="M551.161 397.833L666 451.19V849.469H551.161V397.833Z" fill="white"/>
<path d="M436.322 451.191L551.161 189.892V397.833L436.322 451.191Z" fill="#E6E4E4"/>
<path d="M666 451.191L551.161 189.892V397.833L666 451.191Z" fill="#F0EEEE"/>
<path d="M459.312 501.418V594.712L521.819 576.423V475.413L490.565 442.975L459.312 501.418Z" fill="#D2CECE"/>
<path d="M471.485 513.785L502.641 455.516L490.565 442.975L459.312 501.418V594.712L471.485 591.148V513.785Z" fill="white"/>
<path d="M490.565 442.975L459.312 501.418L471.485 513.785L502.641 455.516L490.565 442.975Z" fill="#CE172D"/>
<path d="M643.185 501.418V594.712L580.688 576.423V475.413L611.931 442.975L643.185 501.418Z" fill="#D2CECE"/>
<path d="M631.022 513.785L599.855 455.516L611.931 442.975L643.185 501.418V594.712L631.022 591.148V513.785Z" fill="#E9E3E3"/>
<path d="M611.931 442.975L643.185 501.418L631.022 513.785L599.855 455.516L611.931 442.975Z" fill="#CE172D"/>
<path d="M537.272 187.816L582.219 175.764L566.766 171.331L523.676 183.915L537.272 187.816Z" fill="#D2CECE"/>
<path d="M582.22 175.764V153.095L566.767 148.357V171.33L582.22 175.764Z" fill="white"/>
<path d="M565.495 137.827L551.183 131.872V219.852L565.495 222.243V137.827Z" fill="white"/>
<path d="M566.766 148.357L523.676 163.593V183.871L566.766 171.33V148.357Z" fill="#E9E3E3"/>
<path d="M536.87 137.827L551.183 131.872V219.852L536.87 222.243V137.827Z" fill="#E9E3E3"/>
<path d="M565.495 180.252L551.183 175.884L566.766 171.331L582.219 175.764L565.495 180.252Z" fill="#D2CECE"/>
<path d="M413.963 656.427L241.873 508.428L95.9326 717.706H95.9869L95.9326 717.717L413.963 656.427Z" fill="#E9E3E3"/>
<path d="M132.193 723.704L256.903 544.876L403.94 671.336L426.408 667L254.318 519.001L108.378 728.279L108.432 728.29L108.378 728.301L132.193 723.704Z" fill="#CE172D"/>
<path d="M119.758 713.12L244.458 534.302L391.495 660.752L413.963 656.427L241.873 508.428L95.9326 717.706H95.9869L95.9326 717.717L119.758 713.12Z" fill="#D2CECE"/>
<path d="M15.9639 728.953L521.819 632.801V849.469H31.0042L15.9639 728.953Z" fill="#E9E3E3"/>
<path d="M267.013 612.502C267.013 627.9 259.77 641.691 251.375 643.212C243.513 644.636 237.508 634.66 237.508 621C237.508 607.34 243.513 593.908 251.375 590.8C259.77 587.486 267.013 597.103 267.013 612.502Z" fill="#D2CECE"/>
<path d="M242.438 625.911C242.438 612.262 248.443 598.82 256.305 595.712C258.76 594.745 261.105 594.886 263.212 595.951C260.302 591.093 256.023 588.974 251.386 590.8C243.524 593.908 237.519 607.351 237.519 621C237.519 631.508 241.08 639.832 246.304 642.462C243.893 638.441 242.438 632.627 242.438 625.911Z" fill="white"/>
<path d="M344.798 712.914L289.589 705.057V906L344.798 901.403V712.914Z" fill="white"/>
<path d="M226.051 650.406L172.166 727.682H172.188H172.166V892.905L289.589 906V705.057L226.051 650.406Z" fill="#D2CECE"/>
<path d="M199.771 738.712H199.792H199.771L248.117 669.38L226.051 650.406L172.166 727.682H172.188H172.166V892.905L199.771 895.981V738.712Z" fill="#CE172D"/>
<path d="M265.091 658.752L226.051 650.406L289.59 705.057L324.752 710.056L265.091 658.752Z" fill="#E6E4E4"/>
<path d="M289.589 713.011L344.798 719.738V712.914L289.589 705.057V713.011Z" fill="#E6E4E4"/>
<path d="M284.811 662.969L226.051 650.406L289.59 705.057L342.508 712.588L284.811 662.969Z" fill="#F0EEEE"/>
<path d="M226.051 650.406L172.166 727.682H172.188H172.166V892.905L178.627 893.633V729.703L227.256 659.958L283.128 708.013V905.272L289.589 906V705.057L226.051 650.406Z" fill="white"/>
</g>
<defs>
<clipPath id="clip0_178_3309">
<rect width="666" height="906" fill="white"/>
</clipPath>
</defs>
</svg>
