<svg width="83" height="55" viewBox="0 0 83 55" fill="none" xmlns="http://www.w3.org/2000/svg">
<path d="M13.222 54.9V47.82H21.246V54.9H13.222ZM13.222 7.759V0.678996H21.246V7.759H13.222ZM17.293 49.885C14.2447 49.885 11.5208 49.3245 9.1215 48.2035C6.72217 47.0628 4.76533 45.46 3.251 43.395C1.73667 41.3103 0.773 38.852 0.36 36.02L8.325 34.781C8.856 37.1017 9.96717 38.9503 11.6585 40.327C13.3695 41.7037 15.405 42.392 17.765 42.392C19.9873 42.392 21.8262 41.8708 23.2815 40.8285C24.7565 39.7862 25.494 38.498 25.494 36.964C25.494 35.9217 25.1695 35.0662 24.5205 34.3975C23.8912 33.7092 22.898 33.1487 21.541 32.716L11.039 29.471C4.98167 27.6027 1.953 23.9053 1.953 18.379C1.953 15.783 2.56267 13.5312 3.782 11.6235C5.021 9.71583 6.7615 8.25066 9.0035 7.228C11.2652 6.18566 13.93 5.67433 16.998 5.694C19.8103 5.73333 22.308 6.24467 24.491 7.228C26.674 8.19166 28.4932 9.59783 29.9485 11.4465C31.4235 13.2755 32.4953 15.5077 33.164 18.143L24.904 19.618C24.6287 18.3593 24.1173 17.258 23.37 16.314C22.6227 15.3503 21.6885 14.603 20.5675 14.072C19.4662 13.5213 18.237 13.2263 16.88 13.187C15.582 13.1477 14.402 13.3345 13.34 13.7475C12.2977 14.1605 11.4618 14.7407 10.8325 15.488C10.2228 16.2157 9.918 17.0417 9.918 17.966C9.918 18.9887 10.3507 19.8737 11.216 20.621C12.0813 21.3487 13.458 21.978 15.346 22.509L22.839 24.633C26.5953 25.7147 29.2995 27.1798 30.9515 29.0285C32.6232 30.8772 33.459 33.3257 33.459 36.374C33.459 39.0487 32.7805 41.3988 31.4235 43.4245C30.0665 45.4502 28.1687 47.0333 25.73 48.174C23.311 49.3147 20.4987 49.885 17.293 49.885ZM47.3019 49V15.252L39.3369 20.149V11.299L47.3019 6.52H55.5029V49H47.3019ZM74.0939 49V15.252L66.1289 20.149V11.299L74.0939 6.52H82.2949V49H74.0939Z" fill="url(#paint0_linear_247_719)"/>
<defs>
<linearGradient id="paint0_linear_247_719" x1="7.74118" y1="4.62069" x2="81.808" y2="62.968" gradientUnits="userSpaceOnUse">
<stop offset="1" stop-color="#FF003D"/>
<stop stop-color="#FFB169"/>
</linearGradient>
</defs>
</svg>