<svg width="172" height="147" viewBox="0 0 172 147" fill="none" xmlns="http://www.w3.org/2000/svg">
<g clip-path="url(#clip0_130_221)">
<path d="M97.4296 46.7712L0 103.259L74.5713 147L172 90.3871L97.4296 46.7712Z" fill="#E8EAF7"/>
<path d="M97.4082 42.4866L0.000976562 95.1415L0.00276538 99.0163L74.5919 142.724L171.997 86.0702L171.996 82.1964L97.4082 42.4866Z" fill="#5E6275"/>
<path d="M97.4296 38.6172L0 95.1048L74.5713 138.846L172 82.2331L97.4296 38.6172Z" fill="white"/>
<path d="M148.253 76.9328L155.623 72.6535L154.812 72.1801L147.441 76.4603L128.873 65.6789L136.312 61.3585L135.502 60.8851L128.06 65.2064L108.994 54.1351L116.505 49.7735L115.694 49.2983L108.18 53.6626L89.8442 43.0164L89.0303 43.4888L107.367 54.1351L88.7343 64.9541L70.3837 54.2989L69.5689 54.7713L87.9204 65.4265L68.8543 76.4979L50.4885 65.8337L49.6737 66.3062L68.0404 76.9703L49.4725 87.7517L31.0924 77.0786L30.2776 77.5511L48.6594 88.2242L30.0209 99.0485L11.6256 88.3656L10.8108 88.8381L29.2061 99.521L18.3131 105.846L19.1225 106.322L30.0209 99.9935L49.087 111.065L38.0929 117.449L38.9024 117.924L49.9009 111.538L68.4688 122.32L57.3772 128.761L58.1867 129.236L69.2827 122.792L85.7496 132.354L86.5627 131.881L70.0957 122.32L88.7343 111.495L105.195 121.054L106.008 120.581L89.5491 111.023L108.115 100.241L124.568 109.796L125.383 109.323L108.929 99.7689L127.995 88.6976L144.442 98.2485L145.255 97.776L128.808 88.226L147.441 77.407L163.882 86.9535L164.695 86.481L148.254 76.9345L148.253 76.9328ZM108.178 54.6076L127.246 65.6789L108.613 76.4979L89.5473 65.4265L108.179 54.6076H108.178ZM88.7316 65.899L107.798 76.9703L88.7316 88.0417L69.6655 76.9703L88.7316 65.899ZM68.8525 77.4428L87.9186 88.5141L69.3507 99.2955L50.2846 88.2242L68.8525 77.4428ZM30.833 99.5201L49.4716 88.6958L68.5377 99.7671L49.8991 110.591L30.833 99.5201ZM69.28 121.845L50.7121 111.064L69.3507 100.24L87.9186 111.021L69.28 121.845ZM88.7316 110.549L70.1655 99.768L88.7316 88.9866L107.3 99.768L88.7316 110.549ZM108.113 99.2955L89.5464 88.5141L108.612 77.4428L127.179 88.2242L108.113 99.2955ZM127.993 87.7517L109.426 76.9703L128.058 66.1514L146.626 76.9328L127.993 87.7517Z" fill="#E8EAF7"/>
<path d="M150.311 84.2124C154.287 84.2124 157.511 82.2112 157.511 79.7426C157.511 77.2739 154.287 75.2727 150.311 75.2727C146.334 75.2727 143.111 77.2739 143.111 79.7426C143.111 82.2112 146.334 84.2124 150.311 84.2124Z" fill="#E8EAF7"/>
<path d="M90.1948 1.23486V41.3625L116.723 56.6111V16.5819L90.1948 1.23486Z" fill="#424657"/>
<path d="M91.8538 21.0428V25.9619L114.723 39.1926V34.2735L91.8538 21.0428Z" fill="white"/>
<path d="M91.8538 32.9303L114.723 46.1609V41.2419L91.8538 28.0112V32.9303Z" fill="white"/>
<path d="M91.8538 39.8986L114.723 53.1301V48.211L91.8538 34.9795V39.8986Z" fill="white"/>
<path d="M103.297 15.2289L91.8538 8.60864V13.5277L103.297 20.148V15.2289Z" fill="white"/>
<path d="M116.681 16.5336L118.456 15.4401L92.098 0L90.1858 1.22955L116.681 16.5336Z" fill="#CECECE"/>
<path d="M116.681 16.5336V56.706L118.183 55.6125L118.456 15.4401L116.681 16.5336Z" fill="#CECECE"/>
<path d="M139.438 38.9053V53.5865L138.085 54.4545L138.013 54.5001L136.66 53.718V40.5447L138.078 39.708L139.438 38.9053Z" fill="#CD1010"/>
<path d="M139.438 38.9053L138.078 39.708L136.66 40.5447L108.358 24.1794V22.6527L108.485 22.5874L109.879 21.8733L139.438 38.9053Z" fill="#F0F0F0"/>
<path d="M138.085 39.7125V54.5413L138.012 54.5002L136.66 53.718L108.358 37.3446V22.5149L108.485 22.5874L138.078 39.708L138.085 39.7125Z" fill="#FF003D"/>
<path d="M111.816 31.8878L111.69 31.8153V33.5254L111.816 33.5979L134.721 46.8491V45.139L111.816 31.8878Z" fill="white"/>
<path d="M111.69 35.1638V36.8748L111.816 36.9473L134.721 50.1985V48.4884L111.816 35.2372L111.69 35.1638Z" fill="white"/>
<path d="M127.943 36.4426L118.469 30.9615V32.6716L127.943 38.1527V36.4426Z" fill="white"/>
<path d="M96.9001 37.8905V49.7072L95.8107 50.4052L95.7525 50.4428L94.6641 49.8128V39.2095L95.8044 38.5357L96.9001 37.8905Z" fill="#CD1010"/>
<path d="M96.9001 37.8905L95.8044 38.5357L94.664 39.2095L71.8826 26.037V24.8075L71.9845 24.7556L73.1061 24.1802L96.9001 37.8905Z" fill="#F0F0F0"/>
<path d="M95.8107 38.5393V50.4759L95.7525 50.4428L94.664 49.8128L71.8826 36.6332V24.6965L71.9845 24.7556L95.8044 38.5357L95.8107 38.5393Z" fill="#FF003D"/>
<path d="M74.666 32.2411L74.5649 32.183V33.5593L74.666 33.6175L93.1033 44.2843V42.9071L74.666 32.2411Z" fill="white"/>
<path d="M74.5649 34.8783V36.2555L74.666 36.3137L93.1033 46.9796V45.6033L74.666 34.9374L74.5649 34.8783Z" fill="white"/>
<path d="M87.6466 35.9074L80.0217 31.4957V32.8729L87.6466 37.2837V35.9074Z" fill="white"/>
<path d="M132.379 97.2901L97.9984 117.366L40.6677 84.4416L50.8577 78.4862L75.0488 64.3491L115.387 87.5271L132.379 97.2901Z" fill="#E8EAF7"/>
<path d="M132.379 83.6246V88.0488L97.9984 108.123L40.6677 75.2003V70.776L50.8577 64.8216L75.0488 55.1078L115.387 73.8615L132.379 83.6246Z" fill="#424657"/>
<path d="M132.379 83.6245L97.9984 103.7L40.6677 70.776L50.8577 64.8216L75.0488 50.6844L115.387 73.8615L132.379 83.6245Z" fill="#424657"/>
<path d="M68.2798 59.5839L66.1681 58.3713L59.6309 62.1915L61.7426 63.4041L68.2798 59.5839Z" fill="white"/>
<path d="M58.7695 62.6953L55.7634 64.4519L57.8751 65.6645L60.8812 63.9079L58.7695 62.6953Z" fill="white"/>
<path d="M121.871 80.9203L79.5522 56.6058L50.6226 73.4983L92.9638 97.8136L121.871 80.9203Z" fill="white"/>
<path d="M117.539 80.4692L80.3659 59.1105L54.9531 73.9492L92.1471 95.3088L117.539 80.4692Z" fill="#E8EAF7"/>
<path d="M132.379 83.6577V88.0488L97.9983 108.123V103.886L132.379 83.6577Z" fill="#5E6275"/>
<path d="M112.984 92.4086C114.917 92.4086 116.483 91.7568 116.483 90.9527C116.483 90.1486 114.917 89.4967 112.984 89.4967C111.052 89.4967 109.485 90.1486 109.485 90.9527C109.485 91.7568 111.052 92.4086 112.984 92.4086Z" fill="white"/>
<path d="M80.4664 50.7417C82.9064 52.8572 80.8224 52.016 80.8224 52.016C81.3779 54.3632 79.098 54.8321 78.937 50.9135" fill="#FFBD8B"/>
<path d="M78.6221 33.8492C75.1464 36.5034 76.9746 44.8991 78.4244 51.4665C78.4244 51.4665 79.8895 51.2446 80.8688 50.7551L79.902 45.3223C79.902 45.3223 80.6417 41.0261 80.8438 38.2126" fill="#FF9029"/>
<path d="M80.9171 79.9081C80.3411 79.5421 79.741 78.4074 79.741 78.4074L79.5755 80.0271L78.9682 79.9654C78.9682 79.9654 78.8859 75.764 78.927 75.3586C78.9682 74.9541 79.4843 74.904 79.4843 74.904L79.4798 74.6758L79.4342 72.3939L81.7766 72.4798L81.0423 75.1662C81.0423 75.1662 81.8983 77.2987 82.3222 77.6495C82.4948 77.7918 82.6791 77.8258 82.8472 77.8446C83.0923 77.8714 83.3034 77.866 83.3991 78.1175C83.5601 78.5435 82.0995 80.3368 80.9162 79.909L80.9171 79.9081Z" fill="#5E6275"/>
<path d="M82.8481 77.8428C80.7785 78.5435 79.8715 76.6983 79.4807 74.675L79.4351 72.3931L81.7775 72.479L81.0432 75.1654C81.0432 75.1654 81.8992 77.2978 82.3231 77.6486C82.4957 77.7909 82.68 77.8249 82.8481 77.8437V77.8428Z" fill="#FFBD8B"/>
<path d="M85.738 46.0123L79.2276 45.2991C79.2276 45.2991 78.301 51.9014 79.2043 60.7946C78.4843 64.7159 78.69 73.6199 78.69 73.6199L82.2078 73.951L83.9662 61.1857C83.9662 61.1857 85.2559 54.4035 85.738 46.0123Z" fill="#FF0037"/>
<path d="M87.9849 81.739C87.3615 81.4616 86.6021 80.4271 86.6021 80.4271L86.6755 82.0531L86.0664 82.0808C86.0664 82.0808 85.3696 77.9367 85.3509 77.5304C85.3321 77.1242 85.8356 76.9989 85.8356 76.9989L85.7972 76.7734L85.4179 74.5228L87.7479 74.2642L87.4151 77.0293C87.4151 77.0293 88.5743 79.0141 89.0448 79.2978C89.2371 79.4132 89.4231 79.4204 89.5921 79.4132C89.8381 79.4034 90.0465 79.3667 90.178 79.6029C90.3998 80.0003 89.2174 81.9887 87.984 81.7399L87.9849 81.739Z" fill="#5E6275"/>
<path d="M89.5919 79.4132C87.6475 80.4092 86.4794 78.7179 85.797 76.7734L85.4177 74.5228L87.7477 74.2642L87.4149 77.0293C87.4149 77.0293 88.5741 79.0141 89.0445 79.2978C89.2368 79.4132 89.4229 79.4204 89.5919 79.4132Z" fill="#FFBD8B"/>
<path d="M87.4659 47.0539L80.926 47.4011C80.926 47.4011 81.0754 54.067 83.4009 62.698C83.323 66.6837 84.9607 75.4382 84.9607 75.4382L88.4856 75.1966L88.1627 62.3141C88.1627 62.3141 88.3416 55.4128 87.465 47.053L87.4659 47.0539Z" fill="#EC0000"/>
<path d="M100.575 37.0449C106.692 34.584 102.964 36.9984 102.964 36.9984C104.345 37.887 102.66 39.2615 101.117 38.6905L100.575 37.0458V37.0449Z" fill="#FFBD8B"/>
<path d="M101.959 38.9348L96.9208 40.3881L93.7779 41.2955C93.3334 41.4243 92.8602 41.419 92.4184 41.2812L83.6917 38.559L84.8732 36.3298L85.8999 34.3925L93.2663 37.9746L101.144 36.7397L101.959 38.9348Z" fill="#FF9029"/>
<g style="mix-blend-mode:multiply" opacity="0.31">
<path d="M96.9521 40.354L93.8091 41.2605C93.3646 41.3894 92.8915 41.384 92.4496 41.2462L83.7229 38.524L84.9044 36.2949C88.5599 39.4654 93.5211 41.3357 96.9521 40.354Z" fill="#2C4E8E"/>
</g>
<path d="M87.7333 49.3931C87.7494 49.7099 87.7432 49.9801 87.6993 50.1824C83.2443 52.1421 78.495 50.4759 78.6417 48.8105C79.376 45.7734 79.5719 43.2749 78.6417 41.6587C78.232 40.9482 77.7285 39.9343 77.4924 38.737C77.1918 37.213 77.3251 35.3929 78.6417 33.5271C79.5227 32.6456 80.502 32.5964 83.2926 33.5271C86.9713 34.7539 88.1886 35.5844 88.1886 37.6909C88.1886 38.524 88.0911 42.7362 87.5518 44.2548C87.1099 45.5013 87.6573 47.9371 87.7324 49.3931H87.7333Z" fill="#FF9029"/>
<g style="mix-blend-mode:multiply" opacity="0.31">
<path d="M87.7004 50.1824C83.2453 52.1422 78.496 50.4759 78.6427 48.8106C79.377 45.7734 79.5729 43.2749 78.6427 41.6588C78.2331 40.9483 77.7295 39.9344 77.4934 38.7371C78.5175 41.002 79.9781 41.9076 82.3635 46.1161C83.892 48.8124 85.8991 49.5086 87.7344 49.3932C87.7505 49.7099 87.7442 49.9802 87.7004 50.1824Z" fill="#C0C0C0"/>
</g>
<path d="M84.8446 34.49C84.8446 34.49 81.6784 35.9755 81.6784 33.5987V31.4206C81.6784 31.4206 79.7983 30.0345 80.0953 27.4599C80.3922 24.8854 84.5485 23.0044 86.5279 25.4796C87.6164 27.0635 87.3767 31.7016 87.0225 32.4103C86.5279 33.4001 84.7462 32.5097 84.7462 32.5097L84.8455 34.49H84.8446Z" fill="#FFBD8B"/>
<path d="M85.2407 29.2425C85.2407 28.2527 86.8238 27.6586 87.3184 26.7673C87.4329 26.5606 87.5161 26.3171 87.5751 26.0648C87.6968 25.5494 87.5921 25.0294 87.3193 24.6071C87.1413 24.3314 86.8927 24.097 86.5886 23.9332C86.5653 23.9207 86.5448 23.9082 86.526 23.8965C86.229 23.6988 82.0727 21.8178 80.0934 25.7775C78.1141 27.6586 79.7965 30.728 81.6765 31.4206C81.6765 32.4103 84.3481 32.1132 84.4474 31.4206C84.5467 30.728 85.2389 29.2425 85.2389 29.2425H85.2407Z" fill="#292D3B"/>
<g style="mix-blend-mode:multiply">
<path d="M84.7255 32.5195L84.7792 33.5942C83.8043 32.8998 83.739 31.8582 83.739 31.8582C83.739 31.8582 84.2291 32.2331 84.9116 32.6027C84.7953 32.5544 84.7255 32.5195 84.7255 32.5195Z" fill="#FFBD8B"/>
</g>
<path d="M81.3879 28.945C82.2176 28.6012 82.6115 27.6495 82.2679 26.8194C81.9242 25.9893 80.973 25.5951 80.1434 25.9389C79.3137 26.2828 78.9197 27.2345 79.2634 28.0646C79.607 28.8947 80.5582 29.2889 81.3879 28.945Z" fill="#FF9029"/>
<path d="M81.0048 25.6889C81.0674 25.5484 81.1032 25.3927 81.1032 25.229C81.1032 24.6035 80.5961 24.0961 79.9709 24.0961C79.6247 24.0961 79.3153 24.2518 79.1069 24.497C78.919 24.284 78.6445 24.1489 78.3377 24.1489C77.7706 24.1489 77.31 24.6088 77.31 25.1771C77.31 25.2326 77.3154 25.2862 77.3243 25.3399C77.1535 25.2862 76.9719 25.2567 76.7832 25.2567C75.794 25.2567 74.9917 26.0594 74.9917 27.0491C74.9917 27.8214 75.48 28.4791 76.1643 28.7315C76.1562 28.7843 76.1508 28.8389 76.1508 28.8944C76.1508 29.5055 76.6464 30.0013 77.2572 30.0013C77.742 30.0013 78.1534 29.6881 78.3028 29.2532C78.6588 29.4921 79.0872 29.6317 79.5487 29.6317C80.7857 29.6317 81.7874 28.6286 81.7874 27.3919C81.7874 26.7109 81.4833 26.1015 81.0048 25.6907V25.6889Z" fill="#292D3B"/>
<path d="M84.9204 30.1991C85.4223 30.1991 85.8292 29.7921 85.8292 29.2899C85.8292 28.7878 85.4223 28.3807 84.9204 28.3807C84.4186 28.3807 84.0117 28.7878 84.0117 29.2899C84.0117 29.7921 84.4186 30.1991 84.9204 30.1991Z" fill="#292D3B"/>
<path d="M85.8023 29.8229C85.9176 29.3342 85.6151 28.8445 85.1266 28.7291C84.6382 28.6138 84.1487 28.9165 84.0334 29.4052C83.9182 29.8939 84.2207 30.3835 84.7091 30.4989C85.1976 30.6142 85.687 30.3116 85.8023 29.8229Z" fill="#FFBD8B"/>
<path d="M25.3403 72.3814L36.3729 65.8328L48.154 72.3814L36.7476 79.3041L25.3403 72.3814Z" fill="#F0F0F0"/>
<path d="M36.7476 79.3041V105.731L48.1539 98.7621V72.3348L36.7476 79.3041Z" fill="#CD1010"/>
<path d="M25.3403 72.428V98.9957L36.7476 105.731V79.3041L25.3403 72.428Z" fill="#FF003D"/>
<path d="M42.3582 86.4254L51.8049 80.8191L61.892 86.4254L52.1251 92.3531L42.3582 86.4254Z" fill="#F0F0F0"/>
<path d="M51.1018 103.672L60.5485 98.0649L70.6348 103.672L60.8687 109.599L51.1018 103.672Z" fill="#E8EAF7"/>
<path d="M52.125 92.353V114.98L61.8919 109.013V86.3851L52.125 92.353Z" fill="#CD1010"/>
<path d="M42.3582 86.4657V109.213L52.1251 114.98V92.353L42.3582 86.4657Z" fill="#FF003D"/>
<path d="M155.024 67.7031L153.955 75.6317L153.943 75.7256L153.932 75.8017L153.224 81.051L153.092 82.0255L153.089 82.0443L153.086 82.0693H153.039C151.717 83.1673 149.798 83.8582 147.662 83.8582C145.526 83.8582 143.608 83.1673 142.285 82.0693H142.251L142.247 82.0389L142.238 81.9628L142.228 81.8752L141.519 75.7927L141.508 75.6961L141.504 75.663L140.577 67.7049H155.022L155.024 67.7031Z" fill="#FF003D"/>
<path d="M147.802 73.0794C151.791 73.0794 155.025 70.6699 155.025 67.6977C155.025 64.7254 151.791 62.3159 147.802 62.3159C143.813 62.3159 140.579 64.7254 140.579 67.6977C140.579 70.6699 143.813 73.0794 147.802 73.0794Z" fill="#F4BBC4"/>
<path d="M147.907 71.5206C150.987 71.5206 153.484 69.6604 153.484 67.3657C153.484 65.071 150.987 63.2108 147.907 63.2108C144.827 63.2108 142.331 65.071 142.331 67.3657C142.331 69.6604 144.827 71.5206 147.907 71.5206Z" fill="#5E6275"/>
<path d="M147.579 65.3862C150.347 65.3862 152.644 66.8896 153.081 68.8601C153.341 68.3796 153.485 67.8543 153.485 67.3039C153.485 65.0095 150.989 63.149 147.908 63.149C144.828 63.149 142.332 65.0095 142.332 67.3039C142.332 67.5357 142.357 67.763 142.407 67.9849C143.233 66.461 145.237 65.3862 147.579 65.3862Z" fill="#424657"/>
<path d="M150.854 54.5208C150.854 54.5208 145.047 62.3714 147.715 69.5939C148.16 69.2691 148.553 68.8834 148.883 68.4485C149.182 68.0556 149.428 67.6234 149.615 67.1617C152.575 59.8336 150.854 54.5208 150.854 54.5208Z" fill="#FF9029"/>
<path d="M145.389 56.408C145.389 56.408 150.468 63.2752 148.134 69.593C147.745 69.3093 147.402 68.9711 147.113 68.5907C146.852 68.2471 146.636 67.8695 146.473 67.465C143.882 61.055 145.389 56.4071 145.389 56.4071V56.408Z" fill="#FFB169"/>
<path d="M154.547 57.7092C154.547 57.7092 147.766 62.9004 148.26 69.6181C148.712 69.4526 149.136 69.2235 149.518 68.938C149.864 68.6803 150.176 68.377 150.445 68.0342C154.707 62.5925 154.546 57.7092 154.546 57.7092H154.547Z" fill="#FFB169"/>
<path d="M140.935 54.4886C140.935 54.4886 148.912 61.328 147.847 69.5465C147.303 69.313 146.797 69.0024 146.348 68.6257C145.941 68.2856 145.577 67.891 145.271 67.4516C140.404 60.4761 140.934 54.4877 140.934 54.4877L140.935 54.4886Z" fill="#FF9029"/>
<path d="M160.671 61.2637C160.671 61.2637 151.319 62.7903 148.287 69.6208C148.815 69.696 149.35 69.6942 149.874 69.6155C150.347 69.5448 150.812 69.4114 151.253 69.2164C158.272 66.1255 160.671 61.2637 160.671 61.2637Z" fill="#FF9029"/>
<path d="M135.392 61.2637C135.392 61.2637 144.744 62.7903 147.776 69.6208C147.247 69.696 146.712 69.6942 146.188 69.6155C145.715 69.5448 145.251 69.4114 144.809 69.2164C137.791 66.1255 135.392 61.2637 135.392 61.2637Z" fill="#FFB169"/>
</g>
<defs>
<clipPath id="clip0_130_221">
<rect width="172" height="147" fill="white"/>
</clipPath>
</defs>
</svg>
