<svg width="14" height="14" viewBox="0 0 14 14" fill="none" xmlns="http://www.w3.org/2000/svg">
<path d="M12.0426 5.54838C11.9345 5.1691 11.7836 4.80334 11.5929 4.45812L12.4626 2.6285C12.1398 2.22607 11.7739 1.86018 11.3715 1.53737L9.54187 2.40712C9.19655 2.21663 8.83082 2.06576 8.45163 1.95738L7.77087 0.044625C7.518 0.016625 7.26075 0 7 0C6.73925 0 6.482 0.016625 6.22913 0.044625L5.54838 1.95738C5.166 2.06763 4.80025 2.21812 4.459 2.40712L2.6285 1.53737C2.22607 1.86018 1.86018 2.22607 1.53737 2.6285L2.40712 4.45812C2.21663 4.80345 2.06576 5.16918 1.95738 5.54838L0.044625 6.22913C0.016625 6.482 0 6.73925 0 7C0 7.26075 0.016625 7.518 0.044625 7.77087L1.95825 8.45163C2.0685 8.83488 2.21813 9.19975 2.408 9.54187L1.53825 11.3715C1.86112 11.774 2.22688 12.1406 2.62937 12.4626L4.459 11.5929C4.80025 11.7819 5.166 11.9324 5.54925 12.0426L6.23 13.9563C6.482 13.9834 6.73925 14 7 14C7.26075 14 7.518 13.9834 7.77087 13.9554L8.45163 12.0417C8.83488 11.9315 9.19975 11.7819 9.54187 11.592L11.3715 12.4618C11.7741 12.1392 12.14 11.7733 12.4626 11.3706L11.5929 9.541C11.7834 9.19568 11.9342 8.82994 12.0426 8.45075L13.9563 7.77C13.9834 7.518 14 7.26075 14 7C14 6.73925 13.9834 6.482 13.9554 6.22913L12.0426 5.54838ZM7 10.5C6.07174 10.5 5.1815 10.1313 4.52513 9.47487C3.86875 8.8185 3.5 7.92826 3.5 7C3.5 6.07174 3.86875 5.1815 4.52513 4.52513C5.1815 3.86875 6.07174 3.5 7 3.5C7.92826 3.5 8.8185 3.86875 9.47487 4.52513C10.1313 5.1815 10.5 6.07174 10.5 7C10.5 7.92826 10.1313 8.8185 9.47487 9.47487C8.8185 10.1313 7.92826 10.5 7 10.5ZM5.25 7C5.25 7.46413 5.43437 7.90925 5.76256 8.23744C6.09075 8.56563 6.53587 8.75 7 8.75C7.46413 8.75 7.90925 8.56563 8.23744 8.23744C8.56563 7.90925 8.75 7.46413 8.75 7C8.75 6.53587 8.56563 6.09075 8.23744 5.76256C7.90925 5.43437 7.46413 5.25 7 5.25C6.53587 5.25 6.09075 5.43437 5.76256 5.76256C5.43437 6.09075 5.25 6.53587 5.25 7Z" fill="#424657"/>
</svg>
