<svg width="12" height="12" viewBox="0 0 12 12" fill="none" xmlns="http://www.w3.org/2000/svg">
<rect x="0.35" y="0.35" width="11.3" height="11.3" rx="2.65" fill="#F7F8F8" stroke="#424657" stroke-width="0.7" stroke-linejoin="round" stroke-dasharray="5 5"/>
<path fill-rule="evenodd" clip-rule="evenodd" d="M6.06158 7.44617C6.18053 7.44617 6.27696 7.34974 6.27696 7.23078V5.12279C6.27696 4.63654 6.39499 4.31172 6.59306 4.10764C6.78996 3.90473 7.10156 3.78463 7.56927 3.78463C7.68823 3.78463 7.78465 3.6882 7.78465 3.56924C7.78465 3.45029 7.68823 3.35386 7.56927 3.35386C7.03184 3.35386 6.58959 3.49267 6.28394 3.80763C5.97945 4.12138 5.84619 4.57332 5.84619 5.12279V7.23078C5.84619 7.34974 5.94262 7.44617 6.06158 7.44617Z" fill="#333333"/>
<path fill-rule="evenodd" clip-rule="evenodd" d="M6.06153 10.0308C5.63087 10.0308 5.22538 9.92561 4.86877 9.73975C4.76328 9.68477 4.6332 9.72572 4.57822 9.8312C4.52325 9.93669 4.5642 10.0668 4.66967 10.1217C5.08629 10.3389 5.5599 10.4615 6.06153 10.4615C6.72625 10.4615 7.3413 10.2462 7.83989 9.88155C7.93591 9.81133 7.95683 9.67657 7.88659 9.58055C7.81637 9.48454 7.68161 9.46363 7.58559 9.53385C7.15831 9.84636 6.63178 10.0308 6.06153 10.0308ZM8.13607 9.33893C8.22978 9.41219 8.36515 9.39561 8.43841 9.3019C8.67356 9.00109 8.853 8.6543 8.96091 8.27712C8.99362 8.16275 8.92744 8.04351 8.81309 8.01079C8.69872 7.97808 8.57948 8.04426 8.54677 8.15861C8.45441 8.48143 8.30075 8.77855 8.09904 9.03658C8.02577 9.1303 8.04236 9.26566 8.13607 9.33893ZM3.89861 9.23737C3.99571 9.16866 4.01873 9.03426 3.95005 8.93714C3.652 8.51591 3.47691 8.00181 3.47691 7.44616V4.86155C3.47691 4.74259 3.38048 4.64616 3.26153 4.64616C3.14257 4.64616 3.04614 4.74259 3.04614 4.86155V7.44616C3.04614 8.0938 3.25056 8.69434 3.59839 9.18595C3.6671 9.28306 3.8015 9.30608 3.89861 9.23737ZM8.86153 7.66155C8.98048 7.66155 9.07691 7.56512 9.07691 7.44616V4.86155C9.07691 4.40599 8.97575 3.97345 8.79444 3.58569C8.68444 3.35047 8.54502 3.13186 8.38098 2.93459C8.30491 2.84313 8.16911 2.83066 8.07766 2.90671C7.9862 2.98277 7.97371 3.11857 8.04976 3.21004C8.19052 3.37927 8.31001 3.56667 8.40422 3.76817C8.55937 4.09997 8.64614 4.47032 8.64614 4.86155V7.44616C8.64614 7.56512 8.74257 7.66155 8.86153 7.66155ZM3.67125 3.38674C3.76734 3.45685 3.90208 3.43581 3.97221 3.3397C4.28101 2.91654 4.71507 2.5909 5.21933 2.41719C5.48303 2.32634 5.76628 2.27693 6.06153 2.27693C6.18048 2.27693 6.27691 2.1805 6.27691 2.06155C6.27691 1.94259 6.18048 1.84616 6.06153 1.84616C5.7179 1.84616 5.38727 1.90373 5.07903 2.00992C4.49004 2.21281 3.98406 2.59273 3.62423 3.08579C3.55411 3.18187 3.57517 3.31661 3.67125 3.38674ZM7.73655 2.60731C7.80007 2.50672 7.77002 2.3737 7.66944 2.31021C7.39265 2.13542 7.08529 2.00436 6.7572 1.92684C6.64143 1.89951 6.5254 1.97119 6.49807 2.08696C6.47072 2.20273 6.5424 2.31874 6.65816 2.34609C6.939 2.41243 7.20218 2.52462 7.43945 2.67442C7.54001 2.73794 7.67304 2.70789 7.73655 2.60731ZM3.90768 7.39557C3.90764 8.57377 4.98766 9.38462 6.06153 9.38462C7.13539 9.38462 8.21542 8.57377 8.21537 7.39557V5.17525C8.21537 4.98602 8.17878 4.7847 8.07535 4.62342C7.9646 4.45068 7.78435 4.33752 7.54566 4.33752C7.31218 4.33752 7.12249 4.44527 6.99666 4.60784C6.87426 4.766 6.81537 4.97029 6.81537 5.17525V7.17971C6.81537 7.3882 6.73463 7.58705 6.5926 7.7328C6.45077 7.87837 6.25962 7.95908 6.06153 7.95908C5.86344 7.95908 5.67228 7.87837 5.53045 7.7328C5.38843 7.58705 5.30768 7.3882 5.30768 7.17971V4.67787C5.30768 4.10262 5.59541 3.57081 6.23978 3.34138C6.35184 3.30147 6.41034 3.17827 6.37043 3.06623C6.33054 2.95416 6.20734 2.89567 6.09528 2.93555C5.25552 3.23459 4.87691 3.947 4.87691 4.67787V7.17971C4.87691 7.49889 5.00039 7.80607 5.22192 8.03343C5.44361 8.26096 5.74552 8.38985 6.06153 8.38985C6.37754 8.38985 6.67944 8.26096 6.90114 8.03343C7.12266 7.80607 7.24614 7.49889 7.24614 7.17971V5.17525C7.24614 5.04846 7.28308 4.94158 7.33734 4.8715C7.38815 4.80583 7.45588 4.76828 7.54566 4.76828C7.63022 4.76828 7.67713 4.80042 7.71273 4.85592C7.75566 4.92289 7.78461 5.03273 7.78461 5.17525V7.39557C7.78463 8.28127 6.95602 8.95386 6.06153 8.95386C5.16704 8.95386 4.33843 8.28127 4.33845 7.39557V4.69279C4.33845 4.46371 4.37259 4.23547 4.43867 4.04427C4.50574 3.85023 4.59866 3.7138 4.70193 3.64059C4.79899 3.5718 4.8219 3.43738 4.75311 3.34033C4.68431 3.24327 4.54989 3.22036 4.45284 3.28915C4.24913 3.43355 4.11488 3.66239 4.03153 3.90356C3.9472 4.14757 3.90768 4.42451 3.90768 4.69279V7.39557Z" fill="#333333"/>
</svg>
