<svg width="12" height="9" viewBox="0 0 12 9" fill="none" xmlns="http://www.w3.org/2000/svg">
<g clip-path="url(#clip0_54_1264)">
<path d="M1.97439 7.14856C1.91176 7.2534 1.87499 7.37731 1.87499 7.50939C1.87499 7.64147 1.91176 7.76538 1.97439 7.87022H0.428946C0.329547 7.87022 0.23968 7.82937 0.174322 7.76401C0.108964 7.69866 0.0681152 7.60879 0.0681152 7.50939C0.0681152 7.31059 0.230149 7.14856 0.428946 7.14856H1.97439Z" fill="#424657"/>
<path d="M11.9318 7.50939C11.9318 7.70819 11.7712 7.87022 11.571 7.87022H3.19702C3.25966 7.76538 3.29642 7.64147 3.29642 7.50939C3.29642 7.37731 3.25966 7.2534 3.19702 7.14856H11.571C11.6718 7.14856 11.7616 7.18941 11.827 7.25477C11.8924 7.32012 11.9318 7.40999 11.9318 7.50939Z" fill="#424657"/>
<path d="M7.92605 4.48464H7.86314L7.83591 4.54135C7.71994 4.78285 7.47108 4.95031 7.18397 4.95031C6.89686 4.95031 6.648 4.78285 6.53203 4.54135L6.50479 4.48464H6.44188H0.428946C0.357688 4.48464 0.292619 4.45549 0.244662 4.40871C0.197165 4.36103 0.168115 4.29633 0.168115 4.22517C0.168115 4.0816 0.285377 3.96434 0.428946 3.96434H6.44324H6.50616L6.53339 3.90763C6.64931 3.66622 6.89675 3.50002 7.18397 3.50002C7.47118 3.50002 7.71862 3.66622 7.83455 3.90763L7.86178 3.96434H7.92469H11.5711C11.644 3.96434 11.7088 3.99369 11.7564 4.04126C11.8034 4.08828 11.832 4.15287 11.832 4.22517C11.832 4.36849 11.7163 4.48464 11.5711 4.48464H7.92605Z" stroke="#424657" stroke-width="0.2" stroke-miterlimit="10"/>
<path d="M3.45312 7.14851C3.31151 6.80947 2.97519 6.56982 2.58576 6.56982C2.19634 6.56982 1.86002 6.80947 1.71841 7.14851C1.67211 7.26017 1.64624 7.38135 1.64624 7.50935C1.64624 7.63734 1.67211 7.75988 1.71841 7.87018C1.86002 8.21058 2.19497 8.44887 2.58576 8.44887C2.97655 8.44887 3.31151 8.21058 3.45312 7.87018C3.49941 7.75988 3.52528 7.63734 3.52528 7.50935C3.52528 7.38135 3.49941 7.26017 3.45312 7.14851ZM2.58576 8.22011C2.32569 8.22011 2.0983 8.07987 1.97439 7.87018C1.91176 7.76533 1.87499 7.64142 1.87499 7.50935C1.87499 7.37727 1.91176 7.25336 1.97439 7.14851C2.0983 6.93882 2.32569 6.79858 2.58576 6.79858C2.84583 6.79858 3.07322 6.93882 3.19713 7.14851C3.25977 7.25336 3.29653 7.37727 3.29653 7.50935C3.29653 7.64142 3.25977 7.76533 3.19713 7.87018C3.07322 8.07987 2.84583 8.22011 2.58576 8.22011Z" fill="#424657"/>
<path d="M1.87499 0.939547C1.87499 1.07162 1.91176 1.19553 1.97439 1.30038H0.428946C0.329547 1.30038 0.23968 1.25953 0.174322 1.19553C0.108964 1.13017 0.0681152 1.03895 0.0681152 0.939547C0.0681152 0.74075 0.230149 0.580078 0.428946 0.580078H1.97303C1.91039 0.684923 1.87499 0.808831 1.87499 0.939547Z" fill="#424657"/>
<path d="M11.9318 0.939547C11.9318 1.13971 11.7712 1.30038 11.571 1.30038H3.19702C3.25966 1.19553 3.29642 1.07162 3.29642 0.939547C3.29642 0.807469 3.26102 0.684923 3.19838 0.580078H11.571C11.6718 0.580078 11.7616 0.619565 11.827 0.684923C11.8924 0.750281 11.9318 0.840148 11.9318 0.939547Z" fill="#424657"/>
<path d="M3.45312 0.580052C3.31151 0.239646 2.97655 0 2.58576 0C2.19497 0 1.85865 0.239646 1.71841 0.580052C1.67211 0.690344 1.64624 0.81289 1.64624 0.939521C1.64624 1.06615 1.67211 1.1887 1.71841 1.30035C1.85865 1.6394 2.19497 1.87904 2.58576 1.87904C2.97655 1.87904 3.31151 1.6394 3.45312 1.30035C3.49941 1.1887 3.52528 1.06751 3.52528 0.939521C3.52528 0.811528 3.49941 0.690344 3.45312 0.580052ZM2.58576 1.65165C2.32569 1.65165 2.09694 1.51004 1.97439 1.30035C1.91176 1.19551 1.87499 1.0716 1.87499 0.939521C1.87499 0.807444 1.9104 0.684897 1.97303 0.580052C2.09558 0.370362 2.32433 0.228753 2.58576 0.228753C2.84719 0.228753 3.07595 0.370362 3.19849 0.580052C3.26113 0.684897 3.29653 0.808805 3.29653 0.939521C3.29653 1.07024 3.25977 1.19551 3.19713 1.30035C3.07458 1.51004 2.84583 1.65165 2.58576 1.65165Z" fill="#424657"/>
<path d="M8.06909 4.2251C8.06909 3.73329 7.6704 3.33459 7.17859 3.33459C6.68678 3.33459 6.28809 3.73329 6.28809 4.2251C6.28809 4.71691 6.68678 5.1156 7.17859 5.1156C7.6704 5.1156 8.06909 4.71691 8.06909 4.2251Z" fill="#424657"/>
</g>
<defs>
<clipPath id="clip0_54_1264">
<rect width="12" height="8.44888" fill="white"/>
</clipPath>
</defs>
</svg>
