<svg width="13" height="13" viewBox="0 0 13 13" fill="none" xmlns="http://www.w3.org/2000/svg">
<g clip-path="url(#clip0_134_1195)">
<path d="M6.49711 11.2018C3.9002 11.2018 1.795 9.09457 1.795 6.49514C1.795 3.89571 3.9002 1.78845 6.49711 1.78845C9.09401 1.78845 11.1992 3.89571 11.1992 6.49514C11.1992 9.09457 9.09401 11.2018 6.49711 11.2018Z" fill="#424657"/>
<path d="M6.48634 11.4661C9.20651 11.4935 11.4281 9.27947 11.4616 6.5081C11.4942 3.81221 9.24401 1.53945 6.52628 1.52232C3.80163 1.50518 1.54413 3.72571 1.52782 6.46811C1.51111 9.23663 3.76331 11.4731 6.48634 11.4661ZM6.51446 10.7015C4.24188 10.7353 2.33413 8.86205 2.29459 6.55747C2.25464 4.24105 4.1469 2.31023 6.47859 2.2882C8.76911 2.26616 10.6589 4.13619 10.6944 6.46036C10.7299 8.77596 8.86694 10.6664 6.51446 10.7019V10.7015Z" fill="#424657"/>
<path d="M2.5587 1.28103C2.55177 1.21084 2.54932 1.1378 2.53628 1.0664C2.5053 0.89788 2.34469 0.755068 2.1796 0.759965C2.00024 0.765269 1.83392 0.850956 1.8225 1.03131C1.79642 1.44342 1.7793 1.86084 1.81925 2.27051C1.84778 2.5643 2.20609 2.62428 2.46209 2.42393C2.86728 2.10648 3.26432 1.7723 3.7005 1.503C4.37881 1.08435 5.13253 0.859117 5.92946 0.788527C7.19314 0.676725 8.3757 0.935012 9.46043 1.59399C10.7347 2.36803 11.5863 3.48115 11.998 4.91295C12.4207 6.38106 12.2727 7.80347 11.5712 9.16426C11.5243 9.25485 11.4733 9.34339 11.433 9.43683C11.3453 9.64167 11.4159 9.85344 11.5956 9.9428C11.7774 10.033 11.9955 9.97625 12.1015 9.77509C12.2784 9.43928 12.4651 9.10224 12.5882 8.74521C13.3179 6.63281 13.0884 4.62079 11.8149 2.78137C10.7139 1.19085 9.16897 0.276443 7.2388 0.0479432C5.60376 -0.145874 4.11588 0.256449 2.76211 1.18228C2.71157 1.21656 2.65979 1.2492 2.60762 1.28062C2.59824 1.28633 2.58234 1.28143 2.5587 1.28143V1.28103Z" fill="#424657"/>
<path d="M10.434 11.6849C10.4418 11.7812 10.4422 11.8489 10.4528 11.9146C10.485 12.1117 10.6195 12.2239 10.8192 12.2247C11.0186 12.2255 11.1747 12.1162 11.1841 11.9187C11.202 11.5392 11.2085 11.1573 11.1816 10.779C11.1739 10.6721 11.0532 10.5415 10.9497 10.4807C10.8017 10.3938 10.6509 10.4632 10.5262 10.5811C10.1201 10.9655 9.68193 11.3042 9.18421 11.5665C7.13501 12.6466 4.63863 12.4136 2.86173 10.9247C1.38812 9.68997 0.697579 8.08966 0.779922 6.16047C0.815795 5.31625 1.05426 4.53078 1.4456 3.78734C1.48677 3.7094 1.52957 3.63147 1.56259 3.54986C1.64249 3.35115 1.57686 3.14958 1.40687 3.05736C1.23118 2.96147 1.00372 3.01411 0.898138 3.21323C0.717146 3.55435 0.522703 3.89628 0.402042 4.26066C-0.413235 6.72356 0.00133324 8.95551 1.73502 10.9027C2.77939 12.0758 4.11522 12.7364 5.66384 12.9404C7.3372 13.1607 8.87032 12.7629 10.2571 11.7999C10.3064 11.7656 10.3578 11.7342 10.4344 11.6845L10.434 11.6849Z" fill="#424657"/>
<path d="M9.61378 6.97654L8.51886 6.54443V8.58053H9.77398C9.83146 8.58053 9.87793 8.5336 9.87793 8.47607V7.30297C9.87793 7.16628 9.77602 7.04142 9.61378 6.97654Z" fill="white"/>
<path d="M3.11212 7.30297V8.47607C3.11212 8.5336 3.1586 8.58053 3.21607 8.58053H4.47119V6.54443L3.37627 6.97654C3.21403 7.04101 3.11212 7.16628 3.11212 7.30297Z" fill="white"/>
<path d="M4.81861 6.07849V8.58097H5.80101V7.24017C5.80101 6.85621 6.11204 6.54529 6.49522 6.54529C6.8784 6.54529 7.18943 6.85662 7.18943 7.24017V8.58097H8.19141V6.07849C8.19141 5.98791 8.14657 5.90263 8.07197 5.85081L6.83234 4.99271V4.52347H7.42301C7.50535 4.52347 7.5722 4.45655 7.5722 4.37413V3.98854C7.5722 3.90612 7.50535 3.8392 7.42301 3.8392H6.83234V3.32793C6.83234 3.24551 6.76549 3.17859 6.68314 3.17859H6.29793C6.21558 3.17859 6.14873 3.24551 6.14873 3.32793V3.8392H5.55806C5.47572 3.8392 5.40927 3.90612 5.40927 3.98854V4.37413C5.40927 4.45655 5.47572 4.52347 5.55806 4.52347H6.14873V5.01311L4.93764 5.85081C4.86304 5.90263 4.8182 5.98791 4.8182 6.07849H4.81861Z" fill="white"/>
</g>
<defs>
<clipPath id="clip0_134_1195">
<rect width="13" height="13" fill="white" transform="matrix(-1 0 0 1 13 0)"/>
</clipPath>
</defs>
</svg>
