<svg width="14" height="14" viewBox="0 0 14 14" fill="none" xmlns="http://www.w3.org/2000/svg">
<circle cx="7" cy="7" r="7" fill="#424657"/>
<circle cx="7" cy="7" r="5.3" fill="#424657" stroke="white" stroke-width="1.4"/>
<path d="M6.548 9.6V8.88H7.364V9.6H6.548ZM6.548 4.806V4.086H7.364V4.806H6.548ZM6.962 9.09C6.652 9.09 6.375 9.033 6.131 8.919C5.887 8.803 5.688 8.64 5.534 8.43C5.38 8.218 5.282 7.968 5.24 7.68L6.05 7.554C6.104 7.79 6.217 7.978 6.389 8.118C6.563 8.258 6.77 8.328 7.01 8.328C7.236 8.328 7.423 8.275 7.571 8.169C7.721 8.063 7.796 7.932 7.796 7.776C7.796 7.67 7.763 7.583 7.697 7.515C7.633 7.445 7.532 7.388 7.394 7.344L6.326 7.014C5.71 6.824 5.402 6.448 5.402 5.886C5.402 5.622 5.464 5.393 5.588 5.199C5.714 5.005 5.891 4.856 6.119 4.752C6.349 4.646 6.62 4.594 6.932 4.596C7.218 4.6 7.472 4.652 7.694 4.752C7.916 4.85 8.101 4.993 8.249 5.181C8.399 5.367 8.508 5.594 8.576 5.862L7.736 6.012C7.708 5.884 7.656 5.772 7.58 5.676C7.504 5.578 7.409 5.502 7.295 5.448C7.183 5.392 7.058 5.362 6.92 5.358C6.788 5.354 6.668 5.373 6.56 5.415C6.454 5.457 6.369 5.516 6.305 5.592C6.243 5.666 6.212 5.75 6.212 5.844C6.212 5.948 6.256 6.038 6.344 6.114C6.432 6.188 6.572 6.252 6.764 6.306L7.526 6.522C7.908 6.632 8.183 6.781 8.351 6.969C8.521 7.157 8.606 7.406 8.606 7.716C8.606 7.988 8.537 8.227 8.399 8.433C8.261 8.639 8.068 8.8 7.82 8.916C7.574 9.032 7.288 9.09 6.962 9.09Z" fill="white"/>
</svg>
