<svg width="12" height="12" viewBox="0 0 12 12" fill="none" xmlns="http://www.w3.org/2000/svg">
<g clip-path="url(#clip0_54_1213)">
<path d="M2.54609 1.06307C2.54609 0.856423 2.54408 0.686937 2.54649 0.51786C2.55092 0.208702 2.73229 0.00245992 2.99691 0.000417921C3.26475 -0.00162408 3.44492 0.19645 3.45417 0.510509C3.45939 0.685712 3.45497 0.861324 3.45497 1.04919H8.54629C8.54629 0.869084 8.54428 0.700823 8.5467 0.532562C8.55192 0.207068 8.73169 -0.00162408 9.00234 9.52159e-06C9.275 0.00164312 9.45115 0.209518 9.45517 0.536238C9.45718 0.698781 9.45517 0.861324 9.45517 1.06307C9.68842 1.06307 9.90599 1.06512 10.1236 1.06266C10.4437 1.05858 10.7517 1.11249 11.0336 1.27136C11.6453 1.61645 11.9908 2.14288 11.9932 2.85717C12.002 5.31451 12 7.77226 11.9948 10.2296C11.9928 11.1828 11.203 11.9927 10.2631 11.9947C7.42146 12.0021 4.58021 12.0016 1.73856 11.9951C0.807562 11.9931 0.0104847 11.1946 0.00686523 10.2512C-0.00278656 7.77348 -0.00359088 5.29532 0.00646307 2.81756C0.0104847 1.84761 0.809171 1.08186 1.79486 1.06389C2.03495 1.0594 2.27504 1.06307 2.54529 1.06307H2.54609ZM11.1048 5.79275H0.896841C0.896841 5.86789 0.896841 5.92793 0.896841 5.98755C0.896841 7.34875 0.896037 8.70994 0.896841 10.0707C0.897244 10.7266 1.25919 11.0913 1.90827 11.0913C4.6349 11.0917 7.36194 11.0917 10.0886 11.0913C10.7485 11.0913 11.1036 10.7283 11.104 10.054C11.1048 8.71321 11.104 7.37244 11.104 6.03207C11.104 5.95856 11.104 5.88505 11.104 5.79234L11.1048 5.79275ZM5.99098 4.85955C6.78202 4.85955 7.57267 4.85955 8.36371 4.85955C9.21508 4.85955 10.066 4.85874 10.9174 4.86037C11.0272 4.86037 11.1096 4.85915 11.108 4.70355C11.1008 4.09095 11.1141 3.47794 11.1016 2.86534C11.0916 2.36628 10.7083 1.98932 10.2277 1.97952C10.0202 1.97544 9.81189 1.9832 9.60437 1.97707C9.48935 1.9738 9.45195 2.02036 9.45437 2.13349C9.46 2.36464 9.45879 2.59661 9.45517 2.82777C9.44994 3.14223 9.2734 3.33704 8.99953 3.33663C8.72767 3.33622 8.55353 3.14101 8.5475 2.82409C8.54348 2.59947 8.54308 2.37485 8.5475 2.15023C8.54991 2.03629 8.52538 1.97666 8.39347 1.97707C6.79851 1.98075 5.20315 1.98075 3.60819 1.97707C3.47669 1.97707 3.45175 2.03629 3.45376 2.15064C3.45859 2.3822 3.4606 2.61377 3.45296 2.84492C3.44331 3.14959 3.26716 3.33622 3.00174 3.33663C2.72907 3.33704 2.55052 3.14019 2.54609 2.82818C2.54288 2.60356 2.53966 2.37853 2.5477 2.15432C2.55253 2.02363 2.51352 1.9689 2.37799 1.97707C2.21109 1.98687 2.04299 1.97911 1.87529 1.97952C1.26281 1.98116 0.89845 2.34708 0.896439 2.96703C0.894831 3.50489 0.896037 4.04276 0.896439 4.58062C0.896439 4.76685 0.985852 4.8601 1.16468 4.86037C2.77331 4.86037 4.38194 4.86037 5.99018 4.86037L5.99098 4.85955Z" fill="#424657"/>
</g>
<defs>
<clipPath id="clip0_54_1213">
<rect width="12" height="12" fill="white"/>
</clipPath>
</defs>
</svg>
