<svg width="109" height="88" viewBox="0 0 109 88" fill="none" xmlns="http://www.w3.org/2000/svg">
<path d="M103.637 60.3877C103.637 62.0989 103.553 63.7969 103.383 65.464C102.991 69.2911 102.172 72.9861 100.964 76.5096C100.817 76.9407 100.666 77.3674 100.506 77.7897H4.89232C4.73195 77.363 4.5805 76.9407 4.43349 76.5096C3.64058 74.1958 3.01248 71.8072 2.56702 69.3526C2.03693 66.445 1.76074 63.4494 1.76074 60.3877C1.76074 32.6045 24.5638 10.0867 52.6989 10.0867C80.8341 10.0867 103.637 32.6045 103.637 60.3877Z" fill="url(#paint0_linear_142_3442)"/>
<path opacity="0.53" d="M103.383 65.4641C102.991 69.2911 102.171 72.9862 100.964 76.5097C100.817 76.9408 100.665 77.3674 100.505 77.7897H4.8917C4.73134 77.363 4.57988 76.9408 4.43288 76.5097C3.63996 74.1959 3.01186 71.8073 2.56641 69.3527C5.78707 67.3996 11.1326 63.4274 14.2552 62.6884C17.3779 61.9538 25.2313 65.8996 27.4765 66.6474C29.7216 67.3996 54.1505 57.6077 56.8946 56.2265C59.6341 54.8408 84.2234 66.841 85.9964 67.6723C88.8963 65.9172 92.8297 63.9421 94.6516 63.9421C96.4736 63.9421 97.9614 65.1826 99.8323 66.1019C101.703 67.0257 102.781 64.8703 103.383 65.4641Z" fill="url(#paint1_linear_142_3442)"/>
<path d="M80.4199 44.794L87.5829 43.9714C94.1445 47.4069 96.1669 42.6649 96.1669 42.6649C105.847 43.6942 109.424 41.2837 108.809 37.1619C108.194 33.0402 101.664 36.4185 101.664 36.4185C99.7974 33.8452 94.2559 39.3746 94.2559 39.3746C94.2559 39.3746 89.3825 38.486 88.9727 40.9449L80.4244 44.7896L80.4199 44.794Z" fill="url(#paint2_linear_142_3442)"/>
<path d="M69.5908 41.9742L75.4709 39.5416C80.8609 41.1824 82.2597 36.7835 82.2597 36.7835C84.5894 36.7835 84.5939 35.9258 84.5939 35.9258C88.113 35.9258 90.3759 29.5782 85.1195 31.4697C79.8631 33.3612 79.9121 35.5958 79.9121 35.5958C75.7381 34.8744 75.4753 37.7645 75.4753 37.7645C73.6801 37.7645 69.5953 41.9698 69.5953 41.9698L69.5908 41.9742Z" fill="url(#paint3_linear_142_3442)"/>
<path d="M0.00105813 37.8789C0.344061 45.3966 10.1887 42.8321 10.1887 42.8321C13.7746 46.1356 15.2758 44.0901 15.2758 44.0901C22.1181 46.6723 24.528 44.9171 24.528 44.9171C25.3833 45.3834 28.5104 46.0784 28.5104 46.0784C28.5104 46.0784 24.3142 43.3511 19.7972 43.0212C18.7682 40.2015 14.1622 40.8262 14.1622 40.8262C14.7725 36.3261 8.98151 37.8129 8.98151 37.8129C8.79887 36.2074 6.75421 37.1927 6.75421 37.1927C6.04593 34.7645 -0.0924882 35.8642 0.00105813 37.8833V37.8789Z" fill="url(#paint4_linear_142_3442)"/>
<path d="M7.08897 22.6675C4.68795 27.5371 13.1071 27.735 13.1071 27.735C14.2698 29.9829 18.3635 29.6793 18.3635 29.6793C18.6753 31.2101 22.3548 30.955 22.3548 30.955C23.7224 32.7146 26.4753 33.5283 26.4753 33.5283C21.8693 29.0063 19.7756 29.6749 19.7756 29.6749C19.3079 26.8201 16.4124 26.257 16.4124 26.257C15.82 22.5928 11.891 24.4579 11.891 24.4579C11.9667 22.7907 9.85081 23.4945 9.85081 23.4945C10.0468 22.0297 7.66806 21.4886 7.08451 22.6675H7.08897Z" fill="url(#paint5_linear_142_3442)"/>
<path d="M53.7328 87.2647C81.3338 87.2647 103.709 85.9728 103.709 84.3791C103.709 82.7854 81.3338 81.4934 53.7328 81.4934C26.1319 81.4934 3.75684 82.7854 3.75684 84.3791C3.75684 85.9728 26.1319 87.2647 53.7328 87.2647Z" fill="url(#paint6_linear_142_3442)"/>
<path d="M3.75662 84.379C-0.591059 82.2279 1.72533 78.0006 4.95045 79.1091C3.40916 73.4302 9.3694 72.7132 10.2069 75.8408C11.8907 73.0167 14.8352 74.4419 14.8352 75.8408C13.922 71.2835 19.851 68.631 21.5839 71.7234C23.0583 70.2674 25.2099 71.8026 25.2099 71.8026V84.3746H3.75662V84.379Z" fill="url(#paint7_linear_142_3442)"/>
<path d="M8.4515 84.379C6.70085 81.3965 9.32905 78.4889 11.0441 80.1825C13.0754 77.5167 16.3361 78.4845 16.5499 79.5226C19.1781 75.8188 22.2652 77.2704 22.5815 78.7616C24.7375 78.4317 25.2097 79.4522 25.2097 79.4522V84.3746H8.4515V84.379Z" fill="url(#paint8_linear_142_3442)"/>
<path d="M81.2754 71.1824C82.2554 69.612 86.1353 69.9595 86.1353 72.3041C88.3805 70.9097 91.0889 73.8041 89.9663 75.5417C92.0689 75.3393 93.1469 76.8174 92.492 77.8291C93.4988 76.835 95.8553 75.8452 97.0714 77.552C98.0068 75.2426 101.37 76.03 101.651 77.8291C104.176 77.8291 106.043 80.1781 103.709 84.379H81.2754V71.1824Z" fill="url(#paint9_linear_142_3442)"/>
<path d="M52.9445 0H52.459V6.14522H52.9445V0Z" fill="url(#paint10_linear_142_3442)"/>
<path d="M54.0215 1.74632V1.26685L51.3844 1.26685V1.74632L54.0215 1.74632Z" fill="url(#paint11_linear_142_3442)"/>
<path d="M57.3233 11.3095V23.4195H48.0801V11.3095L52.6995 5.48535L57.3233 11.3095Z" fill="url(#paint12_linear_142_3442)"/>
<path d="M57.3233 10.5573V11.3095L52.6995 5.48536L48.0801 11.3095V10.5573L52.6995 4.73315L57.3233 10.5573Z" fill="url(#paint13_linear_142_3442)"/>
<path d="M58.9578 21.8535H46.4404V47.2658H58.9578V21.8535Z" fill="url(#paint14_linear_142_3442)"/>
<path style="mix-blend-mode:multiply" d="M46.4404 21.8535L58.9578 40.3904V21.8535H46.4404Z" fill="url(#paint15_linear_142_3442)"/>
<path d="M60.0091 21.8535H45.3936L48.1242 19.6057H57.2739L60.0091 21.8535Z" fill="url(#paint16_linear_142_3442)"/>
<path d="M81.2754 64.7292H24.123V80.9567H81.2754V64.7292Z" fill="url(#paint17_linear_142_3442)"/>
<path d="M38.8855 80.9568H24.123V84.3791H38.8855V80.9568Z" fill="url(#paint18_linear_142_3442)"/>
<path d="M36.3563 76.338V71.6708C36.3563 70.3643 35.6792 69.1106 34.4987 68.2308L34.3339 68.1077L34.1691 68.2308C32.9886 69.1106 32.3115 70.3643 32.3115 71.6708V76.338H36.3607H36.3563Z" fill="#F5FAF4"/>
<path d="M34.3292 68.4463C35.4429 69.2777 36.0799 70.4434 36.0799 71.6707V76.0651H32.583V71.6707C32.583 70.4478 33.2156 69.2777 34.3337 68.4463H34.3292Z" fill="url(#paint19_linear_142_3442)"/>
<path d="M34.2184 73.7821V71.5695H32.5836C32.5836 71.4947 32.588 71.4155 32.6014 71.3363H34.2184V68.5387C34.254 68.5079 34.2941 68.4771 34.3298 68.4463C34.3698 68.4771 34.4144 68.5079 34.45 68.5431V71.3363H36.0581C36.067 71.4111 36.076 71.4903 36.076 71.5695H34.45V73.7821H36.076V74.0153H34.45V76.0651H34.2139V74.0153H32.5791V73.7821H34.2139H34.2184Z" fill="#F5FAF4"/>
<path d="M30.5428 76.338V71.6708C30.5428 70.3643 29.8657 69.1106 28.6852 68.2308L28.5204 68.1077L28.3556 68.2308C27.1751 69.1106 26.498 70.3643 26.498 71.6708V76.338H30.5473H30.5428Z" fill="#F5FAF4"/>
<path d="M28.5157 68.4463C29.6294 69.2777 30.2664 70.4434 30.2664 71.6707V76.0651H26.7695V71.6707C26.7695 70.4478 27.4021 69.2777 28.5202 68.4463H28.5157Z" fill="url(#paint20_linear_142_3442)"/>
<path d="M28.4049 73.7821V71.5695H26.7701C26.7701 71.4947 26.7745 71.4155 26.7879 71.3363H28.4049V68.5387C28.4405 68.5079 28.4806 68.4771 28.5163 68.4463C28.5564 68.4771 28.6009 68.5079 28.6366 68.5431V71.3363H30.2447C30.2536 71.4111 30.2625 71.4903 30.2625 71.5695H28.6366V73.7821H30.2625V74.0153H28.6366V76.0651H28.4005V74.0153H26.7656V73.7821H28.4005H28.4049Z" fill="#F5FAF4"/>
<path style="mix-blend-mode:multiply" d="M24.123 64.7292L31.5043 84.379H41.2999L40.5783 64.7556L24.123 64.7292Z" fill="url(#paint21_linear_142_3442)"/>
<path d="M83.819 64.7294H21.584L24.7066 52.6589H80.6919L83.819 64.7294Z" fill="url(#paint22_linear_142_3442)"/>
<path d="M66.5131 44.7408V80.9567H38.8857V44.7408L52.6994 27.3389L66.5131 44.7408Z" fill="url(#paint23_linear_142_3442)"/>
<path d="M66.5131 43.8524V44.7409L52.6994 27.339L38.8857 44.7409V43.8524L52.6994 26.4504L66.5131 43.8524Z" fill="url(#paint24_linear_142_3442)"/>
<path d="M58.9578 64.549V80.9568H46.4404V64.549L52.6991 56.6663L58.9578 64.549Z" fill="url(#paint25_linear_142_3442)"/>
<path d="M58.9578 63.6472V64.5489L52.6991 56.6662L46.4404 64.5489V63.6472L52.6991 55.7644L58.9578 63.6472Z" fill="url(#paint26_linear_142_3442)"/>
<path d="M55.399 70.1223H50V80.9567H55.399V70.1223Z" fill="url(#paint27_linear_142_3442)"/>
<path d="M52.6995 70.1223H50V80.9567H52.6995V70.1223Z" fill="url(#paint28_linear_142_3442)"/>
<path d="M52.6995 63.9463C50.98 65.2264 50 67.0299 50 68.9214V69.3525H55.399V68.9214C55.399 67.0299 54.419 65.2264 52.6995 63.9463Z" fill="#F5FAF4"/>
<path d="M55.123 68.9216V69.0799H50.2764V68.9216C50.2764 68.033 50.508 67.1576 50.9401 66.3526C50.9936 66.2558 51.047 66.1635 51.1049 66.0711C51.4747 65.4596 51.9647 64.901 52.5571 64.4083C52.6061 64.3687 52.6507 64.3291 52.6997 64.2896C52.7487 64.3291 52.7932 64.3643 52.8422 64.4083C53.4391 64.901 53.9291 65.4596 54.2944 66.0711C54.3523 66.1635 54.4058 66.2558 54.4592 66.3526C54.8958 67.1576 55.123 68.033 55.123 68.9216Z" fill="url(#paint29_linear_142_3442)"/>
<path d="M81.2752 80.9568H66.5127V84.3791H81.2752V80.9568Z" fill="url(#paint30_linear_142_3442)"/>
<path d="M57.3242 46.1579C57.9235 43.6366 56.3396 41.113 53.7864 40.5212C51.2332 39.9294 48.6776 41.4935 48.0783 44.0147C47.479 46.536 49.0629 49.0596 51.6161 49.6514C54.1693 50.2432 56.7249 48.6791 57.3242 46.1579Z" fill="url(#paint31_linear_142_3442)"/>
<path d="M56.785 46.0313C57.3144 43.8058 55.9167 41.5779 53.663 41.0551C51.4093 40.5323 49.1531 41.9126 48.6237 44.1381C48.0942 46.3636 49.492 48.5915 51.7457 49.1144C53.9994 49.6372 56.2556 48.2568 56.785 46.0313Z" fill="#F5FAF4"/>
<path d="M56.1991 45.8887C56.6537 43.9778 55.4535 42.0647 53.5183 41.6158C51.5832 41.1669 49.6459 42.3521 49.1913 44.263C48.7367 46.174 49.9369 48.0871 51.8721 48.536C53.8072 48.9849 55.7445 47.7997 56.1991 45.8887Z" fill="url(#paint32_linear_142_3442)"/>
<path d="M53.0154 41.5474H52.3828V48.6251H53.0154V41.5474Z" fill="#F5FAF4"/>
<path d="M56.2852 45.3964V44.7717H49.1177V45.3964H56.2852Z" fill="#F5FAF4"/>
<path style="mix-blend-mode:multiply" d="M38.8857 44.7408L51.4031 63.2776L66.5131 44.7408L52.6994 27.3389L38.8857 44.7408Z" fill="url(#paint33_linear_142_3442)"/>
<path d="M55.2966 14.4547C55.2966 15.8711 54.1339 17.0192 52.6996 17.0192C51.2652 17.0192 50.1025 15.8711 50.1025 14.4547C50.1025 13.0382 51.2652 11.8901 52.6996 11.8901C54.1339 11.8901 55.2966 13.0382 55.2966 14.4547Z" fill="url(#paint34_linear_142_3442)"/>
<path d="M54.9935 14.4546C54.9935 15.7039 53.9689 16.72 52.6994 16.72C51.4298 16.72 50.4053 15.7083 50.4053 14.4546C50.4053 13.2009 51.4298 12.1892 52.6994 12.1892C53.9689 12.1892 54.9935 13.2009 54.9935 14.4546Z" fill="#F5FAF4"/>
<path d="M54.6683 14.4546C54.6683 15.5279 53.7863 16.3989 52.6994 16.3989C51.6125 16.3989 50.7305 15.5279 50.7305 14.4546C50.7305 13.3812 51.6125 12.5103 52.6994 12.5103C53.7863 12.5103 54.6683 13.3812 54.6683 14.4546Z" fill="url(#paint35_linear_142_3442)"/>
<path d="M52.8777 12.5193H52.5303V16.3903H52.8777V12.5193Z" fill="#F5FAF4"/>
<path d="M54.6641 14.6307V14.2876H50.744V14.6307H54.6641Z" fill="#F5FAF4"/>
<path style="mix-blend-mode:multiply" d="M48.0801 11.3095L57.4481 23.6571L57.3233 11.3095L52.6995 5.48535L48.0801 11.3095Z" fill="url(#paint36_linear_142_3442)"/>
<path d="M69.0425 76.338V71.6708C69.0425 70.3643 69.7196 69.1106 70.9001 68.2308L71.0649 68.1077L71.2297 68.2308C72.4102 69.1106 73.0873 70.3643 73.0873 71.6708V76.338H69.0381H69.0425Z" fill="#F5FAF4"/>
<path d="M71.069 68.4463C69.9554 69.2777 69.3184 70.4434 69.3184 71.6707V76.0651H72.8152V71.6707C72.8152 70.4478 72.1827 69.2777 71.0646 68.4463H71.069Z" fill="url(#paint37_linear_142_3442)"/>
<path d="M71.1847 73.7821V71.5695H72.8195C72.8195 71.4947 72.8151 71.4155 72.8017 71.3363H71.1847V68.5387C71.1491 68.5079 71.109 68.4771 71.0733 68.4463C71.0333 68.4771 70.9887 68.5079 70.9531 68.5431V71.3363H69.345C69.3361 71.4111 69.3271 71.4903 69.3271 71.5695H70.9531V73.7821H69.3271V74.0153H70.9531V76.0651H71.1892V74.0153H72.824V73.7821H71.1892H71.1847Z" fill="#F5FAF4"/>
<path d="M74.8599 76.338V71.6708C74.8599 70.3643 75.537 69.1106 76.7175 68.2308L76.8823 68.1077L77.0471 68.2308C78.2276 69.1106 78.9047 70.3643 78.9047 71.6708V76.338H74.8555H74.8599Z" fill="#F5FAF4"/>
<path d="M76.8825 68.4463C75.7688 69.2777 75.1318 70.4434 75.1318 71.6707V76.0651H78.6287V71.6707C78.6287 70.4478 77.9961 69.2777 76.878 68.4463H76.8825Z" fill="url(#paint38_linear_142_3442)"/>
<path d="M76.9982 73.7821V71.5695H78.633C78.633 71.4947 78.6286 71.4155 78.6152 71.3363H76.9982V68.5387C76.9626 68.5079 76.9225 68.4771 76.8868 68.4463C76.8467 68.4771 76.8022 68.5079 76.7666 68.5431V71.3363H75.1584C75.1495 71.4111 75.1406 71.4903 75.1406 71.5695H76.7666V73.7821H75.1406V74.0153H76.7666V76.0651H77.0026V74.0153H78.6375V73.7821H77.0026H76.9982Z" fill="#F5FAF4"/>
<path style="mix-blend-mode:multiply" d="M66.5127 52.6589L81.2752 84.3792H66.5127V52.6589Z" fill="url(#paint39_linear_142_3442)"/>
<path d="M35.7588 82.14H52.6996V81.7969H37.3001L35.7588 82.14Z" fill="url(#paint40_linear_142_3442)"/>
<path d="M34.2129 83.3014H52.6994V82.9583H35.7586L34.2129 83.3014Z" fill="url(#paint41_linear_142_3442)"/>
<path d="M32.667 84.4669H52.6993V84.1194H34.2127L32.667 84.4669Z" fill="url(#paint42_linear_142_3442)"/>
<path d="M68.0987 81.7969H52.6992V82.14H69.6445L68.0987 81.7969Z" fill="url(#paint43_linear_142_3442)"/>
<path d="M69.6445 82.9583H52.6992V83.3014H71.1902L69.6445 82.9583Z" fill="url(#paint44_linear_142_3442)"/>
<path d="M71.1902 84.1194H52.6992V84.4669H72.7315L71.1902 84.1194Z" fill="url(#paint45_linear_142_3442)"/>
<path d="M52.6993 81.797H68.0676V80.9568H52.6993H52.6681H37.2998V81.797H52.6681H52.6993Z" fill="url(#paint46_linear_142_3442)"/>
<path d="M52.6996 82.9583H69.6137V82.1401H52.6996H52.6684H35.7588V82.9583H52.6684H52.6996Z" fill="url(#paint47_linear_142_3442)"/>
<path d="M52.6994 84.1197H71.1548V83.3015H52.6994H52.6682H34.2129V84.1197H52.6682H52.6994Z" fill="url(#paint48_linear_142_3442)"/>
<path d="M52.6993 84.467H52.6681H32.667V85.2808H52.6681H52.6993H72.7004V84.467H52.6993Z" fill="url(#paint49_linear_142_3442)"/>
<path d="M54.2938 66.0711L52.8416 68.5565V64.4083C52.7926 64.3687 52.748 64.3291 52.699 64.2896C52.65 64.3291 52.6055 64.3643 52.5565 64.4083V68.5565L51.1043 66.0711C51.0464 66.1635 50.9929 66.2558 50.9395 66.3526L52.5342 69.0799H52.8594L54.4541 66.3526C54.4007 66.2558 54.3472 66.1635 54.2893 66.0711H54.2938Z" fill="#F5FAF4"/>
<path style="mix-blend-mode:multiply" d="M46.4404 64.549L53.6123 80.948C53.6123 80.948 58.9578 81.3351 58.9578 80.9568V64.549L52.6991 56.6663L46.4404 64.549Z" fill="url(#paint50_linear_142_3442)"/>
<path style="mix-blend-mode:multiply" d="M58.958 63.6472L65.1543 80.9568H58.958V63.6472Z" fill="url(#paint51_linear_142_3442)"/>
<path d="M79.3331 84.9598C78.2996 83.9392 77.7562 81.2251 79.93 80.4289C79.93 77.9348 83.1195 76.6899 84.5939 79.0433C86.5584 77.5873 90.2023 79.2896 90.2023 81.5374C92.1311 80.2574 93.5655 82.7251 93.5655 82.7251C95.7393 81.1899 96.6525 82.9583 96.6525 82.9583C98.9333 82.0257 99.842 83.297 99.0357 84.9642H79.3331V84.9598Z" fill="url(#paint52_linear_142_3442)"/>
<path d="M29.4459 85.0257C30.5105 84.3395 31.2767 82.6283 29.6196 81.9685C29.4726 79.7206 26.4257 79.3775 25.8555 80.9171C23.7396 80.0857 22.3631 80.7764 22.5101 82.3996C19.9843 82.5535 21.3964 85.0257 21.3964 85.0257H29.4459Z" fill="url(#paint53_linear_142_3442)"/>
<defs>
<linearGradient id="paint0_linear_142_3442" x1="52.9039" y1="55.8129" x2="54.7805" y2="12.2533" gradientUnits="userSpaceOnUse">
<stop stop-color="#FFF4EB"/>
<stop offset="1" stop-color="#FFE3A8"/>
</linearGradient>
<linearGradient id="paint1_linear_142_3442" x1="52.8275" y1="63.5726" x2="53.3749" y2="77.975" gradientUnits="userSpaceOnUse">
<stop stop-color="#B07E09"/>
<stop offset="1" stop-color="#B07E09"/>
</linearGradient>
<linearGradient id="paint2_linear_142_3442" x1="95.502" y1="43.9757" x2="94.1305" y2="39.1772" gradientUnits="userSpaceOnUse">
<stop stop-color="#FFED96"/>
<stop offset="1" stop-color="#ECE190"/>
</linearGradient>
<linearGradient id="paint3_linear_142_3442" x1="79.6716" y1="38.4331" x2="78.3002" y2="35.7884" gradientUnits="userSpaceOnUse">
<stop stop-color="#FFED96"/>
<stop offset="1" stop-color="#ECE190"/>
</linearGradient>
<linearGradient id="paint4_linear_142_3442" x1="14.5878" y1="43.5818" x2="13.3411" y2="38.458" gradientUnits="userSpaceOnUse">
<stop stop-color="#FFED96"/>
<stop offset="1" stop-color="#ECE190"/>
</linearGradient>
<linearGradient id="paint5_linear_142_3442" x1="16.4232" y1="29.2912" x2="17.1837" y2="26.2219" gradientUnits="userSpaceOnUse">
<stop stop-color="#FFED96"/>
<stop offset="1" stop-color="#ECE190"/>
</linearGradient>
<linearGradient id="paint6_linear_142_3442" x1="53.6794" y1="87.2603" x2="53.7489" y2="83.4553" gradientUnits="userSpaceOnUse">
<stop stop-color="#BA334D"/>
<stop offset="1" stop-color="#231F20"/>
</linearGradient>
<linearGradient id="paint7_linear_142_3442" x1="12.5322" y1="72.9023" x2="14.7235" y2="84.1739" gradientUnits="userSpaceOnUse">
<stop stop-color="#BA334D"/>
<stop offset="1" stop-color="#231F20"/>
</linearGradient>
<linearGradient id="paint8_linear_142_3442" x1="16.051" y1="78.6341" x2="17.2337" y2="84.7189" gradientUnits="userSpaceOnUse">
<stop stop-color="#BA334D"/>
<stop offset="1" stop-color="#231F20"/>
</linearGradient>
<linearGradient id="paint9_linear_142_3442" x1="90.6033" y1="70.2938" x2="93.2164" y2="83.7405" gradientUnits="userSpaceOnUse">
<stop stop-color="#BA334D"/>
<stop offset="1" stop-color="#231F20"/>
</linearGradient>
<linearGradient id="paint10_linear_142_3442" x1="52.4768" y1="0.118769" x2="52.8417" y2="5.05938" gradientUnits="userSpaceOnUse">
<stop stop-color="#B07E09"/>
<stop offset="1" stop-color="#855914"/>
</linearGradient>
<linearGradient id="paint11_linear_142_3442" x1="52.596" y1="0.109947" x2="52.9609" y2="5.05054" gradientUnits="userSpaceOnUse">
<stop stop-color="#B07E09"/>
<stop offset="1" stop-color="#855914"/>
</linearGradient>
<linearGradient id="paint12_linear_142_3442" x1="52.9935" y1="20.0984" x2="51.5118" y2="5.92133" gradientUnits="userSpaceOnUse">
<stop stop-color="#F5FAF4"/>
<stop offset="1" stop-color="#ABC8E9"/>
</linearGradient>
<linearGradient id="paint13_linear_142_3442" x1="48.0801" y1="8.01911" x2="57.3233" y2="8.01911" gradientUnits="userSpaceOnUse">
<stop stop-color="#7A9072"/>
<stop offset="1" stop-color="#231F20"/>
</linearGradient>
<linearGradient id="paint14_linear_142_3442" x1="52.6724" y1="33.163" x2="52.4595" y2="22.1437" gradientUnits="userSpaceOnUse">
<stop stop-color="#F5FAF4"/>
<stop offset="1" stop-color="#ABC8E9"/>
</linearGradient>
<linearGradient id="paint15_linear_142_3442" x1="52.7303" y1="22.0339" x2="55.4861" y2="39.0158" gradientUnits="userSpaceOnUse">
<stop stop-color="#ABC8E9"/>
<stop offset="0.16" stop-color="#C7DAF0"/>
<stop offset="0.35" stop-color="#DFEAF6"/>
<stop offset="0.54" stop-color="#F1F5FB"/>
<stop offset="0.75" stop-color="#FBFCFE"/>
<stop offset="1" stop-color="white"/>
</linearGradient>
<linearGradient id="paint16_linear_142_3442" x1="45.3936" y1="20.7318" x2="60.0091" y2="20.7318" gradientUnits="userSpaceOnUse">
<stop stop-color="#7A9072"/>
<stop offset="1" stop-color="#231F20"/>
</linearGradient>
<linearGradient id="paint17_linear_142_3442" x1="52.6992" y1="79.4479" x2="52.6992" y2="63.8319" gradientUnits="userSpaceOnUse">
<stop stop-color="#ABC8E9"/>
<stop offset="1" stop-color="#ABC8E9"/>
</linearGradient>
<linearGradient id="paint18_linear_142_3442" x1="31.5043" y1="80.7852" x2="31.5043" y2="84.4319" gradientUnits="userSpaceOnUse">
<stop stop-color="#85AB70"/>
<stop offset="1" stop-color="#855914"/>
</linearGradient>
<linearGradient id="paint19_linear_142_3442" x1="34.3604" y1="75.6296" x2="34.2518" y2="68.6398" gradientUnits="userSpaceOnUse">
<stop stop-color="#B07E09"/>
<stop offset="1" stop-color="#855914"/>
</linearGradient>
<linearGradient id="paint20_linear_142_3442" x1="28.5469" y1="75.7176" x2="28.4427" y2="68.7278" gradientUnits="userSpaceOnUse">
<stop stop-color="#B07E09"/>
<stop offset="1" stop-color="#855914"/>
</linearGradient>
<linearGradient id="paint21_linear_142_3442" x1="26.5909" y1="63.1852" x2="37.0467" y2="76.1018" gradientUnits="userSpaceOnUse">
<stop stop-color="#ABC8E9"/>
<stop offset="0.16" stop-color="#C7DAF0"/>
<stop offset="0.35" stop-color="#DFEAF6"/>
<stop offset="0.54" stop-color="#F1F5FB"/>
<stop offset="0.75" stop-color="#FBFCFE"/>
<stop offset="1" stop-color="white"/>
</linearGradient>
<linearGradient id="paint22_linear_142_3442" x1="51.942" y1="53.9786" x2="52.7848" y2="66.2485" gradientUnits="userSpaceOnUse">
<stop stop-color="#7A9072"/>
<stop offset="1" stop-color="#231F20"/>
</linearGradient>
<linearGradient id="paint23_linear_142_3442" x1="52.4277" y1="30.6644" x2="52.849" y2="81.731" gradientUnits="userSpaceOnUse">
<stop stop-color="#F5FAF4"/>
<stop offset="1" stop-color="#ABC8E9"/>
</linearGradient>
<linearGradient id="paint24_linear_142_3442" x1="38.8857" y1="35.5957" x2="66.5131" y2="35.5957" gradientUnits="userSpaceOnUse">
<stop stop-color="#7A9072"/>
<stop offset="1" stop-color="#231F20"/>
</linearGradient>
<linearGradient id="paint25_linear_142_3442" x1="53.0778" y1="80.7149" x2="52.0222" y2="57.8923" gradientUnits="userSpaceOnUse">
<stop stop-color="#F5FAF4"/>
<stop offset="1" stop-color="#ABC8E9"/>
</linearGradient>
<linearGradient id="paint26_linear_142_3442" x1="46.4404" y1="60.1545" x2="58.9578" y2="60.1545" gradientUnits="userSpaceOnUse">
<stop stop-color="#7A9072"/>
<stop offset="1" stop-color="#231F20"/>
</linearGradient>
<linearGradient id="paint27_linear_142_3442" x1="57.4614" y1="71.156" x2="50.6421" y2="77.5892" gradientUnits="userSpaceOnUse">
<stop stop-color="#7A9072"/>
<stop offset="1" stop-color="#231F20"/>
</linearGradient>
<linearGradient id="paint28_linear_142_3442" x1="49.8664" y1="70.8173" x2="52.8658" y2="80.6086" gradientUnits="userSpaceOnUse">
<stop stop-color="#7A9072"/>
<stop offset="1" stop-color="#231F20"/>
</linearGradient>
<linearGradient id="paint29_linear_142_3442" x1="52.6997" y1="69.0227" x2="52.6562" y2="64.3335" gradientUnits="userSpaceOnUse">
<stop stop-color="#B07E09"/>
<stop offset="1" stop-color="#855914"/>
</linearGradient>
<linearGradient id="paint30_linear_142_3442" x1="73.8939" y1="-10.9268" x2="73.8939" y2="-10.9268" gradientUnits="userSpaceOnUse">
<stop stop-color="#85AB70"/>
<stop offset="1" stop-color="#855914"/>
</linearGradient>
<linearGradient id="paint31_linear_142_3442" x1="47.9561" y1="45.0812" x2="57.4533" y2="45.0812" gradientUnits="userSpaceOnUse">
<stop stop-color="#7A9072"/>
<stop offset="1" stop-color="#231F20"/>
</linearGradient>
<linearGradient id="paint32_linear_142_3442" x1="52.6905" y1="48.6344" x2="52.6905" y2="41.5258" gradientUnits="userSpaceOnUse">
<stop stop-color="#B07E09"/>
<stop offset="1" stop-color="#855914"/>
</linearGradient>
<linearGradient id="paint33_linear_142_3442" x1="45.1444" y1="38.2657" x2="51.7044" y2="45.1224" gradientUnits="userSpaceOnUse">
<stop stop-color="#ABC8E9"/>
<stop offset="0.16" stop-color="#C7DAF0"/>
<stop offset="0.35" stop-color="#DFEAF6"/>
<stop offset="0.54" stop-color="#F1F5FB"/>
<stop offset="0.75" stop-color="#FBFCFE"/>
<stop offset="1" stop-color="white"/>
</linearGradient>
<linearGradient id="paint34_linear_142_3442" x1="50.1025" y1="14.4547" x2="55.2966" y2="14.4547" gradientUnits="userSpaceOnUse">
<stop stop-color="#7A9072"/>
<stop offset="1" stop-color="#231F20"/>
</linearGradient>
<linearGradient id="paint35_linear_142_3442" x1="52.6994" y1="16.3945" x2="52.6994" y2="12.5103" gradientUnits="userSpaceOnUse">
<stop stop-color="#B07E09"/>
<stop offset="1" stop-color="#855914"/>
</linearGradient>
<linearGradient id="paint36_linear_142_3442" x1="51.9378" y1="6.71264" x2="54.4719" y2="22.3564" gradientUnits="userSpaceOnUse">
<stop stop-color="#ABC8E9"/>
<stop offset="0.16" stop-color="#C7DAF0"/>
<stop offset="0.35" stop-color="#DFEAF6"/>
<stop offset="0.54" stop-color="#F1F5FB"/>
<stop offset="0.75" stop-color="#FBFCFE"/>
<stop offset="1" stop-color="white"/>
</linearGradient>
<linearGradient id="paint37_linear_142_3442" x1="71.0423" y1="75.6296" x2="71.1465" y2="68.6398" gradientUnits="userSpaceOnUse">
<stop stop-color="#B07E09"/>
<stop offset="1" stop-color="#855914"/>
</linearGradient>
<linearGradient id="paint38_linear_142_3442" x1="76.8558" y1="75.7176" x2="76.96" y2="68.7278" gradientUnits="userSpaceOnUse">
<stop stop-color="#B07E09"/>
<stop offset="1" stop-color="#855914"/>
</linearGradient>
<linearGradient id="paint39_linear_142_3442" x1="68.887" y1="54.2645" x2="73.4554" y2="82.4357" gradientUnits="userSpaceOnUse">
<stop stop-color="#ABC8E9"/>
<stop offset="0.16" stop-color="#C7DAF0"/>
<stop offset="0.35" stop-color="#DFEAF6"/>
<stop offset="0.54" stop-color="#F1F5FB"/>
<stop offset="0.75" stop-color="#FBFCFE"/>
<stop offset="1" stop-color="white"/>
</linearGradient>
<linearGradient id="paint40_linear_142_3442" x1="44.2091" y1="81.6209" x2="44.422" y2="85.6946" gradientUnits="userSpaceOnUse">
<stop stop-color="#ABC8E9"/>
<stop offset="1" stop-color="#85AB70"/>
</linearGradient>
<linearGradient id="paint41_linear_142_3442" x1="43.3804" y1="81.665" x2="43.589" y2="85.7387" gradientUnits="userSpaceOnUse">
<stop stop-color="#ABC8E9"/>
<stop offset="1" stop-color="#85AB70"/>
</linearGradient>
<linearGradient id="paint42_linear_142_3442" x1="42.5473" y1="81.7044" x2="42.7601" y2="85.7824" gradientUnits="userSpaceOnUse">
<stop stop-color="#ABC8E9"/>
<stop offset="1" stop-color="#85AB70"/>
</linearGradient>
<linearGradient id="paint43_linear_142_3442" x1="61.0961" y1="80.7411" x2="61.309" y2="84.8192" gradientUnits="userSpaceOnUse">
<stop stop-color="#ABC8E9"/>
<stop offset="1" stop-color="#85AB70"/>
</linearGradient>
<linearGradient id="paint44_linear_142_3442" x1="61.8044" y1="80.706" x2="62.0173" y2="84.7797" gradientUnits="userSpaceOnUse">
<stop stop-color="#ABC8E9"/>
<stop offset="1" stop-color="#85AB70"/>
</linearGradient>
<linearGradient id="paint45_linear_142_3442" x1="62.5127" y1="80.6663" x2="62.7255" y2="84.7443" gradientUnits="userSpaceOnUse">
<stop stop-color="#ABC8E9"/>
<stop offset="1" stop-color="#85AB70"/>
</linearGradient>
<linearGradient id="paint46_linear_142_3442" x1="52.6859" y1="80.1914" x2="52.6859" y2="85.1973" gradientUnits="userSpaceOnUse">
<stop stop-color="#EFB7C0"/>
<stop offset="1" stop-color="#7A9072"/>
</linearGradient>
<linearGradient id="paint47_linear_142_3442" x1="52.6862" y1="80.1915" x2="52.6862" y2="85.1973" gradientUnits="userSpaceOnUse">
<stop stop-color="#EFB7C0"/>
<stop offset="1" stop-color="#7A9072"/>
</linearGradient>
<linearGradient id="paint48_linear_142_3442" x1="0.00166221" y1="80.1915" x2="0.43613" y2="85.1984" gradientUnits="userSpaceOnUse">
<stop stop-color="#EFB7C0"/>
<stop offset="1" stop-color="#7A9072"/>
</linearGradient>
<linearGradient id="paint49_linear_142_3442" x1="52.6859" y1="80.1913" x2="52.6859" y2="85.1973" gradientUnits="userSpaceOnUse">
<stop stop-color="#EFB7C0"/>
<stop offset="1" stop-color="#7A9072"/>
</linearGradient>
<linearGradient id="paint50_linear_142_3442" x1="47.4739" y1="63.0622" x2="52.0734" y2="67.8313" gradientUnits="userSpaceOnUse">
<stop stop-color="#ABC8E9"/>
<stop offset="0.16" stop-color="#C7DAF0"/>
<stop offset="0.35" stop-color="#DFEAF6"/>
<stop offset="0.54" stop-color="#F1F5FB"/>
<stop offset="0.75" stop-color="#FBFCFE"/>
<stop offset="1" stop-color="white"/>
</linearGradient>
<linearGradient id="paint51_linear_142_3442" x1="59.3456" y1="64.6502" x2="61.7971" y2="79.7745" gradientUnits="userSpaceOnUse">
<stop stop-color="#ABC8E9"/>
<stop offset="0.16" stop-color="#C7DAF0"/>
<stop offset="0.35" stop-color="#DFEAF6"/>
<stop offset="0.54" stop-color="#F1F5FB"/>
<stop offset="0.75" stop-color="#FBFCFE"/>
<stop offset="1" stop-color="white"/>
</linearGradient>
<linearGradient id="paint52_linear_142_3442" x1="87.7389" y1="77.6048" x2="89.2389" y2="85.3276" gradientUnits="userSpaceOnUse">
<stop stop-color="#BA334D"/>
<stop offset="1" stop-color="#231F20"/>
</linearGradient>
<linearGradient id="paint53_linear_142_3442" x1="25.2586" y1="80.7808" x2="26.0542" y2="84.8711" gradientUnits="userSpaceOnUse">
<stop stop-color="#BA334D"/>
<stop offset="1" stop-color="#231F20"/>
</linearGradient>
</defs>
</svg>
