<svg width="9" height="9" viewBox="0 0 9 9" fill="none" xmlns="http://www.w3.org/2000/svg">
<path d="M1.242 4.60837L0.168 5.13033C0.066 5.18132 0 5.28631 0 5.4003V8.70003C0 8.86501 0.135 9 0.3 9H1.242V4.60837ZM7.158 9V1.50063C7.158 1.38664 7.095 1.28465 6.993 1.23366L4.635 0.0337572C4.59345 0.0115936 4.54709 0 4.5 0C4.45291 0 4.40655 0.0115936 4.365 0.0337572L2.007 1.23366C1.905 1.28465 1.842 1.38664 1.842 1.50063V9H7.158ZM3.381 8.40005H2.442V7.33214H3.381V8.40005ZM5.019 8.40005H3.981V6.93318C3.981 6.6482 4.215 6.41422 4.5 6.41422C4.785 6.41422 5.019 6.6482 5.019 6.93318V8.40005ZM4.8 2.77853V4.50038C4.8 4.66537 4.665 4.80035 4.5 4.80035C4.335 4.80035 4.2 4.66537 4.2 4.50038V2.77853H3.411C3.246 2.77853 3.111 2.64354 3.111 2.47855C3.111 2.31356 3.246 2.17858 3.411 2.17858H4.2V1.50063C4.2 1.33565 4.335 1.20066 4.5 1.20066C4.665 1.20066 4.8 1.33565 4.8 1.50063V2.17858H5.589C5.754 2.17858 5.889 2.31356 5.889 2.47855C5.889 2.64354 5.754 2.77853 5.589 2.77853H4.8ZM6.558 8.40005H5.619V7.33214H6.558V8.40005ZM8.832 5.13033L7.758 4.60837V9H8.7C8.865 9 9 8.86501 9 8.70003V5.4003C9 5.28631 8.934 5.18132 8.832 5.13033Z" fill="#424657"/>
</svg>
