<svg width="14" height="14" viewBox="0 0 14 14" fill="none" xmlns="http://www.w3.org/2000/svg">
<rect width="7.63636" height="1.24242" rx="0.62121" transform="matrix(-1 0 0 1 10.8181 3.18176)" fill="#424657"/>
<rect width="5.93939" height="1.24242" rx="0.62121" transform="matrix(-1 0 0 1 9.12134 5.96973)" fill="#424657"/>
<path d="M2.8 1H11.2C11.6774 1 12.1352 1.18964 12.4728 1.5272C12.8104 1.86476 13 2.32259 13 2.79997V8.79989C13 9.27727 12.8104 9.73511 12.4728 10.0727C12.1352 10.4102 11.6774 10.5999 11.2 10.5999H4.246L2.026 12.8258C1.96994 12.8814 1.90345 12.9254 1.83034 12.9553C1.75724 12.9852 1.67896 13.0003 1.6 12.9998C1.52129 13.0019 1.44321 12.9854 1.372 12.9518C1.26243 12.9068 1.16863 12.8304 1.10243 12.7322C1.03623 12.6339 1.00059 12.5183 1 12.3998V2.79997C1 2.32259 1.18964 1.86476 1.52721 1.5272C1.86477 1.18964 2.32261 1 2.8 1Z" stroke="#424657" stroke-width="0.7"/>
</svg>
