<svg width="12" height="12" viewBox="0 0 12 12" fill="none" xmlns="http://www.w3.org/2000/svg">
<g clip-path="url(#clip0_60_1648)">
<path d="M5.25751 0.43493C5.12249 0.239945 4.88626 0.146195 4.65749 0.20243C2.02501 0.851176 0.1875 3.20243 0.1875 5.92118C0.1875 9.16869 2.83125 11.8124 6.07876 11.8124C8.79751 11.8124 11.1487 9.97493 11.7975 7.34243C11.8537 7.11368 11.76 6.87743 11.565 6.74243C11.3738 6.61119 11.115 6.61494 10.9237 6.74994C10.23 7.24119 9.2475 7.59995 8.4 7.59995C6.15375 7.59995 4.3275 5.7737 4.3275 3.52743C4.32751 2.67995 4.75875 1.76993 5.25 1.07619C5.385 0.884937 5.38875 0.626183 5.25751 0.43493Z" fill="#424657"/>
<path d="M8.31073 1.55425C8.37237 1.37376 8.62763 1.37376 8.68927 1.55425L9.10467 2.7707C9.12468 2.82929 9.17071 2.87532 9.2293 2.89533L10.4458 3.31073C10.6262 3.37237 10.6262 3.62763 10.4458 3.68927L9.2293 4.10467C9.17071 4.12468 9.12468 4.17071 9.10467 4.2293L8.68927 5.44575C8.62763 5.62624 8.37237 5.62624 8.31073 5.44575L7.89533 4.2293C7.87532 4.17071 7.82929 4.12468 7.7707 4.10467L6.55425 3.68927C6.37376 3.62763 6.37376 3.37237 6.55425 3.31073L7.7707 2.89533C7.82929 2.87532 7.87532 2.82929 7.89533 2.7707L8.31073 1.55425Z" fill="#424657"/>
</g>
<defs>
<clipPath id="clip0_60_1648">
<rect width="12" height="12" fill="white"/>
</clipPath>
</defs>
</svg>
