<svg width="12" height="13" viewBox="0 0 12 13" fill="none" xmlns="http://www.w3.org/2000/svg">
<g clip-path="url(#clip0_54_1209)">
<path d="M10.72 10.472C10.5112 10.3898 10.3048 10.2978 10.0919 10.2298C9.9938 10.1986 9.86446 10.1723 9.78142 10.2161C8.98928 10.6315 8.20216 11.0588 7.41957 11.4949C7.34307 11.5377 7.26909 11.6571 7.25551 11.7508C7.14881 12.508 6.65661 12.9962 5.9772 12.9989C5.35666 13.0017 4.85541 12.5075 4.76381 11.782C4.74469 11.6286 4.69738 11.5432 4.56955 11.4747C3.78696 11.0588 3.00739 10.6358 2.22984 10.2085C2.10302 10.1389 2.01545 10.1466 1.88963 10.2304C1.30281 10.6205 0.559482 10.42 0.194107 9.79153C-0.170764 9.16418 -0.00971764 8.34836 0.575084 7.94346C0.715496 7.84648 0.761294 7.74731 0.759281 7.57308C0.750725 6.84273 0.752738 6.11184 0.758274 5.38149C0.759281 5.23794 0.721032 5.1574 0.604777 5.07686C0.00185764 4.66319 -0.173784 3.8534 0.187565 3.21509C0.55143 2.57241 1.26658 2.39598 1.90624 2.77404C1.98928 2.82335 2.13371 2.82773 2.21877 2.78335C3.01092 2.36749 3.79803 1.94068 4.58062 1.50455C4.65812 1.46127 4.73512 1.34347 4.74771 1.24978C4.85138 0.493131 5.331 0.00385768 5.9933 2.23864e-05C6.65762 -0.00381291 7.14781 0.485461 7.25299 1.23334C7.26708 1.3347 7.34811 1.46346 7.43064 1.50948C8.21323 1.94616 9.00035 2.37242 9.793 2.78718C9.87654 2.83102 10.0205 2.81732 10.104 2.76691C10.7296 2.39105 11.4634 2.58063 11.8197 3.22496C12.1699 3.85833 11.9968 4.65497 11.406 5.06864C11.2832 5.15466 11.2419 5.24396 11.2434 5.39683C11.2495 6.12718 11.251 6.85807 11.2429 7.58842C11.2409 7.75279 11.2847 7.84758 11.416 7.93798C11.9012 8.27111 12.103 8.87653 11.943 9.46059C11.7844 10.0403 11.3078 10.4205 10.7195 10.4731L10.72 10.472ZM6.50312 9.05953C6.50312 9.45183 6.5006 9.84412 6.50412 10.2364C6.50614 10.4874 6.72355 10.6424 6.92788 10.5334C7.73915 10.0994 8.54891 9.66277 9.35465 9.21678C9.42561 9.17733 9.49557 9.06227 9.50362 8.9757C9.54589 8.51492 9.74871 8.17522 10.0945 7.91497C10.1679 7.85963 10.2389 7.73526 10.2404 7.64157C10.252 6.88437 10.249 6.12718 10.2459 5.36998C10.2449 5.08288 10.0255 4.92892 9.79501 5.0533C8.99984 5.4812 8.20468 5.90911 7.41504 6.34908C7.33905 6.39126 7.26809 6.5129 7.2545 6.60768C7.19008 7.05806 6.99783 7.40707 6.65007 7.66568C6.5781 7.71937 6.51419 7.8432 6.50966 7.93798C6.49355 8.3111 6.50312 8.68532 6.50312 9.05953ZM5.49909 9.07981C5.49909 8.70559 5.50966 8.33083 5.49204 7.95771C5.48751 7.8547 5.42259 7.72047 5.34559 7.66239C5.0079 7.40707 4.79803 7.07066 4.76079 6.62686C4.7472 6.46578 4.68933 6.38907 4.56502 6.32278C3.78344 5.90583 3.00538 5.4812 2.22581 5.06042C1.9777 4.92673 1.75727 5.07192 1.75626 5.37382C1.75374 6.12225 1.74972 6.87013 1.7623 7.61856C1.76381 7.72047 1.83477 7.8558 1.91228 7.91607C2.24594 8.17522 2.44574 8.5067 2.49456 8.95488C2.50513 9.05022 2.57659 9.17569 2.65309 9.21842C3.45027 9.66222 4.25349 10.094 5.05621 10.5252C5.27866 10.6446 5.49607 10.4972 5.49859 10.2293C5.50161 9.84632 5.49909 9.46279 5.49909 9.07981ZM9.54589 3.9186C9.45631 3.85285 9.39642 3.79751 9.32848 3.76025C8.54287 3.33289 7.75777 2.90334 6.96562 2.48913C6.88258 2.44584 6.74016 2.45954 6.65611 2.50885C6.21273 2.76801 5.78293 2.76801 5.34006 2.50611C5.25702 2.4568 5.11409 2.44858 5.03054 2.49241C4.2389 2.90717 3.45379 3.33618 2.66869 3.76464C2.60629 3.79861 2.55797 3.86271 2.50312 3.91257C2.55898 3.97119 2.60629 4.04845 2.67221 4.08461C3.45681 4.51471 4.24242 4.94317 5.03407 5.35793C5.11912 5.40231 5.26406 5.39792 5.3466 5.34806C5.78998 5.08233 6.21927 5.08014 6.65812 5.35464C6.72606 5.39683 6.84081 5.42422 6.90422 5.3908C7.73261 4.95467 8.55596 4.50704 9.37981 4.05941C9.42813 4.03311 9.46688 3.98654 9.54589 3.9186ZM1.75727 3.91038C1.75324 3.62931 1.51117 3.38056 1.24645 3.38604C0.988269 3.39097 0.76834 3.6304 0.766327 3.90819C0.764313 4.21775 0.994309 4.47088 1.2696 4.46211C1.52878 4.45389 1.76129 4.19145 1.75727 3.91038ZM5.99079 7.03724C6.25903 7.04217 6.48953 6.80219 6.49808 6.50797C6.50664 6.22306 6.27262 5.97377 5.99783 5.97541C5.73311 5.97705 5.50614 6.21155 5.50312 6.48605C5.5001 6.77918 5.72405 7.03231 5.99079 7.03724ZM11.2404 9.08912C11.2505 8.79599 11.0346 8.5456 10.7648 8.53848C10.5046 8.53136 10.2766 8.75381 10.2605 9.03104C10.2429 9.33513 10.4629 9.60469 10.7361 9.61291C11.0029 9.62058 11.2303 9.38389 11.2404 9.08912Z" fill="#565A71"/>
</g>
<defs>
<clipPath id="clip0_54_1209">
<rect width="12" height="13" fill="white"/>
</clipPath>
</defs>
</svg>
