<svg width="30" height="29" viewBox="0 0 30 29" fill="none" xmlns="http://www.w3.org/2000/svg">
<path d="M21.5625 11.7812V4.53125C21.5625 3.81019 21.2662 3.11867 20.7387 2.6088C20.2113 2.09894 19.4959 1.8125 18.75 1.8125H5.625C4.87908 1.8125 4.16371 2.09894 3.63626 2.6088C3.10882 3.11867 2.8125 3.81019 2.8125 4.53125V24.4688C2.8125 25.1898 3.10882 25.8813 3.63626 26.3912C4.16371 26.9011 4.87908 27.1875 5.625 27.1875H18.75C19.4959 27.1875 20.2113 26.9011 20.7387 26.3912C21.2662 25.8813 21.5625 25.1898 21.5625 24.4688V18.125C21.0652 18.125 20.5883 18.316 20.2367 18.6559C19.885 18.9958 19.6875 19.4568 19.6875 19.9375V24.4688C19.6875 24.7091 19.5887 24.9396 19.4129 25.1096C19.2371 25.2795 18.9986 25.375 18.75 25.375H5.625C5.37636 25.375 5.1379 25.2795 4.96209 25.1096C4.78627 24.9396 4.6875 24.7091 4.6875 24.4688V4.53125C4.6875 4.2909 4.78627 4.06039 4.96209 3.89043C5.1379 3.72048 5.37636 3.625 5.625 3.625H18.75C18.9986 3.625 19.2371 3.72048 19.4129 3.89043C19.5887 4.06039 19.6875 4.2909 19.6875 4.53125V13.5938C20.1848 13.5938 20.6617 13.4028 21.0133 13.0629C21.365 12.723 21.5625 12.262 21.5625 11.7812Z" fill="white"/>
<path d="M16.875 6.34375H7.5C7.25136 6.34375 7.0129 6.43923 6.83709 6.60918C6.66127 6.77914 6.5625 7.00965 6.5625 7.25C6.5625 7.49035 6.66127 7.72086 6.83709 7.89082C7.0129 8.06077 7.25136 8.15625 7.5 8.15625H16.875C17.1236 8.15625 17.3621 8.06077 17.5379 7.89082C17.7137 7.72086 17.8125 7.49035 17.8125 7.25C17.8125 7.00965 17.7137 6.77914 17.5379 6.60918C17.3621 6.43923 17.1236 6.34375 16.875 6.34375ZM17.8125 10.875C17.8125 10.6346 17.7137 10.4041 17.5379 10.2342C17.3621 10.0642 17.1236 9.96875 16.875 9.96875H7.5C7.25136 9.96875 7.0129 10.0642 6.83709 10.2342C6.66127 10.4041 6.5625 10.6346 6.5625 10.875C6.5625 11.1154 6.66127 11.3459 6.83709 11.5158C7.0129 11.6858 7.25136 11.7812 7.5 11.7812H16.875C17.1236 11.7812 17.3621 11.6858 17.5379 11.5158C17.7137 11.3459 17.8125 11.1154 17.8125 10.875ZM7.5 13.5938C7.25136 13.5938 7.0129 13.6892 6.83709 13.8592C6.66127 14.0291 6.5625 14.2596 6.5625 14.5C6.5625 14.7404 6.66127 14.9709 6.83709 15.1408C7.0129 15.3108 7.25136 15.4062 7.5 15.4062H11.25C11.4986 15.4062 11.7371 15.3108 11.9129 15.1408C12.0887 14.9709 12.1875 14.7404 12.1875 14.5C12.1875 14.2596 12.0887 14.0291 11.9129 13.8592C11.7371 13.6892 11.4986 13.5938 11.25 13.5938H7.5Z" fill="white"/>
<path d="M13.5132 23.5625C13.3737 23.5625 13.236 23.5323 13.1101 23.4743C12.9843 23.4163 12.8734 23.3318 12.7855 23.2271C12.6977 23.1224 12.6351 23.0001 12.6024 22.869C12.5696 22.738 12.5676 22.6015 12.5963 22.4696L13.3013 19.2243C13.3388 19.0527 13.4271 18.8953 13.5553 18.7712L22.3866 10.2352C22.9225 9.74089 23.6348 9.46509 24.3755 9.46509C25.1162 9.46509 25.8285 9.74089 26.3644 10.2352C26.6256 10.4877 26.8328 10.7874 26.9742 11.1173C27.1156 11.4472 27.1883 11.8008 27.1883 12.1578C27.1883 12.5149 27.1156 12.8685 26.9742 13.1984C26.8328 13.5282 26.6256 13.828 26.3644 14.0804L17.5313 22.6146C17.4033 22.7392 17.2403 22.8249 17.0625 22.8611L13.7053 23.5435C13.6421 23.556 13.5777 23.5624 13.5132 23.5625ZM15.0835 19.8614L14.731 21.4836L16.4063 21.1429L25.0388 12.7972C25.2145 12.6273 25.3133 12.3968 25.3133 12.1565C25.3133 11.9162 25.2145 11.6857 25.0388 11.5158C24.8605 11.3504 24.623 11.258 24.376 11.258C24.1289 11.258 23.8914 11.3504 23.7132 11.5158L15.0835 19.8614Z" fill="#E1E1E1"/>
</svg>
