<svg width="12" height="13" viewBox="0 0 12 13" fill="none" xmlns="http://www.w3.org/2000/svg">
<path d="M11 3.3913H1C0.45 3.3913 0 2.88261 0 2.26087V1.13043C0 0.508696 0.45 0 1 0H11C11.55 0 12 0.508696 12 1.13043V2.26087C12 2.88261 11.55 3.3913 11 3.3913ZM1 1.13043V2.26087H11V1.13043H1ZM11 8.47826H1C0.45 8.47826 0 7.96956 0 7.34783V6.21739C0 5.59565 0.45 5.08696 1 5.08696H11C11.55 5.08696 12 5.59565 12 6.21739V7.34783C12 7.96956 11.55 8.47826 11 8.47826ZM1 6.21739V7.34783H11V6.21739H1ZM5.5 13H1C0.75 13 0.5 12.7174 0.5 12.4348V11.3043C0.5 11.0217 0.75 10.7391 1 10.7391H5.5C5.8 10.7391 6 11.0217 6 11.3043V12.4348C6 12.7174 5.8 13 5.5 13Z" fill="#424657"/>
</svg>
