<svg width="72" height="55" viewBox="0 0 72 55" fill="none" xmlns="http://www.w3.org/2000/svg">
  <path d="M13.222 54.9V47.82H21.246V54.9H13.222ZM13.222 7.759V0.678996H21.246V7.759H13.222ZM17.293 49.885C14.2447 49.885 11.5208 49.3245 9.1215 48.2035C6.72217 47.0628 4.76533 45.46 3.251 43.395C1.73667 41.3103 0.773 38.852 0.36 36.02L8.325 34.781C8.856 37.1017 9.96717 38.9503 11.6585 40.327C13.3695 41.7037 15.405 42.392 17.765 42.392C19.9873 42.392 21.8262 41.8708 23.2815 40.8285C24.7565 39.7862 25.494 38.498 25.494 36.964C25.494 35.9217 25.1695 35.0662 24.5205 34.3975C23.8912 33.7092 22.898 33.1487 21.541 32.716L11.039 29.471C4.98167 27.6027 1.953 23.9053 1.953 18.379C1.953 15.783 2.56267 13.5312 3.782 11.6235C5.021 9.71583 6.7615 8.25066 9.0035 7.228C11.2652 6.18566 13.93 5.67433 16.998 5.694C19.8103 5.73333 22.308 6.24467 24.491 7.228C26.674 8.19166 28.4932 9.59783 29.9485 11.4465C31.4235 13.2755 32.4953 15.5077 33.164 18.143L24.904 19.618C24.6287 18.3593 24.1173 17.258 23.37 16.314C22.6227 15.3503 21.6885 14.603 20.5675 14.072C19.4662 13.5213 18.237 13.2263 16.88 13.187C15.582 13.1477 14.402 13.3345 13.34 13.7475C12.2977 14.1605 11.4618 14.7407 10.8325 15.488C10.2228 16.2157 9.918 17.0417 9.918 17.966C9.918 18.9887 10.3507 19.8737 11.216 20.621C12.0813 21.3487 13.458 21.978 15.346 22.509L22.839 24.633C26.5953 25.7147 29.2995 27.1798 30.9515 29.0285C32.6232 30.8772 33.459 33.3257 33.459 36.374C33.459 39.0487 32.7805 41.3988 31.4235 43.4245C30.0665 45.4502 28.1687 47.0333 25.73 48.174C23.311 49.3147 20.4987 49.885 17.293 49.885ZM55.6799 49.885C52.5332 49.885 49.7799 49.2262 47.4199 47.9085C45.0599 46.5908 43.221 44.752 41.9034 42.392C40.5857 40.032 39.9269 37.2787 39.9269 34.132V21.388C39.9269 18.2413 40.5857 15.488 41.9034 13.128C43.221 10.768 45.0599 8.92916 47.4199 7.6115C49.7799 6.29383 52.5332 5.635 55.6799 5.635C58.8265 5.635 61.5799 6.29383 63.9399 7.6115C66.2999 8.92916 68.1387 10.768 69.4564 13.128C70.774 15.488 71.4329 18.2413 71.4329 21.388V34.132C71.4329 37.2787 70.774 40.032 69.4564 42.392C68.1387 44.752 66.2999 46.5908 63.9399 47.9085C61.5799 49.2262 58.8265 49.885 55.6799 49.885ZM55.6799 42.274C57.0959 42.274 58.3742 41.9397 59.5149 41.271C60.6555 40.6023 61.5602 39.6977 62.2289 38.557C62.8975 37.4163 63.2319 36.138 63.2319 34.722V20.739C63.2319 19.323 62.8975 18.0447 62.2289 16.904C61.5602 15.7633 60.6555 14.8587 59.5149 14.19C58.3742 13.5213 57.0959 13.187 55.6799 13.187C54.2639 13.187 52.9855 13.5213 51.8449 14.19C50.7042 14.8587 49.7995 15.7633 49.1309 16.904C48.4622 18.0447 48.1279 19.323 48.1279 20.739V34.722C48.1279 36.138 48.4622 37.4163 49.1309 38.557C49.7995 39.6977 50.7042 40.6023 51.8449 41.271C52.9855 41.9397 54.2639 42.274 55.6799 42.274Z" fill="url(#paint0_linear_247_1323)"/>
  <defs>
    <linearGradient id="paint0_linear_247_1323" x1="6.25882" y1="4.62069" x2="76.6323" y2="51.6223" gradientUnits="userSpaceOnUse">
      <stop offset="0" stop-color="#FFB169"/>
      <stop offset="1" stop-color="#FF003D"/>
    </linearGradient>
  </defs>
</svg>
