<svg width="42" height="42" viewBox="0 0 42 42" fill="none" xmlns="http://www.w3.org/2000/svg">
<circle cx="21" cy="21" r="21" fill="#EBEBEB"/>
<g clip-path="url(#clip0_247_709)">
<path d="M20.9467 10.6801C21.1755 11.0025 21.3468 11.1704 21.4292 11.375C21.8043 12.3038 22.1387 13.2495 22.5175 14.1764C23.7465 17.1786 26.0424 18.9777 28.9654 20.0611C29.5303 20.2705 30.1064 20.4534 30.6556 20.6995C30.8297 20.7768 31.0381 21.0163 31.039 21.1832C31.04 21.3492 30.8344 21.5972 30.6612 21.6707C29.7804 22.0469 28.8746 22.3619 27.9901 22.7296C25.3061 23.846 23.4538 25.8092 22.3647 28.5314C22.085 29.2291 21.8479 29.9439 21.5617 30.6378C21.4237 30.9707 21.458 31.4912 20.9115 31.4799C20.4012 31.4695 20.4327 30.9782 20.2928 30.6558C19.7566 29.4234 19.2917 28.1551 18.6906 26.9567C17.7793 25.1397 16.2807 23.9082 14.4997 23.0474C13.4717 22.5504 12.39 22.1686 11.3304 21.7386C11.0702 21.633 10.7849 21.5547 10.7794 21.1936C10.7738 20.8287 11.0609 20.7514 11.3184 20.6391C12.6345 20.0659 13.9839 19.5586 15.2546 18.8957C17.03 17.9697 18.2766 16.4733 19.1092 14.645C19.5955 13.5795 19.9696 12.4612 20.4179 11.3769C20.5059 11.1647 20.7004 10.9988 20.9467 10.6801Z" fill="#424657"/>
</g>
<defs>
<clipPath id="clip0_247_709">
<rect width="27" height="21" fill="white" transform="translate(7 11)"/>
</clipPath>
</defs>
</svg>
