<svg width="12" height="14" viewBox="0 0 12 14" fill="none" xmlns="http://www.w3.org/2000/svg">
<path d="M6.00002 13.1315L5.99508 13.1263L1.81651 8.73675L1.80362 8.72321L1.78952 8.71093C1.76443 8.68907 1.71656 8.64117 1.64101 8.55655C1.57695 8.48481 1.46309 8.33958 1.29334 8.10852L0.981456 8.33766L1.29333 8.10852C1.13363 7.89114 0.991254 7.66876 0.86596 7.44137C0.748763 7.22868 0.63916 6.96176 0.540076 6.63579C0.445409 6.32435 0.4 6.02817 0.4 5.74587C0.4 4.74747 0.66321 4.02043 1.14181 3.5116C1.61772 3.00563 2.28643 2.73337 3.20089 2.73337C3.42643 2.73337 3.66267 2.77582 3.91152 2.86614C4.16534 2.95827 4.40073 3.0822 4.61867 3.23827C4.85888 3.41029 5.06159 3.5689 5.22833 3.71415C5.39568 3.85993 5.55468 4.01483 5.70539 4.17894L6 4.49974L6.29461 4.17894C6.44532 4.01483 6.60432 3.85993 6.77167 3.71415C6.93841 3.5689 7.14112 3.41029 7.38133 3.23827C7.59927 3.0822 7.83466 2.95827 8.08848 2.86614C8.33733 2.77582 8.57357 2.73337 8.79911 2.73337C9.71357 2.73337 10.3823 3.00563 10.8582 3.5116C11.3368 4.02043 11.6 4.74747 11.6 5.74587C11.6 6.68474 11.1548 7.68542 10.1744 8.75381L6.00516 13.1261L6.00511 13.126L6.00003 13.1316C6.00002 13.1316 6.00001 13.1316 6 13.1316C5.99999 13.1316 5.99998 13.1316 5.99997 13.1316L6.00002 13.1315Z" stroke="#424657" stroke-width="0.8"/>
</svg>
