<svg width="14" height="21" viewBox="0 0 14 21" fill="none" xmlns="http://www.w3.org/2000/svg">
<path fill-rule="evenodd" clip-rule="evenodd" d="M12.9143 0.939573C13.9344 1.61095 14.2171 2.98217 13.5458 4.00229C12.021 6.31909 10.6607 8.01484 9.09673 9.38506C8.46565 9.93796 7.81712 10.4241 7.13456 10.8703C9.31064 12.4776 11.0247 14.1881 13.3487 16.7932C14.1617 17.7045 14.082 19.1023 13.1707 19.9152C12.2594 20.7282 10.8616 20.6485 10.0486 19.7372C6.93108 16.2426 5.1895 14.6738 1.71492 12.586C1.01553 12.1657 0.604407 11.3945 0.645378 10.5796C0.686349 9.76465 1.17276 9.03853 1.91077 8.69055C3.77164 7.81313 5.0439 7.05618 6.1824 6.0587C7.32969 5.05352 8.43836 3.71836 9.85159 1.57103C10.523 0.550913 11.8942 0.2682 12.9143 0.939573Z" fill="#424657"/>
</svg>
