<svg width="12" height="12" viewBox="0 0 12 12" fill="none" xmlns="http://www.w3.org/2000/svg">
<g clip-path="url(#clip0_63_1659)">
<path d="M8.10453 6.47037C8.09709 6.73598 8.08593 7.00109 8.08267 7.26669C8.07198 8.06543 8.10592 8.86805 8.04501 9.66243C7.9497 10.9037 6.85008 11.9564 5.65375 11.9826C4.57738 12.0058 3.50008 12.0063 2.42372 11.9826C1.13626 11.9544 0.0166487 10.7675 0.00967435 9.42251C-0.00287941 7.13728 -0.00241445 4.85205 0.0101393 2.56682C0.0171136 1.25433 1.12835 0.0610687 2.39396 0.0242336C3.49311 -0.00823943 4.59412 -0.00775475 5.69327 0.0237489C6.9905 0.060584 8.05943 1.26112 8.07942 2.66764C8.09197 3.5478 8.07756 4.42797 8.08546 5.30813C8.08732 5.49085 8.0306 5.54174 7.85903 5.54077C6.77476 5.53399 5.69002 5.53496 4.60575 5.53883C4.21425 5.54029 3.98224 5.89604 4.15706 6.2198C4.25889 6.40834 4.42441 6.46892 4.62713 6.46795C5.68816 6.46407 6.74965 6.46601 7.81067 6.46698C7.9111 6.46698 8.01154 6.47474 8.11197 6.47861L8.10499 6.47037H8.10453Z" fill="#E37D7D"/>
<path d="M8.11093 6.47809V5.53976H10.4394C10.3618 5.44137 10.325 5.3866 10.2804 5.33959C10.04 5.08805 9.79267 4.84329 9.55694 4.58641C9.37468 4.38818 9.37933 4.11434 9.55182 3.93501C9.72944 3.75035 9.98423 3.7392 10.1753 3.93356C10.7407 4.50886 11.301 5.08902 11.8561 5.6745C12.0477 5.87661 12.0477 6.11652 11.8543 6.32105C11.2991 6.90702 10.7384 7.48717 10.173 8.06199C9.98144 8.25683 9.71316 8.25053 9.54764 8.07363C9.36352 7.87637 9.36584 7.61997 9.56484 7.40526C9.84335 7.10428 10.1284 6.80912 10.451 6.46839C9.63784 6.46839 8.8702 6.46839 8.10303 6.46839L8.11047 6.47663L8.11093 6.47809Z" fill="#E37D7D"/>
</g>
<defs>
<clipPath id="clip0_63_1659">
<rect width="12" height="12" fill="white"/>
</clipPath>
</defs>
</svg>
