<svg width="54" height="26" viewBox="0 0 54 26" fill="none" xmlns="http://www.w3.org/2000/svg">
<path d="M3.276 0.64H5.044L2.548 10H0.78L3.276 0.64ZM6.73715 10V0.64H8.32315L11.4171 6.854L14.5111 0.64H16.0971V10H14.4461V4.41L11.7291 10H11.1051L8.38815 4.41V10H6.73715ZM21.9387 10.195C21.0027 10.195 20.1946 9.99133 19.5142 9.584C18.8382 9.17667 18.3161 8.60683 17.9477 7.8745C17.5837 7.14217 17.4017 6.29067 17.4017 5.32C17.4017 4.34933 17.5837 3.49783 17.9477 2.7655C18.3161 2.03317 18.8382 1.46333 19.5142 1.056C20.1946 0.648666 21.0027 0.445 21.9387 0.445C22.8747 0.445 23.6807 0.648666 24.3567 1.056C25.0371 1.46333 25.5592 2.03317 25.9232 2.7655C26.2916 3.49783 26.4757 4.34933 26.4757 5.32C26.4757 6.29067 26.2916 7.14217 25.9232 7.8745C25.5592 8.60683 25.0371 9.17667 24.3567 9.584C23.6807 9.99133 22.8747 10.195 21.9387 10.195ZM21.9387 8.531C22.5324 8.53967 23.0264 8.41183 23.4207 8.1475C23.8151 7.88317 24.1097 7.50833 24.3047 7.023C24.5041 6.53767 24.6037 5.97 24.6037 5.32C24.6037 4.67 24.5041 4.10667 24.3047 3.63C24.1097 3.15333 23.8151 2.78283 23.4207 2.5185C23.0264 2.25417 22.5324 2.11767 21.9387 2.109C21.3451 2.10033 20.8511 2.22817 20.4567 2.4925C20.0624 2.75683 19.7656 3.13167 19.5662 3.617C19.3712 4.10233 19.2737 4.67 19.2737 5.32C19.2737 5.97 19.3712 6.53333 19.5662 7.01C19.7656 7.48667 20.0624 7.85717 20.4567 8.1215C20.8511 8.38583 21.3451 8.52233 21.9387 8.531ZM27.7733 10V0.64H29.5673L33.6363 6.88V0.64H35.4303V10H33.6363L29.5673 3.76V10H27.7733ZM39.415 10V2.291H36.464V0.64H44.134V2.291H41.183V10H39.415ZM45.1786 10V0.64H46.9466V4.488H51.1326V0.64H52.9006V10H51.1326V6.139H46.9466V10H45.1786ZM0.77 25V17.08H4.114C4.191 17.08 4.29367 17.0837 4.422 17.091C4.554 17.0947 4.67133 17.1057 4.774 17.124C5.247 17.1973 5.63383 17.3532 5.9345 17.5915C6.23883 17.8298 6.4625 18.1305 6.6055 18.4935C6.7485 18.8528 6.82 19.2543 6.82 19.698C6.82 20.1417 6.74667 20.545 6.6 20.908C6.457 21.2673 6.23333 21.5662 5.929 21.8045C5.62833 22.0428 5.24333 22.1987 4.774 22.272C4.67133 22.2867 4.554 22.2977 4.422 22.305C4.29 22.3123 4.18733 22.316 4.114 22.316H2.266V25H0.77ZM2.266 20.919H4.048C4.125 20.919 4.20933 20.9153 4.301 20.908C4.39267 20.9007 4.477 20.886 4.554 20.864C4.75567 20.809 4.9115 20.7173 5.0215 20.589C5.1315 20.457 5.20667 20.3122 5.247 20.1545C5.291 19.9932 5.313 19.841 5.313 19.698C5.313 19.555 5.291 19.4047 5.247 19.247C5.20667 19.0857 5.1315 18.9408 5.0215 18.8125C4.9115 18.6805 4.75567 18.587 4.554 18.532C4.477 18.51 4.39267 18.4953 4.301 18.488C4.20933 18.4807 4.125 18.477 4.048 18.477H2.266V20.919ZM8.2543 25V17.08H13.4243V18.477H9.7503V20.171H12.7643V21.568H9.7503V23.603H13.4243V25H8.2543ZM15.0726 25V17.08H18.4166C18.4936 17.08 18.5962 17.0837 18.7246 17.091C18.8566 17.0947 18.9739 17.1057 19.0766 17.124C19.5496 17.1973 19.9364 17.3532 20.2371 17.5915C20.5414 17.8298 20.7651 18.1305 20.9081 18.4935C21.0511 18.8528 21.1226 19.2543 21.1226 19.698C21.1226 20.3617 20.9576 20.93 20.6276 21.403C20.2976 21.8723 19.7806 22.162 19.0766 22.272L18.4166 22.316H16.5686V25H15.0726ZM19.5386 25L17.9766 21.777L19.5166 21.48L21.2326 25H19.5386ZM16.5686 20.919H18.3506C18.4276 20.919 18.5119 20.9153 18.6036 20.908C18.6952 20.9007 18.7796 20.886 18.8566 20.864C19.0582 20.809 19.2141 20.7173 19.3241 20.589C19.4341 20.457 19.5092 20.3122 19.5496 20.1545C19.5936 19.9932 19.6156 19.841 19.6156 19.698C19.6156 19.555 19.5936 19.4047 19.5496 19.247C19.5092 19.0857 19.4341 18.9408 19.3241 18.8125C19.2141 18.6805 19.0582 18.587 18.8566 18.532C18.7796 18.51 18.6952 18.4953 18.6036 18.488C18.5119 18.4807 18.4276 18.477 18.3506 18.477H16.5686V20.919ZM28.5269 25.165C27.8889 25.165 27.3279 25.0367 26.8439 24.78C26.3599 24.5197 25.9822 24.1548 25.7109 23.6855C25.4395 23.2162 25.3039 22.6643 25.3039 22.03V17.091L26.8219 17.08V22.019C26.8219 22.2793 26.8659 22.5158 26.9539 22.7285C27.0419 22.9412 27.1629 23.1245 27.3169 23.2785C27.4745 23.4325 27.656 23.5517 27.8614 23.636C28.0704 23.7167 28.2922 23.757 28.5269 23.757C28.7689 23.757 28.9925 23.7148 29.1979 23.6305C29.4069 23.5462 29.5884 23.427 29.7424 23.273C29.8964 23.119 30.0155 22.9357 30.0999 22.723C30.1879 22.5103 30.2319 22.2757 30.2319 22.019V17.08H31.7499V22.03C31.7499 22.6643 31.6142 23.2162 31.3429 23.6855C31.0715 24.1548 30.6939 24.5197 30.2099 24.78C29.7259 25.0367 29.1649 25.165 28.5269 25.165ZM36.2743 25.165C35.6876 25.165 35.1578 25.0623 34.6848 24.857C34.2155 24.648 33.8286 24.351 33.5243 23.966C33.2236 23.5773 33.033 23.1153 32.9523 22.58L34.5143 22.349C34.6243 22.8037 34.8516 23.1538 35.1963 23.3995C35.541 23.6452 35.9333 23.768 36.3733 23.768C36.619 23.768 36.8573 23.7295 37.0883 23.6525C37.3193 23.5755 37.5081 23.4618 37.6548 23.3115C37.8051 23.1612 37.8803 22.976 37.8803 22.756C37.8803 22.6753 37.8675 22.5983 37.8418 22.525C37.8198 22.448 37.7813 22.3765 37.7263 22.3105C37.6713 22.2445 37.5925 22.1822 37.4898 22.1235C37.3908 22.0648 37.2643 22.0117 37.1103 21.964L35.0533 21.359C34.8993 21.315 34.7196 21.2527 34.5143 21.172C34.3126 21.0913 34.1165 20.9758 33.9258 20.8255C33.7351 20.6752 33.5756 20.4772 33.4473 20.2315C33.3226 19.9822 33.2603 19.6687 33.2603 19.291C33.2603 18.7593 33.3941 18.3175 33.6618 17.9655C33.9295 17.6135 34.287 17.3513 34.7343 17.179C35.1816 17.0067 35.6766 16.9223 36.2193 16.926C36.7656 16.9333 37.2533 17.0268 37.6823 17.2065C38.1113 17.3862 38.4706 17.6483 38.7603 17.993C39.05 18.334 39.259 18.752 39.3873 19.247L37.7703 19.522C37.7116 19.2653 37.6035 19.049 37.4458 18.873C37.2881 18.697 37.0993 18.5632 36.8793 18.4715C36.663 18.3798 36.4356 18.3303 36.1973 18.323C35.9626 18.3157 35.7408 18.3487 35.5318 18.422C35.3265 18.4917 35.1578 18.5943 35.0258 18.73C34.8975 18.8657 34.8333 19.027 34.8333 19.214C34.8333 19.3863 34.8865 19.5275 34.9928 19.6375C35.0991 19.7438 35.233 19.83 35.3943 19.896C35.5556 19.962 35.7206 20.017 35.8893 20.061L37.2643 20.435C37.4696 20.49 37.697 20.5633 37.9463 20.655C38.1956 20.743 38.434 20.8677 38.6613 21.029C38.8923 21.1867 39.0811 21.3957 39.2278 21.656C39.3781 21.9163 39.4533 22.2463 39.4533 22.646C39.4533 23.0713 39.3635 23.4435 39.1838 23.7625C39.0078 24.0778 38.7695 24.34 38.4688 24.549C38.1681 24.7543 37.8271 24.9083 37.4458 25.011C37.0681 25.1137 36.6776 25.165 36.2743 25.165ZM40.9922 25V17.08H46.1622V18.477H42.4882V20.171H45.5022V21.568H42.4882V23.603H46.1622V25H40.9922ZM47.8105 25V17.08H51.1545C51.2315 17.08 51.3341 17.0837 51.4625 17.091C51.5945 17.0947 51.7118 17.1057 51.8145 17.124C52.2875 17.1973 52.6743 17.3532 52.975 17.5915C53.2793 17.8298 53.503 18.1305 53.646 18.4935C53.789 18.8528 53.8605 19.2543 53.8605 19.698C53.8605 20.3617 53.6955 20.93 53.3655 21.403C53.0355 21.8723 52.5185 22.162 51.8145 22.272L51.1545 22.316H49.3065V25H47.8105ZM52.2765 25L50.7145 21.777L52.2545 21.48L53.9705 25H52.2765ZM49.3065 20.919H51.0885C51.1655 20.919 51.2498 20.9153 51.3415 20.908C51.4331 20.9007 51.5175 20.886 51.5945 20.864C51.7961 20.809 51.952 20.7173 52.062 20.589C52.172 20.457 52.2471 20.3122 52.2875 20.1545C52.3315 19.9932 52.3535 19.841 52.3535 19.698C52.3535 19.555 52.3315 19.4047 52.2875 19.247C52.2471 19.0857 52.172 18.9408 52.062 18.8125C51.952 18.6805 51.7961 18.587 51.5945 18.532C51.5175 18.51 51.4331 18.4953 51.3415 18.488C51.2498 18.4807 51.1655 18.477 51.0885 18.477H49.3065V20.919Z" fill="#424657"/>
</svg>
