<svg width="12" height="11" viewBox="0 0 12 11" fill="none" xmlns="http://www.w3.org/2000/svg">
<g clip-path="url(#clip0_542_14)">
<path d="M4.27015 0.83888C4.30933 0.740662 4.21652 0.641391 4.11863 0.678328C2.74762 1.19438 1.63278 2.35272 1.22083 3.89012C0.546761 6.40467 2.00939 8.98127 4.4873 9.64523C6.62203 10.2172 8.8139 9.18318 9.81107 7.27783C9.8613 7.18196 9.77505 7.07382 9.67219 7.10366C8.91404 7.32172 8.09389 7.34339 7.28328 7.12618C4.84446 6.4727 3.41339 3.90456 4.0871 1.39021C4.13789 1.20066 4.19917 1.01665 4.27043 0.838954L4.27015 0.83888Z" fill="white"/>
<path d="M8.28435 5.44574L8.15897 5.17649C8.13273 5.12026 8.13547 5.05419 8.16675 5.00001L8.31545 4.74103C8.34521 4.68918 8.30354 4.62578 8.24512 4.63381L7.95263 4.67327C7.89147 4.68148 7.83023 4.65869 7.78934 4.61251L7.59308 4.39108C7.55376 4.34683 7.48112 4.36776 7.47017 4.42647L7.41482 4.72018C7.40311 4.78173 7.36255 4.83372 7.30602 4.85927L7.036 4.98127C6.98216 5.00572 6.9788 5.08195 7.03044 5.11036L7.28866 5.25244C7.34267 5.28209 7.37882 5.33703 7.38494 5.3991L7.4143 5.69607C7.42026 5.75537 7.49068 5.78183 7.53377 5.74054L7.74878 5.53455C7.79387 5.49136 7.85677 5.4733 7.91709 5.48612L8.20529 5.54755C8.26274 5.5599 8.31 5.49968 8.28491 5.44589L8.28435 5.44574Z" fill="white"/>
<path d="M7.74639 2.82962L7.55273 2.41422C7.51231 2.32717 7.51654 2.22536 7.5647 2.14169L7.79415 1.74218C7.84013 1.66218 7.77592 1.5645 7.68555 1.57673L7.23407 1.63766C7.1397 1.65033 7.04523 1.6153 6.98203 1.54401L6.67914 1.20229C6.61876 1.13388 6.50651 1.16636 6.48945 1.25684L6.40419 1.71017C6.38627 1.80497 6.32344 1.88532 6.2366 1.92461L5.82009 2.11304C5.73664 2.15081 5.73173 2.26854 5.81128 2.31233L6.20986 2.53149C6.29337 2.57725 6.34879 2.66194 6.35843 2.75776L6.4039 3.21575C6.41286 3.30743 6.52202 3.34791 6.58816 3.28425L6.91991 2.96651C6.98919 2.90004 7.08648 2.87206 7.17936 2.89178L7.6239 2.9863C7.71279 3.00526 7.78521 2.9126 7.74646 2.82934L7.74639 2.82962Z" fill="white"/>
<path d="M10.2182 3.28086L10.077 2.9782C10.0476 2.91475 10.0507 2.84057 10.0856 2.77948L10.2528 2.4884C10.2863 2.43027 10.2396 2.35884 10.1738 2.36792L9.84487 2.4125C9.77597 2.42167 9.70735 2.3963 9.66117 2.34415L9.44055 2.09523C9.39643 2.04545 9.31475 2.06881 9.30239 2.13504L9.24026 2.4652C9.22715 2.53427 9.18153 2.5928 9.11785 2.62159L8.81439 2.75893C8.75376 2.78642 8.74992 2.87224 8.80808 2.90422L9.09873 3.06379C9.15954 3.09709 9.19984 3.15891 9.20684 3.22881L9.23982 3.56259C9.24647 3.62936 9.32595 3.65885 9.37426 3.61258L9.6159 3.38093C9.66657 3.33256 9.73732 3.31204 9.80496 3.32652L10.1289 3.3954C10.1937 3.40913 10.2466 3.34159 10.2182 3.28114L10.2182 3.28086Z" fill="white"/>
</g>
<defs>
<clipPath id="clip0_542_14">
<rect width="8.74077" height="9.17781" fill="white" transform="matrix(0.258819 -0.965926 -0.965926 -0.258819 8.86523 10.8184)"/>
</clipPath>
</defs>
</svg>
