<svg width="70" height="55" viewBox="0 0 70 55" fill="none" xmlns="http://www.w3.org/2000/svg">
  <path d="M13.222 54.9V47.82H21.246V54.9H13.222ZM13.222 7.759V0.678996H21.246V7.759H13.222ZM17.293 49.885C14.2447 49.885 11.5208 49.3245 9.1215 48.2035C6.72217 47.0628 4.76533 45.46 3.251 43.395C1.73667 41.3103 0.773 38.852 0.36 36.02L8.325 34.781C8.856 37.1017 9.96717 38.9503 11.6585 40.327C13.3695 41.7037 15.405 42.392 17.765 42.392C19.9873 42.392 21.8262 41.8708 23.2815 40.8285C24.7565 39.7862 25.494 38.498 25.494 36.964C25.494 35.9217 25.1695 35.0662 24.5205 34.3975C23.8912 33.7092 22.898 33.1487 21.541 32.716L11.039 29.471C4.98167 27.6027 1.953 23.9053 1.953 18.379C1.953 15.783 2.56267 13.5312 3.782 11.6235C5.021 9.71583 6.7615 8.25066 9.0035 7.228C11.2652 6.18566 13.93 5.67433 16.998 5.694C19.8103 5.73333 22.308 6.24467 24.491 7.228C26.674 8.19166 28.4932 9.59783 29.9485 11.4465C31.4235 13.2755 32.4953 15.5077 33.164 18.143L24.904 19.618C24.6287 18.3593 24.1173 17.258 23.37 16.314C22.6227 15.3503 21.6885 14.603 20.5675 14.072C19.4662 13.5213 18.237 13.2263 16.88 13.187C15.582 13.1477 14.402 13.3345 13.34 13.7475C12.2977 14.1605 11.4618 14.7407 10.8325 15.488C10.2228 16.2157 9.918 17.0417 9.918 17.966C9.918 18.9887 10.3507 19.8737 11.216 20.621C12.0813 21.3487 13.458 21.978 15.346 22.509L22.839 24.633C26.5953 25.7147 29.2995 27.1798 30.9515 29.0285C32.6232 30.8772 33.459 33.3257 33.459 36.374C33.459 39.0487 32.7805 41.3988 31.4235 43.4245C30.0665 45.4502 28.1687 47.0333 25.73 48.174C23.311 49.3147 20.4987 49.885 17.293 49.885ZM54.1459 49.885C51.2745 49.885 48.7179 49.3048 46.4759 48.1445C44.2535 46.9645 42.5032 45.3518 41.2249 43.3065C39.9662 41.2415 39.3369 38.8913 39.3369 36.256C39.3369 34.014 39.8384 31.8998 40.8414 29.9135C41.864 27.9272 43.3292 26.3047 45.2369 25.046L45.0599 27.524C43.6242 26.1277 42.4934 24.6527 41.6674 23.099C40.861 21.5453 40.4579 19.795 40.4579 17.848C40.4579 15.3897 41.038 13.246 42.1984 11.417C43.3784 9.588 44.991 8.172 47.0364 7.169C49.1014 6.14633 51.4712 5.635 54.1459 5.635C56.8205 5.635 59.1805 6.14633 61.2259 7.169C63.2909 8.172 64.9035 9.588 66.0639 11.417C67.2439 13.246 67.8339 15.3897 67.8339 17.848C67.8339 19.795 67.4504 21.5453 66.6834 23.099C65.9164 24.633 64.7462 26.1277 63.1729 27.583V25.105C65.0412 26.285 66.4769 27.878 67.4799 29.884C68.5025 31.89 69.0139 34.014 69.0139 36.256C69.0139 38.8913 68.3747 41.2415 67.0964 43.3065C65.818 45.3518 64.0579 46.9645 61.8159 48.1445C59.5739 49.3048 57.0172 49.885 54.1459 49.885ZM54.1459 42.333C56.0339 42.333 57.5679 41.8217 58.7479 40.799C59.9279 39.7763 60.5179 38.262 60.5179 36.256C60.5179 34.2697 59.9279 32.7553 58.7479 31.713C57.5679 30.651 56.0339 30.12 54.1459 30.12C52.2579 30.12 50.7337 30.651 49.5734 31.713C48.413 32.7553 47.8329 34.2697 47.8329 36.256C47.8329 38.262 48.413 39.7763 49.5734 40.799C50.7337 41.8217 52.2579 42.333 54.1459 42.333ZM54.1459 22.509C55.6799 22.509 56.9287 22.1353 57.8924 21.388C58.856 20.621 59.3379 19.441 59.3379 17.848C59.3379 16.255 58.856 15.075 57.8924 14.308C56.9287 13.5213 55.6799 13.128 54.1459 13.128C52.6119 13.128 51.363 13.5213 50.3994 14.308C49.4357 15.075 48.9539 16.255 48.9539 17.848C48.9539 19.441 49.4357 20.621 50.3994 21.388C51.363 22.1353 52.6119 22.509 54.1459 22.509Z" fill="url(#paint0_linear_247_1323)"/>
  <defs>
    <linearGradient id="paint0_linear_247_1323" x1="6.25882" y1="4.62069" x2="76.6323" y2="51.6223" gradientUnits="userSpaceOnUse">
      <stop offset="0" stop-color="#FFB169"/>
      <stop offset="1" stop-color="#FF003D"/>
    </linearGradient>
  </defs>
</svg>

