<svg width="42" height="42" viewBox="0 0 42 42" fill="none" xmlns="http://www.w3.org/2000/svg">
<circle cx="21" cy="21" r="21" fill="#EBEBEB"/>
<path d="M32.1113 13.7857C32.6112 13.7857 33.0907 13.9882 33.4442 14.3487C33.7977 14.7092 33.9963 15.1982 33.9963 15.708C33.9963 16.2178 33.7977 16.7068 33.4442 17.0673C33.0907 17.4278 32.6112 17.6303 32.1113 17.6303C31.9831 17.6196 31.8566 17.5938 31.7343 17.5534L31.2347 17.3804C31.0149 17.2672 30.8219 17.1064 30.6692 16.9095L30.3487 16.3808C30.2576 16.1618 30.2096 15.9267 30.2073 15.6888C30.2098 15.4363 30.261 15.1868 30.358 14.9546C30.455 14.7223 30.596 14.5118 30.7728 14.3351C30.9496 14.1584 31.1588 14.0189 31.3884 13.9246C31.6181 13.8303 31.8637 13.7831 32.1113 13.7857ZM20.8008 11.8633C21.2667 11.8633 21.7136 12.0514 22.0438 12.3864C22.3741 12.7214 22.5609 13.1761 22.5634 13.6511C22.5599 13.9399 22.4867 14.2234 22.3502 14.4766C22.2138 14.7297 22.0183 14.9446 21.7811 15.1025L21.4606 15.2563C21.2533 15.34 21.0331 15.3855 20.8103 15.3908C20.5832 15.3875 20.359 15.3385 20.1505 15.2466L19.962 15.1313C19.6827 14.9864 19.4474 14.7667 19.2814 14.4958C19.1153 14.2248 19.0248 13.9129 19.0194 13.5934C19.0293 13.1209 19.2223 12.6717 19.5561 12.3439C19.8899 12.0161 20.3375 11.8364 20.8008 11.8441V11.8633ZM17.0307 21.3693L19.9054 16.6403C20.4854 16.8454 21.1162 16.8454 21.6962 16.6403L24.571 21.35L29.9246 17.9571C30.09 18.1221 30.2734 18.2673 30.4713 18.3897L27.9264 26.1847H13.6847L11.1398 18.3897C11.3377 18.2673 11.5211 18.1221 11.6865 17.9571L17.0307 21.3693ZM9.4904 14.0836C9.70241 14.0824 9.91255 14.124 10.1087 14.2061C10.3048 14.2883 10.4829 14.4093 10.6329 14.5622C10.7828 14.7151 10.9014 14.8968 10.982 15.0967C11.0626 15.2967 11.1034 15.511 11.1021 15.7272C11.0993 15.928 11.0609 16.1266 10.989 16.3135L10.7157 16.7653C10.5427 16.9764 10.3203 17.1395 10.0691 17.2396C9.81782 17.3397 9.54586 17.3735 9.27839 17.3378C9.01092 17.3021 8.75661 17.1982 8.53903 17.0356C8.32145 16.873 8.14764 16.6571 8.03371 16.4077C7.91979 16.1584 7.86943 15.8838 7.88731 15.6093C7.9052 15.3348 7.99074 15.0694 8.13601 14.8376C8.28128 14.6058 8.48158 14.4152 8.71834 14.2834C8.9551 14.1516 9.22066 14.0829 9.4904 14.0836ZM27.9924 30.3658H13.6376V28.2704H27.9924V30.3658Z" fill="#424657"/>
</svg>
