<svg width="16" height="16" viewBox="0 0 16 16" fill="none" xmlns="http://www.w3.org/2000/svg">
<path d="M13.6001 9.40005L11.4667 8.53338L10.6001 6.40005C10.5334 6.13338 10.2667 6.00005 10.0001 6.00005C9.7334 6.00005 9.46673 6.13338 9.40007 6.40005L8.5334 8.53338L6.40007 9.40005C6.1334 9.46672 6.00007 9.73338 6.00007 10C6.00007 10.2667 6.1334 10.5334 6.40007 10.6L8.5334 11.4667L9.40007 13.6C9.5334 13.8667 9.7334 14 10.0001 14C10.2667 14 10.5334 13.8667 10.6001 13.6L11.4667 11.4667L13.6001 10.6C13.8667 10.4667 14.0001 10.2667 14.0001 10C14.0001 9.73338 13.8667 9.46672 13.6001 9.40005ZM10.7334 10.3334C10.6001 10.4 10.4667 10.5334 10.4001 10.6667L10.0001 11.6L9.66673 10.7334C9.60007 10.6 9.46673 10.4667 9.3334 10.4L8.40007 10L9.26673 9.66672C9.40007 9.60005 9.5334 9.46672 9.60007 9.33338L9.9334 8.46672L10.2667 9.33338C10.3334 9.46672 10.4667 9.60005 10.6001 9.66672L11.4667 10L10.7334 10.3334ZM6.66673 7.13338C6.66673 6.86672 6.5334 6.60005 6.26673 6.53338L5.26673 6.06672L4.80007 5.06672C4.7334 4.80005 4.46673 4.66672 4.20007 4.66672C3.9334 4.66672 3.66673 4.80005 3.60007 5.06672L3.1334 6.06672L2.1334 6.53338C1.86673 6.66672 1.7334 6.86672 1.7334 7.13338C1.7334 7.40005 1.86673 7.66672 2.1334 7.73338L3.1334 8.20005L3.60007 9.20005C3.7334 9.46672 3.9334 9.60005 4.20007 9.60005C4.46673 9.60005 4.7334 9.46672 4.80007 9.20005L5.26673 8.20005L6.26673 7.73338C6.5334 7.66672 6.66673 7.40005 6.66673 7.13338ZM4.20007 7.26672C4.1334 7.20005 4.1334 7.13338 4.06673 7.13338C4.1334 7.06672 4.20007 7.06672 4.20007 7.00005C4.26673 7.06672 4.26673 7.13338 4.3334 7.13338L4.20007 7.26672ZM9.46673 4.26672L10.0667 4.53338L10.3334 5.13338C10.4667 5.40005 10.6667 5.53338 10.9334 5.53338C11.2001 5.53338 11.4667 5.40005 11.5334 5.13338L11.8001 4.53338L12.4001 4.26672C12.6667 4.13338 12.8001 3.93338 12.8001 3.66672C12.8001 3.40005 12.6667 3.13338 12.4001 3.06672L11.8001 2.80005L11.5334 2.20005C11.4001 1.93338 11.2001 1.80005 10.9334 1.80005C10.6667 1.80005 10.4001 1.93338 10.3334 2.20005L10.0667 2.80005L9.46673 3.06672C9.20007 3.20005 9.06673 3.40005 9.06673 3.66672C9.06673 3.93338 9.26673 4.20005 9.46673 4.26672Z" fill="#424657"/>
</svg>
