<svg width="15" height="21" viewBox="0 0 15 21" fill="none" xmlns="http://www.w3.org/2000/svg">
<path fill-rule="evenodd" clip-rule="evenodd" d="M1.89427 0.939573C2.91439 0.2682 4.28562 0.550913 4.95699 1.57103C6.37022 3.71836 7.47889 5.05352 8.62619 6.0587C9.76468 7.05618 11.0369 7.81313 12.8978 8.69055C13.6358 9.03853 14.1222 9.76465 14.1632 10.5796C14.2042 11.3945 13.7931 12.1657 13.0937 12.586C9.61908 14.6738 7.8775 16.2426 4.75995 19.7372C3.94698 20.6485 2.54918 20.7282 1.63789 19.9152C0.726591 19.1023 0.646884 17.7045 1.45986 16.7932C3.78389 14.1881 5.49794 12.4776 7.67403 10.8703C6.99147 10.4241 6.34293 9.93796 5.71186 9.38506C4.14792 8.01484 2.78758 6.31909 1.26282 4.00229C0.591442 2.98217 0.874156 1.61095 1.89427 0.939573Z" fill="#424657"/>
</svg>
