<svg width="12" height="12" viewBox="0 0 12 12" fill="none" xmlns="http://www.w3.org/2000/svg">
<rect x="0.35" y="0.35" width="11.3" height="11.3" rx="2.65" fill="#F7F8F8" stroke="#424657" stroke-width="0.7" stroke-linejoin="round" stroke-dasharray="5 5"/>
<path fill-rule="evenodd" clip-rule="evenodd" d="M6.06109 7.44604C6.18004 7.44604 6.27647 7.34962 6.27647 7.23066V5.12267C6.27647 4.63642 6.3945 4.31159 6.59257 4.10752C6.78948 3.9046 7.10107 3.78451 7.56878 3.78451C7.68774 3.78451 7.78417 3.68808 7.78417 3.56912C7.78417 3.45016 7.68774 3.35374 7.56878 3.35374C7.03135 3.35374 6.5891 3.49255 6.28345 3.80751C5.97896 4.12126 5.8457 4.5732 5.8457 5.12267V7.23066C5.8457 7.34962 5.94213 7.44604 6.06109 7.44604Z" fill="#333333"/>
<path fill-rule="evenodd" clip-rule="evenodd" d="M6.06128 10.0307C5.63062 10.0307 5.22514 9.92549 4.86853 9.73963C4.76303 9.68465 4.63296 9.72559 4.57797 9.83108C4.52301 9.93657 4.56395 10.0666 4.66942 10.1216C5.08604 10.3388 5.55965 10.4614 6.06128 10.4614C6.726 10.4614 7.34106 10.2461 7.83965 9.88143C7.93567 9.81121 7.95658 9.67645 7.88635 9.58043C7.81613 9.48442 7.68136 9.46351 7.58535 9.53373C7.15807 9.84624 6.63154 10.0307 6.06128 10.0307ZM8.13583 9.3388C8.22954 9.41207 8.36491 9.39549 8.43816 9.30177C8.67332 9.00097 8.85275 8.65418 8.96066 8.27699C8.99338 8.16263 8.92719 8.04339 8.81284 8.01067C8.69847 7.97795 8.57924 8.04414 8.54652 8.15849C8.45416 8.48131 8.30051 8.77843 8.0988 9.03646C8.02553 9.13018 8.04211 9.26554 8.13583 9.3388ZM3.89837 9.23725C3.99546 9.16854 4.01849 9.03414 3.9498 8.93702C3.65175 8.51579 3.47667 8.00169 3.47667 7.44604V4.86142C3.47667 4.74247 3.38024 4.64604 3.26128 4.64604C3.14233 4.64604 3.0459 4.74247 3.0459 4.86142V7.44604C3.0459 8.09368 3.25032 8.69422 3.59814 9.18583C3.66685 9.28293 3.80125 9.30596 3.89837 9.23725ZM8.86128 7.66142C8.98024 7.66142 9.07667 7.565 9.07667 7.44604V4.86142C9.07667 4.40586 8.9755 3.97333 8.79419 3.58557C8.68419 3.35035 8.54478 3.13173 8.38074 2.93446C8.30467 2.84301 8.16887 2.83054 8.07741 2.90659C7.98596 2.98265 7.97347 3.11844 8.04952 3.20992C8.19027 3.37915 8.30977 3.56655 8.40398 3.76805C8.55912 4.09985 8.6459 4.4702 8.6459 4.86142V7.44604C8.6459 7.565 8.74233 7.66142 8.86128 7.66142ZM3.67101 3.38662C3.76709 3.45673 3.90184 3.43569 3.97197 3.33958C4.28076 2.91641 4.71483 2.59077 5.21909 2.41707C5.48278 2.32622 5.76603 2.27681 6.06128 2.27681C6.18024 2.27681 6.27667 2.18038 6.27667 2.06142C6.27667 1.94247 6.18024 1.84604 6.06128 1.84604C5.71766 1.84604 5.38702 1.90361 5.07878 2.0098C4.48979 2.21269 3.98381 2.59261 3.62399 3.08566C3.55386 3.18175 3.57493 3.31649 3.67101 3.38662ZM7.73631 2.60719C7.79983 2.5066 7.76978 2.37358 7.66919 2.31008C7.3924 2.1353 7.08505 2.00424 6.75695 1.92672C6.64119 1.89939 6.52516 1.97107 6.49783 2.08684C6.47047 2.20261 6.54215 2.31861 6.65792 2.34597C6.93876 2.41231 7.20194 2.5245 7.43921 2.6743C7.53977 2.73782 7.67279 2.70777 7.73631 2.60719ZM3.90744 7.39545C3.90739 8.57364 4.98742 9.3845 6.06128 9.3845C7.13515 9.3845 8.21517 8.57364 8.21513 7.39545V5.17513C8.21513 4.98589 8.17854 4.78457 8.07511 4.62329C7.96436 4.45056 7.7841 4.33739 7.54541 4.33739C7.31194 4.33739 7.12225 4.44515 6.99642 4.60772C6.87402 4.76588 6.81513 4.97017 6.81513 5.17513V7.17959C6.81513 7.38808 6.73438 7.58692 6.59236 7.73267C6.45053 7.87825 6.25937 7.95896 6.06128 7.95896C5.86319 7.95896 5.67204 7.87825 5.53021 7.73267C5.38819 7.58692 5.30744 7.38808 5.30744 7.17959V4.67774C5.30744 4.10249 5.59517 3.57069 6.23954 3.34126C6.3516 3.30135 6.4101 3.17815 6.37019 3.06611C6.3303 2.95404 6.2071 2.89554 6.09503 2.93543C5.25527 3.23447 4.87667 3.94688 4.87667 4.67774V7.17959C4.87667 7.49877 5.00015 7.80595 5.22167 8.03331C5.44337 8.26084 5.74527 8.38973 6.06128 8.38973C6.3773 8.38973 6.6792 8.26084 6.9009 8.03331C7.12242 7.80595 7.2459 7.49877 7.2459 7.17959V5.17513C7.2459 5.04833 7.28284 4.94146 7.33709 4.87138C7.3879 4.8057 7.45564 4.76816 7.54541 4.76816C7.62997 4.76816 7.67688 4.8003 7.71249 4.8558C7.75541 4.92277 7.78436 5.03261 7.78436 5.17513V7.39545C7.78438 8.28115 6.95578 8.95373 6.06128 8.95373C5.16679 8.95373 4.33818 8.28115 4.33821 7.39545V4.69267C4.33821 4.46359 4.37234 4.23534 4.43842 4.04415C4.5055 3.85011 4.59841 3.71368 4.70169 3.64047C4.79874 3.57168 4.82166 3.43726 4.75286 3.34021C4.68407 3.24315 4.54965 3.22024 4.4526 3.28903C4.24889 3.43342 4.11464 3.66227 4.03128 3.90344C3.94696 4.14745 3.90744 4.42439 3.90744 4.69267V7.39545Z" fill="#333333"/>
</svg>
