<svg width="12" height="12" viewBox="0 0 12 12" fill="none" xmlns="http://www.w3.org/2000/svg">
<path d="M9.03943 0.00479406C10.5823 0.0195758 11.9748 1.35765 11.99 2.95661C11.9965 4.99022 12.009 7.02383 11.9897 9.05718C11.9655 10.5862 10.6377 11.9748 9.03943 11.99C7.0067 11.9965 4.97396 12.009 2.9415 11.9897C1.41339 11.9654 0.0253143 10.6371 0.0100066 9.03814C0.00361727 7.00453 -0.00902822 4.97091 0.0102728 2.93756C0.0344989 1.40852 1.36228 0.0201084 2.96053 0.00479406C4.98688 -0.00159802 7.01308 -0.00159802 9.03943 0.00479406ZM2.98037 0.803805C1.85425 0.8074 0.819984 1.77407 0.80867 2.96167C0.80228 4.99022 0.789502 7.01877 0.808803 9.04706C0.826507 10.1634 1.79582 11.1798 2.96559 11.1909C4.99327 11.1975 7.02094 11.21 9.04834 11.1908C10.1649 11.173 11.1801 10.2034 11.1913 9.03308C11.1978 7.00453 11.2103 4.97597 11.1912 2.94768C11.1733 1.8308 10.2056 0.814991 9.03437 0.803805C7.01641 0.797412 4.99832 0.803805 2.98037 0.803805Z" fill="#424657"/>
<path d="M5.81221 2.0002C7.23833 2.02721 8.47707 3.41862 8.27377 4.87006C8.10739 6.05699 6.98557 7.03684 5.77972 7.03684C4.3288 7.03684 3.03225 5.57366 3.30067 4.07316C3.50371 2.93763 4.55285 2.0229 5.74722 2.0002C5.77972 1.99993 5.77972 1.99993 5.81221 2.0002ZM5.75727 2.783C4.6104 2.8048 3.67844 4.1568 4.21527 5.27014C4.68569 6.24607 6.16492 6.54855 6.9767 5.77448C7.92562 4.8698 7.42389 2.81393 5.80216 2.783C5.77972 2.78287 5.77972 2.78287 5.75727 2.783ZM5.8186 7.55893C7.36217 7.5802 8.84949 8.4982 9.53704 9.91192C9.68175 10.2094 9.38893 10.6097 9.05462 10.4768C8.80656 10.3782 8.73922 10.0518 8.58016 9.8198C7.61988 8.41886 5.53935 7.92665 4.04472 8.81894C3.46979 9.16213 3.00355 9.67822 2.71295 10.2826C2.71295 10.2826 2.57958 10.4944 2.37889 10.5041C2.07198 10.5187 1.87716 10.1802 2.08868 9.78156C2.79802 8.44404 4.26303 7.55188 5.8186 7.55893Z" fill="#424657"/>
</svg>
