<svg width="9" height="10" viewBox="0 0 9 10" fill="none" xmlns="http://www.w3.org/2000/svg">
<g clip-path="url(#clip0_63_1655)">
<path d="M8.81532 6.58506L6.65224 5.65654H6.6501V3.43447C6.6501 3.32253 6.60455 3.21546 6.52378 3.13655L4.74855 1.40256V0.844259H5.14886C5.25881 0.844259 5.34812 0.757004 5.34812 0.649585V0.624556C5.34812 0.517137 5.25916 0.430229 5.14921 0.430229H4.74855V0.207049C4.74855 0.150037 4.72471 0.0978922 4.68628 0.0606955C4.64927 0.0245417 4.59945 0.001598 4.54359 -0.000140167C4.42296 -0.00396413 4.3244 0.0982398 4.3244 0.21574V0.430229H3.92373C3.81378 0.430229 3.72482 0.517137 3.72482 0.624556V0.649933C3.72482 0.757351 3.81378 0.844259 3.92373 0.844259H4.3244V1.40673L2.52461 3.16505C2.44384 3.24397 2.39829 3.35104 2.39829 3.46263V5.65654H2.37659L0.184676 6.59723C0.0725892 6.64555 0 6.75367 0 6.8736V9.78954C0 9.90565 0.0964298 9.99986 0.215277 9.99986H3.46756V8.09136C3.46756 7.5341 3.92978 7.08253 4.50018 7.08253C4.7852 7.08253 5.04317 7.19551 5.22998 7.37801C5.41679 7.56052 5.53244 7.81255 5.53244 8.09101V9.99986H8.78472C8.90357 9.99986 9 9.90565 9 9.78954V6.86143C9 6.7415 8.92741 6.63338 8.81532 6.58506ZM4.43648 5.18028C3.92978 5.18028 3.5188 4.77877 3.5188 4.28374C3.5188 3.78871 3.92978 3.38719 4.43648 3.38719C4.94319 3.38719 5.35417 3.78871 5.35417 4.28374C5.35417 4.77877 4.94319 5.18028 4.43648 5.18028Z" fill="#424657"/>
</g>
<defs>
<clipPath id="clip0_63_1655">
<rect width="9" height="10" fill="white"/>
</clipPath>
</defs>
</svg>
