<svg width="14" height="14" viewBox="0 0 14 14" fill="none" xmlns="http://www.w3.org/2000/svg">
<g clip-path="url(#clip0_54_1289)">
<path d="M12.6964 8.28852C12.3449 7.95172 12.1545 7.48312 12.1545 6.99988C12.1545 6.51664 12.3449 6.06269 12.6964 5.71125C12.7549 5.65267 12.8135 5.60874 12.8867 5.55017C12.9892 5.47695 13.0185 5.34516 12.9892 5.22801C12.8721 4.80334 12.6964 4.39332 12.4914 4.01259C12.4328 3.91008 12.3156 3.85151 12.1985 3.86615C12.096 3.88079 12.0228 3.88079 11.9495 3.88079C10.9391 3.88079 10.1191 3.06075 10.1191 2.06499C10.1191 1.99177 10.1191 1.90391 10.1337 1.81605C10.1484 1.6989 10.0898 1.58175 9.9873 1.52317C9.60656 1.31816 9.19654 1.14244 8.77188 1.02529C8.65473 0.996003 8.52294 1.03993 8.44972 1.1278C8.39114 1.20101 8.33257 1.27423 8.28864 1.31816C7.93719 1.65497 7.48324 1.84533 7 1.84533C6.51676 1.84533 6.04817 1.65497 5.71136 1.31816C5.65279 1.25959 5.60886 1.20101 5.55028 1.1278C5.47706 1.02529 5.34527 0.996003 5.22812 1.02529C4.80346 1.15708 4.39344 1.31816 4.0127 1.52317C3.9102 1.58175 3.85162 1.6989 3.86627 1.81605C3.88091 1.91855 3.88091 1.99177 3.88091 2.06499C3.88091 3.0754 3.06087 3.88079 2.05046 3.88079C1.97724 3.88079 1.88938 3.88079 1.80152 3.86615C1.68437 3.85151 1.56722 3.91008 1.50865 4.01259C1.30364 4.39332 1.12791 4.80334 1.01076 5.22801C0.981477 5.34516 1.01076 5.47695 1.11327 5.55017C1.20113 5.60874 1.25971 5.66732 1.30364 5.71125C2.02117 6.41414 2.02117 7.57098 1.30364 8.28852C1.24506 8.3471 1.18649 8.39103 1.11327 8.4496C1.01076 8.52282 0.981477 8.65461 1.01076 8.77176C1.14256 9.19642 1.30364 9.60645 1.50865 9.98718C1.56722 10.0897 1.68437 10.1483 1.80152 10.1336C1.90402 10.119 1.97724 10.119 2.05046 10.119C3.06087 10.119 3.88091 10.939 3.88091 11.9348C3.88091 12.008 3.88091 12.0959 3.86627 12.1837C3.85162 12.3009 3.9102 12.418 4.0127 12.4766C4.39344 12.6816 4.80346 12.8573 5.22812 12.9745C5.34527 13.0038 5.47706 12.9745 5.55028 12.872C5.60886 12.7988 5.66743 12.7255 5.71136 12.6816C6.06281 12.3448 6.51676 12.1544 7 12.1544C7.48324 12.1544 7.95183 12.3448 8.28864 12.6816C8.34721 12.7402 8.39114 12.7988 8.44972 12.872C8.50829 12.9452 8.59615 12.9891 8.68401 12.9891C8.7133 12.9891 8.74259 12.9891 8.77188 12.9745C9.19654 12.8427 9.60656 12.6816 9.9873 12.4766C10.0898 12.418 10.1484 12.3009 10.1337 12.1837C10.1191 12.0812 10.1191 12.008 10.1191 11.9348C10.1191 10.9244 10.9391 10.119 11.9495 10.119C12.0228 10.119 12.1106 10.119 12.1985 10.1336C12.3156 10.1483 12.4328 10.0897 12.4914 9.98718C12.6964 9.60645 12.8721 9.19642 12.9892 8.77176C13.0185 8.65461 12.9892 8.52282 12.8867 8.4496C12.8135 8.39103 12.7403 8.3471 12.6964 8.28852ZM12.0667 9.53323H11.9349C10.6023 9.53323 9.5187 10.6169 9.5187 11.9348V12.0666C9.2844 12.1837 9.03546 12.2862 8.77188 12.3741L8.68401 12.2862C8.23006 11.8323 7.62967 11.5833 6.98536 11.5833C6.34104 11.5833 5.74065 11.8323 5.2867 12.2862L5.19884 12.3741C4.94989 12.2862 4.70095 12.1837 4.45201 12.0666V11.9348C4.45201 10.6022 3.36838 9.53323 2.03582 9.53323H1.90402C1.78688 9.29893 1.68437 9.04999 1.59651 8.7864L1.68437 8.69854C2.62156 7.76135 2.62156 6.23842 1.68437 5.28658L1.59651 5.19872C1.68437 4.94978 1.78688 4.70084 1.90402 4.45189H2.03582C3.36838 4.45189 4.45201 3.36827 4.45201 2.05034V1.91855C4.68631 1.8014 4.93525 1.6989 5.19884 1.61103L5.2867 1.6989C5.74065 2.15285 6.34104 2.40179 6.98536 2.40179C7.62967 2.40179 8.23006 2.15285 8.68401 1.6989L8.77188 1.61103C9.02082 1.6989 9.26976 1.8014 9.5187 1.91855V2.05034C9.5187 3.38291 10.6023 4.45189 11.9349 4.45189H12.0667C12.1838 4.68619 12.2863 4.93513 12.3742 5.19872L12.2863 5.28658C11.8324 5.74053 11.5834 6.34092 11.5834 6.98524C11.5834 7.62956 11.8324 8.22995 12.2863 8.6839L12.3742 8.77176C12.2863 9.04999 12.1838 9.29893 12.0667 9.53323ZM7 3.5147C5.08169 3.5147 3.51482 5.08157 3.51482 6.99988C3.51482 8.9182 5.08169 10.4851 7 10.4851C8.91831 10.4851 10.4852 8.9182 10.4852 6.99988C10.4852 5.08157 8.91831 3.5147 7 3.5147ZM7 9.89932C5.40385 9.89932 4.10057 8.59604 4.10057 6.99988C4.10057 5.40373 5.40385 4.10045 7 4.10045C8.59615 4.10045 9.89944 5.40373 9.89944 6.99988C9.89944 8.59604 8.59615 9.89932 7 9.89932Z" fill="#333333"/>
<path d="M230.16 -110.6V125.16H-19.6V-110.6H230.16ZM231.28 -111.72H-20.72V126.28H231.28V-111.72Z" fill="#0000FF"/>
</g>
<defs>
<clipPath id="clip0_54_1289">
<rect width="14" height="14" fill="white"/>
</clipPath>
</defs>
</svg>
