<svg width="10" height="10" viewBox="0 0 10 10" fill="none" xmlns="http://www.w3.org/2000/svg">
<g clip-path="url(#clip0_542_25)">
<path d="M5 7.8125C6.5533 7.8125 7.8125 6.5533 7.8125 5C7.8125 3.4467 6.5533 2.1875 5 2.1875C3.4467 2.1875 2.1875 3.4467 2.1875 5C2.1875 6.5533 3.4467 7.8125 5 7.8125Z" fill="white"/>
<path d="M5.46875 1.29344V0.625C5.46875 0.50068 5.41936 0.381451 5.33146 0.293544C5.24355 0.205636 5.12432 0.15625 5 0.15625C4.87568 0.15625 4.75645 0.205636 4.66854 0.293544C4.58064 0.381451 4.53125 0.50068 4.53125 0.625V1.29344C4.53125 1.41776 4.58064 1.53699 4.66854 1.62489C4.75645 1.7128 4.87568 1.76219 5 1.76219C5.12432 1.76219 5.24355 1.7128 5.33146 1.62489C5.41936 1.53699 5.46875 1.41776 5.46875 1.29344ZM2.71062 2.71031C2.7985 2.62241 2.84787 2.5032 2.84787 2.37891C2.84787 2.25461 2.7985 2.1354 2.71062 2.0475L2.2375 1.575C2.19444 1.52949 2.14268 1.49308 2.08531 1.46791C2.02793 1.44275 1.96609 1.42934 1.90344 1.42849C1.84079 1.42763 1.77861 1.43934 1.72056 1.46293C1.66252 1.48652 1.60979 1.5215 1.5655 1.56581C1.5212 1.61013 1.48624 1.66287 1.46268 1.72093C1.43912 1.77898 1.42744 1.84117 1.42833 1.90382C1.42921 1.96647 1.44265 2.0283 1.46784 2.08567C1.49303 2.14304 1.52947 2.19477 1.575 2.23781L2.0475 2.71031C2.09099 2.75395 2.14266 2.78857 2.19956 2.81219C2.25646 2.83581 2.31746 2.84797 2.37906 2.84797C2.44067 2.84797 2.50167 2.83581 2.55856 2.81219C2.61546 2.78857 2.66714 2.75395 2.71062 2.71031ZM0.625 5.46875H1.29313C1.41745 5.46875 1.53667 5.41936 1.62458 5.33146C1.71249 5.24355 1.76188 5.12432 1.76188 5C1.76188 4.87568 1.71249 4.75645 1.62458 4.66854C1.53667 4.58064 1.41745 4.53125 1.29313 4.53125H0.625C0.50068 4.53125 0.381451 4.58064 0.293544 4.66854C0.205636 4.75645 0.15625 4.87568 0.15625 5C0.15625 5.12432 0.205636 5.24355 0.293544 5.33146C0.381451 5.41936 0.50068 5.46875 0.625 5.46875ZM1.575 8.425C1.61844 8.46866 1.67008 8.50331 1.72696 8.52695C1.78383 8.55059 1.84481 8.56276 1.90641 8.56276C1.968 8.56276 2.02898 8.55059 2.08586 8.52695C2.14273 8.50331 2.19437 8.46866 2.23781 8.425L2.71031 7.9525C2.75637 7.90959 2.79331 7.85784 2.81893 7.80034C2.84455 7.74284 2.85832 7.68077 2.85943 7.61783C2.86054 7.55489 2.84896 7.49237 2.82539 7.434C2.80181 7.37563 2.76672 7.32261 2.72221 7.2781C2.6777 7.23359 2.62468 7.1985 2.56631 7.17492C2.50794 7.15135 2.44543 7.13977 2.38249 7.14088C2.31955 7.14199 2.25748 7.15577 2.19998 7.18139C2.14248 7.20701 2.09073 7.24395 2.04781 7.29L1.575 7.76187C1.53144 7.80541 1.49689 7.85709 1.47331 7.91399C1.44973 7.97088 1.4376 8.03186 1.4376 8.09344C1.4376 8.15502 1.44973 8.216 1.47331 8.27289C1.49689 8.32978 1.53144 8.38147 1.575 8.425ZM4.53125 8.70656V9.375C4.53125 9.49932 4.58064 9.61855 4.66854 9.70646C4.75645 9.79436 4.87568 9.84375 5 9.84375C5.12432 9.84375 5.24355 9.79436 5.33146 9.70646C5.41936 9.61855 5.46875 9.49932 5.46875 9.375V8.70656C5.46875 8.58224 5.41936 8.46301 5.33146 8.37511C5.24355 8.2872 5.12432 8.23781 5 8.23781C4.87568 8.23781 4.75645 8.2872 4.66854 8.37511C4.58064 8.46301 4.53125 8.58224 4.53125 8.70656ZM7.76219 8.425C7.80563 8.46866 7.85727 8.50331 7.91414 8.52695C7.97102 8.55059 8.032 8.56276 8.09359 8.56276C8.15519 8.56276 8.21617 8.55059 8.27304 8.52695C8.32992 8.50331 8.38156 8.46866 8.425 8.425C8.51288 8.3371 8.56224 8.21789 8.56224 8.09359C8.56224 7.9693 8.51288 7.85009 8.425 7.76219L7.9525 7.28969C7.90944 7.24418 7.85768 7.20777 7.80031 7.1826C7.74293 7.15744 7.68109 7.14403 7.61844 7.14317C7.55579 7.14232 7.49361 7.15403 7.43556 7.17762C7.37752 7.2012 7.32479 7.23619 7.2805 7.2805C7.2362 7.32481 7.20124 7.37756 7.17768 7.43561C7.15412 7.49367 7.14244 7.55586 7.14333 7.61851C7.14421 7.68116 7.15765 7.74299 7.18284 7.80036C7.20803 7.85772 7.24447 7.90946 7.29 7.9525L7.76187 8.425H7.76219ZM9.375 4.53125H8.70656C8.58224 4.53125 8.46301 4.58064 8.37511 4.66854C8.2872 4.75645 8.23781 4.87568 8.23781 5C8.23781 5.12432 8.2872 5.24355 8.37511 5.33146C8.46301 5.41936 8.58224 5.46875 8.70656 5.46875H9.375C9.49932 5.46875 9.61855 5.41936 9.70646 5.33146C9.79436 5.24355 9.84375 5.12432 9.84375 5C9.84375 4.87568 9.79436 4.75645 9.70646 4.66854C9.61855 4.58064 9.49932 4.53125 9.375 4.53125ZM8.425 1.575C8.3371 1.48712 8.21789 1.43776 8.09359 1.43776C7.9693 1.43776 7.85009 1.48712 7.76219 1.575L7.28969 2.0475C7.24418 2.09056 7.20777 2.14232 7.1826 2.19969C7.15744 2.25707 7.14403 2.31891 7.14317 2.38156C7.14232 2.44421 7.15403 2.50639 7.17762 2.56444C7.2012 2.62248 7.23619 2.67521 7.2805 2.7195C7.32481 2.7638 7.37756 2.79876 7.43561 2.82232C7.49367 2.84588 7.55586 2.85756 7.61851 2.85667C7.68116 2.85579 7.74299 2.84235 7.80036 2.81716C7.85772 2.79197 7.90946 2.75553 7.9525 2.71L8.425 2.23813C8.46856 2.19459 8.50311 2.14291 8.52669 2.08601C8.55027 2.02912 8.5624 1.96814 8.5624 1.90656C8.5624 1.84498 8.55027 1.784 8.52669 1.72711C8.50311 1.67022 8.46856 1.61853 8.425 1.575Z" fill="white"/>
</g>
<defs>
<clipPath id="clip0_542_25">
<rect width="10" height="10" fill="white"/>
</clipPath>
</defs>
</svg>
