<svg width="12" height="10" viewBox="0 0 12 10" fill="none" xmlns="http://www.w3.org/2000/svg">
<g clip-path="url(#clip0_54_1219)">
<path d="M0.995797 6.17919C0.922803 6.17919 0.852563 6.14969 0.801605 6.09631L0.0813017 5.36166C-0.026124 5.25209 -0.026124 5.07369 0.0813017 4.96413C0.188727 4.85456 0.363638 4.85456 0.471064 4.96413L0.942084 5.44453C1.26298 4.95149 1.72436 4.45844 2.31934 3.97382C2.43778 3.8769 2.61131 3.89656 2.70635 4.01737C2.80138 4.13817 2.78209 4.31516 2.66365 4.41208C1.99844 4.9543 1.51915 5.49791 1.23957 6.02888C1.19825 6.10755 1.12388 6.16093 1.03711 6.17357C1.02334 6.17497 1.00957 6.17638 0.997175 6.17638L0.995797 6.17919Z" fill="#424657"/>
<path d="M0.995797 9.99999C0.922803 9.99999 0.852563 9.97049 0.801605 9.91711L0.0813017 9.18246C-0.026124 9.07289 -0.026124 8.8945 0.0813017 8.78493C0.188727 8.67536 0.363638 8.67536 0.471064 8.78493L0.942084 9.26533C1.26298 8.77229 1.72436 8.27924 2.31934 7.79462C2.43778 7.6977 2.61131 7.71736 2.70635 7.83817C2.80138 7.95897 2.78209 8.13596 2.66365 8.23289C1.99844 8.7751 1.51915 9.31871 1.23957 9.84969C1.19825 9.92835 1.12388 9.98173 1.03711 9.99437C1.02334 9.99577 1.00957 9.99718 0.997175 9.99718L0.995797 9.99999Z" fill="#424657"/>
<path d="M0.995797 2.26581C0.922803 2.26581 0.852563 2.23631 0.801605 2.18293L0.0813017 1.44828C-0.026124 1.33871 -0.026124 1.16032 0.0813017 1.05075C0.188727 0.941183 0.363638 0.941183 0.471064 1.05075L0.942084 1.53115C1.26298 1.03811 1.72436 0.54506 2.31934 0.0618463C2.43916 -0.0350774 2.61131 -0.0154118 2.70635 0.106796C2.80138 0.2276 2.78209 0.404591 2.66227 0.501515C1.99706 1.04232 1.51915 1.58734 1.23819 2.11831C1.19688 2.19698 1.1225 2.25036 1.03574 2.263C1.02197 2.2644 1.00819 2.26581 0.995797 2.26581Z" fill="#424657"/>
<path d="M11.4381 1.80922H4.19791C3.88802 1.80922 3.63599 1.55216 3.63599 1.23611V1.18835C3.63599 0.872293 3.88802 0.615234 4.19791 0.615234H11.4367C11.7466 0.615234 11.9987 0.872293 11.9987 1.18835V1.23611C11.9987 1.55216 11.7466 1.80922 11.4367 1.80922H11.4381ZM4.19791 0.896173C4.03952 0.896173 3.91144 1.02681 3.91144 1.18835V1.23611C3.91144 1.39765 4.03952 1.52828 4.19791 1.52828H11.4367C11.5951 1.52828 11.7232 1.39765 11.7232 1.23611V1.18835C11.7232 1.02681 11.5951 0.896173 11.4367 0.896173H4.19791Z" fill="#424657"/>
<path d="M10.2026 5.85481H4.19086C3.88511 5.85481 3.63721 5.60197 3.63721 5.29013V5.22692C3.63721 4.91508 3.88511 4.66223 4.19086 4.66223H10.2039C10.5097 4.66223 10.7576 4.91508 10.7576 5.22692V5.29013C10.7576 5.60197 10.5097 5.85481 10.2039 5.85481H10.2026ZM4.19086 4.94177C4.03661 4.94177 3.91266 5.06959 3.91266 5.22551V5.28872C3.91266 5.44605 4.03799 5.57247 4.19086 5.57247H10.2039C10.3582 5.57247 10.4822 5.44464 10.4822 5.28872V5.22551C10.4822 5.06819 10.3568 4.94177 10.2039 4.94177H4.19086Z" fill="#424657"/>
<path d="M7.70711 8.70203H4.1538C3.94387 8.70203 3.77368 8.8756 3.77368 9.08972V9.22738C3.77368 9.4415 3.94387 9.61508 4.1538 9.61508H7.70711C7.91705 9.61508 8.08724 9.4415 8.08724 9.22738V9.08972C8.08724 8.8756 7.91705 8.70203 7.70711 8.70203Z" fill="#424657"/>
</g>
<defs>
<clipPath id="clip0_54_1219">
<rect width="12" height="10" fill="white"/>
</clipPath>
</defs>
</svg>
