<svg width="14" height="14" viewBox="0 0 14 14" fill="none" xmlns="http://www.w3.org/2000/svg">
<path d="M7.00007 0.103394C5.17162 0.105438 3.41864 0.832693 2.12573 2.1256C0.832815 3.41852 0.10556 5.17149 0.103516 6.99994C0.106579 8.82808 0.834162 10.5805 2.12685 11.8732C3.41954 13.1658 5.17193 13.8934 7.00007 13.8965C8.82915 13.8965 10.5833 13.1699 11.8767 11.8765C13.17 10.5832 13.8966 8.82902 13.8966 6.99994C13.8966 5.17087 13.17 3.4167 11.8767 2.12335C10.5833 0.829992 8.82915 0.103394 7.00007 0.103394ZM11.1948 10.9795C10.8075 10.1983 10.2096 9.54084 9.46846 9.08136C8.72737 8.62187 7.87261 8.37864 7.00063 8.3791C6.12865 8.37955 5.27415 8.62369 4.53353 9.08395C3.79292 9.54422 3.19567 10.2023 2.80917 10.9839C1.77795 9.91443 1.20334 8.48563 1.20696 6.99994C1.20696 5.46352 1.81731 3.99002 2.90372 2.9036C3.99014 1.81718 5.46364 1.20684 7.00007 1.20684C8.53649 1.20684 10.01 1.81718 11.0964 2.9036C12.1828 3.99002 12.7932 5.46352 12.7932 6.99994C12.7966 8.48355 12.2235 9.91047 11.1948 10.9795ZM7.00007 2.86201C6.50902 2.86201 6.02901 3.00763 5.62072 3.28043C5.21243 3.55324 4.89421 3.941 4.7063 4.39466C4.51838 4.84833 4.46922 5.34753 4.56501 5.82913C4.66081 6.31074 4.89727 6.75313 5.24449 7.10035C5.59171 7.44757 6.0341 7.68403 6.5157 7.77983C6.99731 7.87562 7.49651 7.82646 7.95018 7.63854C8.40384 7.45063 8.7916 7.13241 9.0644 6.72412C9.33721 6.31583 9.48283 5.83582 9.48283 5.34477C9.48283 5.01873 9.41861 4.69588 9.29384 4.39466C9.16907 4.09344 8.98619 3.81974 8.75564 3.5892C8.5251 3.35865 8.2514 3.17577 7.95018 3.051C7.64895 2.92623 7.32611 2.86201 7.00007 2.86201Z" fill="#424657"/>
</svg>
