<svg width="10" height="10" viewBox="0 0 10 10" fill="none" xmlns="http://www.w3.org/2000/svg">
<path d="M8.125 3.5V2.5C8.125 1.1 6.75 0 5 0C3.25 0 1.875 1.1 1.875 2.5V3.5C0.8125 3.5 0 4.15 0 5V8.5C0 9.35 0.8125 10 1.875 10H8.125C9.1875 10 10 9.35 10 8.5V5C10 4.15 9.1875 3.5 8.125 3.5ZM3.125 2.5C3.125 1.65 3.9375 1 5 1C6.0625 1 6.875 1.65 6.875 2.5V3.5H3.125V2.5ZM5.6875 6.75L5.625 6.8V7.5C5.625 7.8 5.375 8 5 8C4.625 8 4.375 7.8 4.375 7.5V6.8C4 6.5 3.9375 6.05 4.3125 5.75C4.6875 5.45 5.25 5.4 5.625 5.7C6 5.95 6.0625 6.45 5.6875 6.75Z" fill="#9B9DA8"/>
</svg>
