<svg width="16" height="11" viewBox="0 0 16 11" fill="none" xmlns="http://www.w3.org/2000/svg">
<path d="M7.99833 4.92544L14.9361 0.46854C14.6572 0.259328 14.3185 0.145157 13.9698 0.142822H2.02684C1.67818 0.145157 1.33947 0.259328 1.06055 0.46854L7.99833 4.92544Z" fill="#9B9DA8"/>
<path d="M8.29361 6.02739L8.20132 6.07082H8.15789C8.10791 6.09315 8.05483 6.10779 8.00046 6.11425C7.9554 6.11992 7.90981 6.11992 7.86475 6.11425H7.82132L7.72903 6.07082L0.454677 1.36963C0.419922 1.50075 0.401685 1.6357 0.400391 1.77135V9.37142C0.400391 9.80335 0.571973 10.2176 0.877393 10.523C1.18281 10.8284 1.59705 11 2.02898 11H13.9719C14.4039 11 14.8181 10.8284 15.1235 10.523C15.429 10.2176 15.6005 9.80335 15.6005 9.37142V1.77135C15.5992 1.6357 15.581 1.50075 15.5462 1.36963L8.29361 6.02739Z" fill="#9B9DA8"/>
</svg>
