<svg width="12" height="14" viewBox="0 0 12 14" fill="none" xmlns="http://www.w3.org/2000/svg">
<g clip-path="url(#clip0_260_1224)">
<path d="M5.85195 13.9989C4.54246 13.9989 3.23297 13.9994 1.92349 13.9989C0.628139 13.9979 -0.148125 13.1053 0.0236796 11.8157C0.317005 9.61683 1.99734 8.14392 4.21247 8.14392C5.37372 8.14392 6.53445 8.13973 7.69571 8.14497C9.84327 8.1544 11.6739 9.95206 11.73 12.1001C11.7588 13.2074 10.9988 13.9942 9.88465 13.9979C8.54007 14.0026 7.19601 13.9989 5.85143 13.9989H5.85195Z" fill="#9B9DA8"/>
<path d="M5.8639 0C7.81713 0 9.38118 1.56353 9.37856 3.51362C9.37647 5.45638 7.79303 7.02776 5.84923 7.01624C3.90752 7.00524 2.34923 5.4459 2.34766 3.51205C2.34556 1.56248 3.91066 0 5.8639 0Z" fill="#9B9DA8"/>
</g>
<defs>
<clipPath id="clip0_260_1224">
<rect width="11.7309" height="14" fill="white"/>
</clipPath>
</defs>
</svg>
