<svg width="13" height="13" viewBox="0 0 13 13" fill="none" xmlns="http://www.w3.org/2000/svg">
<path d="M9.72846 8.68955L9.35384 8.89263C8.72183 9.23872 7.92111 9.12145 7.40921 8.60946L4.38933 5.589C3.87744 5.07701 3.76019 4.27613 4.10622 3.64114L4.30926 3.26931C4.53804 2.84598 4.62097 2.37118 4.55234 1.89637C4.48751 1.42252 4.26841 0.983231 3.92891 0.646425C3.51139 0.228823 2.9566 0 2.36464 0C1.77267 0 1.21502 0.228823 0.797502 0.646425L0.651655 0.79516C-0.120474 1.56744 -0.209126 2.89747 0.399999 4.54499C0.974806 6.11815 2.133 7.82288 3.65438 9.34456C5.97363 11.6642 8.55597 13 10.4091 13C11.1412 13 11.7617 12.7912 12.2021 12.3507L12.3508 12.202C12.5568 11.9962 12.7201 11.7519 12.8315 11.4829C12.9429 11.214 13.0002 10.9257 13 10.6345C12.996 10.0483 12.763 9.4868 12.3508 9.06997C11.6616 8.38064 10.5835 8.22618 9.72846 8.68955Z" fill="#9B9DA8"/>
</svg>
