<svg width="525" height="400" viewBox="0 0 525 400" fill="none" xmlns="http://www.w3.org/2000/svg">
<mask id="mask0_268_625" style="mask-type:luminance" maskUnits="userSpaceOnUse" x="0" y="0" width="525" height="400">
<path d="M524.94 0H0V399.11H524.94V0Z" fill="white"/>
</mask>
<g mask="url(#mask0_268_625)">
<path d="M513.951 252.23L513.761 224.37L480.031 217.52L302.751 114.76C276.291 99.42 230.031 101.26 199.421 118.86L35.9008 212.89C34.5608 213.66 33.2908 214.45 32.0608 215.26L10.5508 221.83V247.16H10.5708C10.7808 256.67 16.6308 265.72 28.3808 272.54L221.761 384.64C248.221 399.98 294.481 398.14 325.091 380.54L488.601 286.51C505.611 276.73 514.201 264.13 513.941 252.24L513.951 252.23Z" fill="#D9D5D6"/>
<path d="M221.761 359.3L28.3807 247.2C1.92071 231.86 5.29071 205.16 35.9007 187.56L199.411 93.5299C230.021 75.9299 276.281 74.0899 302.741 89.4299L496.121 201.53C522.581 216.87 519.211 243.57 488.601 261.17L325.091 355.2C294.481 372.8 248.221 374.64 221.761 359.3Z" fill="url(#paint0_linear_268_625)"/>
</g>
<path d="M190.821 91.6401L157.601 72.2602C156.581 71.6702 155.661 71.6402 154.941 72.0402V72.0201L138.041 81.3901L176.501 136.9L193.381 127.56V127.54C194.241 127.04 194.811 125.89 194.811 124.23L194.921 99.5401C194.931 96.5001 193.101 92.9601 190.821 91.6301V91.6401Z" fill="#E4D8D7"/>
<path d="M173.64 136.78L140.42 117.4C138.14 116.07 136.31 112.53 136.32 109.49L136.43 84.8002C136.44 81.7602 138.3 80.3702 140.57 81.7002L173.79 101.08C176.07 102.41 177.9 105.95 177.89 108.99L177.78 133.68C177.77 136.72 175.91 138.11 173.64 136.78Z" fill="#CE172D"/>
<g style="mix-blend-mode:overlay">
<path d="M190.821 91.4502L157.601 72.0702C156.581 71.4802 155.661 71.4502 154.941 71.8502V71.8302L138.041 81.2002L176.501 136.71L193.381 127.37V127.35C194.241 126.85 194.811 125.7 194.811 124.04L194.921 99.3502C194.931 96.3102 193.101 92.7702 190.821 91.4402V91.4502Z" fill="#E4D8D7"/>
<path d="M173.64 136.59L140.42 117.21C138.14 115.88 136.31 112.34 136.32 109.3L136.43 84.6102C136.44 81.5702 138.3 80.1803 140.57 81.5103L173.79 100.89C176.07 102.22 177.9 105.76 177.89 108.8L177.78 133.49C177.77 136.53 175.91 137.92 173.64 136.59Z" fill="#CE172D"/>
</g>
<path d="M234.721 116.71L201.501 97.33C200.481 96.74 199.561 96.71 198.841 97.11V97.09L181.941 106.46L220.401 161.97L237.281 152.63V152.61C238.141 152.11 238.711 150.96 238.711 149.3L238.821 124.61C238.831 121.57 237.001 118.03 234.721 116.7V116.71Z" fill="#E4D8D7"/>
<path d="M217.541 161.85L184.321 142.47C182.041 141.14 180.211 137.6 180.221 134.56L180.331 109.87C180.341 106.83 182.201 105.44 184.471 106.77L217.691 126.15C219.971 127.48 221.801 131.02 221.791 134.06L221.681 158.75C221.671 161.79 219.811 163.18 217.541 161.85Z" fill="#CE172D"/>
<g style="mix-blend-mode:overlay">
<path d="M234.721 116.52L201.501 97.14C200.481 96.55 199.561 96.52 198.841 96.92V96.9L181.941 106.27L220.401 161.78L237.281 152.44V152.42C238.141 151.92 238.711 150.77 238.711 149.11L238.821 124.42C238.831 121.38 237.001 117.84 234.721 116.51V116.52Z" fill="#E4D8D7"/>
<path d="M217.541 161.66L184.321 142.28C182.041 140.95 180.211 137.41 180.221 134.37L180.331 109.68C180.341 106.64 182.201 105.25 184.471 106.58L217.691 125.96C219.971 127.29 221.801 130.83 221.791 133.87L221.681 158.56C221.671 161.6 219.811 162.99 217.541 161.66Z" fill="#CE172D"/>
</g>
<path d="M278.622 141.74L245.402 122.36C244.382 121.77 243.462 121.74 242.742 122.14V122.12L225.842 131.49L264.302 187L281.182 177.66V177.64C282.042 177.14 282.612 175.99 282.612 174.33L282.722 149.64C282.732 146.6 280.902 143.06 278.622 141.73V141.74Z" fill="#E4D8D7"/>
<path d="M261.441 186.88L228.221 167.5C225.941 166.17 224.111 162.63 224.121 159.59L224.231 134.9C224.241 131.86 226.101 130.47 228.371 131.8L261.591 151.18C263.871 152.51 265.701 156.05 265.691 159.09L265.581 183.78C265.571 186.82 263.711 188.21 261.441 186.88Z" fill="#CE172D"/>
<g style="mix-blend-mode:overlay">
<path d="M278.622 141.55L245.402 122.17C244.382 121.58 243.462 121.55 242.742 121.95V121.93L225.842 131.3L264.302 186.81L281.182 177.47V177.45C282.042 176.95 282.612 175.8 282.612 174.14L282.722 149.45C282.732 146.41 280.902 142.87 278.622 141.54V141.55Z" fill="#E4D8D7"/>
<path d="M261.441 186.69L228.221 167.31C225.941 165.98 224.111 162.44 224.121 159.4L224.231 134.71C224.241 131.67 226.101 130.28 228.371 131.61L261.591 150.99C263.871 152.32 265.701 155.86 265.691 158.9L265.581 183.59C265.571 186.63 263.711 188.02 261.441 186.69Z" fill="#CE172D"/>
</g>
<path d="M322.52 166.95L289.3 147.57C288.28 146.98 287.36 146.95 286.64 147.35V147.33L269.74 156.7L308.2 212.21L325.08 202.87V202.85C325.94 202.35 326.51 201.2 326.51 199.54L326.62 174.85C326.63 171.81 324.8 168.27 322.52 166.94V166.95Z" fill="#E4D8D7"/>
<path d="M305.33 212.09L272.11 192.71C269.83 191.38 268 187.84 268.01 184.8L268.12 160.11C268.13 157.07 269.99 155.68 272.26 157.01L305.48 176.39C307.76 177.72 309.59 181.26 309.58 184.3L309.47 208.99C309.46 212.03 307.6 213.42 305.33 212.09Z" fill="#CE172D"/>
<g style="mix-blend-mode:overlay">
<path d="M322.52 166.76L289.3 147.38C288.28 146.79 287.36 146.76 286.64 147.16V147.14L269.74 156.51L308.2 212.02L325.08 202.68V202.66C325.94 202.16 326.51 201.01 326.51 199.35L326.62 174.66C326.63 171.62 324.8 168.08 322.52 166.75V166.76Z" fill="#E4D8D7"/>
<path d="M305.33 211.9L272.11 192.52C269.83 191.19 268 187.65 268.01 184.61L268.12 159.92C268.13 156.88 269.99 155.49 272.26 156.82L305.48 176.2C307.76 177.53 309.59 181.07 309.58 184.11L309.47 208.8C309.46 211.84 307.6 213.23 305.33 211.9Z" fill="#CE172D"/>
</g>
<path d="M366.411 192.99L333.191 173.61C332.171 173.02 331.251 172.99 330.531 173.39V173.37L313.631 182.74L352.091 238.25L368.971 228.91V228.89C369.831 228.39 370.401 227.24 370.401 225.58L370.511 200.89C370.521 197.85 368.691 194.31 366.411 192.98V192.99Z" fill="#E4D8D7"/>
<path d="M349.23 238.13L316.01 218.75C313.73 217.42 311.9 213.88 311.91 210.84L312.02 186.15C312.03 183.11 313.89 181.72 316.16 183.05L349.38 202.43C351.66 203.76 353.49 207.3 353.48 210.34L353.37 235.03C353.36 238.07 351.5 239.46 349.23 238.13Z" fill="#CE172D"/>
<g style="mix-blend-mode:overlay">
<path d="M366.411 192.8L333.191 173.42C332.171 172.83 331.251 172.8 330.531 173.2V173.18L313.631 182.55L352.091 238.06L368.971 228.72V228.7C369.831 228.2 370.401 227.05 370.401 225.39L370.511 200.7C370.521 197.66 368.691 194.12 366.411 192.79V192.8Z" fill="#E4D8D7"/>
<path d="M349.23 237.94L316.01 218.56C313.73 217.23 311.9 213.69 311.91 210.65L312.02 185.96C312.03 182.92 313.89 181.53 316.16 182.86L349.38 202.24C351.66 203.57 353.49 207.11 353.48 210.15L353.37 234.84C353.36 237.88 351.5 239.27 349.23 237.94Z" fill="#CE172D"/>
</g>
<path d="M410.311 218.2L377.091 198.82C376.071 198.23 375.151 198.2 374.431 198.6V198.58L357.531 207.95L395.991 263.46L412.871 254.12V254.1C413.731 253.6 414.301 252.45 414.301 250.79L414.411 226.1C414.421 223.06 412.591 219.52 410.311 218.19V218.2Z" fill="#E4D8D7"/>
<path d="M393.131 263.34L359.911 243.96C357.631 242.63 355.801 239.09 355.811 236.05L355.921 211.36C355.931 208.32 357.791 206.93 360.061 208.26L393.281 227.64C395.561 228.97 397.391 232.51 397.381 235.55L397.271 260.24C397.261 263.28 395.401 264.67 393.131 263.34Z" fill="#CE172D"/>
<g style="mix-blend-mode:overlay">
<path d="M410.311 218.02L377.091 198.64C376.071 198.05 375.151 198.02 374.431 198.42V198.4L357.531 207.77L395.991 263.28L412.871 253.94V253.92C413.731 253.42 414.301 252.27 414.301 250.61L414.411 225.92C414.421 222.88 412.591 219.34 410.311 218.01V218.02Z" fill="#E4D8D7"/>
<path d="M393.131 263.16L359.911 243.78C357.631 242.45 355.801 238.91 355.811 235.87L355.921 211.18C355.931 208.14 357.791 206.75 360.061 208.08L393.281 227.46C395.561 228.79 397.391 232.33 397.381 235.37L397.271 260.06C397.261 263.1 395.401 264.49 393.131 263.16Z" fill="#CE172D"/>
</g>
<path d="M279.471 102.97L246.251 83.59C245.231 83 244.311 82.97 243.591 83.37V83.35L226.691 92.72L265.151 148.23L282.031 138.89V138.87C282.891 138.37 283.461 137.22 283.461 135.56L283.571 110.87C283.581 107.83 281.751 104.29 279.471 102.96V102.97Z" fill="#E4D8D7"/>
<path d="M262.291 148.11L229.071 128.73C226.791 127.4 224.961 123.86 224.971 120.82L225.081 96.13C225.091 93.09 226.951 91.7 229.221 93.03L262.441 112.41C264.721 113.74 266.551 117.28 266.541 120.32L266.431 145.01C266.421 148.05 264.561 149.44 262.291 148.11Z" fill="#CE172D"/>
<g style="mix-blend-mode:overlay">
<path d="M279.471 102.78L246.251 83.4C245.231 82.81 244.311 82.78 243.591 83.18V83.16L226.691 92.53L265.151 148.04L282.031 138.7V138.68C282.891 138.18 283.461 137.03 283.461 135.37L283.571 110.68C283.581 107.64 281.751 104.1 279.471 102.77V102.78Z" fill="#E4D8D7"/>
<path d="M262.291 147.92L229.071 128.54C226.791 127.21 224.961 123.67 224.971 120.63L225.081 95.9401C225.091 92.9001 226.951 91.5101 229.221 92.8401L262.441 112.22C264.721 113.55 266.551 117.09 266.541 120.13L266.431 144.82C266.421 147.86 264.561 149.25 262.291 147.92Z" fill="#CE172D"/>
</g>
<path d="M323.372 128.18L290.152 108.8C289.132 108.21 288.212 108.18 287.492 108.58V108.56L270.592 117.93L309.052 173.44L325.932 164.1V164.08C326.792 163.58 327.362 162.43 327.362 160.77L327.472 136.08C327.482 133.04 325.652 129.5 323.372 128.17V128.18Z" fill="#E4D8D7"/>
<path d="M306.191 173.32L272.971 153.94C270.691 152.61 268.861 149.07 268.871 146.03L268.981 121.34C268.991 118.3 270.851 116.91 273.121 118.24L306.341 137.62C308.621 138.95 310.451 142.49 310.441 145.53L310.331 170.22C310.321 173.26 308.461 174.65 306.191 173.32Z" fill="#CE172D"/>
<g style="mix-blend-mode:overlay">
<path d="M323.372 127.99L290.152 108.61C289.132 108.02 288.212 107.99 287.492 108.39V108.37L270.592 117.74L309.052 173.25L325.932 163.91V163.89C326.792 163.39 327.362 162.24 327.362 160.58L327.472 135.89C327.482 132.85 325.652 129.31 323.372 127.98V127.99Z" fill="#E4D8D7"/>
<path d="M306.191 173.13L272.971 153.75C270.691 152.42 268.861 148.88 268.871 145.84L268.981 121.15C268.991 118.11 270.851 116.72 273.121 118.05L306.341 137.43C308.621 138.76 310.451 142.3 310.441 145.34L310.331 170.03C310.321 173.07 308.461 174.46 306.191 173.13Z" fill="#CE172D"/>
</g>
<g opacity="0.4">
<path d="M367.27 154.22L334.05 134.84C333.03 134.25 332.11 134.22 331.39 134.62V134.6L314.49 143.97L352.95 199.48L369.83 190.14V190.12C370.69 189.62 371.26 188.47 371.26 186.81L371.37 162.12C371.38 159.08 369.55 155.54 367.27 154.21V154.22Z" fill="#E4D8D7"/>
<path d="M350.09 199.36L316.87 179.98C314.59 178.65 312.76 175.11 312.77 172.07L312.88 147.38C312.89 144.34 314.75 142.95 317.02 144.28L350.24 163.66C352.52 164.99 354.35 168.53 354.34 171.57L354.23 196.26C354.22 199.3 352.36 200.69 350.09 199.36Z" fill="#CE172D"/>
<g style="mix-blend-mode:overlay">
<path d="M367.27 154.03L334.05 134.65C333.03 134.06 332.11 134.03 331.39 134.43V134.41L314.49 143.78L352.95 199.29L369.83 189.95V189.93C370.69 189.43 371.26 188.28 371.26 186.62L371.37 161.93C371.38 158.89 369.55 155.35 367.27 154.02V154.03Z" fill="#E4D8D7"/>
<path d="M350.09 199.17L316.87 179.79C314.59 178.46 312.76 174.92 312.77 171.88L312.88 147.19C312.89 144.15 314.75 142.76 317.02 144.09L350.24 163.47C352.52 164.8 354.35 168.34 354.34 171.38L354.23 196.07C354.22 199.11 352.36 200.5 350.09 199.17Z" fill="#CE172D"/>
</g>
</g>
<g style="mix-blend-mode:overlay" opacity="0.5">
<path d="M367.27 154.26L334.05 134.88C333.03 134.29 332.11 134.26 331.39 134.66V134.64L314.49 144.01L352.95 199.52L369.83 190.18V190.16C370.69 189.66 371.26 188.51 371.26 186.85L371.37 162.16C371.38 159.12 369.55 155.58 367.27 154.25V154.26Z" fill="#E4D8D7"/>
<path d="M350.09 199.4L316.87 180.02C314.59 178.69 312.76 175.15 312.77 172.11L312.88 147.42C312.89 144.38 314.75 142.99 317.02 144.32L350.24 163.7C352.52 165.03 354.35 168.57 354.34 171.61L354.23 196.3C354.22 199.34 352.36 200.73 350.09 199.4Z" fill="#CE172D"/>
<g style="mix-blend-mode:overlay">
<path d="M367.27 154.07L334.05 134.69C333.03 134.1 332.11 134.07 331.39 134.47V134.45L314.49 143.82L352.95 199.33L369.83 189.99V189.97C370.69 189.47 371.26 188.32 371.26 186.66L371.37 161.97C371.38 158.93 369.55 155.39 367.27 154.06V154.07Z" fill="#E4D8D7"/>
<path d="M350.09 199.21L316.87 179.83C314.59 178.5 312.76 174.96 312.77 171.92L312.88 147.23C312.89 144.19 314.75 142.8 317.02 144.13L350.24 163.51C352.52 164.84 354.35 168.38 354.34 171.42L354.23 196.11C354.22 199.15 352.36 200.54 350.09 199.21Z" fill="#CE172D"/>
</g>
</g>
<path d="M411.171 179.43L377.951 160.05C376.931 159.46 376.011 159.43 375.291 159.83V159.81L358.391 169.18L396.851 224.69L413.731 215.35V215.33C414.591 214.83 415.161 213.68 415.161 212.02L415.271 187.33C415.281 184.29 413.451 180.75 411.171 179.42V179.43Z" fill="#E4D8D7"/>
<path d="M393.98 224.58L360.76 205.2C358.48 203.87 356.65 200.33 356.66 197.29L356.77 172.6C356.78 169.56 358.64 168.17 360.91 169.5L394.13 188.88C396.41 190.21 398.24 193.75 398.23 196.79L398.12 221.48C398.11 224.52 396.25 225.91 393.98 224.58Z" fill="#CE172D"/>
<g style="mix-blend-mode:overlay">
<path d="M411.171 179.25L377.951 159.87C376.931 159.28 376.011 159.25 375.291 159.65V159.63L358.391 169L396.851 224.51L413.731 215.17V215.15C414.591 214.65 415.161 213.5 415.161 211.84L415.271 187.15C415.281 184.11 413.451 180.57 411.171 179.24V179.25Z" fill="#E4D8D7"/>
<path d="M393.98 224.39L360.76 205.01C358.48 203.68 356.65 200.14 356.66 197.1L356.77 172.41C356.78 169.37 358.64 167.98 360.91 169.31L394.13 188.69C396.41 190.02 398.24 193.56 398.23 196.6L398.12 221.29C398.11 224.33 396.25 225.72 393.98 224.39Z" fill="#CE172D"/>
</g>
<path d="M323.85 88.53L290.63 69.15C289.61 68.56 288.69 68.53 287.97 68.93V68.91L271.07 78.28L309.53 133.79L326.41 124.45V124.43C327.27 123.93 327.84 122.78 327.84 121.12L327.95 96.43C327.96 93.39 326.13 89.85 323.85 88.52V88.53Z" fill="#E4D8D7"/>
<path d="M306.67 133.67L273.45 114.29C271.17 112.96 269.34 109.42 269.35 106.38L269.46 81.6901C269.47 78.6501 271.33 77.2601 273.6 78.5901L306.82 97.9701C309.1 99.3001 310.93 102.84 310.92 105.88L310.81 130.57C310.8 133.61 308.94 135 306.67 133.67Z" fill="#CE172D"/>
<g style="mix-blend-mode:overlay">
<path d="M323.85 88.3401L290.63 68.9601C289.61 68.3701 288.69 68.3401 287.97 68.7401V68.7201L271.07 78.0901L309.53 133.6L326.41 124.26V124.24C327.27 123.74 327.84 122.59 327.84 120.93L327.95 96.2401C327.96 93.2001 326.13 89.6601 323.85 88.3301V88.3401Z" fill="#E4D8D7"/>
<path d="M306.67 133.48L273.45 114.1C271.17 112.77 269.34 109.23 269.35 106.19L269.46 81.5001C269.47 78.4601 271.33 77.0701 273.6 78.4001L306.82 97.7801C309.1 99.1101 310.93 102.65 310.92 105.69L310.81 130.38C310.8 133.42 308.94 134.81 306.67 133.48Z" fill="#CE172D"/>
</g>
<path d="M367.751 114.57L334.531 95.1901C333.511 94.6001 332.591 94.5701 331.871 94.9701V94.9501L314.971 104.32L353.431 159.83L370.311 150.49V150.47C371.171 149.97 371.741 148.82 371.741 147.16L371.851 122.47C371.861 119.43 370.031 115.89 367.751 114.56V114.57Z" fill="#E4D8D7"/>
<path d="M350.57 159.71L317.35 140.33C315.07 139 313.24 135.46 313.25 132.42L313.36 107.73C313.37 104.69 315.23 103.3 317.5 104.63L350.72 124.01C353 125.34 354.83 128.88 354.82 131.92L354.71 156.61C354.7 159.65 352.84 161.04 350.57 159.71Z" fill="#CE172D"/>
<g style="mix-blend-mode:overlay">
<path d="M367.751 114.38L334.531 95.0001C333.511 94.4101 332.591 94.3801 331.871 94.7801V94.7601L314.971 104.13L353.431 159.64L370.311 150.3V150.28C371.171 149.78 371.741 148.63 371.741 146.97L371.851 122.28C371.861 119.24 370.031 115.7 367.751 114.37V114.38Z" fill="#E4D8D7"/>
<path d="M350.57 159.52L317.35 140.14C315.07 138.81 313.24 135.27 313.25 132.23L313.36 107.54C313.37 104.5 315.23 103.11 317.5 104.44L350.72 123.82C353 125.15 354.83 128.69 354.82 131.73L354.71 156.42C354.7 159.46 352.84 160.85 350.57 159.52Z" fill="#CE172D"/>
</g>
<g opacity="0.4">
<path d="M411.651 139.78L378.431 120.4C377.411 119.81 376.491 119.78 375.771 120.18V120.16L358.871 129.53L397.331 185.04L414.211 175.7V175.68C415.071 175.18 415.641 174.03 415.641 172.37L415.751 147.68C415.761 144.64 413.931 141.1 411.651 139.77V139.78Z" fill="#E4D8D7"/>
<path d="M394.461 184.92L361.241 165.54C358.961 164.21 357.131 160.67 357.141 157.63L357.251 132.94C357.261 129.9 359.121 128.51 361.391 129.84L394.611 149.22C396.891 150.55 398.721 154.09 398.711 157.13L398.601 181.82C398.591 184.86 396.731 186.25 394.461 184.92Z" fill="#CE172D"/>
<g style="mix-blend-mode:overlay">
<path d="M411.651 139.59L378.431 120.21C377.411 119.62 376.491 119.59 375.771 119.99V119.97L358.871 129.34L397.331 184.85L414.211 175.51V175.49C415.071 174.99 415.641 173.84 415.641 172.18L415.751 147.49C415.761 144.45 413.931 140.91 411.651 139.58V139.59Z" fill="#E4D8D7"/>
<path d="M394.461 184.73L361.241 165.35C358.961 164.02 357.131 160.48 357.141 157.44L357.251 132.75C357.261 129.71 359.121 128.32 361.391 129.65L394.611 149.03C396.891 150.36 398.721 153.9 398.711 156.94L398.601 181.63C398.591 184.67 396.731 186.06 394.461 184.73Z" fill="#CE172D"/>
</g>
</g>
<g style="mix-blend-mode:overlay" opacity="0.5">
<path d="M411.651 139.82L378.431 120.44C377.411 119.85 376.491 119.82 375.771 120.22V120.2L358.871 129.57L397.331 185.08L414.211 175.74V175.72C415.071 175.22 415.641 174.07 415.641 172.41L415.751 147.72C415.761 144.68 413.931 141.14 411.651 139.81V139.82Z" fill="#E4D8D7"/>
<path d="M394.461 184.96L361.241 165.58C358.961 164.25 357.131 160.71 357.141 157.67L357.251 132.98C357.261 129.94 359.121 128.55 361.391 129.88L394.611 149.26C396.891 150.59 398.721 154.13 398.711 157.17L398.601 181.86C398.591 184.9 396.731 186.29 394.461 184.96Z" fill="#CE172D"/>
<g style="mix-blend-mode:overlay">
<path d="M411.651 139.63L378.431 120.25C377.411 119.66 376.491 119.63 375.771 120.03V120.01L358.871 129.38L397.331 184.89L414.211 175.55V175.53C415.071 175.03 415.641 173.88 415.641 172.22L415.751 147.53C415.761 144.49 413.931 140.95 411.651 139.62V139.63Z" fill="#E4D8D7"/>
<path d="M394.461 184.77L361.241 165.39C358.961 164.06 357.131 160.52 357.141 157.48L357.251 132.79C357.261 129.75 359.121 128.36 361.391 129.69L394.611 149.07C396.891 150.4 398.721 153.94 398.711 156.98L398.601 181.67C398.591 184.71 396.731 186.1 394.461 184.77Z" fill="#CE172D"/>
</g>
</g>
<path d="M368.231 74.9199L335.011 55.5399C333.991 54.9499 333.071 54.9199 332.351 55.3199V55.2999L315.451 64.6699L353.911 120.18L370.791 110.84V110.82C371.651 110.32 372.221 109.17 372.221 107.51L372.331 82.8199C372.341 79.7799 370.511 76.2399 368.231 74.9099V74.9199Z" fill="#E4D8D7"/>
<path d="M351.05 120.06L317.83 100.68C315.55 99.35 313.721 95.81 313.731 92.77L313.84 68.08C313.85 65.04 315.711 63.65 317.981 64.98L351.201 84.36C353.481 85.69 355.31 89.23 355.3 92.27L355.191 116.96C355.181 120 353.32 121.39 351.05 120.06Z" fill="#CE172D"/>
<g style="mix-blend-mode:overlay">
<path d="M368.231 74.73L335.011 55.35C333.991 54.76 333.071 54.73 332.351 55.13V55.11L315.451 64.48L353.911 119.99L370.791 110.65V110.63C371.651 110.13 372.221 108.98 372.221 107.32L372.331 82.63C372.341 79.59 370.511 76.05 368.231 74.72V74.73Z" fill="#E4D8D7"/>
<path d="M351.05 119.87L317.83 100.49C315.55 99.16 313.721 95.62 313.731 92.58L313.84 67.89C313.85 64.85 315.711 63.46 317.981 64.79L351.201 84.17C353.481 85.5 355.31 89.04 355.3 92.08L355.191 116.77C355.181 119.81 353.32 121.2 351.05 119.87Z" fill="#CE172D"/>
</g>
<path d="M412.132 100.14L378.912 80.7602C377.892 80.1702 376.972 80.1402 376.252 80.5402V80.5201L359.352 89.8901L397.812 145.4L414.692 136.06V136.04C415.552 135.54 416.122 134.39 416.122 132.73L416.232 108.04C416.242 105 414.412 101.46 412.132 100.13V100.14Z" fill="#E4D8D7"/>
<path d="M394.951 145.28L361.731 125.9C359.451 124.57 357.621 121.03 357.631 117.99L357.741 93.3002C357.751 90.2602 359.611 88.8702 361.881 90.2002L395.101 109.58C397.381 110.91 399.211 114.45 399.201 117.49L399.091 142.18C399.081 145.22 397.221 146.61 394.951 145.28Z" fill="#CE172D"/>
<g style="mix-blend-mode:overlay">
<path d="M412.132 99.9502L378.912 80.5702C377.892 79.9802 376.972 79.9502 376.252 80.3502V80.3302L359.352 89.7002L397.812 145.21L414.692 135.87V135.85C415.552 135.35 416.122 134.2 416.122 132.54L416.232 107.85C416.242 104.81 414.412 101.27 412.132 99.9402V99.9502Z" fill="#E4D8D7"/>
<path d="M394.951 145.09L361.731 125.71C359.451 124.38 357.621 120.84 357.631 117.8L357.741 93.1102C357.751 90.0702 359.611 88.6803 361.881 90.0103L395.101 109.39C397.381 110.72 399.211 114.26 399.201 117.3L399.091 141.99C399.081 145.03 397.221 146.42 394.951 145.09Z" fill="#CE172D"/>
</g>
<path d="M368.712 35.27L335.492 15.89C334.472 15.3 333.552 15.27 332.832 15.67V15.65L315.932 25.02L354.392 80.53L371.272 71.19V71.17C372.132 70.67 372.702 69.52 372.702 67.86L372.812 43.17C372.822 40.13 370.992 36.59 368.712 35.26V35.27Z" fill="#E4D8D7"/>
<path d="M351.531 80.4101L318.311 61.0301C316.031 59.7001 314.201 56.1601 314.211 53.1201L314.321 28.4301C314.331 25.3901 316.191 24.0001 318.461 25.3301L351.681 44.7101C353.961 46.0401 355.791 49.5801 355.781 52.6201L355.671 77.3101C355.661 80.3501 353.801 81.7401 351.531 80.4101Z" fill="#CE172D"/>
<g style="mix-blend-mode:overlay">
<path d="M368.712 35.0801L335.492 15.7001C334.472 15.1101 333.552 15.0801 332.832 15.4801V15.4601L315.932 24.8301L354.392 80.3401L371.272 71.0001V70.9801C372.132 70.4801 372.702 69.3301 372.702 67.6701L372.812 42.9801C372.822 39.9401 370.992 36.4001 368.712 35.0701V35.0801Z" fill="#E4D8D7"/>
<path d="M351.531 80.2201L318.311 60.8401C316.031 59.5101 314.201 55.9701 314.211 52.9301L314.321 28.2401C314.331 25.2001 316.191 23.8101 318.461 25.1401L351.681 44.5201C353.961 45.8501 355.791 49.3901 355.781 52.4301L355.671 77.1201C355.661 80.1601 353.801 81.5501 351.531 80.2201Z" fill="#CE172D"/>
</g>
<path d="M454.212 243.9L420.992 224.52C419.972 223.93 419.052 223.9 418.332 224.3V224.28L401.432 233.65L439.892 289.16L456.772 279.82V279.8C457.632 279.3 458.202 278.15 458.202 276.49L458.312 251.8C458.322 248.76 456.492 245.22 454.212 243.89V243.9Z" fill="#E4D8D7"/>
<path d="M437.021 289.04L403.801 269.66C401.521 268.33 399.691 264.79 399.701 261.75L399.811 237.06C399.821 234.02 401.681 232.63 403.951 233.96L437.171 253.34C439.451 254.67 441.281 258.21 441.271 261.25L441.161 285.94C441.151 288.98 439.291 290.37 437.021 289.04Z" fill="#CE172D"/>
<g style="mix-blend-mode:overlay">
<path d="M454.212 243.71L420.992 224.33C419.972 223.74 419.052 223.71 418.332 224.11V224.09L401.432 233.46L439.892 288.97L456.772 279.63V279.61C457.632 279.11 458.202 277.96 458.202 276.3L458.312 251.61C458.322 248.57 456.492 245.03 454.212 243.7V243.71Z" fill="#E4D8D7"/>
<path d="M437.021 288.85L403.801 269.47C401.521 268.14 399.691 264.6 399.701 261.56L399.811 236.87C399.821 233.83 401.681 232.44 403.951 233.77L437.171 253.15C439.451 254.48 441.281 258.02 441.271 261.06L441.161 285.75C441.151 288.79 439.291 290.18 437.021 288.85Z" fill="#CE172D"/>
</g>
<path d="M455.061 205.13L421.841 185.75C420.821 185.16 419.901 185.13 419.181 185.53V185.51L402.281 194.88L440.741 250.39L457.621 241.05V241.03C458.481 240.53 459.051 239.38 459.051 237.72L459.161 213.03C459.171 209.99 457.341 206.45 455.061 205.12V205.13Z" fill="#E4D8D7"/>
<path d="M437.881 250.27L404.661 230.89C402.381 229.56 400.551 226.02 400.561 222.98L400.671 198.29C400.681 195.25 402.541 193.86 404.811 195.19L438.031 214.57C440.311 215.9 442.141 219.44 442.131 222.48L442.021 247.17C442.011 250.21 440.151 251.6 437.881 250.27Z" fill="#CE172D"/>
<g style="mix-blend-mode:overlay">
<path d="M455.061 204.94L421.841 185.56C420.821 184.97 419.901 184.94 419.181 185.34V185.32L402.281 194.69L440.741 250.2L457.621 240.86V240.84C458.481 240.34 459.051 239.19 459.051 237.53L459.161 212.84C459.171 209.8 457.341 206.26 455.061 204.93V204.94Z" fill="#E4D8D7"/>
<path d="M437.881 250.08L404.661 230.7C402.381 229.37 400.551 225.83 400.561 222.79L400.671 198.1C400.681 195.06 402.541 193.67 404.811 195L438.031 214.38C440.311 215.71 442.141 219.25 442.131 222.29L442.021 246.98C442.011 250.02 440.151 251.41 437.881 250.08Z" fill="#CE172D"/>
</g>
<g opacity="0.4">
<path d="M455.542 165.48L422.322 146.1C421.302 145.51 420.382 145.48 419.662 145.88V145.86L402.762 155.23L441.222 210.74L458.102 201.4V201.38C458.962 200.88 459.532 199.73 459.532 198.07L459.642 173.38C459.652 170.34 457.822 166.8 455.542 165.47V165.48Z" fill="#E4D8D7"/>
<path d="M438.361 210.62L405.141 191.24C402.861 189.91 401.031 186.37 401.041 183.33L401.151 158.64C401.161 155.6 403.021 154.21 405.291 155.54L438.511 174.92C440.791 176.25 442.621 179.79 442.611 182.83L442.501 207.52C442.491 210.56 440.631 211.95 438.361 210.62Z" fill="#CE172D"/>
<g style="mix-blend-mode:overlay">
<path d="M455.542 165.29L422.322 145.91C421.302 145.32 420.382 145.29 419.662 145.69V145.67L402.762 155.04L441.222 210.55L458.102 201.21V201.19C458.962 200.69 459.532 199.54 459.532 197.88L459.642 173.19C459.652 170.15 457.822 166.61 455.542 165.28V165.29Z" fill="#E4D8D7"/>
<path d="M438.361 210.43L405.141 191.05C402.861 189.72 401.031 186.18 401.041 183.14L401.151 158.45C401.161 155.41 403.021 154.02 405.291 155.35L438.511 174.73C440.791 176.06 442.621 179.6 442.611 182.64L442.501 207.33C442.491 210.37 440.631 211.76 438.361 210.43Z" fill="#CE172D"/>
</g>
</g>
<g style="mix-blend-mode:overlay" opacity="0.5">
<path d="M455.542 165.51L422.322 146.13C421.302 145.54 420.382 145.51 419.662 145.91V145.89L402.762 155.26L441.222 210.77L458.102 201.43V201.41C458.962 200.91 459.532 199.76 459.532 198.1L459.642 173.41C459.652 170.37 457.822 166.83 455.542 165.5V165.51Z" fill="#E4D8D7"/>
<path d="M438.361 210.65L405.141 191.27C402.861 189.94 401.031 186.4 401.041 183.36L401.151 158.67C401.161 155.63 403.021 154.24 405.291 155.57L438.511 174.95C440.791 176.28 442.621 179.82 442.611 182.86L442.501 207.55C442.491 210.59 440.631 211.98 438.361 210.65Z" fill="#CE172D"/>
<g style="mix-blend-mode:overlay">
<path d="M455.542 165.33L422.322 145.95C421.302 145.36 420.382 145.33 419.662 145.73V145.71L402.762 155.08L441.222 210.59L458.102 201.25V201.23C458.962 200.73 459.532 199.58 459.532 197.92L459.642 173.23C459.652 170.19 457.822 166.65 455.542 165.32V165.33Z" fill="#E4D8D7"/>
<path d="M438.361 210.47L405.141 191.09C402.861 189.76 401.031 186.22 401.041 183.18L401.151 158.49C401.161 155.45 403.021 154.06 405.291 155.39L438.511 174.77C440.791 176.1 442.621 179.64 442.611 182.68L442.501 207.37C442.491 210.41 440.631 211.8 438.361 210.47Z" fill="#CE172D"/>
</g>
</g>
<path d="M199.42 172.81C189.23 173.08 182.12 178.29 180.65 179.45L136.53 204.82L115.74 215.98C108.39 219.93 104.75 224.38 104.93 229.21C105.19 236.54 114.16 241.01 115.79 241.76L181.19 279.93L184.19 274.73L118.66 236.49L118.39 236.35C116 235.28 111.04 232.07 110.93 228.99C110.85 226.7 113.57 223.95 118.59 221.26L139.45 210.05L183.85 184.52L184.11 184.37L184.33 184.17C184.42 184.09 190.33 179.05 199.42 178.79V172.8V172.81Z" fill="#CE172D"/>
<path opacity="0.4" d="M105.88 210.32C102.28 208.7 94.7796 203.86 94.6096 199.21C94.4896 195.75 98.5896 191.6 106.17 187.53L137.66 170.61L199.41 135.1V124.65L133.26 162.69L101.88 179.54C90.7896 185.5 85.2996 192.22 85.5596 199.52C85.9596 210.58 99.4996 217.34 101.95 218.47L194.15 272.1L198.68 264.25L106.3 210.51L105.89 210.3L105.88 210.32Z" fill="#CE172D"/>
<path d="M243.479 70.3199L195.589 21.3299L147.669 14.9299C145.459 14.3399 143.559 14.5999 142.109 15.5399L129.449 22.9199L139.139 43.6399L139.119 76.2599C139.119 76.2599 144.359 118.77 170.649 159.83C191.399 192.24 195.489 194.89 195.489 194.89C195.489 194.89 197.969 196.14 208.869 192.8L211.699 194.1L222.729 187.65C224.679 186.72 226.499 185.64 228.209 184.44L228.409 184.32V184.3C247.969 170.49 251.959 141.5 251.959 141.5L251.989 87.5899C251.989 81.8599 248.519 74.8099 243.479 70.3199Z" fill="#CE172D"/>
<path d="M195.579 21.3299L147.659 14.9299C145.449 14.3399 143.549 14.5999 142.099 15.5399L129.439 22.9199L134.489 33.7199L182.499 28.9399L195.589 21.3199L195.579 21.3299Z" fill="#CE172D"/>
<path d="M230.389 77.9398L182.499 28.9498L134.579 22.5498C129.539 21.2098 126.059 24.2398 126.059 29.9798L126.029 83.8898C126.029 83.8898 131.269 126.4 157.559 167.46C178.309 199.87 182.399 202.52 182.399 202.52C182.399 202.52 186.499 204.6 207.389 196.27C233.849 185.71 238.869 149.14 238.869 149.14L238.899 95.2298C238.899 89.4998 235.429 82.4498 230.389 77.9598V77.9398Z" fill="#CE172D"/>
<path d="M243.479 70.3199L195.589 21.3299L147.669 14.9299C145.459 14.3399 143.559 14.5999 142.109 15.5399L129.449 22.9199L139.139 43.6399L139.119 76.2599C139.119 76.2599 144.359 118.77 170.649 159.83C191.399 192.24 195.489 194.89 195.489 194.89C195.489 194.89 197.969 196.14 208.869 192.8L211.699 194.1L222.729 187.65C224.679 186.72 226.499 185.64 228.209 184.44L228.409 184.32V184.3C247.969 170.49 251.959 141.5 251.959 141.5L251.989 87.5899C251.989 81.8599 248.519 74.8099 243.479 70.3199Z" fill="#CE172D"/>
<path d="M195.579 21.3299L147.659 14.9299C145.449 14.3399 143.549 14.5999 142.099 15.5399L129.439 22.9199L134.489 33.7199L182.499 28.9399L195.589 21.3199L195.579 21.3299Z" fill="#CE172D"/>
<path d="M230.389 77.9398L182.499 28.9498L134.579 22.5498C129.539 21.2098 126.059 24.2398 126.059 29.9798L126.029 83.8898C126.029 83.8898 131.269 126.4 157.559 167.46C178.309 199.87 182.399 202.52 182.399 202.52C182.399 202.52 186.499 204.6 207.389 196.27C233.849 185.71 238.869 149.14 238.869 149.14L238.899 95.2298C238.899 89.4998 235.429 82.4498 230.389 77.9598V77.9398Z" fill="#F80106"/>
<path d="M179.939 145.08C169.229 138.89 160.529 124.33 160.539 112.62V102.25C160.549 96.6997 164.679 94.5797 169.749 97.5097L190.189 109.33C195.259 112.26 199.379 119.16 199.379 124.71V135.08C199.369 146.79 190.649 151.28 179.939 145.09V145.08ZM169.739 101.72C166.799 100.02 164.399 101.25 164.399 104.47V114.84C164.389 124.22 171.359 135.89 179.939 140.85C188.519 145.81 195.499 142.21 195.509 132.83V122.46C195.509 119.24 193.129 115.24 190.179 113.54L169.739 101.72Z" fill="white"/>
<path d="M179.939 135.56C176.119 133.35 173.019 128.16 173.029 123.99C173.029 119.82 176.139 118.22 179.949 120.42C183.769 122.63 186.869 127.82 186.859 131.99C186.859 136.16 183.749 137.76 179.939 135.56ZM179.949 124.65C178.259 123.67 176.889 124.38 176.889 126.23C176.889 128.08 178.259 130.37 179.949 131.35C181.639 132.33 183.009 131.62 183.009 129.77C183.009 127.92 181.639 125.63 179.949 124.65Z" fill="white"/>
<path d="M192.869 112.98L189.009 110.75V95.9198C189.019 93.0398 186.879 89.4698 184.249 87.9398L175.689 82.9898C173.059 81.4698 170.919 82.5698 170.919 85.4498V100.28L167.049 98.0498V83.2198C167.059 78.0198 170.939 76.0198 175.689 78.7698L184.249 83.7198C189.009 86.4698 192.879 92.9398 192.869 98.1498V112.98Z" fill="white"/>
<path d="M330.862 310.75L306.562 296.39C306.092 296.12 305.672 296.09 305.332 296.26C305.332 296.26 305.322 296.26 305.312 296.26L278.602 311.65L305.442 337.9L332.022 322.59C332.472 322.38 332.762 321.81 332.762 320.99L332.792 314.44C332.792 313.01 331.932 311.35 330.862 310.73V310.75Z" fill="url(#paint1_linear_268_625)"/>
<path d="M304.201 337.8L279.901 323.44C278.831 322.82 277.971 321.16 277.971 319.73L278.001 313.18C278.001 311.75 278.871 311.1 279.941 311.72L304.241 326.08C305.311 326.7 306.171 328.36 306.171 329.79L306.141 336.34C306.141 337.77 305.271 338.42 304.201 337.8Z" fill="#ECE5DD"/>
<path d="M302.881 334.78L280.951 321.79C280.271 321.39 279.711 320.33 279.711 319.42V315.59C279.711 314.68 280.271 314.26 280.951 314.65L302.881 327.64C303.561 328.04 304.121 329.1 304.121 330.01V333.84C304.121 334.75 303.561 335.17 302.881 334.78Z" fill="#CE172D"/>
<path d="M283.001 320.72C282.321 320.32 281.761 319.26 281.761 318.35V315.13L280.951 314.66C280.271 314.26 279.711 314.68 279.711 315.6V319.43C279.711 320.34 280.261 321.41 280.951 321.8L302.881 334.79C303.561 335.19 304.121 334.77 304.121 333.85V333.24L283.001 320.72Z" fill="url(#paint2_linear_268_625)"/>
<path d="M329.631 318.51C329.501 317.99 329.821 317.47 330.341 317.35L334.381 316.36C334.901 316.23 335.421 316.55 335.541 317.07C335.671 317.59 335.351 318.11 334.831 318.23L330.791 319.22C330.271 319.35 329.751 319.03 329.631 318.51Z" fill="url(#paint3_linear_268_625)"/>
<path d="M336.27 318.8C337.38 318.8 338.28 317.9 338.28 316.79C338.28 315.68 337.38 314.78 336.27 314.78C335.16 314.78 334.26 315.68 334.26 316.79C334.26 317.9 335.16 318.8 336.27 318.8Z" fill="url(#paint4_radial_268_625)"/>
<path d="M337.59 286.84H334.93L334.59 315.1C334.59 315.68 335.34 316.15 336.26 316.15C337.18 316.15 337.93 315.68 337.93 315.1L337.59 286.84Z" fill="#CE172D"/>
<path d="M337.59 286.84C337.59 287.28 337 287.64 336.26 287.64C335.52 287.64 334.93 287.28 334.93 286.84C334.93 286.4 335.52 286.04 336.26 286.04C337 286.04 337.59 286.4 337.59 286.84Z" fill="#CE172D"/>
<path d="M337.59 286.04C337.59 286.48 337 286.84 336.26 286.84C335.52 286.84 334.93 286.48 334.93 286.04C334.93 285.6 335.52 284.47 336.26 284.47C337 284.47 337.59 285.6 337.59 286.04Z" fill="#CE172D"/>
<path d="M299.481 338.15L277.551 325.16C276.871 324.76 276.311 323.7 276.311 322.79V318.96C276.311 318.05 276.871 317.63 277.551 318.02L299.481 331.01C300.161 331.41 300.721 332.47 300.721 333.38V337.21C300.721 338.12 300.161 338.54 299.481 338.15Z" fill="#CE172D"/>
<path d="M326.55 319.27L325.11 318.43L314.24 324.65V326.89L316.21 330.33L327.03 324.1C327.21 324.01 327.33 323.78 327.33 323.45V320.79C327.34 320.21 326.99 319.53 326.56 319.28L326.55 319.27Z" fill="url(#paint5_linear_268_625)"/>
<path d="M315.71 325.51L314.23 324.65V329.43L315.69 330.28C316.13 330.53 316.48 330.27 316.48 329.68V327.02C316.49 326.44 316.14 325.76 315.71 325.51Z" fill="#F1E8E8"/>
<path d="M314.081 326.43L312.641 325.59L310.791 326.64V328.88L312.761 332.32L314.561 331.26C314.741 331.17 314.861 330.94 314.861 330.61V327.95C314.871 327.37 314.521 326.69 314.091 326.44L314.081 326.43Z" fill="url(#paint6_linear_268_625)"/>
<path d="M312.261 327.5L310.781 326.64V331.42L312.241 332.27C312.681 332.52 313.031 332.26 313.031 331.68V329.02C313.041 328.44 312.691 327.76 312.261 327.51V327.5Z" fill="#F1E8E8"/>
<path d="M282.292 332.83V331.22L274.732 332.52L226.782 304.94C226.312 304.67 225.502 304.71 224.972 305.02L204.512 316.89L202.762 316.5V318.18C202.762 318.18 202.762 318.23 202.762 318.26C202.762 318.42 202.862 318.58 203.072 318.7L254.512 348.28C254.982 348.55 255.792 348.51 256.322 348.2L281.862 333.43C282.152 333.26 282.302 333.04 282.302 332.84L282.292 332.83Z" fill="url(#paint7_linear_268_625)"/>
<path d="M254.501 346.59L203.061 317.01C202.591 316.74 202.651 316.27 203.191 315.96L228.731 301.19C229.271 300.88 230.081 300.84 230.541 301.11L281.981 330.69C282.451 330.96 282.391 331.43 281.851 331.74L256.311 346.51C255.771 346.82 254.961 346.85 254.501 346.59Z" fill="url(#paint8_linear_268_625)"/>
<path d="M225.082 307.75L223.632 306.91C223.262 306.7 223.312 306.33 223.732 306.09L224.322 305.75C224.742 305.51 225.382 305.48 225.752 305.69L227.202 306.53C227.572 306.74 227.522 307.11 227.102 307.35L226.512 307.69C226.092 307.93 225.452 307.96 225.082 307.75Z" fill="#FAECEC"/>
<path d="M228.703 309.84L227.253 309C226.883 308.79 226.933 308.42 227.353 308.18L227.943 307.84C228.363 307.6 229.003 307.57 229.373 307.78L230.823 308.62C231.193 308.83 231.143 309.2 230.723 309.44L230.133 309.78C229.713 310.02 229.073 310.05 228.703 309.84Z" fill="#FAECEC"/>
<path d="M232.322 311.92L230.872 311.08C230.502 310.87 230.552 310.5 230.972 310.26L231.562 309.92C231.982 309.68 232.622 309.65 232.992 309.86L234.442 310.7C234.812 310.91 234.762 311.28 234.342 311.52L233.752 311.86C233.332 312.1 232.692 312.13 232.322 311.92Z" fill="#FAECEC"/>
<path d="M235.953 314.01L234.503 313.17C234.133 312.96 234.183 312.59 234.603 312.35L235.193 312.01C235.613 311.77 236.253 311.74 236.623 311.95L238.073 312.79C238.443 313 238.393 313.37 237.973 313.61L237.383 313.95C236.963 314.19 236.323 314.22 235.953 314.01Z" fill="#FAECEC"/>
<path d="M239.572 316.1L238.122 315.26C237.752 315.05 237.802 314.68 238.222 314.44L238.812 314.1C239.232 313.86 239.872 313.83 240.242 314.04L241.692 314.88C242.062 315.09 242.012 315.46 241.592 315.7L241.002 316.04C240.582 316.28 239.942 316.31 239.572 316.1Z" fill="#FAECEC"/>
<path d="M243.193 318.18L241.743 317.34C241.373 317.13 241.423 316.76 241.843 316.52L242.433 316.18C242.853 315.94 243.493 315.91 243.863 316.12L245.313 316.96C245.683 317.17 245.633 317.54 245.213 317.78L244.623 318.12C244.203 318.36 243.563 318.39 243.193 318.18Z" fill="#FAECEC"/>
<path d="M246.822 320.27L245.372 319.43C245.002 319.22 245.052 318.85 245.472 318.61L246.062 318.27C246.482 318.03 247.122 318 247.492 318.21L248.942 319.05C249.312 319.26 249.262 319.63 248.842 319.87L248.252 320.21C247.832 320.45 247.192 320.48 246.822 320.27Z" fill="#FAECEC"/>
<path d="M250.443 322.36L248.993 321.52C248.623 321.31 248.673 320.94 249.093 320.7L249.683 320.36C250.103 320.12 250.743 320.09 251.113 320.3L252.563 321.14C252.933 321.35 252.883 321.72 252.463 321.96L251.873 322.3C251.453 322.54 250.813 322.57 250.443 322.36Z" fill="#FAECEC"/>
<path d="M254.062 324.44L252.612 323.6C252.242 323.39 252.292 323.02 252.712 322.78L253.302 322.44C253.722 322.2 254.362 322.17 254.732 322.38L256.182 323.22C256.552 323.43 256.502 323.8 256.082 324.04L255.492 324.38C255.072 324.62 254.432 324.65 254.062 324.44Z" fill="#FAECEC"/>
<path d="M257.683 326.53L256.233 325.69C255.863 325.48 255.913 325.11 256.333 324.87L256.923 324.53C257.343 324.29 257.983 324.26 258.353 324.47L259.803 325.31C260.173 325.52 260.123 325.89 259.703 326.13L259.113 326.47C258.693 326.71 258.053 326.74 257.683 326.53Z" fill="#FAECEC"/>
<path d="M261.422 328.68L259.972 327.84C259.602 327.63 259.652 327.26 260.072 327.02L260.662 326.68C261.082 326.44 261.722 326.41 262.092 326.62L263.542 327.46C263.912 327.67 263.862 328.04 263.442 328.28L262.852 328.62C262.432 328.86 261.792 328.89 261.422 328.68Z" fill="#FAECEC"/>
<path d="M265.043 330.77L263.593 329.93C263.223 329.72 263.273 329.35 263.693 329.11L264.283 328.77C264.703 328.53 265.343 328.5 265.713 328.71L267.163 329.55C267.533 329.76 267.483 330.13 267.063 330.37L266.473 330.71C266.053 330.95 265.413 330.98 265.043 330.77Z" fill="#FAECEC"/>
<path d="M268.662 332.85L267.212 332.01C266.842 331.8 266.892 331.43 267.312 331.19L267.902 330.85C268.322 330.61 268.962 330.58 269.332 330.79L270.782 331.63C271.152 331.84 271.102 332.21 270.682 332.45L270.092 332.79C269.672 333.03 269.032 333.06 268.662 332.85Z" fill="#FAECEC"/>
<path d="M272.293 334.94L270.843 334.1C270.473 333.89 270.523 333.52 270.943 333.28L271.533 332.94C271.953 332.7 272.593 332.67 272.963 332.88L274.413 333.72C274.783 333.93 274.733 334.3 274.313 334.54L273.723 334.88C273.303 335.12 272.663 335.15 272.293 334.94Z" fill="#FAECEC"/>
<path d="M220.912 310.2L219.382 309.32C219.012 309.11 219.062 308.74 219.482 308.5L221.242 307.48C221.662 307.24 222.302 307.21 222.672 307.42L224.202 308.3C224.572 308.51 224.522 308.88 224.102 309.12L222.342 310.14C221.922 310.38 221.282 310.41 220.912 310.2Z" fill="#FAECEC"/>
<path d="M224.543 312.29L223.013 311.41C222.643 311.2 222.693 310.83 223.113 310.59L224.873 309.57C225.293 309.33 225.933 309.3 226.303 309.51L227.833 310.39C228.203 310.6 228.153 310.97 227.733 311.21L225.973 312.23C225.553 312.47 224.913 312.5 224.543 312.29Z" fill="#FAECEC"/>
<path d="M228.201 314.4L226.671 313.52C226.301 313.31 226.351 312.94 226.771 312.7L228.531 311.68C228.951 311.44 229.591 311.41 229.961 311.62L231.491 312.5C231.861 312.71 231.811 313.08 231.391 313.32L229.631 314.34C229.211 314.58 228.571 314.61 228.201 314.4Z" fill="#FAECEC"/>
<path d="M231.822 316.48L230.292 315.6C229.922 315.39 229.972 315.02 230.392 314.78L232.152 313.76C232.572 313.52 233.212 313.49 233.582 313.7L235.112 314.58C235.482 314.79 235.432 315.16 235.012 315.4L233.252 316.42C232.832 316.66 232.192 316.69 231.822 316.48Z" fill="#FAECEC"/>
<path d="M235.441 318.57L233.911 317.69C233.541 317.48 233.591 317.11 234.011 316.87L235.771 315.85C236.191 315.61 236.831 315.58 237.201 315.79L238.731 316.67C239.101 316.88 239.051 317.25 238.631 317.49L236.871 318.51C236.451 318.75 235.811 318.78 235.441 318.57Z" fill="#FAECEC"/>
<path d="M239.101 320.68L237.571 319.8C237.201 319.59 237.251 319.22 237.671 318.98L239.431 317.96C239.851 317.72 240.491 317.69 240.861 317.9L242.391 318.78C242.761 318.99 242.711 319.36 242.291 319.6L240.531 320.62C240.111 320.86 239.471 320.89 239.101 320.68Z" fill="#FAECEC"/>
<path d="M242.732 322.76L241.202 321.88C240.832 321.67 240.882 321.3 241.302 321.06L243.062 320.04C243.482 319.8 244.122 319.77 244.492 319.98L246.022 320.86C246.392 321.07 246.342 321.44 245.922 321.68L244.162 322.7C243.742 322.94 243.102 322.97 242.732 322.76Z" fill="#FAECEC"/>
<path d="M246.392 324.87L244.862 323.99C244.492 323.78 244.542 323.41 244.962 323.17L246.722 322.15C247.142 321.91 247.782 321.88 248.152 322.09L249.682 322.97C250.052 323.18 250.002 323.55 249.582 323.79L247.822 324.81C247.402 325.05 246.762 325.08 246.392 324.87Z" fill="#FAECEC"/>
<path d="M250.011 326.96L248.481 326.08C248.111 325.87 248.161 325.5 248.581 325.26L250.341 324.24C250.761 324 251.401 323.97 251.771 324.18L253.301 325.06C253.671 325.27 253.621 325.64 253.201 325.88L251.441 326.9C251.021 327.14 250.381 327.17 250.011 326.96Z" fill="#FAECEC"/>
<path d="M253.632 329.05L252.102 328.17C251.732 327.96 251.782 327.59 252.202 327.35L253.962 326.33C254.382 326.09 255.022 326.06 255.392 326.27L256.922 327.15C257.292 327.36 257.242 327.73 256.822 327.97L255.062 328.99C254.642 329.23 254.002 329.26 253.632 329.05Z" fill="#FAECEC"/>
<path d="M257.293 331.15L255.763 330.27C255.393 330.06 255.443 329.69 255.863 329.45L257.623 328.43C258.043 328.19 258.683 328.16 259.053 328.37L260.583 329.25C260.953 329.46 260.903 329.83 260.483 330.07L258.723 331.09C258.303 331.33 257.663 331.36 257.293 331.15Z" fill="#FAECEC"/>
<path d="M260.912 333.24L259.382 332.36C259.012 332.15 259.062 331.78 259.482 331.54L261.242 330.52C261.662 330.28 262.302 330.25 262.672 330.46L264.202 331.34C264.572 331.55 264.522 331.92 264.102 332.16L262.342 333.18C261.922 333.42 261.282 333.45 260.912 333.24Z" fill="#FAECEC"/>
<path d="M264.543 335.33L263.013 334.45C262.643 334.24 262.693 333.87 263.113 333.63L264.873 332.61C265.293 332.37 265.933 332.34 266.303 332.55L267.833 333.43C268.203 333.64 268.153 334.01 267.733 334.25L265.973 335.27C265.553 335.51 264.913 335.54 264.543 335.33Z" fill="#FAECEC"/>
<path d="M268.201 337.44L266.671 336.56C266.301 336.35 266.351 335.98 266.771 335.74L268.531 334.72C268.951 334.48 269.591 334.45 269.961 334.66L271.491 335.54C271.861 335.75 271.811 336.12 271.391 336.36L269.631 337.38C269.211 337.62 268.571 337.65 268.201 337.44Z" fill="#FAECEC"/>
<path d="M216.732 312.68L215.202 311.8C214.832 311.59 214.882 311.22 215.302 310.98L217.062 309.96C217.482 309.72 218.122 309.69 218.492 309.9L220.022 310.78C220.392 310.99 220.342 311.36 219.922 311.6L218.162 312.62C217.742 312.86 217.102 312.89 216.732 312.68Z" fill="#FAECEC"/>
<path d="M220.363 314.76L218.833 313.88C218.463 313.67 218.513 313.3 218.933 313.06L220.693 312.04C221.113 311.8 221.753 311.77 222.123 311.98L223.653 312.86C224.023 313.07 223.973 313.44 223.553 313.68L221.793 314.7C221.373 314.94 220.733 314.97 220.363 314.76Z" fill="#FAECEC"/>
<path d="M224.021 316.87L222.491 315.99C222.121 315.78 222.171 315.41 222.591 315.17L224.351 314.15C224.771 313.91 225.411 313.88 225.781 314.09L227.311 314.97C227.681 315.18 227.631 315.55 227.211 315.79L225.451 316.81C225.031 317.05 224.391 317.08 224.021 316.87Z" fill="#FAECEC"/>
<path d="M227.642 318.96L226.112 318.08C225.742 317.87 225.792 317.5 226.212 317.26L227.972 316.24C228.392 316 229.032 315.97 229.402 316.18L230.932 317.06C231.302 317.27 231.252 317.64 230.832 317.88L229.072 318.9C228.652 319.14 228.012 319.17 227.642 318.96Z" fill="#FAECEC"/>
<path d="M231.261 321.05L229.731 320.17C229.361 319.96 229.411 319.59 229.831 319.35L231.591 318.33C232.011 318.09 232.651 318.06 233.021 318.27L234.551 319.15C234.921 319.36 234.871 319.73 234.451 319.97L232.691 320.99C232.271 321.23 231.631 321.26 231.261 321.05Z" fill="#FAECEC"/>
<path d="M234.921 323.15L233.391 322.27C233.021 322.06 233.071 321.69 233.491 321.45L235.251 320.43C235.671 320.19 236.311 320.16 236.681 320.37L238.211 321.25C238.581 321.46 238.531 321.83 238.111 322.07L236.351 323.09C235.931 323.33 235.291 323.36 234.921 323.15Z" fill="#FAECEC"/>
<path d="M238.543 325.24L237.013 324.36C236.643 324.15 236.693 323.78 237.113 323.54L238.873 322.52C239.293 322.28 239.933 322.25 240.303 322.46L241.833 323.34C242.203 323.55 242.153 323.92 241.733 324.16L239.973 325.18C239.553 325.42 238.913 325.45 238.543 325.24Z" fill="#FAECEC"/>
<path d="M242.203 327.35L240.673 326.47C240.303 326.26 240.353 325.89 240.773 325.65L242.533 324.63C242.953 324.39 243.593 324.36 243.963 324.57L245.493 325.45C245.863 325.66 245.813 326.03 245.393 326.27L243.633 327.29C243.213 327.53 242.573 327.56 242.203 327.35Z" fill="#FAECEC"/>
<path d="M245.832 329.44L244.302 328.56C243.932 328.35 243.982 327.98 244.402 327.74L246.162 326.72C246.582 326.48 247.222 326.45 247.592 326.66L249.122 327.54C249.492 327.75 249.442 328.12 249.022 328.36L247.262 329.38C246.842 329.62 246.202 329.65 245.832 329.44Z" fill="#FAECEC"/>
<path d="M249.453 331.52L247.923 330.64C247.553 330.43 247.603 330.06 248.023 329.82L249.783 328.8C250.203 328.56 250.843 328.53 251.213 328.74L252.743 329.62C253.113 329.83 253.063 330.2 252.643 330.44L250.883 331.46C250.463 331.7 249.823 331.73 249.453 331.52Z" fill="#FAECEC"/>
<path d="M253.113 333.63L251.583 332.75C251.213 332.54 251.263 332.17 251.683 331.93L253.443 330.91C253.863 330.67 254.503 330.64 254.873 330.85L256.403 331.73C256.773 331.94 256.723 332.31 256.303 332.55L254.543 333.57C254.123 333.81 253.483 333.84 253.113 333.63Z" fill="#FAECEC"/>
<path d="M256.732 335.72L255.202 334.84C254.832 334.63 254.882 334.26 255.302 334.02L257.062 333C257.482 332.76 258.122 332.73 258.492 332.94L260.022 333.82C260.392 334.03 260.342 334.4 259.922 334.64L258.162 335.66C257.742 335.9 257.102 335.93 256.732 335.72Z" fill="#FAECEC"/>
<path d="M260.363 337.8L258.833 336.92C258.463 336.71 258.513 336.34 258.933 336.1L260.693 335.08C261.113 334.84 261.753 334.81 262.123 335.02L263.653 335.9C264.023 336.11 263.973 336.48 263.553 336.72L261.793 337.74C261.373 337.98 260.733 338.01 260.363 337.8Z" fill="#FAECEC"/>
<path d="M264.021 339.91L262.491 339.03C262.121 338.82 262.171 338.45 262.591 338.21L264.351 337.19C264.771 336.95 265.411 336.92 265.781 337.13L267.311 338.01C267.681 338.22 267.631 338.59 267.211 338.83L265.451 339.85C265.031 340.09 264.391 340.12 264.021 339.91Z" fill="#FAECEC"/>
<path d="M215.953 317.21L210.843 314.26C210.473 314.05 210.523 313.68 210.943 313.44L212.703 312.42C213.123 312.18 213.763 312.15 214.133 312.36L219.243 315.31C219.613 315.52 219.563 315.89 219.143 316.13L217.383 317.15C216.963 317.39 216.323 317.42 215.953 317.21Z" fill="#FAECEC"/>
<path d="M219.652 319.34L218.122 318.46C217.752 318.25 217.802 317.88 218.222 317.64L219.982 316.62C220.402 316.38 221.042 316.35 221.412 316.56L222.942 317.44C223.312 317.65 223.262 318.02 222.842 318.26L221.082 319.28C220.662 319.52 220.022 319.55 219.652 319.34Z" fill="#FAECEC"/>
<path d="M223.273 321.43L221.743 320.55C221.373 320.34 221.423 319.97 221.843 319.73L223.603 318.71C224.023 318.47 224.663 318.44 225.033 318.65L226.563 319.53C226.933 319.74 226.883 320.11 226.463 320.35L224.703 321.37C224.283 321.61 223.643 321.64 223.273 321.43Z" fill="#FAECEC"/>
<path d="M226.892 323.52L225.362 322.64C224.992 322.43 225.042 322.06 225.462 321.82L227.222 320.8C227.642 320.56 228.282 320.53 228.652 320.74L230.182 321.62C230.552 321.83 230.502 322.2 230.082 322.44L228.322 323.46C227.902 323.7 227.262 323.73 226.892 323.52Z" fill="#FAECEC"/>
<path d="M230.552 325.63L229.022 324.75C228.652 324.54 228.702 324.17 229.122 323.93L230.882 322.91C231.302 322.67 231.942 322.64 232.312 322.85L233.842 323.73C234.212 323.94 234.162 324.31 233.742 324.55L231.982 325.57C231.562 325.81 230.922 325.84 230.552 325.63Z" fill="#FAECEC"/>
<path d="M234.183 327.71L232.653 326.83C232.283 326.62 232.333 326.25 232.753 326.01L234.513 324.99C234.933 324.75 235.573 324.72 235.943 324.93L237.473 325.81C237.843 326.02 237.793 326.39 237.373 326.63L235.613 327.65C235.193 327.89 234.553 327.92 234.183 327.71Z" fill="#FAECEC"/>
<path d="M237.843 329.82L236.313 328.94C235.943 328.73 235.993 328.36 236.413 328.12L238.173 327.1C238.593 326.86 239.233 326.83 239.603 327.04L241.133 327.92C241.503 328.13 241.453 328.5 241.033 328.74L239.273 329.76C238.853 330 238.213 330.03 237.843 329.82Z" fill="#FAECEC"/>
<path d="M241.463 331.91L239.933 331.03C239.563 330.82 239.613 330.45 240.033 330.21L241.793 329.19C242.213 328.95 242.853 328.92 243.223 329.13L244.753 330.01C245.123 330.22 245.073 330.59 244.653 330.83L242.893 331.85C242.473 332.09 241.833 332.12 241.463 331.91Z" fill="#FAECEC"/>
<path d="M245.084 333.99L243.554 333.11C243.184 332.9 243.234 332.53 243.654 332.29L245.414 331.27C245.834 331.03 246.474 331 246.844 331.21L248.374 332.09C248.744 332.3 248.694 332.67 248.274 332.91L246.514 333.93C246.094 334.17 245.454 334.2 245.084 333.99Z" fill="#FAECEC"/>
<path d="M248.742 336.1L247.212 335.22C246.842 335.01 246.892 334.64 247.312 334.4L249.072 333.38C249.492 333.14 250.132 333.11 250.502 333.32L252.032 334.2C252.402 334.41 252.352 334.78 251.932 335.02L250.172 336.04C249.752 336.28 249.112 336.31 248.742 336.1Z" fill="#FAECEC"/>
<path d="M252.373 338.19L250.843 337.31C250.473 337.1 250.523 336.73 250.943 336.49L252.703 335.47C253.123 335.23 253.763 335.2 254.133 335.41L255.663 336.29C256.033 336.5 255.983 336.87 255.563 337.11L253.803 338.13C253.383 338.37 252.743 338.4 252.373 338.19Z" fill="#FAECEC"/>
<path d="M255.992 340.28L254.462 339.4C254.092 339.19 254.142 338.82 254.562 338.58L256.322 337.56C256.742 337.32 257.382 337.29 257.752 337.5L259.282 338.38C259.652 338.59 259.602 338.96 259.182 339.2L257.422 340.22C257.002 340.46 256.362 340.49 255.992 340.28Z" fill="#FAECEC"/>
<path d="M255.423 344.83L253.893 343.95C253.523 343.74 253.573 343.37 253.993 343.13L259.983 339.66C260.403 339.42 261.043 339.39 261.413 339.6L262.943 340.48C263.313 340.69 263.263 341.06 262.843 341.3L256.853 344.77C256.433 345.01 255.793 345.04 255.423 344.83Z" fill="#FAECEC"/>
<path d="M208.132 317.6L206.602 316.72C206.232 316.51 206.282 316.14 206.702 315.9L208.462 314.88C208.882 314.64 209.522 314.61 209.892 314.82L211.422 315.7C211.792 315.91 211.742 316.28 211.322 316.52L209.562 317.54C209.142 317.78 208.502 317.81 208.132 317.6Z" fill="#FAECEC"/>
<path d="M211.763 319.68L210.233 318.8C209.863 318.59 209.913 318.22 210.333 317.98L212.093 316.96C212.513 316.72 213.153 316.69 213.523 316.9L215.053 317.78C215.423 317.99 215.373 318.36 214.953 318.6L213.193 319.62C212.773 319.86 212.133 319.89 211.763 319.68Z" fill="#FAECEC"/>
<path d="M215.421 321.79L213.891 320.91C213.521 320.7 213.571 320.33 213.991 320.09L215.751 319.07C216.171 318.83 216.811 318.8 217.181 319.01L218.711 319.89C219.081 320.1 219.031 320.47 218.611 320.71L216.851 321.73C216.431 321.97 215.791 322 215.421 321.79Z" fill="#FAECEC"/>
<path d="M219.043 323.88L217.513 323C217.143 322.79 217.193 322.42 217.613 322.18L219.373 321.16C219.793 320.92 220.433 320.89 220.803 321.1L222.333 321.98C222.703 322.19 222.653 322.56 222.233 322.8L220.473 323.82C220.053 324.06 219.413 324.09 219.043 323.88Z" fill="#FAECEC"/>
<path d="M233.611 332.27L221.141 325.09C220.771 324.88 220.821 324.51 221.241 324.27L223.001 323.25C223.421 323.01 224.061 322.98 224.431 323.19L236.901 330.37C237.271 330.58 237.221 330.95 236.801 331.19L235.041 332.21C234.621 332.45 233.981 332.48 233.611 332.27Z" fill="#FAECEC"/>
<path d="M237.232 334.36L235.702 333.48C235.332 333.27 235.382 332.9 235.802 332.66L237.562 331.64C237.982 331.4 238.622 331.37 238.992 331.58L240.522 332.46C240.892 332.67 240.842 333.04 240.422 333.28L238.662 334.3C238.242 334.54 237.602 334.57 237.232 334.36Z" fill="#FAECEC"/>
<path d="M240.853 336.44L239.323 335.56C238.953 335.35 239.003 334.98 239.423 334.74L241.183 333.72C241.603 333.48 242.243 333.45 242.613 333.66L244.143 334.54C244.513 334.75 244.463 335.12 244.043 335.36L242.283 336.38C241.863 336.62 241.223 336.65 240.853 336.44Z" fill="#FAECEC"/>
<path d="M244.513 338.55L242.983 337.67C242.613 337.46 242.663 337.09 243.083 336.85L244.843 335.83C245.263 335.59 245.903 335.56 246.273 335.77L247.803 336.65C248.173 336.86 248.123 337.23 247.703 337.47L245.943 338.49C245.523 338.73 244.883 338.76 244.513 338.55Z" fill="#FAECEC"/>
<path d="M248.132 340.64L246.602 339.76C246.232 339.55 246.282 339.18 246.702 338.94L248.462 337.92C248.882 337.68 249.522 337.65 249.892 337.86L251.422 338.74C251.792 338.95 251.742 339.32 251.322 339.56L249.562 340.58C249.142 340.82 248.502 340.85 248.132 340.64Z" fill="#FAECEC"/>
<path d="M251.763 342.72L250.233 341.84C249.863 341.63 249.913 341.26 250.333 341.02L252.093 340C252.513 339.76 253.153 339.73 253.523 339.94L255.053 340.82C255.423 341.03 255.373 341.4 254.953 341.64L253.193 342.66C252.773 342.9 252.133 342.93 251.763 342.72Z" fill="#FAECEC"/>
<path d="M225.011 307.17L223.561 306.33C223.191 306.12 223.241 305.75 223.661 305.51L224.251 305.17C224.671 304.93 225.311 304.9 225.681 305.11L227.131 305.95C227.501 306.16 227.451 306.53 227.031 306.77L226.441 307.11C226.021 307.35 225.381 307.38 225.011 307.17Z" fill="#F9E8D7"/>
<path d="M228.642 309.26L227.192 308.42C226.822 308.21 226.872 307.84 227.292 307.6L227.882 307.26C228.302 307.02 228.942 306.99 229.312 307.2L230.762 308.04C231.132 308.25 231.082 308.62 230.662 308.86L230.072 309.2C229.652 309.44 229.012 309.47 228.642 309.26Z" fill="#F9E8D7"/>
<path d="M232.261 311.34L230.811 310.5C230.441 310.29 230.491 309.92 230.911 309.68L231.501 309.34C231.921 309.1 232.561 309.07 232.931 309.28L234.381 310.12C234.751 310.33 234.701 310.7 234.281 310.94L233.691 311.28C233.271 311.52 232.631 311.55 232.261 311.34Z" fill="#F9E8D7"/>
<path d="M235.883 313.43L234.433 312.59C234.063 312.38 234.113 312.01 234.533 311.77L235.123 311.43C235.543 311.19 236.183 311.16 236.553 311.37L238.003 312.21C238.373 312.42 238.323 312.79 237.903 313.03L237.313 313.37C236.893 313.61 236.253 313.64 235.883 313.43Z" fill="#F9E8D7"/>
<path d="M239.502 315.52L238.052 314.68C237.682 314.47 237.732 314.1 238.152 313.86L238.742 313.52C239.162 313.28 239.802 313.25 240.172 313.46L241.622 314.3C241.992 314.51 241.942 314.88 241.522 315.12L240.932 315.46C240.512 315.7 239.872 315.73 239.502 315.52Z" fill="#F9E8D7"/>
<path d="M243.133 317.6L241.683 316.76C241.313 316.55 241.363 316.18 241.783 315.94L242.373 315.6C242.793 315.36 243.433 315.33 243.803 315.54L245.253 316.38C245.623 316.59 245.573 316.96 245.153 317.2L244.563 317.54C244.143 317.78 243.503 317.81 243.133 317.6Z" fill="#F9E8D7"/>
<path d="M246.752 319.69L245.302 318.85C244.932 318.64 244.982 318.27 245.402 318.03L245.992 317.69C246.412 317.45 247.052 317.42 247.422 317.63L248.872 318.47C249.242 318.68 249.192 319.05 248.772 319.29L248.182 319.63C247.762 319.87 247.122 319.9 246.752 319.69Z" fill="#F9E8D7"/>
<path d="M250.373 321.78L248.923 320.94C248.553 320.73 248.603 320.36 249.023 320.12L249.613 319.78C250.033 319.54 250.673 319.51 251.043 319.72L252.493 320.56C252.863 320.77 252.813 321.14 252.393 321.38L251.803 321.72C251.383 321.96 250.743 321.99 250.373 321.78Z" fill="#F9E8D7"/>
<path d="M254.002 323.87L252.552 323.03C252.182 322.82 252.232 322.45 252.652 322.21L253.242 321.87C253.662 321.63 254.302 321.6 254.672 321.81L256.122 322.65C256.492 322.86 256.442 323.23 256.022 323.47L255.432 323.81C255.012 324.05 254.372 324.08 254.002 323.87Z" fill="#F9E8D7"/>
<path d="M257.623 325.95L256.173 325.11C255.803 324.9 255.853 324.53 256.273 324.29L256.863 323.95C257.283 323.71 257.923 323.68 258.293 323.89L259.743 324.73C260.113 324.94 260.063 325.31 259.643 325.55L259.053 325.89C258.633 326.13 257.993 326.16 257.623 325.95Z" fill="#F9E8D7"/>
<path d="M261.351 328.1L259.901 327.26C259.531 327.05 259.581 326.68 260.001 326.44L260.591 326.1C261.011 325.86 261.651 325.83 262.021 326.04L263.471 326.88C263.841 327.09 263.791 327.46 263.371 327.7L262.781 328.04C262.361 328.28 261.721 328.31 261.351 328.1Z" fill="#F9E8D7"/>
<path d="M264.982 330.19L263.532 329.35C263.162 329.14 263.212 328.77 263.632 328.53L264.222 328.19C264.642 327.95 265.282 327.92 265.652 328.13L267.102 328.97C267.472 329.18 267.422 329.55 267.002 329.79L266.412 330.13C265.992 330.37 265.352 330.4 264.982 330.19Z" fill="#F9E8D7"/>
<path d="M268.601 332.28L267.151 331.44C266.781 331.23 266.831 330.86 267.251 330.62L267.841 330.28C268.261 330.04 268.901 330.01 269.271 330.22L270.721 331.06C271.091 331.27 271.041 331.64 270.621 331.88L270.031 332.22C269.611 332.46 268.971 332.49 268.601 332.28Z" fill="#F9E8D7"/>
<path d="M272.222 334.36L270.772 333.52C270.402 333.31 270.452 332.94 270.872 332.7L271.462 332.36C271.882 332.12 272.522 332.09 272.892 332.3L274.342 333.14C274.712 333.35 274.662 333.72 274.242 333.96L273.652 334.3C273.232 334.54 272.592 334.57 272.222 334.36Z" fill="#F9E8D7"/>
<path d="M220.851 309.62L219.321 308.74C218.951 308.53 219.001 308.16 219.421 307.92L221.181 306.9C221.601 306.66 222.241 306.63 222.611 306.84L224.141 307.72C224.511 307.93 224.461 308.3 224.041 308.54L222.281 309.56C221.861 309.8 221.221 309.83 220.851 309.62Z" fill="#F9E8D7"/>
<path d="M224.47 311.71L222.94 310.83C222.57 310.62 222.62 310.25 223.04 310.01L224.8 308.99C225.22 308.75 225.86 308.72 226.23 308.93L227.76 309.81C228.13 310.02 228.08 310.39 227.66 310.63L225.9 311.65C225.48 311.89 224.84 311.92 224.47 311.71Z" fill="#F9E8D7"/>
<path d="M228.13 313.82L226.6 312.94C226.23 312.73 226.28 312.36 226.7 312.12L228.46 311.1C228.88 310.86 229.52 310.83 229.89 311.04L231.42 311.92C231.79 312.13 231.74 312.5 231.32 312.74L229.56 313.76C229.14 314 228.5 314.03 228.13 313.82Z" fill="#F9E8D7"/>
<path d="M231.761 315.9L230.231 315.02C229.861 314.81 229.911 314.44 230.331 314.2L232.091 313.18C232.511 312.94 233.151 312.91 233.521 313.12L235.051 314C235.421 314.21 235.371 314.58 234.951 314.82L233.191 315.84C232.771 316.08 232.131 316.11 231.761 315.9Z" fill="#F9E8D7"/>
<path d="M235.38 317.99L233.85 317.11C233.48 316.9 233.53 316.53 233.95 316.29L235.71 315.27C236.13 315.03 236.77 315 237.14 315.21L238.67 316.09C239.04 316.3 238.99 316.67 238.57 316.91L236.81 317.93C236.39 318.17 235.75 318.2 235.38 317.99Z" fill="#F9E8D7"/>
<path d="M239.041 320.1L237.511 319.22C237.141 319.01 237.191 318.64 237.611 318.4L239.371 317.38C239.791 317.14 240.431 317.11 240.801 317.32L242.331 318.2C242.701 318.41 242.651 318.78 242.231 319.02L240.471 320.04C240.051 320.28 239.411 320.31 239.041 320.1Z" fill="#F9E8D7"/>
<path d="M242.662 322.19L241.132 321.31C240.762 321.1 240.812 320.73 241.232 320.49L242.992 319.47C243.412 319.23 244.052 319.2 244.422 319.41L245.952 320.29C246.322 320.5 246.272 320.87 245.852 321.11L244.092 322.13C243.672 322.37 243.032 322.4 242.662 322.19Z" fill="#F9E8D7"/>
<path d="M246.322 324.29L244.792 323.41C244.422 323.2 244.472 322.83 244.892 322.59L246.652 321.57C247.072 321.33 247.712 321.3 248.082 321.51L249.612 322.39C249.982 322.6 249.932 322.97 249.512 323.21L247.752 324.23C247.332 324.47 246.692 324.5 246.322 324.29Z" fill="#F9E8D7"/>
<path d="M249.941 326.38L248.411 325.5C248.041 325.29 248.091 324.92 248.511 324.68L250.271 323.66C250.691 323.42 251.331 323.39 251.701 323.6L253.231 324.48C253.601 324.69 253.551 325.06 253.131 325.3L251.371 326.32C250.951 326.56 250.311 326.59 249.941 326.38Z" fill="#F9E8D7"/>
<path d="M253.572 328.47L252.042 327.59C251.672 327.38 251.722 327.01 252.142 326.77L253.902 325.75C254.322 325.51 254.962 325.48 255.332 325.69L256.862 326.57C257.232 326.78 257.182 327.15 256.762 327.39L255.002 328.41C254.582 328.65 253.942 328.68 253.572 328.47Z" fill="#F9E8D7"/>
<path d="M257.232 330.58L255.702 329.7C255.332 329.49 255.382 329.12 255.802 328.88L257.562 327.86C257.982 327.62 258.622 327.59 258.992 327.8L260.522 328.68C260.892 328.89 260.842 329.26 260.422 329.5L258.662 330.52C258.242 330.76 257.602 330.79 257.232 330.58Z" fill="#F9E8D7"/>
<path d="M260.851 332.66L259.321 331.78C258.951 331.57 259.001 331.2 259.421 330.96L261.181 329.94C261.601 329.7 262.241 329.67 262.611 329.88L264.141 330.76C264.511 330.97 264.461 331.34 264.041 331.58L262.281 332.6C261.861 332.84 261.221 332.87 260.851 332.66Z" fill="#F9E8D7"/>
<path d="M264.47 334.75L262.94 333.87C262.57 333.66 262.62 333.29 263.04 333.05L264.8 332.03C265.22 331.79 265.86 331.76 266.23 331.97L267.76 332.85C268.13 333.06 268.08 333.43 267.66 333.67L265.9 334.69C265.48 334.93 264.84 334.96 264.47 334.75Z" fill="#F9E8D7"/>
<path d="M268.13 336.86L266.6 335.98C266.23 335.77 266.28 335.4 266.7 335.16L268.46 334.14C268.88 333.9 269.52 333.87 269.89 334.08L271.42 334.96C271.79 335.17 271.74 335.54 271.32 335.78L269.56 336.8C269.14 337.04 268.5 337.07 268.13 336.86Z" fill="#F9E8D7"/>
<path d="M216.671 312.1L215.141 311.22C214.771 311.01 214.821 310.64 215.241 310.4L217.001 309.38C217.421 309.14 218.061 309.11 218.431 309.32L219.961 310.2C220.331 310.41 220.281 310.78 219.861 311.02L218.101 312.04C217.681 312.28 217.041 312.31 216.671 312.1Z" fill="#F9E8D7"/>
<path d="M220.291 314.19L218.761 313.31C218.391 313.1 218.441 312.73 218.861 312.49L220.621 311.47C221.041 311.23 221.681 311.2 222.051 311.41L223.581 312.29C223.951 312.5 223.901 312.87 223.481 313.11L221.721 314.13C221.301 314.37 220.661 314.4 220.291 314.19Z" fill="#F9E8D7"/>
<path d="M223.951 316.29L222.421 315.41C222.051 315.2 222.101 314.83 222.521 314.59L224.281 313.57C224.701 313.33 225.341 313.3 225.711 313.51L227.241 314.39C227.611 314.6 227.561 314.97 227.141 315.21L225.381 316.23C224.961 316.47 224.321 316.5 223.951 316.29Z" fill="#F9E8D7"/>
<path d="M227.572 318.38L226.042 317.5C225.672 317.29 225.722 316.92 226.142 316.68L227.902 315.66C228.322 315.42 228.962 315.39 229.332 315.6L230.862 316.48C231.232 316.69 231.182 317.06 230.762 317.3L229.002 318.32C228.582 318.56 227.942 318.59 227.572 318.38Z" fill="#F9E8D7"/>
<path d="M231.201 320.47L229.671 319.59C229.301 319.38 229.351 319.01 229.771 318.77L231.531 317.75C231.951 317.51 232.591 317.48 232.961 317.69L234.491 318.57C234.861 318.78 234.811 319.15 234.391 319.39L232.631 320.41C232.211 320.65 231.571 320.68 231.201 320.47Z" fill="#F9E8D7"/>
<path d="M234.861 322.58L233.331 321.7C232.961 321.49 233.011 321.12 233.431 320.88L235.191 319.86C235.611 319.62 236.251 319.59 236.621 319.8L238.151 320.68C238.521 320.89 238.471 321.26 238.051 321.5L236.291 322.52C235.871 322.76 235.231 322.79 234.861 322.58Z" fill="#F9E8D7"/>
<path d="M238.482 324.66L236.952 323.78C236.582 323.57 236.632 323.2 237.052 322.96L238.812 321.94C239.232 321.7 239.872 321.67 240.242 321.88L241.772 322.76C242.142 322.97 242.092 323.34 241.672 323.58L239.912 324.6C239.492 324.84 238.852 324.87 238.482 324.66Z" fill="#F9E8D7"/>
<path d="M242.142 326.77L240.612 325.89C240.242 325.68 240.292 325.31 240.712 325.07L242.472 324.05C242.892 323.81 243.532 323.78 243.902 323.99L245.432 324.87C245.802 325.08 245.752 325.45 245.332 325.69L243.572 326.71C243.152 326.95 242.512 326.98 242.142 326.77Z" fill="#F9E8D7"/>
<path d="M245.761 328.86L244.231 327.98C243.861 327.77 243.911 327.4 244.331 327.16L246.091 326.14C246.511 325.9 247.151 325.87 247.521 326.08L249.051 326.96C249.421 327.17 249.371 327.54 248.951 327.78L247.191 328.8C246.771 329.04 246.131 329.07 245.761 328.86Z" fill="#F9E8D7"/>
<path d="M249.392 330.94L247.862 330.06C247.492 329.85 247.542 329.48 247.962 329.24L249.722 328.22C250.142 327.98 250.782 327.95 251.152 328.16L252.682 329.04C253.052 329.25 253.002 329.62 252.582 329.86L250.822 330.88C250.402 331.12 249.762 331.15 249.392 330.94Z" fill="#F9E8D7"/>
<path d="M253.052 333.05L251.522 332.17C251.152 331.96 251.202 331.59 251.622 331.35L253.382 330.33C253.802 330.09 254.442 330.06 254.812 330.27L256.342 331.15C256.712 331.36 256.662 331.73 256.242 331.97L254.482 332.99C254.062 333.23 253.422 333.26 253.052 333.05Z" fill="#F9E8D7"/>
<path d="M256.672 335.14L255.141 334.26C254.771 334.05 254.821 333.68 255.241 333.44L257.001 332.42C257.421 332.18 258.061 332.15 258.431 332.36L259.961 333.24C260.331 333.45 260.281 333.82 259.861 334.06L258.101 335.08C257.681 335.32 257.042 335.35 256.672 335.14Z" fill="#F9E8D7"/>
<path d="M260.291 337.23L258.761 336.35C258.391 336.14 258.441 335.77 258.861 335.53L260.621 334.51C261.041 334.27 261.681 334.24 262.051 334.45L263.581 335.33C263.951 335.54 263.901 335.91 263.481 336.15L261.721 337.17C261.301 337.41 260.661 337.44 260.291 337.23Z" fill="#F9E8D7"/>
<path d="M263.951 339.33L262.421 338.45C262.051 338.24 262.101 337.87 262.521 337.63L264.281 336.61C264.701 336.37 265.341 336.34 265.711 336.55L267.241 337.43C267.611 337.64 267.561 338.01 267.141 338.25L265.381 339.27C264.961 339.51 264.321 339.54 263.951 339.33Z" fill="#F9E8D7"/>
<path d="M215.892 316.64L210.782 313.69C210.412 313.48 210.462 313.11 210.882 312.87L212.642 311.85C213.062 311.61 213.702 311.58 214.072 311.79L219.182 314.74C219.552 314.95 219.502 315.32 219.082 315.56L217.322 316.58C216.902 316.82 216.262 316.85 215.892 316.64Z" fill="#F9E8D7"/>
<path d="M219.582 318.77L218.052 317.89C217.682 317.68 217.732 317.31 218.152 317.07L219.912 316.05C220.332 315.81 220.972 315.78 221.342 315.99L222.872 316.87C223.242 317.08 223.192 317.45 222.772 317.69L221.012 318.71C220.592 318.95 219.952 318.98 219.582 318.77Z" fill="#F9E8D7"/>
<path d="M223.213 320.85L221.683 319.97C221.313 319.76 221.363 319.39 221.783 319.15L223.543 318.13C223.963 317.89 224.603 317.86 224.973 318.07L226.503 318.95C226.873 319.16 226.823 319.53 226.403 319.77L224.643 320.79C224.223 321.03 223.583 321.06 223.213 320.85Z" fill="#F9E8D7"/>
<path d="M226.832 322.94L225.302 322.06C224.932 321.85 224.982 321.48 225.402 321.24L227.162 320.22C227.582 319.98 228.222 319.95 228.592 320.16L230.122 321.04C230.492 321.25 230.442 321.62 230.022 321.86L228.262 322.88C227.842 323.12 227.202 323.15 226.832 322.94Z" fill="#F9E8D7"/>
<path d="M230.492 325.05L228.962 324.17C228.592 323.96 228.642 323.59 229.062 323.35L230.822 322.33C231.242 322.09 231.882 322.06 232.252 322.27L233.782 323.15C234.152 323.36 234.102 323.73 233.682 323.97L231.922 324.99C231.502 325.23 230.862 325.26 230.492 325.05Z" fill="#F9E8D7"/>
<path d="M234.113 327.13L232.583 326.25C232.213 326.04 232.263 325.67 232.683 325.43L234.443 324.41C234.863 324.17 235.503 324.14 235.873 324.35L237.403 325.23C237.773 325.44 237.723 325.81 237.303 326.05L235.543 327.07C235.123 327.31 234.483 327.34 234.113 327.13Z" fill="#F9E8D7"/>
<path d="M237.773 329.24L236.243 328.36C235.873 328.15 235.923 327.78 236.343 327.54L238.103 326.52C238.523 326.28 239.163 326.25 239.533 326.46L241.063 327.34C241.433 327.55 241.383 327.92 240.963 328.16L239.203 329.18C238.783 329.42 238.143 329.45 237.773 329.24Z" fill="#F9E8D7"/>
<path d="M241.392 331.33L239.862 330.45C239.492 330.24 239.542 329.87 239.962 329.63L241.722 328.61C242.142 328.37 242.782 328.34 243.152 328.55L244.682 329.43C245.052 329.64 245.002 330.01 244.582 330.25L242.822 331.27C242.402 331.51 241.762 331.54 241.392 331.33Z" fill="#F9E8D7"/>
<path d="M245.023 333.42L243.493 332.54C243.123 332.33 243.173 331.96 243.593 331.72L245.353 330.7C245.773 330.46 246.413 330.43 246.783 330.64L248.313 331.52C248.683 331.73 248.633 332.1 248.213 332.34L246.453 333.36C246.033 333.6 245.393 333.63 245.023 333.42Z" fill="#F9E8D7"/>
<path d="M248.681 335.52L247.151 334.64C246.781 334.43 246.831 334.06 247.251 333.82L249.011 332.8C249.431 332.56 250.071 332.53 250.441 332.74L251.971 333.62C252.341 333.83 252.291 334.2 251.871 334.44L250.111 335.46C249.691 335.7 249.051 335.73 248.681 335.52Z" fill="#F9E8D7"/>
<path d="M252.302 337.61L250.772 336.73C250.402 336.52 250.452 336.15 250.872 335.91L252.632 334.89C253.052 334.65 253.692 334.62 254.062 334.83L255.592 335.71C255.962 335.92 255.912 336.29 255.492 336.53L253.732 337.55C253.312 337.79 252.672 337.82 252.302 337.61Z" fill="#F9E8D7"/>
<path d="M255.921 339.7L254.391 338.82C254.021 338.61 254.071 338.24 254.491 338L256.251 336.98C256.671 336.74 257.311 336.71 257.681 336.92L259.211 337.8C259.581 338.01 259.531 338.38 259.111 338.62L257.351 339.64C256.931 339.88 256.291 339.91 255.921 339.7Z" fill="#F9E8D7"/>
<path d="M255.351 344.25L253.821 343.37C253.451 343.16 253.501 342.79 253.921 342.55L259.911 339.08C260.331 338.84 260.971 338.81 261.341 339.02L262.871 339.9C263.241 340.11 263.191 340.48 262.771 340.72L256.781 344.19C256.361 344.43 255.721 344.46 255.351 344.25Z" fill="#F9E8D7"/>
<path d="M208.072 317.02L206.542 316.14C206.172 315.93 206.222 315.56 206.642 315.32L208.402 314.3C208.822 314.06 209.462 314.03 209.832 314.24L211.362 315.12C211.732 315.33 211.682 315.7 211.262 315.94L209.502 316.96C209.082 317.2 208.442 317.23 208.072 317.02Z" fill="#F9E8D7"/>
<path d="M211.691 319.11L210.161 318.23C209.791 318.02 209.841 317.65 210.261 317.41L212.021 316.39C212.441 316.15 213.081 316.12 213.451 316.33L214.981 317.21C215.351 317.42 215.301 317.79 214.881 318.03L213.121 319.05C212.701 319.29 212.061 319.32 211.691 319.11Z" fill="#F9E8D7"/>
<path d="M215.351 321.21L213.821 320.33C213.451 320.12 213.501 319.75 213.921 319.51L215.681 318.49C216.101 318.25 216.741 318.22 217.111 318.43L218.641 319.31C219.011 319.52 218.961 319.89 218.541 320.13L216.781 321.15C216.361 321.39 215.721 321.42 215.351 321.21Z" fill="#F9E8D7"/>
<path d="M218.972 323.3L217.442 322.42C217.072 322.21 217.122 321.84 217.542 321.6L219.302 320.58C219.722 320.34 220.362 320.31 220.732 320.52L222.262 321.4C222.632 321.61 222.582 321.98 222.162 322.22L220.402 323.24C219.982 323.48 219.342 323.51 218.972 323.3Z" fill="#F9E8D7"/>
<path d="M233.541 331.69L221.071 324.51C220.701 324.3 220.751 323.93 221.171 323.69L222.931 322.67C223.351 322.43 223.991 322.4 224.361 322.61L236.831 329.79C237.201 330 237.151 330.37 236.731 330.61L234.971 331.63C234.551 331.87 233.911 331.9 233.541 331.69Z" fill="#F9E8D7"/>
<path d="M237.162 333.78L235.632 332.9C235.262 332.69 235.312 332.32 235.732 332.08L237.492 331.06C237.912 330.82 238.552 330.79 238.922 331L240.452 331.88C240.822 332.09 240.772 332.46 240.352 332.7L238.592 333.72C238.172 333.96 237.532 333.99 237.162 333.78Z" fill="#F9E8D7"/>
<path d="M240.793 335.86L239.263 334.98C238.893 334.77 238.943 334.4 239.363 334.16L241.123 333.14C241.543 332.9 242.183 332.87 242.553 333.08L244.083 333.96C244.453 334.17 244.403 334.54 243.983 334.78L242.223 335.8C241.803 336.04 241.163 336.07 240.793 335.86Z" fill="#F9E8D7"/>
<path d="M244.453 337.97L242.923 337.09C242.553 336.88 242.603 336.51 243.023 336.27L244.783 335.25C245.203 335.01 245.843 334.98 246.213 335.19L247.743 336.07C248.113 336.28 248.063 336.65 247.643 336.89L245.883 337.91C245.463 338.15 244.823 338.18 244.453 337.97Z" fill="#F9E8D7"/>
<path d="M248.072 340.06L246.542 339.18C246.172 338.97 246.222 338.6 246.642 338.36L248.402 337.34C248.822 337.1 249.462 337.07 249.832 337.28L251.362 338.16C251.732 338.37 251.682 338.74 251.262 338.98L249.502 340C249.082 340.24 248.442 340.27 248.072 340.06Z" fill="#F9E8D7"/>
<path d="M251.691 342.15L250.161 341.27C249.791 341.06 249.841 340.69 250.261 340.45L252.021 339.43C252.441 339.19 253.081 339.16 253.451 339.37L254.981 340.25C255.351 340.46 255.301 340.83 254.881 341.07L253.121 342.09C252.701 342.33 252.061 342.36 251.691 342.15Z" fill="#F9E8D7"/>
<path d="M230.78 304.96C231.498 304.96 232.08 304.588 232.08 304.13C232.08 303.672 231.498 303.3 230.78 303.3C230.063 303.3 229.48 303.672 229.48 304.13C229.48 304.588 230.063 304.96 230.78 304.96Z" fill="#F9E8D7"/>
<path d="M234.442 305.54C234.442 306 233.862 306.37 233.142 306.37C232.422 306.37 231.842 306 231.842 305.54C231.842 305.08 232.422 304.71 233.142 304.71C233.862 304.71 234.442 305.08 234.442 305.54Z" fill="#F9E8D7"/>
<path d="M232.841 221.58L220.491 214.42C219.621 213.91 218.821 213.86 218.191 214.18C218.191 214.18 218.171 214.19 218.161 214.2L168.111 243.04L185.191 308.05L234.991 279.35C235.831 278.95 236.371 277.89 236.381 276.35L236.461 228.52C236.461 225.84 234.841 222.73 232.841 221.57V221.58Z" fill="url(#paint9_linear_268_625)"/>
<path d="M182.87 307.83L170.52 300.67C168.52 299.51 166.89 296.4 166.9 293.72L166.98 245.89C166.98 243.22 168.61 241.99 170.62 243.15L182.97 250.31C184.97 251.47 186.6 254.58 186.59 257.26L186.51 305.09C186.51 307.76 184.88 308.99 182.87 307.83Z" fill="#EAE1D7"/>
<path d="M180.38 302.18L172.48 297.6C171.2 296.86 170.16 294.87 170.16 293.15L170.19 250.41C170.19 248.7 171.24 247.91 172.52 248.66L180.42 253.24C181.7 253.98 182.74 255.97 182.74 257.69L182.71 300.43C182.71 302.14 181.66 302.93 180.38 302.18Z" fill="#CE172D"/>
<path d="M176.34 295.58C175.06 294.84 174.02 292.85 174.02 291.13L174.05 249.54L172.53 248.66C171.25 247.92 170.21 248.7 170.2 250.41L170.17 293.15C170.17 294.86 171.2 296.85 172.49 297.6L180.39 302.18C181.67 302.92 182.71 302.14 182.72 300.43V299.28L176.34 295.58Z" fill="url(#paint10_linear_268_625)"/>
<path d="M175.611 304.98L167.711 300.4C166.431 299.66 165.391 297.67 165.391 295.95L165.421 253.21C165.421 251.5 166.471 250.71 167.751 251.46L175.651 256.04C176.931 256.78 177.971 258.77 177.971 260.49L177.941 303.23C177.941 304.94 176.891 305.73 175.611 304.98Z" fill="#CE172D"/>
<path opacity="0.6" d="M180.38 302.18L172.48 297.6C171.2 296.86 170.16 294.87 170.16 293.15L170.19 250.41C170.19 248.7 171.24 247.91 172.52 248.66L180.42 253.24C181.7 253.98 182.74 255.97 182.74 257.69L182.71 300.43C182.71 302.14 181.66 302.93 180.38 302.18Z" fill="#CE172D"/>
<path d="M259.33 290.48V300.18L259.31 300.52C259.26 301.33 258.99 303.41 257.71 304.23C257 304.68 253.93 306.51 251.49 307.95L248.76 308.37V310.16C248.79 310.57 249.08 311.03 249.67 311.41L258.1 316.18C259.23 316.82 260.62 316.81 261.75 316.16C263.98 314.86 269.12 311.82 270.06 311.22C271.45 310.32 271.65 307.97 271.67 307.33V297.62L259.32 290.49L259.33 290.48Z" fill="url(#paint11_linear_268_625)"/>
<path d="M270.139 306.58V296.67L257.789 289.54V299.43L257.779 299.77C257.729 300.58 257.459 302.66 256.179 303.48C255.219 304.1 251.479 306.28 249.269 307.57C248.529 308 248.559 309.01 249.689 309.72L258.119 314.49C259.249 315.13 260.639 315.12 261.769 314.47C263.999 313.17 267.589 311.07 268.529 310.46C269.929 309.56 270.119 307.21 270.139 306.57V306.58Z" fill="url(#paint12_linear_268_625)"/>
<path d="M305.501 312.78L305.611 250.63C305.611 248.8 304.501 246.68 303.121 245.89L232.291 205.09C231.701 204.75 231.161 204.73 230.731 204.94L227.961 206.52L229.811 209.15L229.851 269.43C229.851 271.26 230.961 273.38 232.341 274.17L301.441 316.51L302.121 316.22L304.691 314.75C305.181 314.42 305.491 313.74 305.491 312.78H305.501Z" fill="url(#paint13_linear_268_625)"/>
<path d="M300.581 316.45L229.751 275.65C228.381 274.86 227.271 272.74 227.261 270.91L227.221 208.45C227.221 206.62 228.331 205.78 229.701 206.57L300.531 247.37C301.901 248.16 303.011 250.28 303.021 252.11L303.061 312.74C303.061 314.57 301.951 317.25 300.581 316.46V316.45Z" fill="#EDECED"/>
<path d="M298.831 311.18L231.391 272.33C230.781 271.98 230.291 271.04 230.291 270.24L230.271 212.51C230.271 211.7 230.761 211.33 231.371 211.68L298.811 250.53C299.421 250.88 299.911 251.82 299.911 252.62L299.931 310.35C299.931 311.16 299.441 311.53 298.831 311.18Z" fill="#CE172D"/>
<path d="M230.271 237.13L265.081 257.02L262.821 263.33L230.271 244.81V237.13Z" fill="url(#paint14_linear_268_625)"/>
<path d="M274.632 280.38C267.722 276.38 262.102 266.98 262.102 259.42C262.102 251.86 267.732 248.96 274.652 252.96C281.562 256.96 287.182 266.36 287.182 273.92C287.182 281.48 281.552 284.38 274.632 280.38ZM274.652 260.6C271.592 258.83 269.102 260.11 269.102 263.46C269.102 266.81 271.582 270.96 274.642 272.73C277.702 274.5 280.192 273.22 280.192 269.87C280.192 266.52 277.712 262.37 274.652 260.6Z" fill="url(#paint15_linear_268_625)"/>
<path opacity="0.02" d="M289.181 316.42L221.741 277.57C221.131 277.22 220.641 276.28 220.641 275.48L220.621 217.75C220.621 216.94 221.111 216.57 221.721 216.92L289.161 255.77C289.771 256.12 290.261 257.06 290.261 257.86L290.281 315.59C290.281 316.4 289.791 316.77 289.181 316.42Z" fill="#F7F8F8"/>
<defs>
<linearGradient id="paint0_linear_268_625" x1="1244.54" y1="797.17" x2="22.4308" y2="84.5198" gradientUnits="userSpaceOnUse">
<stop stop-color="#EAE1D7"/>
<stop offset="1" stop-color="#FFFDFF"/>
</linearGradient>
<linearGradient id="paint1_linear_268_625" x1="313.012" y1="325.36" x2="311.162" y2="322.1" gradientUnits="userSpaceOnUse">
<stop stop-color="#EAE1D7"/>
<stop offset="1" stop-color="#EAE1D7"/>
</linearGradient>
<linearGradient id="paint2_linear_268_625" x1="285.541" y1="317.09" x2="287.261" y2="319.69" gradientUnits="userSpaceOnUse">
<stop stop-color="#FD3F1C"/>
<stop offset="1" stop-color="#EAE1D7"/>
</linearGradient>
<linearGradient id="paint3_linear_268_625" x1="340.711" y1="315.87" x2="330.291" y2="318.33" gradientUnits="userSpaceOnUse">
<stop stop-color="#E3C6CD"/>
<stop offset="1" stop-color="#A01B2B"/>
</linearGradient>
<radialGradient id="paint4_radial_268_625" cx="0" cy="0" r="1" gradientUnits="userSpaceOnUse" gradientTransform="translate(334.91 315.89) scale(3.98999)">
<stop stop-color="#E3C6CD"/>
<stop offset="1" stop-color="#FD412F"/>
</radialGradient>
<linearGradient id="paint5_linear_268_625" x1="321.18" y1="324.3" x2="320.37" y2="322.86" gradientUnits="userSpaceOnUse">
<stop stop-color="#EAE1D7"/>
<stop offset="1" stop-color="#EAE1D7"/>
</linearGradient>
<linearGradient id="paint6_linear_268_625" x1="313.231" y1="328.87" x2="312.411" y2="327.44" gradientUnits="userSpaceOnUse">
<stop stop-color="#EAE1D7"/>
<stop offset="1" stop-color="#EAE1D7"/>
</linearGradient>
<linearGradient id="paint7_linear_268_625" x1="259.862" y1="326.6" x2="256.342" y2="326.6" gradientUnits="userSpaceOnUse">
<stop stop-color="#A01A2B"/>
<stop offset="1" stop-color="#FD6A51"/>
</linearGradient>
<linearGradient id="paint8_linear_268_625" x1="281.241" y1="365.79" x2="202.131" y2="280.1" gradientUnits="userSpaceOnUse">
<stop stop-color="#EAE1D7"/>
<stop offset="1" stop-color="#EAE1D7"/>
</linearGradient>
<linearGradient id="paint9_linear_268_625" x1="200.491" y1="248.98" x2="197.161" y2="243.11" gradientUnits="userSpaceOnUse">
<stop stop-color="#DDC0D7"/>
<stop offset="1" stop-color="#EAE1D7"/>
</linearGradient>
<linearGradient id="paint10_linear_268_625" x1="181.04" y1="285.69" x2="183.96" y2="290.13" gradientUnits="userSpaceOnUse">
<stop stop-color="#EAC4C8"/>
<stop offset="1" stop-color="#EAE1D7"/>
</linearGradient>
<linearGradient id="paint11_linear_268_625" x1="261.7" y1="303.57" x2="257.88" y2="303.57" gradientUnits="userSpaceOnUse">
<stop stop-color="#FD341E"/>
<stop offset="1" stop-color="#FD6A51"/>
</linearGradient>
<linearGradient id="paint12_linear_268_625" x1="262.619" y1="301.08" x2="259.389" y2="306.26" gradientUnits="userSpaceOnUse">
<stop stop-color="#ED2015"/>
<stop offset="1" stop-color="#EAE1D7"/>
</linearGradient>
<linearGradient id="paint13_linear_268_625" x1="272.961" y1="271.05" x2="268.861" y2="262.38" gradientUnits="userSpaceOnUse">
<stop stop-color="#ED2015"/>
<stop offset="1" stop-color="#EAE1D7"/>
</linearGradient>
<linearGradient id="paint14_linear_268_625" x1="344.991" y1="332.01" x2="234.311" y2="239.78" gradientUnits="userSpaceOnUse">
<stop stop-color="#EAE1D7"/>
<stop offset="1" stop-color="#FFFDFF"/>
</linearGradient>
<linearGradient id="paint15_linear_268_625" x1="348.292" y1="328.04" x2="237.622" y2="235.81" gradientUnits="userSpaceOnUse">
<stop stop-color="#EAE1D7"/>
<stop offset="1" stop-color="#FFFDFF"/>
</linearGradient>
</defs>
</svg>
