<svg width="98" height="64" viewBox="0 0 98 64" fill="none" xmlns="http://www.w3.org/2000/svg">
<rect x="0.694336" y="0.5" width="96.2467" height="62.1688" rx="8.5" fill="white" stroke="#E4E2EA"/>
<path d="M37.6248 27.4522C38.2357 27.5037 38.8466 27.1426 39.2294 26.6824C39.6054 26.2127 39.8539 25.576 39.7928 24.9352C39.2484 24.961 38.5818 25.2964 38.2004 25.7674C37.8474 26.1693 37.5474 26.8318 37.6248 27.4522ZM36.1124 35.8582C36.7885 35.8324 37.0546 35.4143 37.8691 35.4143C38.6891 35.4143 38.928 35.8582 39.6407 35.8487C40.3792 35.8337 40.8422 35.178 41.2942 34.5047C41.8074 33.7404 42.0219 33.0005 42.0328 32.9598C42.0178 32.9448 40.6073 32.3964 40.591 30.7429C40.5761 29.3582 41.7069 28.7011 41.7558 28.6604C41.1191 27.6992 40.1267 27.5961 39.7806 27.5703L39.7833 27.5716C38.8968 27.5187 38.1393 28.0821 37.7211 28.0821C37.2935 28.0821 36.6527 27.5961 35.9495 27.611C35.04 27.6273 34.1942 28.1499 33.7313 28.9808C32.7742 30.6492 33.4815 33.1145 34.4073 34.4735C34.8608 35.1441 35.3997 35.884 36.1124 35.8582ZM52.6204 30.6193H54.0105C54.1273 29.9989 54.692 29.5903 55.4672 29.5903C56.4093 29.5903 56.9388 30.0342 56.9388 30.8556V31.4135L55.0151 31.533C53.2286 31.6416 52.2606 32.3855 52.2606 33.6766C52.266 34.9785 53.2625 35.846 54.6934 35.8473C55.6613 35.8473 56.5573 35.3518 56.9632 34.5617H56.9931V35.7713H58.4185V30.7592C58.4185 29.3079 57.2727 28.3672 55.512 28.3672C53.8775 28.3672 52.6679 29.3161 52.6204 30.6193ZM56.9442 33.044C56.9442 33.9847 56.1541 34.6554 55.1115 34.6554C54.2915 34.6554 53.7675 34.2522 53.7675 33.6426C53.7675 33.0059 54.2712 32.6408 55.2337 32.5837L56.9442 32.4751V33.044ZM44.8931 25.6995V35.7699H46.4353V32.3285H48.5681C50.5175 32.3285 51.8819 30.9696 51.8819 29.0066C51.8819 27.0435 50.5392 25.6995 48.6183 25.6995H44.8931ZM50.3152 29.012C50.3152 30.2827 49.5523 31.0171 48.2069 31.0171H46.4353V27.0177H48.2124C49.5509 27.0177 50.3152 27.74 50.3152 29.012Z" fill="#666666"/>
<path d="M62.4445 34.411L60.6321 28.4648H59.0234L61.63 35.797L61.4874 36.2409C61.2526 36.9944 60.8711 37.2903 60.1896 37.2903C60.0674 37.2903 59.8339 37.2754 59.7362 37.2646V38.4741C59.8285 38.4959 60.2113 38.5108 60.3281 38.5108L60.3267 38.5081C61.8282 38.5081 62.5354 37.9243 63.1531 36.1622L65.856 28.4648H64.2881L62.4757 34.411H62.4445Z" fill="#666666"/>
</svg>
