<svg width="263" height="138" viewBox="0 0 263 138" fill="none" xmlns="http://www.w3.org/2000/svg">
<rect width="263" height="138" rx="8" fill="url(#paint0_linear_790_456)"/>
<path d="M12.9067 125V117.08H17.9667V118.163H14.0562V120.385H17.3067V121.469H14.0562V123.916H17.9667V125H12.9067ZM18.7376 125V124.819L22.1091 120.088H19.0456V119.06H23.9351V119.247L20.5691 123.971H23.7701V125H18.7376ZM25.1421 125V119.06H26.1651V120.501L26.0221 120.314C26.0954 120.123 26.1907 119.949 26.3081 119.791C26.4254 119.63 26.5611 119.498 26.7151 119.395C26.8654 119.285 27.0322 119.201 27.2156 119.142C27.4026 119.08 27.5932 119.043 27.7876 119.032C27.9819 119.018 28.1689 119.027 28.3486 119.06V120.138C28.1542 120.087 27.9379 120.072 27.6996 120.094C27.4649 120.116 27.2486 120.191 27.0506 120.319C26.8636 120.44 26.7151 120.587 26.6051 120.759C26.4987 120.932 26.4217 121.124 26.3741 121.337C26.3264 121.546 26.3026 121.768 26.3026 122.002V125H25.1421ZM30.9123 125.165C30.4723 125.165 30.1038 125.084 29.8068 124.923C29.5098 124.758 29.2843 124.542 29.1303 124.274C28.98 124.003 28.9048 123.706 28.9048 123.383C28.9048 123.082 28.958 122.818 29.0643 122.591C29.1707 122.364 29.3283 122.171 29.5373 122.013C29.7463 121.852 30.003 121.722 30.3073 121.623C30.5713 121.546 30.8702 121.478 31.2038 121.419C31.5375 121.361 31.8877 121.306 32.2543 121.254C32.6247 121.203 32.9913 121.152 33.3543 121.1L32.9363 121.331C32.9437 120.866 32.8447 120.521 32.6393 120.297C32.4377 120.07 32.0893 119.956 31.5943 119.956C31.2827 119.956 30.9967 120.03 30.7363 120.176C30.476 120.319 30.2945 120.558 30.1918 120.891L29.1193 120.561C29.266 120.052 29.5447 119.647 29.9553 119.346C30.3697 119.045 30.9197 118.895 31.6053 118.895C32.137 118.895 32.599 118.987 32.9913 119.17C33.3873 119.35 33.677 119.636 33.8603 120.028C33.9557 120.222 34.0143 120.428 34.0363 120.644C34.0583 120.86 34.0693 121.093 34.0693 121.342V125H33.0518V123.641L33.2498 123.817C33.0042 124.272 32.6907 124.611 32.3093 124.835C31.9317 125.055 31.466 125.165 30.9123 125.165ZM31.1158 124.224C31.4422 124.224 31.7227 124.168 31.9573 124.054C32.192 123.937 32.3808 123.788 32.5238 123.608C32.6668 123.429 32.7603 123.242 32.8043 123.047C32.8667 122.871 32.9015 122.673 32.9088 122.453C32.9198 122.233 32.9253 122.057 32.9253 121.925L33.2993 122.063C32.9363 122.118 32.6063 122.167 32.3093 122.211C32.0123 122.255 31.7428 122.299 31.5008 122.343C31.2625 122.384 31.0498 122.433 30.8628 122.492C30.7052 122.547 30.564 122.613 30.4393 122.69C30.3183 122.767 30.2212 122.86 30.1478 122.97C30.0782 123.08 30.0433 123.214 30.0433 123.372C30.0433 123.526 30.0818 123.669 30.1588 123.801C30.2358 123.929 30.3532 124.032 30.5108 124.109C30.6685 124.186 30.8702 124.224 31.1158 124.224ZM40.5707 125.165C40.0024 125.165 39.489 125.068 39.0307 124.873C38.576 124.675 38.2002 124.395 37.9032 124.032C37.6099 123.665 37.4192 123.231 37.3312 122.728L38.5302 122.547C38.6512 123.031 38.9042 123.409 39.2892 123.68C39.6742 123.948 40.1234 124.081 40.6367 124.081C40.9557 124.081 41.249 124.032 41.5167 123.933C41.7844 123.83 41.9989 123.685 42.1602 123.498C42.3252 123.308 42.4077 123.08 42.4077 122.816C42.4077 122.673 42.382 122.547 42.3307 122.437C42.283 122.327 42.2152 122.232 42.1272 122.151C42.0429 122.067 41.9384 121.995 41.8137 121.936C41.6927 121.874 41.5589 121.821 41.4122 121.777L39.3827 121.177C39.1847 121.119 38.983 121.044 38.7777 120.952C38.5724 120.857 38.3835 120.734 38.2112 120.583C38.0425 120.429 37.905 120.241 37.7987 120.017C37.6924 119.79 37.6392 119.515 37.6392 119.192C37.6392 118.704 37.7639 118.292 38.0132 117.954C38.2662 117.613 38.6072 117.357 39.0362 117.184C39.4652 117.008 39.9455 116.92 40.4772 116.92C41.0125 116.928 41.491 117.023 41.9127 117.206C42.338 117.39 42.69 117.654 42.9687 117.998C43.251 118.339 43.4454 118.754 43.5517 119.241L42.3197 119.45C42.2647 119.153 42.1474 118.899 41.9677 118.686C41.788 118.47 41.568 118.305 41.3077 118.191C41.0474 118.074 40.765 118.013 40.4607 118.009C40.1674 118.002 39.8979 118.046 39.6522 118.141C39.4102 118.237 39.2159 118.371 39.0692 118.543C38.9262 118.715 38.8547 118.913 38.8547 119.137C38.8547 119.357 38.9189 119.535 39.0472 119.67C39.1755 119.806 39.3332 119.914 39.5202 119.995C39.7109 120.072 39.8997 120.136 40.0867 120.187L41.5497 120.6C41.733 120.651 41.9402 120.721 42.1712 120.809C42.4059 120.893 42.6314 121.012 42.8477 121.166C43.0677 121.32 43.2492 121.526 43.3922 121.782C43.5352 122.035 43.6067 122.354 43.6067 122.739C43.6067 123.139 43.526 123.491 43.3647 123.795C43.2034 124.096 42.9815 124.349 42.6992 124.554C42.4205 124.756 42.0979 124.908 41.7312 125.011C41.3645 125.114 40.9777 125.165 40.5707 125.165ZM48.1778 125C47.8038 125.073 47.4371 125.105 47.0778 125.094C46.7185 125.083 46.3976 125.013 46.1153 124.884C45.833 124.756 45.6203 124.554 45.4773 124.279C45.349 124.034 45.2793 123.784 45.2683 123.531C45.261 123.275 45.2573 122.985 45.2573 122.662V117.41H46.4123V122.607C46.4123 122.846 46.4141 123.053 46.4178 123.229C46.4251 123.405 46.4636 123.553 46.5333 123.674C46.6653 123.902 46.8743 124.032 47.1603 124.065C47.45 124.094 47.7891 124.081 48.1778 124.026V125ZM44.1188 119.984V119.06H48.1778V119.984H44.1188ZM49.6282 125V123.784H50.8437V125H49.6282ZM56.2868 125.16C55.7074 125.16 55.2198 125.005 54.8238 124.697C54.4314 124.389 54.1601 123.975 54.0098 123.454L55.1483 123.185C55.1996 123.431 55.3298 123.641 55.5388 123.817C55.7514 123.99 55.9879 124.076 56.2483 124.076C56.4206 124.076 56.6003 124.032 56.7873 123.944C56.9743 123.856 57.1136 123.713 57.2053 123.515C57.2676 123.383 57.3043 123.233 57.3153 123.064C57.3263 122.892 57.3318 122.692 57.3318 122.464V117.08H58.4978V122.464C58.4978 122.699 58.4959 122.908 58.4923 123.091C58.4923 123.275 58.4739 123.447 58.4373 123.608C58.4043 123.77 58.3383 123.937 58.2393 124.109C58.0303 124.472 57.7553 124.738 57.4143 124.906C57.0733 125.075 56.6974 125.16 56.2868 125.16ZM62.3894 125.16C61.9787 125.16 61.634 125.094 61.3554 124.961C61.0767 124.829 60.8494 124.657 60.6734 124.444C60.501 124.228 60.369 123.993 60.2774 123.74C60.1857 123.487 60.1234 123.24 60.0904 122.998C60.0574 122.756 60.0409 122.543 60.0409 122.36V119.06H61.2069V121.98C61.2069 122.211 61.2252 122.45 61.2619 122.695C61.3022 122.937 61.3755 123.163 61.4819 123.372C61.5919 123.581 61.744 123.75 61.9384 123.878C62.1364 124.006 62.393 124.07 62.7084 124.07C62.9137 124.07 63.108 124.037 63.2914 123.971C63.4747 123.902 63.6342 123.792 63.7699 123.641C63.9092 123.491 64.0174 123.293 64.0944 123.047C64.175 122.802 64.2154 122.503 64.2154 122.151L64.9304 122.42C64.9304 122.959 64.8295 123.436 64.6279 123.85C64.4262 124.261 64.1365 124.582 63.7589 124.813C63.3812 125.044 62.9247 125.16 62.3894 125.16ZM64.3529 125V123.284H64.2154V119.06H65.3759V125H64.3529ZM69.1899 125.16C68.4676 125.16 67.8791 125 67.4244 124.681C66.9698 124.362 66.6911 123.913 66.5884 123.333L67.7654 123.152C67.8388 123.46 68.0074 123.704 68.2714 123.883C68.5391 124.059 68.8709 124.147 69.2669 124.147C69.6263 124.147 69.9068 124.074 70.1084 123.927C70.3138 123.781 70.4164 123.579 70.4164 123.322C70.4164 123.172 70.3798 123.051 70.3064 122.959C70.2368 122.864 70.0883 122.774 69.8609 122.69C69.6336 122.606 69.2871 122.501 68.8214 122.376C68.3118 122.244 67.9066 122.103 67.6059 121.953C67.3089 121.799 67.0963 121.621 66.9679 121.419C66.8433 121.214 66.7809 120.967 66.7809 120.677C66.7809 120.318 66.8763 120.004 67.0669 119.736C67.2576 119.469 67.5253 119.262 67.8699 119.115C68.2183 118.968 68.6253 118.895 69.0909 118.895C69.5456 118.895 69.9508 118.966 70.3064 119.109C70.6621 119.252 70.9499 119.456 71.1699 119.72C71.3899 119.98 71.5219 120.286 71.5659 120.638L70.3889 120.853C70.3486 120.567 70.2148 120.341 69.9874 120.176C69.7601 120.011 69.4649 119.922 69.1019 119.907C68.7536 119.892 68.4713 119.951 68.2549 120.083C68.0386 120.211 67.9304 120.389 67.9304 120.616C67.9304 120.748 67.9708 120.86 68.0514 120.952C68.1358 121.044 68.2971 121.132 68.5354 121.216C68.7738 121.3 69.1258 121.401 69.5914 121.518C70.0901 121.647 70.4861 121.79 70.7794 121.947C71.0728 122.101 71.2818 122.287 71.4064 122.503C71.5348 122.716 71.5989 122.974 71.5989 123.278C71.5989 123.865 71.3844 124.325 70.9554 124.659C70.5301 124.993 69.9416 125.16 69.1899 125.16ZM76.2149 125C75.8409 125.073 75.4742 125.105 75.1149 125.094C74.7556 125.083 74.4347 125.013 74.1524 124.884C73.8701 124.756 73.6574 124.554 73.5144 124.279C73.3861 124.034 73.3164 123.784 73.3054 123.531C73.2981 123.275 73.2944 122.985 73.2944 122.662V117.41H74.4494V122.607C74.4494 122.846 74.4512 123.053 74.4549 123.229C74.4622 123.405 74.5007 123.553 74.5704 123.674C74.7024 123.902 74.9114 124.032 75.1974 124.065C75.4871 124.094 75.8262 124.081 76.2149 124.026V125ZM72.1559 119.984V119.06H76.2149V119.984H72.1559ZM79.8225 125.165C79.2321 125.165 78.7133 125.037 78.266 124.78C77.8223 124.52 77.4758 124.158 77.2265 123.696C76.9808 123.231 76.858 122.692 76.858 122.079C76.858 121.43 76.979 120.868 77.221 120.391C77.4666 119.914 77.8076 119.546 78.244 119.285C78.6803 119.025 79.1881 118.895 79.7675 118.895C80.3725 118.895 80.8876 119.036 81.313 119.319C81.7383 119.597 82.0555 119.995 82.2645 120.512C82.4771 121.029 82.5615 121.643 82.5175 122.354H81.368V121.936C81.3606 121.247 81.2286 120.737 80.972 120.407C80.719 120.077 80.3321 119.912 79.8115 119.912C79.2358 119.912 78.8031 120.094 78.5135 120.457C78.2238 120.82 78.079 121.344 78.079 122.03C78.079 122.683 78.2238 123.189 78.5135 123.548C78.8031 123.904 79.2211 124.081 79.7675 124.081C80.1268 124.081 80.4366 124.001 80.697 123.839C80.961 123.674 81.1663 123.44 81.313 123.135L82.4405 123.493C82.2095 124.025 81.8593 124.437 81.39 124.73C80.9206 125.02 80.3981 125.165 79.8225 125.165ZM77.705 122.354V121.458H81.9455V122.354H77.705Z" fill="#F7F8F8"/>
<path d="M15.718 107.428C14.9713 107.428 14.318 107.272 13.758 106.959C13.198 106.646 12.7617 106.21 12.449 105.65C12.1363 105.09 11.98 104.437 11.98 103.69V100.666C11.98 99.9194 12.1363 99.266 12.449 98.706C12.7617 98.146 13.198 97.7097 13.758 97.397C14.318 97.0844 14.9713 96.928 15.718 96.928C16.4647 96.928 17.118 97.0844 17.678 97.397C18.238 97.7097 18.6743 98.146 18.987 98.706C19.2997 99.266 19.456 99.9194 19.456 100.666V103.69C19.456 104.437 19.2997 105.09 18.987 105.65C18.6743 106.21 18.238 106.646 17.678 106.959C17.118 107.272 16.4647 107.428 15.718 107.428ZM15.718 105.622C16.054 105.622 16.3573 105.543 16.628 105.384C16.8987 105.225 17.1133 105.011 17.272 104.74C17.4307 104.469 17.51 104.166 17.51 103.83V100.512C17.51 100.176 17.4307 99.8727 17.272 99.602C17.1133 99.3314 16.8987 99.1167 16.628 98.958C16.3573 98.7994 16.054 98.72 15.718 98.72C15.382 98.72 15.0787 98.7994 14.808 98.958C14.5373 99.1167 14.3227 99.3314 14.164 99.602C14.0053 99.8727 13.926 100.176 13.926 100.512V103.83C13.926 104.166 14.0053 104.469 14.164 104.74C14.3227 105.011 14.5373 105.225 14.808 105.384C15.0787 105.543 15.382 105.622 15.718 105.622ZM25.1516 107.428C24.4049 107.428 23.7516 107.272 23.1916 106.959C22.6316 106.646 22.1953 106.21 21.8826 105.65C21.5699 105.09 21.4136 104.437 21.4136 103.69V100.666C21.4136 99.9194 21.5699 99.266 21.8826 98.706C22.1953 98.146 22.6316 97.7097 23.1916 97.397C23.7516 97.0844 24.4049 96.928 25.1516 96.928C25.8983 96.928 26.5516 97.0844 27.1116 97.397C27.6716 97.7097 28.1079 98.146 28.4206 98.706C28.7333 99.266 28.8896 99.9194 28.8896 100.666V103.69C28.8896 104.437 28.7333 105.09 28.4206 105.65C28.1079 106.21 27.6716 106.646 27.1116 106.959C26.5516 107.272 25.8983 107.428 25.1516 107.428ZM25.1516 105.622C25.4876 105.622 25.7909 105.543 26.0616 105.384C26.3323 105.225 26.5469 105.011 26.7056 104.74C26.8643 104.469 26.9436 104.166 26.9436 103.83V100.512C26.9436 100.176 26.8643 99.8727 26.7056 99.602C26.5469 99.3314 26.3323 99.1167 26.0616 98.958C25.7909 98.7994 25.4876 98.72 25.1516 98.72C24.8156 98.72 24.5123 98.7994 24.2416 98.958C23.9709 99.1167 23.7563 99.3314 23.5976 99.602C23.4389 99.8727 23.3596 100.176 23.3596 100.512V103.83C23.3596 104.166 23.4389 104.469 23.5976 104.74C23.7563 105.011 23.9709 105.225 24.2416 105.384C24.5123 105.543 24.8156 105.622 25.1516 105.622ZM34.5852 107.428C33.8385 107.428 33.1852 107.272 32.6252 106.959C32.0652 106.646 31.6289 106.21 31.3162 105.65C31.0035 105.09 30.8472 104.437 30.8472 103.69V100.666C30.8472 99.9194 31.0035 99.266 31.3162 98.706C31.6289 98.146 32.0652 97.7097 32.6252 97.397C33.1852 97.0844 33.8385 96.928 34.5852 96.928C35.3319 96.928 35.9852 97.0844 36.5452 97.397C37.1052 97.7097 37.5415 98.146 37.8542 98.706C38.1669 99.266 38.3232 99.9194 38.3232 100.666V103.69C38.3232 104.437 38.1669 105.09 37.8542 105.65C37.5415 106.21 37.1052 106.646 36.5452 106.959C35.9852 107.272 35.3319 107.428 34.5852 107.428ZM34.5852 105.622C34.9212 105.622 35.2245 105.543 35.4952 105.384C35.7659 105.225 35.9805 105.011 36.1392 104.74C36.2979 104.469 36.3772 104.166 36.3772 103.83V100.512C36.3772 100.176 36.2979 99.8727 36.1392 99.602C35.9805 99.3314 35.7659 99.1167 35.4952 98.958C35.2245 98.7994 34.9212 98.72 34.5852 98.72C34.2492 98.72 33.9459 98.7994 33.6752 98.958C33.4045 99.1167 33.1899 99.3314 33.0312 99.602C32.8725 99.8727 32.7932 100.176 32.7932 100.512V103.83C32.7932 104.166 32.8725 104.469 33.0312 104.74C33.1899 105.011 33.4045 105.225 33.6752 105.384C33.9459 105.543 34.2492 105.622 34.5852 105.622ZM44.0188 107.428C43.2721 107.428 42.6188 107.272 42.0588 106.959C41.4988 106.646 41.0624 106.21 40.7498 105.65C40.4371 105.09 40.2808 104.437 40.2808 103.69V100.666C40.2808 99.9194 40.4371 99.266 40.7498 98.706C41.0624 98.146 41.4988 97.7097 42.0588 97.397C42.6188 97.0844 43.2721 96.928 44.0188 96.928C44.7654 96.928 45.4188 97.0844 45.9788 97.397C46.5388 97.7097 46.9751 98.146 47.2878 98.706C47.6004 99.266 47.7568 99.9194 47.7568 100.666V103.69C47.7568 104.437 47.6004 105.09 47.2878 105.65C46.9751 106.21 46.5388 106.646 45.9788 106.959C45.4188 107.272 44.7654 107.428 44.0188 107.428ZM44.0188 105.622C44.3548 105.622 44.6581 105.543 44.9288 105.384C45.1994 105.225 45.4141 105.011 45.5728 104.74C45.7314 104.469 45.8108 104.166 45.8108 103.83V100.512C45.8108 100.176 45.7314 99.8727 45.5728 99.602C45.4141 99.3314 45.1994 99.1167 44.9288 98.958C44.6581 98.7994 44.3548 98.72 44.0188 98.72C43.6828 98.72 43.3794 98.7994 43.1088 98.958C42.8381 99.1167 42.6234 99.3314 42.4648 99.602C42.3061 99.8727 42.2268 100.176 42.2268 100.512V103.83C42.2268 104.166 42.3061 104.469 42.4648 104.74C42.6234 105.011 42.8381 105.225 43.1088 105.384C43.3794 105.543 43.6828 105.622 44.0188 105.622ZM61.8606 107.428C61.1139 107.428 60.4606 107.272 59.9006 106.959C59.3406 106.646 58.9042 106.21 58.5916 105.65C58.2789 105.09 58.1226 104.437 58.1226 103.69V100.666C58.1226 99.9194 58.2789 99.266 58.5916 98.706C58.9042 98.146 59.3406 97.7097 59.9006 97.397C60.4606 97.0844 61.1139 96.928 61.8606 96.928C62.6072 96.928 63.2606 97.0844 63.8206 97.397C64.3806 97.7097 64.8169 98.146 65.1296 98.706C65.4422 99.266 65.5986 99.9194 65.5986 100.666V103.69C65.5986 104.437 65.4422 105.09 65.1296 105.65C64.8169 106.21 64.3806 106.646 63.8206 106.959C63.2606 107.272 62.6072 107.428 61.8606 107.428ZM61.8606 105.622C62.1966 105.622 62.4999 105.543 62.7706 105.384C63.0412 105.225 63.2559 105.011 63.4146 104.74C63.5732 104.469 63.6526 104.166 63.6526 103.83V100.512C63.6526 100.176 63.5732 99.8727 63.4146 99.602C63.2559 99.3314 63.0412 99.1167 62.7706 98.958C62.4999 98.7994 62.1966 98.72 61.8606 98.72C61.5246 98.72 61.2212 98.7994 60.9506 98.958C60.6799 99.1167 60.4652 99.3314 60.3066 99.602C60.1479 99.8727 60.0686 100.176 60.0686 100.512V103.83C60.0686 104.166 60.1479 104.469 60.3066 104.74C60.4652 105.011 60.6799 105.225 60.9506 105.384C61.2212 105.543 61.5246 105.622 61.8606 105.622ZM71.2942 107.428C70.5475 107.428 69.8942 107.272 69.3342 106.959C68.7742 106.646 68.3378 106.21 68.0252 105.65C67.7125 105.09 67.5562 104.437 67.5562 103.69V100.666C67.5562 99.9194 67.7125 99.266 68.0252 98.706C68.3378 98.146 68.7742 97.7097 69.3342 97.397C69.8942 97.0844 70.5475 96.928 71.2942 96.928C72.0408 96.928 72.6942 97.0844 73.2542 97.397C73.8142 97.7097 74.2505 98.146 74.5632 98.706C74.8758 99.266 75.0322 99.9194 75.0322 100.666V103.69C75.0322 104.437 74.8758 105.09 74.5632 105.65C74.2505 106.21 73.8142 106.646 73.2542 106.959C72.6942 107.272 72.0408 107.428 71.2942 107.428ZM71.2942 105.622C71.6302 105.622 71.9335 105.543 72.2042 105.384C72.4748 105.225 72.6895 105.011 72.8482 104.74C73.0068 104.469 73.0862 104.166 73.0862 103.83V100.512C73.0862 100.176 73.0068 99.8727 72.8482 99.602C72.6895 99.3314 72.4748 99.1167 72.2042 98.958C71.9335 98.7994 71.6302 98.72 71.2942 98.72C70.9582 98.72 70.6548 98.7994 70.3842 98.958C70.1135 99.1167 69.8988 99.3314 69.7402 99.602C69.5815 99.8727 69.5022 100.176 69.5022 100.512V103.83C69.5022 104.166 69.5815 104.469 69.7402 104.74C69.8988 105.011 70.1135 105.225 70.3842 105.384C70.6548 105.543 70.9582 105.622 71.2942 105.622ZM80.7278 107.428C79.9811 107.428 79.3278 107.272 78.7678 106.959C78.2078 106.646 77.7714 106.21 77.4588 105.65C77.1461 105.09 76.9898 104.437 76.9898 103.69V100.666C76.9898 99.9194 77.1461 99.266 77.4588 98.706C77.7714 98.146 78.2078 97.7097 78.7678 97.397C79.3278 97.0844 79.9811 96.928 80.7278 96.928C81.4744 96.928 82.1278 97.0844 82.6878 97.397C83.2478 97.7097 83.6841 98.146 83.9968 98.706C84.3094 99.266 84.4658 99.9194 84.4658 100.666V103.69C84.4658 104.437 84.3094 105.09 83.9968 105.65C83.6841 106.21 83.2478 106.646 82.6878 106.959C82.1278 107.272 81.4744 107.428 80.7278 107.428ZM80.7278 105.622C81.0638 105.622 81.3671 105.543 81.6378 105.384C81.9084 105.225 82.1231 105.011 82.2818 104.74C82.4404 104.469 82.5198 104.166 82.5198 103.83V100.512C82.5198 100.176 82.4404 99.8727 82.2818 99.602C82.1231 99.3314 81.9084 99.1167 81.6378 98.958C81.3671 98.7994 81.0638 98.72 80.7278 98.72C80.3918 98.72 80.0884 98.7994 79.8178 98.958C79.5471 99.1167 79.3324 99.3314 79.1738 99.602C79.0151 99.8727 78.9358 100.176 78.9358 100.512V103.83C78.9358 104.166 79.0151 104.469 79.1738 104.74C79.3324 105.011 79.5471 105.225 79.8178 105.384C80.0884 105.543 80.3918 105.622 80.7278 105.622ZM90.1614 107.428C89.4147 107.428 88.7614 107.272 88.2014 106.959C87.6414 106.646 87.205 106.21 86.8924 105.65C86.5797 105.09 86.4234 104.437 86.4234 103.69V100.666C86.4234 99.9194 86.5797 99.266 86.8924 98.706C87.205 98.146 87.6414 97.7097 88.2014 97.397C88.7614 97.0844 89.4147 96.928 90.1614 96.928C90.908 96.928 91.5614 97.0844 92.1214 97.397C92.6814 97.7097 93.1177 98.146 93.4304 98.706C93.743 99.266 93.8994 99.9194 93.8994 100.666V103.69C93.8994 104.437 93.743 105.09 93.4304 105.65C93.1177 106.21 92.6814 106.646 92.1214 106.959C91.5614 107.272 90.908 107.428 90.1614 107.428ZM90.1614 105.622C90.4974 105.622 90.8007 105.543 91.0714 105.384C91.342 105.225 91.5567 105.011 91.7154 104.74C91.874 104.469 91.9534 104.166 91.9534 103.83V100.512C91.9534 100.176 91.874 99.8727 91.7154 99.602C91.5567 99.3314 91.342 99.1167 91.0714 98.958C90.8007 98.7994 90.4974 98.72 90.1614 98.72C89.8254 98.72 89.522 98.7994 89.2514 98.958C88.9807 99.1167 88.766 99.3314 88.6074 99.602C88.4487 99.8727 88.3694 100.176 88.3694 100.512V103.83C88.3694 104.166 88.4487 104.469 88.6074 104.74C88.766 105.011 88.9807 105.225 89.2514 105.384C89.522 105.543 89.8254 105.622 90.1614 105.622ZM108.003 107.428C107.256 107.428 106.603 107.272 106.043 106.959C105.483 106.646 105.047 106.21 104.734 105.65C104.421 105.09 104.265 104.437 104.265 103.69V100.666C104.265 99.9194 104.421 99.266 104.734 98.706C105.047 98.146 105.483 97.7097 106.043 97.397C106.603 97.0844 107.256 96.928 108.003 96.928C108.75 96.928 109.403 97.0844 109.963 97.397C110.523 97.7097 110.959 98.146 111.272 98.706C111.585 99.266 111.741 99.9194 111.741 100.666V103.69C111.741 104.437 111.585 105.09 111.272 105.65C110.959 106.21 110.523 106.646 109.963 106.959C109.403 107.272 108.75 107.428 108.003 107.428ZM108.003 105.622C108.339 105.622 108.642 105.543 108.913 105.384C109.184 105.225 109.398 105.011 109.557 104.74C109.716 104.469 109.795 104.166 109.795 103.83V100.512C109.795 100.176 109.716 99.8727 109.557 99.602C109.398 99.3314 109.184 99.1167 108.913 98.958C108.642 98.7994 108.339 98.72 108.003 98.72C107.667 98.72 107.364 98.7994 107.093 98.958C106.822 99.1167 106.608 99.3314 106.449 99.602C106.29 99.8727 106.211 100.176 106.211 100.512V103.83C106.211 104.166 106.29 104.469 106.449 104.74C106.608 105.011 106.822 105.225 107.093 105.384C107.364 105.543 107.667 105.622 108.003 105.622ZM117.437 107.428C116.69 107.428 116.037 107.272 115.477 106.959C114.917 106.646 114.48 106.21 114.168 105.65C113.855 105.09 113.699 104.437 113.699 103.69V100.666C113.699 99.9194 113.855 99.266 114.168 98.706C114.48 98.146 114.917 97.7097 115.477 97.397C116.037 97.0844 116.69 96.928 117.437 96.928C118.183 96.928 118.837 97.0844 119.397 97.397C119.957 97.7097 120.393 98.146 120.706 98.706C121.018 99.266 121.175 99.9194 121.175 100.666V103.69C121.175 104.437 121.018 105.09 120.706 105.65C120.393 106.21 119.957 106.646 119.397 106.959C118.837 107.272 118.183 107.428 117.437 107.428ZM117.437 105.622C117.773 105.622 118.076 105.543 118.347 105.384C118.617 105.225 118.832 105.011 118.991 104.74C119.149 104.469 119.229 104.166 119.229 103.83V100.512C119.229 100.176 119.149 99.8727 118.991 99.602C118.832 99.3314 118.617 99.1167 118.347 98.958C118.076 98.7994 117.773 98.72 117.437 98.72C117.101 98.72 116.797 98.7994 116.527 98.958C116.256 99.1167 116.041 99.3314 115.883 99.602C115.724 99.8727 115.645 100.176 115.645 100.512V103.83C115.645 104.166 115.724 104.469 115.883 104.74C116.041 105.011 116.256 105.225 116.527 105.384C116.797 105.543 117.101 105.622 117.437 105.622ZM126.87 107.428C126.124 107.428 125.47 107.272 124.91 106.959C124.35 106.646 123.914 106.21 123.601 105.65C123.289 105.09 123.132 104.437 123.132 103.69V100.666C123.132 99.9194 123.289 99.266 123.601 98.706C123.914 98.146 124.35 97.7097 124.91 97.397C125.47 97.0844 126.124 96.928 126.87 96.928C127.617 96.928 128.27 97.0844 128.83 97.397C129.39 97.7097 129.827 98.146 130.139 98.706C130.452 99.266 130.608 99.9194 130.608 100.666V103.69C130.608 104.437 130.452 105.09 130.139 105.65C129.827 106.21 129.39 106.646 128.83 106.959C128.27 107.272 127.617 107.428 126.87 107.428ZM126.87 105.622C127.206 105.622 127.51 105.543 127.78 105.384C128.051 105.225 128.266 105.011 128.424 104.74C128.583 104.469 128.662 104.166 128.662 103.83V100.512C128.662 100.176 128.583 99.8727 128.424 99.602C128.266 99.3314 128.051 99.1167 127.78 98.958C127.51 98.7994 127.206 98.72 126.87 98.72C126.534 98.72 126.231 98.7994 125.96 98.958C125.69 99.1167 125.475 99.3314 125.316 99.602C125.158 99.8727 125.078 100.176 125.078 100.512V103.83C125.078 104.166 125.158 104.469 125.316 104.74C125.475 105.011 125.69 105.225 125.96 105.384C126.231 105.543 126.534 105.622 126.87 105.622ZM136.304 107.428C135.557 107.428 134.904 107.272 134.344 106.959C133.784 106.646 133.348 106.21 133.035 105.65C132.722 105.09 132.566 104.437 132.566 103.69V100.666C132.566 99.9194 132.722 99.266 133.035 98.706C133.348 98.146 133.784 97.7097 134.344 97.397C134.904 97.0844 135.557 96.928 136.304 96.928C137.051 96.928 137.704 97.0844 138.264 97.397C138.824 97.7097 139.26 98.146 139.573 98.706C139.886 99.266 140.042 99.9194 140.042 100.666V103.69C140.042 104.437 139.886 105.09 139.573 105.65C139.26 106.21 138.824 106.646 138.264 106.959C137.704 107.272 137.051 107.428 136.304 107.428ZM136.304 105.622C136.64 105.622 136.943 105.543 137.214 105.384C137.485 105.225 137.699 105.011 137.858 104.74C138.017 104.469 138.096 104.166 138.096 103.83V100.512C138.096 100.176 138.017 99.8727 137.858 99.602C137.699 99.3314 137.485 99.1167 137.214 98.958C136.943 98.7994 136.64 98.72 136.304 98.72C135.968 98.72 135.665 98.7994 135.394 98.958C135.123 99.1167 134.909 99.3314 134.75 99.602C134.591 99.8727 134.512 100.176 134.512 100.512V103.83C134.512 104.166 134.591 104.469 134.75 104.74C134.909 105.011 135.123 105.225 135.394 105.384C135.665 105.543 135.968 105.622 136.304 105.622ZM154.146 107.428C153.399 107.428 152.746 107.272 152.186 106.959C151.626 106.646 151.189 106.21 150.877 105.65C150.564 105.09 150.408 104.437 150.408 103.69V100.666C150.408 99.9194 150.564 99.266 150.877 98.706C151.189 98.146 151.626 97.7097 152.186 97.397C152.746 97.0844 153.399 96.928 154.146 96.928C154.892 96.928 155.546 97.0844 156.106 97.397C156.666 97.7097 157.102 98.146 157.415 98.706C157.727 99.266 157.884 99.9194 157.884 100.666V103.69C157.884 104.437 157.727 105.09 157.415 105.65C157.102 106.21 156.666 106.646 156.106 106.959C155.546 107.272 154.892 107.428 154.146 107.428ZM154.146 105.622C154.482 105.622 154.785 105.543 155.056 105.384C155.326 105.225 155.541 105.011 155.7 104.74C155.858 104.469 155.938 104.166 155.938 103.83V100.512C155.938 100.176 155.858 99.8727 155.7 99.602C155.541 99.3314 155.326 99.1167 155.056 98.958C154.785 98.7994 154.482 98.72 154.146 98.72C153.81 98.72 153.506 98.7994 153.236 98.958C152.965 99.1167 152.75 99.3314 152.592 99.602C152.433 99.8727 152.354 100.176 152.354 100.512V103.83C152.354 104.166 152.433 104.469 152.592 104.74C152.75 105.011 152.965 105.225 153.236 105.384C153.506 105.543 153.81 105.622 154.146 105.622ZM163.579 107.428C162.833 107.428 162.179 107.272 161.619 106.959C161.059 106.646 160.623 106.21 160.31 105.65C159.998 105.09 159.841 104.437 159.841 103.69V100.666C159.841 99.9194 159.998 99.266 160.31 98.706C160.623 98.146 161.059 97.7097 161.619 97.397C162.179 97.0844 162.833 96.928 163.579 96.928C164.326 96.928 164.979 97.0844 165.539 97.397C166.099 97.7097 166.536 98.146 166.848 98.706C167.161 99.266 167.317 99.9194 167.317 100.666V103.69C167.317 104.437 167.161 105.09 166.848 105.65C166.536 106.21 166.099 106.646 165.539 106.959C164.979 107.272 164.326 107.428 163.579 107.428ZM163.579 105.622C163.915 105.622 164.219 105.543 164.489 105.384C164.76 105.225 164.975 105.011 165.133 104.74C165.292 104.469 165.371 104.166 165.371 103.83V100.512C165.371 100.176 165.292 99.8727 165.133 99.602C164.975 99.3314 164.76 99.1167 164.489 98.958C164.219 98.7994 163.915 98.72 163.579 98.72C163.243 98.72 162.94 98.7994 162.669 98.958C162.399 99.1167 162.184 99.3314 162.025 99.602C161.867 99.8727 161.787 100.176 161.787 100.512V103.83C161.787 104.166 161.867 104.469 162.025 104.74C162.184 105.011 162.399 105.225 162.669 105.384C162.94 105.543 163.243 105.622 163.579 105.622ZM173.013 107.428C172.266 107.428 171.613 107.272 171.053 106.959C170.493 106.646 170.057 106.21 169.744 105.65C169.431 105.09 169.275 104.437 169.275 103.69V100.666C169.275 99.9194 169.431 99.266 169.744 98.706C170.057 98.146 170.493 97.7097 171.053 97.397C171.613 97.0844 172.266 96.928 173.013 96.928C173.76 96.928 174.413 97.0844 174.973 97.397C175.533 97.7097 175.969 98.146 176.282 98.706C176.595 99.266 176.751 99.9194 176.751 100.666V103.69C176.751 104.437 176.595 105.09 176.282 105.65C175.969 106.21 175.533 106.646 174.973 106.959C174.413 107.272 173.76 107.428 173.013 107.428ZM173.013 105.622C173.349 105.622 173.652 105.543 173.923 105.384C174.194 105.225 174.408 105.011 174.567 104.74C174.726 104.469 174.805 104.166 174.805 103.83V100.512C174.805 100.176 174.726 99.8727 174.567 99.602C174.408 99.3314 174.194 99.1167 173.923 98.958C173.652 98.7994 173.349 98.72 173.013 98.72C172.677 98.72 172.374 98.7994 172.103 98.958C171.832 99.1167 171.618 99.3314 171.459 99.602C171.3 99.8727 171.221 100.176 171.221 100.512V103.83C171.221 104.166 171.3 104.469 171.459 104.74C171.618 105.011 171.832 105.225 172.103 105.384C172.374 105.543 172.677 105.622 173.013 105.622ZM182.447 107.428C181.7 107.428 181.047 107.272 180.487 106.959C179.927 106.646 179.49 106.21 179.178 105.65C178.865 105.09 178.709 104.437 178.709 103.69V100.666C178.709 99.9194 178.865 99.266 179.178 98.706C179.49 98.146 179.927 97.7097 180.487 97.397C181.047 97.0844 181.7 96.928 182.447 96.928C183.193 96.928 183.847 97.0844 184.407 97.397C184.967 97.7097 185.403 98.146 185.716 98.706C186.028 99.266 186.185 99.9194 186.185 100.666V103.69C186.185 104.437 186.028 105.09 185.716 105.65C185.403 106.21 184.967 106.646 184.407 106.959C183.847 107.272 183.193 107.428 182.447 107.428ZM182.447 105.622C182.783 105.622 183.086 105.543 183.357 105.384C183.627 105.225 183.842 105.011 184.001 104.74C184.159 104.469 184.239 104.166 184.239 103.83V100.512C184.239 100.176 184.159 99.8727 184.001 99.602C183.842 99.3314 183.627 99.1167 183.357 98.958C183.086 98.7994 182.783 98.72 182.447 98.72C182.111 98.72 181.807 98.7994 181.537 98.958C181.266 99.1167 181.051 99.3314 180.893 99.602C180.734 99.8727 180.655 100.176 180.655 100.512V103.83C180.655 104.166 180.734 104.469 180.893 104.74C181.051 105.011 181.266 105.225 181.537 105.384C181.807 105.543 182.111 105.622 182.447 105.622Z" fill="#F7F8F8"/>
<path d="M24.9286 80C24.0804 78.6343 23.0173 77.6128 21.7394 76.9358C22.0798 77.5376 22.25 78.1887 22.25 78.8889C22.25 79.9595 21.8831 80.8753 21.1493 81.6363C20.4155 82.3973 19.5324 82.7778 18.5 82.7778C17.4676 82.7778 16.5845 82.3973 15.8507 81.6363C15.1169 80.8753 14.75 79.9595 14.75 78.8889C14.75 78.1887 14.9202 77.5376 15.2606 76.9358C13.9827 77.6128 12.9196 78.6343 12.0714 80C12.8136 81.1863 13.7441 82.1311 14.863 82.8342C15.9819 83.5373 17.1942 83.8889 18.5 83.8889C19.8058 83.8889 21.0181 83.5373 22.137 82.8342C23.2559 82.1311 24.1864 81.1863 24.9286 80ZM18.9018 76.6667C18.9018 76.5509 18.8627 76.4525 18.7846 76.3715C18.7065 76.2905 18.6116 76.25 18.5 76.25C17.8025 76.25 17.204 76.509 16.7045 77.0269C16.2051 77.5448 15.9554 78.1655 15.9554 78.8889C15.9554 79.0046 15.9944 79.103 16.0725 79.184C16.1507 79.265 16.2455 79.3056 16.3571 79.3056C16.4688 79.3056 16.5636 79.265 16.6417 79.184C16.7199 79.103 16.7589 79.0046 16.7589 78.8889C16.7589 78.3912 16.9291 77.9659 17.2695 77.6128C17.6099 77.2598 18.0201 77.0833 18.5 77.0833C18.6116 77.0833 18.7065 77.0428 18.7846 76.9618C18.8627 76.8808 18.9018 76.7824 18.9018 76.6667ZM26 80C26 80.1968 25.9442 80.3964 25.8326 80.599C25.0513 81.93 24.0008 82.9962 22.6811 83.7977C21.3613 84.5992 19.9676 85 18.5 85C17.0324 85 15.6387 84.5978 14.3189 83.7934C12.9992 82.989 11.9487 81.9242 11.1674 80.599C11.0558 80.3964 11 80.1968 11 80C11 79.8032 11.0558 79.6036 11.1674 79.401C11.9487 78.0758 12.9992 77.011 14.3189 76.2066C15.6387 75.4022 17.0324 75 18.5 75C19.9676 75 21.3613 75.4022 22.6811 76.2066C24.0008 77.011 25.0513 78.0758 25.8326 79.401C25.9442 79.6036 26 79.8032 26 80Z" fill="white"/>
<path d="M107.531 125.165C106.992 125.165 106.515 125.048 106.101 124.813C105.687 124.575 105.36 124.248 105.122 123.834C104.887 123.42 104.77 122.943 104.77 122.404V119.676C104.77 119.137 104.887 118.66 105.122 118.246C105.36 117.832 105.687 117.507 106.101 117.272C106.515 117.034 106.992 116.915 107.531 116.915C108.07 116.915 108.547 117.034 108.961 117.272C109.375 117.507 109.7 117.832 109.934 118.246C110.173 118.66 110.292 119.137 110.292 119.676V122.404C110.292 122.943 110.173 123.42 109.934 123.834C109.7 124.248 109.375 124.575 108.961 124.813C108.547 125.048 108.07 125.165 107.531 125.165ZM107.531 124.065C107.824 124.065 108.09 123.995 108.329 123.856C108.571 123.713 108.763 123.522 108.906 123.284C109.049 123.042 109.121 122.772 109.121 122.475V119.593C109.121 119.3 109.049 119.034 108.906 118.796C108.763 118.554 108.571 118.363 108.329 118.224C108.09 118.081 107.824 118.009 107.531 118.009C107.238 118.009 106.97 118.081 106.728 118.224C106.49 118.363 106.299 118.554 106.156 118.796C106.013 119.034 105.942 119.3 105.942 119.593V122.475C105.942 122.772 106.013 123.042 106.156 123.284C106.299 123.522 106.49 123.713 106.728 123.856C106.97 123.995 107.238 124.065 107.531 124.065ZM114.402 116.92C114.911 116.92 115.371 117.043 115.782 117.289C116.193 117.531 116.519 117.865 116.761 118.29C117.003 118.715 117.124 119.201 117.124 119.747V122.266C117.124 122.846 117.003 123.354 116.761 123.79C116.523 124.223 116.189 124.56 115.76 124.802C115.335 125.044 114.843 125.165 114.286 125.165C113.868 125.165 113.476 125.086 113.109 124.928C112.742 124.771 112.423 124.536 112.152 124.224L112.999 123.438C113.149 123.632 113.338 123.788 113.566 123.905C113.793 124.023 114.033 124.081 114.286 124.081C114.612 124.081 114.9 124.003 115.15 123.845C115.403 123.687 115.599 123.482 115.738 123.229C115.877 122.976 115.947 122.705 115.947 122.415V120.963L116.178 121.216C115.951 121.513 115.668 121.748 115.331 121.92C114.994 122.092 114.633 122.178 114.248 122.178C113.753 122.178 113.313 122.065 112.928 121.837C112.543 121.61 112.238 121.3 112.015 120.908C111.791 120.516 111.679 120.072 111.679 119.577C111.679 119.082 111.804 118.635 112.053 118.235C112.302 117.835 112.632 117.516 113.043 117.278C113.454 117.04 113.907 116.92 114.402 116.92ZM114.402 118.031C114.116 118.031 113.853 118.101 113.615 118.24C113.38 118.376 113.193 118.561 113.054 118.796C112.915 119.031 112.845 119.291 112.845 119.577C112.845 119.863 112.915 120.125 113.054 120.363C113.193 120.598 113.38 120.785 113.615 120.924C113.85 121.064 114.11 121.133 114.396 121.133C114.682 121.133 114.942 121.064 115.177 120.924C115.412 120.785 115.599 120.598 115.738 120.363C115.877 120.125 115.947 119.863 115.947 119.577C115.947 119.295 115.877 119.036 115.738 118.801C115.602 118.567 115.417 118.38 115.183 118.24C114.948 118.101 114.688 118.031 114.402 118.031ZM120.662 117.08H121.822L119.71 125H118.55L120.662 117.08ZM123.037 124.994L123.043 123.971L126.491 120.88C126.77 120.635 126.959 120.4 127.058 120.176C127.16 119.953 127.212 119.729 127.212 119.505C127.212 119.223 127.149 118.97 127.025 118.746C126.9 118.519 126.728 118.339 126.508 118.207C126.288 118.075 126.035 118.009 125.749 118.009C125.455 118.009 125.193 118.079 124.962 118.218C124.735 118.354 124.557 118.536 124.429 118.763C124.3 118.99 124.238 119.236 124.242 119.5H123.065C123.065 118.987 123.18 118.537 123.411 118.152C123.646 117.764 123.967 117.461 124.374 117.245C124.781 117.025 125.246 116.915 125.771 116.915C126.269 116.915 126.717 117.029 127.113 117.256C127.509 117.48 127.82 117.788 128.048 118.18C128.279 118.572 128.394 119.02 128.394 119.522C128.394 119.885 128.347 120.193 128.251 120.446C128.156 120.699 128.013 120.934 127.822 121.15C127.632 121.366 127.393 121.601 127.107 121.854L124.445 124.23L124.319 123.9H128.394V124.994H123.037ZM132.062 125.165C131.655 125.165 131.275 125.083 130.923 124.917C130.575 124.749 130.276 124.518 130.027 124.224C129.778 123.927 129.6 123.586 129.493 123.201L130.599 122.904C130.661 123.139 130.768 123.343 130.918 123.515C131.072 123.687 131.252 123.821 131.457 123.916C131.662 124.008 131.875 124.054 132.095 124.054C132.385 124.054 132.647 123.984 132.881 123.845C133.12 123.706 133.307 123.519 133.442 123.284C133.582 123.049 133.651 122.791 133.651 122.508C133.651 122.219 133.58 121.957 133.437 121.722C133.298 121.487 133.109 121.302 132.87 121.166C132.636 121.027 132.377 120.957 132.095 120.957C131.772 120.957 131.499 121.022 131.275 121.15C131.052 121.278 130.878 121.427 130.753 121.595L129.752 121.243L129.994 117.08H134.267V118.163H130.582L131.05 117.729L130.857 120.847L130.632 120.556C130.841 120.347 131.09 120.187 131.38 120.077C131.67 119.967 131.957 119.912 132.243 119.912C132.735 119.912 133.173 120.026 133.558 120.253C133.947 120.481 134.253 120.791 134.476 121.183C134.7 121.572 134.812 122.013 134.812 122.508C134.812 123 134.685 123.447 134.432 123.85C134.179 124.25 133.844 124.569 133.426 124.807C133.008 125.046 132.553 125.165 132.062 125.165Z" fill="#F7F8F8"/>
<g style="mix-blend-mode:overlay">
<path d="M251.524 22.0006C251.524 28.076 246.608 33 240.544 33C234.48 33 229.564 28.076 229.564 22.0006C229.564 15.9252 234.48 11 240.544 11C246.608 11 251.524 15.924 251.524 22.0006Z" fill="#E0E0E0"/>
</g>
<g style="mix-blend-mode:overlay">
<path d="M237.977 22.0006C237.977 28.076 233.062 33 226.997 33C220.934 33 216.018 28.076 216.018 22.0006C216.018 15.9252 220.934 11 226.997 11C233.062 11 237.977 15.924 237.977 22.0006Z" fill="white"/>
</g>
<rect x="11.5" y="13.5" width="70.216" height="15.3025" rx="7.65123" stroke="white"/>
<path d="M21.49 24V18.96H22.344L24.01 22.306L25.676 18.96H26.53V24H25.641V20.99L24.178 24H23.842L22.379 20.99V24H21.49ZM27.1625 24L28.7025 18.96H30.1235L31.6635 24H30.6835L29.3115 19.555H29.4935L28.1425 24H27.1625ZM28.0865 22.95V22.061H30.7465V22.95H28.0865ZM32.2908 24V18.96H33.2568L35.4478 22.32V18.96H36.4138V24H35.4478L33.2568 20.64V24H32.2908ZM37.0404 24L38.5804 18.96H40.0014L41.5414 24H40.5614L39.1894 19.555H39.3714L38.0204 24H37.0404ZM37.9644 22.95V22.061H40.6244V22.95H37.9644ZM44.132 24.105C43.8147 24.105 43.5125 24.049 43.2255 23.937C42.9385 23.8227 42.6842 23.6547 42.4625 23.433C42.2432 23.2113 42.0693 22.9372 41.941 22.6105C41.815 22.2838 41.752 21.907 41.752 21.48C41.752 20.9223 41.8582 20.4487 42.0705 20.059C42.2852 19.667 42.5722 19.3683 42.9315 19.163C43.2932 18.9577 43.6933 18.855 44.132 18.855C44.7807 18.855 45.2905 19.0055 45.6615 19.3065C46.0325 19.6075 46.281 20.0333 46.407 20.584L45.434 20.724C45.343 20.43 45.1937 20.1955 44.986 20.0205C44.7807 19.8432 44.517 19.7533 44.195 19.751C43.8753 19.7463 43.6093 19.8152 43.397 19.9575C43.1847 20.0998 43.0248 20.3017 42.9175 20.563C42.8125 20.8243 42.76 21.13 42.76 21.48C42.76 21.83 42.8125 22.1333 42.9175 22.39C43.0248 22.6467 43.1847 22.8462 43.397 22.9885C43.6093 23.1308 43.8753 23.2043 44.195 23.209C44.412 23.2137 44.608 23.1763 44.783 23.097C44.9603 23.0177 45.1097 22.8928 45.231 22.7225C45.3523 22.5522 45.4387 22.334 45.49 22.068H44.692V21.333H46.505C46.5097 21.3633 46.5132 21.417 46.5155 21.494C46.5178 21.571 46.519 21.6153 46.519 21.627C46.519 22.11 46.421 22.5382 46.225 22.9115C46.029 23.2848 45.7525 23.5777 45.3955 23.79C45.0385 24 44.6173 24.105 44.132 24.105ZM47.2205 24V18.96H50.5105V19.849H48.1725V20.927H50.0905V21.816H48.1725V23.111H50.5105V24H47.2205ZM54.9137 24.105C54.4097 24.105 53.9746 23.9953 53.6082 23.776C53.2442 23.5567 52.9631 23.2498 52.7647 22.8555C52.5687 22.4612 52.4707 22.0027 52.4707 21.48C52.4707 20.9573 52.5687 20.4988 52.7647 20.1045C52.9631 19.7102 53.2442 19.4033 53.6082 19.184C53.9746 18.9647 54.4097 18.855 54.9137 18.855C55.4924 18.855 55.9777 18.9985 56.3697 19.2855C56.7641 19.5725 57.0417 19.961 57.2027 20.451L56.2437 20.717C56.1504 20.4113 55.9929 20.1745 55.7712 20.0065C55.5496 19.8362 55.2637 19.751 54.9137 19.751C54.5941 19.751 54.3269 19.8222 54.1122 19.9645C53.8999 20.1068 53.7401 20.3075 53.6327 20.5665C53.5254 20.8255 53.4717 21.13 53.4717 21.48C53.4717 21.83 53.5254 22.1345 53.6327 22.3935C53.7401 22.6525 53.8999 22.8532 54.1122 22.9955C54.3269 23.1378 54.5941 23.209 54.9137 23.209C55.2637 23.209 55.5496 23.1238 55.7712 22.9535C55.9929 22.7832 56.1504 22.5463 56.2437 22.243L57.2027 22.509C57.0417 22.999 56.7641 23.3875 56.3697 23.6745C55.9777 23.9615 55.4924 24.105 54.9137 24.105ZM57.4867 24L59.0267 18.96H60.4477L61.9877 24H61.0077L59.6357 19.555H59.8177L58.4667 24H57.4867ZM58.4107 22.95V22.061H61.0707V22.95H58.4107ZM62.615 24V18.96H64.743C64.792 18.96 64.8573 18.9623 64.939 18.967C65.023 18.9693 65.0977 18.9763 65.163 18.988C65.464 19.0347 65.7102 19.1338 65.9015 19.2855C66.0952 19.4372 66.2375 19.6285 66.3285 19.8595C66.4195 20.0882 66.465 20.3437 66.465 20.626C66.465 21.0483 66.36 21.41 66.15 21.711C65.94 22.0097 65.611 22.194 65.163 22.264L64.743 22.292H63.567V24H62.615ZM65.457 24L64.463 21.949L65.443 21.76L66.535 24H65.457ZM63.567 21.403H64.701C64.75 21.403 64.8037 21.4007 64.862 21.396C64.9203 21.3913 64.974 21.382 65.023 21.368C65.1513 21.333 65.2505 21.2747 65.3205 21.193C65.3905 21.109 65.4383 21.0168 65.464 20.9165C65.492 20.8138 65.506 20.717 65.506 20.626C65.506 20.535 65.492 20.4393 65.464 20.339C65.4383 20.2363 65.3905 20.1442 65.3205 20.0625C65.2505 19.9785 65.1513 19.919 65.023 19.884C64.974 19.87 64.9203 19.8607 64.862 19.856C64.8037 19.8513 64.75 19.849 64.701 19.849H63.567V21.403ZM67.3045 24V18.96H68.9355C68.9751 18.96 69.0568 18.9612 69.1805 18.9635C69.3041 18.9658 69.4231 18.974 69.5375 18.988C69.9435 19.037 70.2876 19.1782 70.57 19.4115C70.8523 19.6448 71.067 19.9412 71.214 20.3005C71.361 20.6598 71.4345 21.053 71.4345 21.48C71.4345 21.907 71.361 22.3002 71.214 22.6595C71.067 23.0188 70.8523 23.3152 70.57 23.5485C70.2876 23.7818 69.9435 23.923 69.5375 23.972C69.4231 23.986 69.3041 23.9942 69.1805 23.9965C69.0568 23.9988 68.9751 24 68.9355 24H67.3045ZM68.2705 23.104H68.9355C68.9985 23.104 69.0836 23.1028 69.191 23.1005C69.2983 23.0958 69.3951 23.0853 69.4815 23.069C69.7008 23.0247 69.8793 22.922 70.017 22.761C70.157 22.6 70.2596 22.4063 70.325 22.18C70.3926 21.9537 70.4265 21.7203 70.4265 21.48C70.4265 21.228 70.3915 20.9888 70.3215 20.7625C70.2538 20.5362 70.15 20.3448 70.01 20.1885C69.87 20.0322 69.6938 19.933 69.4815 19.891C69.3951 19.8723 69.2983 19.8618 69.191 19.8595C69.0836 19.8572 68.9985 19.856 68.9355 19.856H68.2705V23.104Z" fill="white"/>
<defs>
<linearGradient id="paint0_linear_790_456" x1="6.27455e-06" y1="143" x2="262.229" y2="-6.31749e-06" gradientUnits="userSpaceOnUse">
<stop offset="0.00446576" stop-color="#C00000"/>
<stop offset="0.211486" stop-color="#FF1743"/>
<stop offset="0.7751" stop-color="#FF3B4C"/>
<stop offset="1" stop-color="#FFB169"/>
</linearGradient>
</defs>
</svg>
