<svg width="263" height="138" viewBox="0 0 263 138" fill="none" xmlns="http://www.w3.org/2000/svg">
<rect x="0.75" y="0.75" width="261.5" height="136.5" rx="7.25" fill="white" stroke="#E4E2EA" stroke-width="1.5"/>
<path d="M12.9067 125V117.08H17.9667V118.163H14.0562V120.385H17.3067V121.469H14.0562V123.916H17.9667V125H12.9067ZM18.7376 125V124.819L22.1091 120.088H19.0456V119.06H23.9351V119.247L20.5691 123.971H23.7701V125H18.7376ZM25.1421 125V119.06H26.1651V120.501L26.0221 120.314C26.0954 120.123 26.1907 119.949 26.3081 119.791C26.4254 119.63 26.5611 119.498 26.7151 119.395C26.8654 119.285 27.0322 119.201 27.2156 119.142C27.4026 119.08 27.5932 119.043 27.7876 119.032C27.9819 119.018 28.1689 119.027 28.3486 119.06V120.138C28.1542 120.087 27.9379 120.072 27.6996 120.094C27.4649 120.116 27.2486 120.191 27.0506 120.319C26.8636 120.44 26.7151 120.587 26.6051 120.759C26.4987 120.932 26.4217 121.124 26.3741 121.337C26.3264 121.546 26.3026 121.768 26.3026 122.002V125H25.1421ZM30.9123 125.165C30.4723 125.165 30.1038 125.084 29.8068 124.923C29.5098 124.758 29.2843 124.542 29.1303 124.274C28.98 124.003 28.9048 123.706 28.9048 123.383C28.9048 123.082 28.958 122.818 29.0643 122.591C29.1707 122.364 29.3283 122.171 29.5373 122.013C29.7463 121.852 30.003 121.722 30.3073 121.623C30.5713 121.546 30.8702 121.478 31.2038 121.419C31.5375 121.361 31.8877 121.306 32.2543 121.254C32.6247 121.203 32.9913 121.152 33.3543 121.1L32.9363 121.331C32.9437 120.866 32.8447 120.521 32.6393 120.297C32.4377 120.07 32.0893 119.956 31.5943 119.956C31.2827 119.956 30.9967 120.03 30.7363 120.176C30.476 120.319 30.2945 120.558 30.1918 120.891L29.1193 120.561C29.266 120.052 29.5447 119.647 29.9553 119.346C30.3697 119.045 30.9197 118.895 31.6053 118.895C32.137 118.895 32.599 118.987 32.9913 119.17C33.3873 119.35 33.677 119.636 33.8603 120.028C33.9557 120.222 34.0143 120.428 34.0363 120.644C34.0583 120.86 34.0693 121.093 34.0693 121.342V125H33.0518V123.641L33.2498 123.817C33.0042 124.272 32.6907 124.611 32.3093 124.835C31.9317 125.055 31.466 125.165 30.9123 125.165ZM31.1158 124.224C31.4422 124.224 31.7227 124.168 31.9573 124.054C32.192 123.937 32.3808 123.788 32.5238 123.608C32.6668 123.429 32.7603 123.242 32.8043 123.047C32.8667 122.871 32.9015 122.673 32.9088 122.453C32.9198 122.233 32.9253 122.057 32.9253 121.925L33.2993 122.063C32.9363 122.118 32.6063 122.167 32.3093 122.211C32.0123 122.255 31.7428 122.299 31.5008 122.343C31.2625 122.384 31.0498 122.433 30.8628 122.492C30.7052 122.547 30.564 122.613 30.4393 122.69C30.3183 122.767 30.2212 122.86 30.1478 122.97C30.0782 123.08 30.0433 123.214 30.0433 123.372C30.0433 123.526 30.0818 123.669 30.1588 123.801C30.2358 123.929 30.3532 124.032 30.5108 124.109C30.6685 124.186 30.8702 124.224 31.1158 124.224ZM40.5707 125.165C40.0024 125.165 39.489 125.068 39.0307 124.873C38.576 124.675 38.2002 124.395 37.9032 124.032C37.6099 123.665 37.4192 123.231 37.3312 122.728L38.5302 122.547C38.6512 123.031 38.9042 123.409 39.2892 123.68C39.6742 123.948 40.1234 124.081 40.6367 124.081C40.9557 124.081 41.249 124.032 41.5167 123.933C41.7844 123.83 41.9989 123.685 42.1602 123.498C42.3252 123.308 42.4077 123.08 42.4077 122.816C42.4077 122.673 42.382 122.547 42.3307 122.437C42.283 122.327 42.2152 122.232 42.1272 122.151C42.0429 122.067 41.9384 121.995 41.8137 121.936C41.6927 121.874 41.5589 121.821 41.4122 121.777L39.3827 121.177C39.1847 121.119 38.983 121.044 38.7777 120.952C38.5724 120.857 38.3835 120.734 38.2112 120.583C38.0425 120.429 37.905 120.241 37.7987 120.017C37.6924 119.79 37.6392 119.515 37.6392 119.192C37.6392 118.704 37.7639 118.292 38.0132 117.954C38.2662 117.613 38.6072 117.357 39.0362 117.184C39.4652 117.008 39.9455 116.92 40.4772 116.92C41.0125 116.928 41.491 117.023 41.9127 117.206C42.338 117.39 42.69 117.654 42.9687 117.998C43.251 118.339 43.4454 118.754 43.5517 119.241L42.3197 119.45C42.2647 119.153 42.1474 118.899 41.9677 118.686C41.788 118.47 41.568 118.305 41.3077 118.191C41.0474 118.074 40.765 118.013 40.4607 118.009C40.1674 118.002 39.8979 118.046 39.6522 118.141C39.4102 118.237 39.2159 118.371 39.0692 118.543C38.9262 118.715 38.8547 118.913 38.8547 119.137C38.8547 119.357 38.9189 119.535 39.0472 119.67C39.1755 119.806 39.3332 119.914 39.5202 119.995C39.7109 120.072 39.8997 120.136 40.0867 120.187L41.5497 120.6C41.733 120.651 41.9402 120.721 42.1712 120.809C42.4059 120.893 42.6314 121.012 42.8477 121.166C43.0677 121.32 43.2492 121.526 43.3922 121.782C43.5352 122.035 43.6067 122.354 43.6067 122.739C43.6067 123.139 43.526 123.491 43.3647 123.795C43.2034 124.096 42.9815 124.349 42.6992 124.554C42.4205 124.756 42.0979 124.908 41.7312 125.011C41.3645 125.114 40.9777 125.165 40.5707 125.165ZM48.1778 125C47.8038 125.073 47.4371 125.105 47.0778 125.094C46.7185 125.083 46.3976 125.013 46.1153 124.884C45.833 124.756 45.6203 124.554 45.4773 124.279C45.349 124.034 45.2793 123.784 45.2683 123.531C45.261 123.275 45.2573 122.985 45.2573 122.662V117.41H46.4123V122.607C46.4123 122.846 46.4141 123.053 46.4178 123.229C46.4251 123.405 46.4636 123.553 46.5333 123.674C46.6653 123.902 46.8743 124.032 47.1603 124.065C47.45 124.094 47.7891 124.081 48.1778 124.026V125ZM44.1188 119.984V119.06H48.1778V119.984H44.1188ZM49.6282 125V123.784H50.8437V125H49.6282ZM56.2868 125.16C55.7074 125.16 55.2198 125.005 54.8238 124.697C54.4314 124.389 54.1601 123.975 54.0098 123.454L55.1483 123.185C55.1996 123.431 55.3298 123.641 55.5388 123.817C55.7514 123.99 55.9879 124.076 56.2483 124.076C56.4206 124.076 56.6003 124.032 56.7873 123.944C56.9743 123.856 57.1136 123.713 57.2053 123.515C57.2676 123.383 57.3043 123.233 57.3153 123.064C57.3263 122.892 57.3318 122.692 57.3318 122.464V117.08H58.4978V122.464C58.4978 122.699 58.4959 122.908 58.4923 123.091C58.4923 123.275 58.4739 123.447 58.4373 123.608C58.4043 123.77 58.3383 123.937 58.2393 124.109C58.0303 124.472 57.7553 124.738 57.4143 124.906C57.0733 125.075 56.6974 125.16 56.2868 125.16ZM62.3894 125.16C61.9787 125.16 61.634 125.094 61.3554 124.961C61.0767 124.829 60.8494 124.657 60.6734 124.444C60.501 124.228 60.369 123.993 60.2774 123.74C60.1857 123.487 60.1234 123.24 60.0904 122.998C60.0574 122.756 60.0409 122.543 60.0409 122.36V119.06H61.2069V121.98C61.2069 122.211 61.2252 122.45 61.2619 122.695C61.3022 122.937 61.3755 123.163 61.4819 123.372C61.5919 123.581 61.744 123.75 61.9384 123.878C62.1364 124.006 62.393 124.07 62.7084 124.07C62.9137 124.07 63.108 124.037 63.2914 123.971C63.4747 123.902 63.6342 123.792 63.7699 123.641C63.9092 123.491 64.0174 123.293 64.0944 123.047C64.175 122.802 64.2154 122.503 64.2154 122.151L64.9304 122.42C64.9304 122.959 64.8295 123.436 64.6279 123.85C64.4262 124.261 64.1365 124.582 63.7589 124.813C63.3812 125.044 62.9247 125.16 62.3894 125.16ZM64.3529 125V123.284H64.2154V119.06H65.3759V125H64.3529ZM69.1899 125.16C68.4676 125.16 67.8791 125 67.4244 124.681C66.9698 124.362 66.6911 123.913 66.5884 123.333L67.7654 123.152C67.8388 123.46 68.0074 123.704 68.2714 123.883C68.5391 124.059 68.8709 124.147 69.2669 124.147C69.6263 124.147 69.9068 124.074 70.1084 123.927C70.3138 123.781 70.4164 123.579 70.4164 123.322C70.4164 123.172 70.3798 123.051 70.3064 122.959C70.2368 122.864 70.0883 122.774 69.8609 122.69C69.6336 122.606 69.2871 122.501 68.8214 122.376C68.3118 122.244 67.9066 122.103 67.6059 121.953C67.3089 121.799 67.0963 121.621 66.9679 121.419C66.8433 121.214 66.7809 120.967 66.7809 120.677C66.7809 120.318 66.8763 120.004 67.0669 119.736C67.2576 119.469 67.5253 119.262 67.8699 119.115C68.2183 118.968 68.6253 118.895 69.0909 118.895C69.5456 118.895 69.9508 118.966 70.3064 119.109C70.6621 119.252 70.9499 119.456 71.1699 119.72C71.3899 119.98 71.5219 120.286 71.5659 120.638L70.3889 120.853C70.3486 120.567 70.2148 120.341 69.9874 120.176C69.7601 120.011 69.4649 119.922 69.1019 119.907C68.7536 119.892 68.4713 119.951 68.2549 120.083C68.0386 120.211 67.9304 120.389 67.9304 120.616C67.9304 120.748 67.9708 120.86 68.0514 120.952C68.1358 121.044 68.2971 121.132 68.5354 121.216C68.7738 121.3 69.1258 121.401 69.5914 121.518C70.0901 121.647 70.4861 121.79 70.7794 121.947C71.0728 122.101 71.2818 122.287 71.4064 122.503C71.5348 122.716 71.5989 122.974 71.5989 123.278C71.5989 123.865 71.3844 124.325 70.9554 124.659C70.5301 124.993 69.9416 125.16 69.1899 125.16ZM76.2149 125C75.8409 125.073 75.4742 125.105 75.1149 125.094C74.7556 125.083 74.4347 125.013 74.1524 124.884C73.8701 124.756 73.6574 124.554 73.5144 124.279C73.3861 124.034 73.3164 123.784 73.3054 123.531C73.2981 123.275 73.2944 122.985 73.2944 122.662V117.41H74.4494V122.607C74.4494 122.846 74.4512 123.053 74.4549 123.229C74.4622 123.405 74.5007 123.553 74.5704 123.674C74.7024 123.902 74.9114 124.032 75.1974 124.065C75.4871 124.094 75.8262 124.081 76.2149 124.026V125ZM72.1559 119.984V119.06H76.2149V119.984H72.1559ZM79.8225 125.165C79.2321 125.165 78.7133 125.037 78.266 124.78C77.8223 124.52 77.4758 124.158 77.2265 123.696C76.9808 123.231 76.858 122.692 76.858 122.079C76.858 121.43 76.979 120.868 77.221 120.391C77.4666 119.914 77.8076 119.546 78.244 119.285C78.6803 119.025 79.1881 118.895 79.7675 118.895C80.3725 118.895 80.8876 119.036 81.313 119.319C81.7383 119.597 82.0555 119.995 82.2645 120.512C82.4771 121.029 82.5615 121.643 82.5175 122.354H81.368V121.936C81.3606 121.247 81.2286 120.737 80.972 120.407C80.719 120.077 80.3321 119.912 79.8115 119.912C79.2358 119.912 78.8031 120.094 78.5135 120.457C78.2238 120.82 78.079 121.344 78.079 122.03C78.079 122.683 78.2238 123.189 78.5135 123.548C78.8031 123.904 79.2211 124.081 79.7675 124.081C80.1268 124.081 80.4366 124.001 80.697 123.839C80.961 123.674 81.1663 123.44 81.313 123.135L82.4405 123.493C82.2095 124.025 81.8593 124.437 81.39 124.73C80.9206 125.02 80.3981 125.165 79.8225 125.165ZM77.705 122.354V121.458H81.9455V122.354H77.705Z" fill="#D9D9D9"/>
<path d="M13.282 102.248L11.924 101.268L12.96 100.092L11.42 99.7L11.938 98.104L13.394 98.734L13.268 97.138H14.948L14.822 98.734L16.278 98.104L16.796 99.7L15.256 100.092L16.292 101.268L14.934 102.248L14.108 100.918L13.282 102.248ZM19.9129 102.248L18.5549 101.268L19.5909 100.092L18.0509 99.7L18.5689 98.104L20.0249 98.734L19.8989 97.138H21.5789L21.4529 98.734L22.9089 98.104L23.4269 99.7L21.8869 100.092L22.9229 101.268L21.5649 102.248L20.7389 100.918L19.9129 102.248ZM26.5437 102.248L25.1857 101.268L26.2217 100.092L24.6817 99.7L25.1997 98.104L26.6557 98.734L26.5297 97.138H28.2097L28.0837 98.734L29.5397 98.104L30.0577 99.7L28.5177 100.092L29.5537 101.268L28.1957 102.248L27.3697 100.918L26.5437 102.248ZM33.1746 102.248L31.8166 101.268L32.8526 100.092L31.3126 99.7L31.8306 98.104L33.2866 98.734L33.1606 97.138H34.8406L34.7146 98.734L36.1706 98.104L36.6886 99.7L35.1486 100.092L36.1846 101.268L34.8266 102.248L34.0006 100.918L33.1746 102.248ZM48.2136 102.248L46.8556 101.268L47.8916 100.092L46.3516 99.7L46.8696 98.104L48.3256 98.734L48.1996 97.138H49.8796L49.7536 98.734L51.2096 98.104L51.7276 99.7L50.1876 100.092L51.2236 101.268L49.8656 102.248L49.0396 100.918L48.2136 102.248ZM54.8445 102.248L53.4865 101.268L54.5225 100.092L52.9825 99.7L53.5005 98.104L54.9565 98.734L54.8305 97.138H56.5105L56.3845 98.734L57.8405 98.104L58.3585 99.7L56.8185 100.092L57.8545 101.268L56.4965 102.248L55.6705 100.918L54.8445 102.248ZM61.4754 102.248L60.1174 101.268L61.1534 100.092L59.6134 99.7L60.1314 98.104L61.5874 98.734L61.4614 97.138H63.1414L63.0154 98.734L64.4714 98.104L64.9894 99.7L63.4494 100.092L64.4854 101.268L63.1274 102.248L62.3014 100.918L61.4754 102.248ZM68.1062 102.248L66.7482 101.268L67.7842 100.092L66.2442 99.7L66.7622 98.104L68.2182 98.734L68.0922 97.138H69.7722L69.6462 98.734L71.1022 98.104L71.6202 99.7L70.0802 100.092L71.1162 101.268L69.7582 102.248L68.9322 100.918L68.1062 102.248ZM83.1453 102.248L81.7873 101.268L82.8233 100.092L81.2833 99.7L81.8013 98.104L83.2573 98.734L83.1313 97.138H84.8113L84.6853 98.734L86.1413 98.104L86.6593 99.7L85.1193 100.092L86.1553 101.268L84.7973 102.248L83.9713 100.918L83.1453 102.248ZM89.7761 102.248L88.4181 101.268L89.4541 100.092L87.9141 99.7L88.4321 98.104L89.8881 98.734L89.7621 97.138H91.4421L91.3161 98.734L92.7721 98.104L93.2901 99.7L91.7501 100.092L92.7861 101.268L91.4281 102.248L90.6021 100.918L89.7761 102.248ZM96.407 102.248L95.049 101.268L96.085 100.092L94.545 99.7L95.063 98.104L96.519 98.734L96.393 97.138H98.073L97.947 98.734L99.403 98.104L99.921 99.7L98.381 100.092L99.417 101.268L98.059 102.248L97.233 100.918L96.407 102.248ZM103.038 102.248L101.68 101.268L102.716 100.092L101.176 99.7L101.694 98.104L103.15 98.734L103.024 97.138H104.704L104.578 98.734L106.034 98.104L106.552 99.7L105.012 100.092L106.048 101.268L104.69 102.248L103.864 100.918L103.038 102.248ZM118.077 102.248L116.719 101.268L117.755 100.092L116.215 99.7L116.733 98.104L118.189 98.734L118.063 97.138H119.743L119.617 98.734L121.073 98.104L121.591 99.7L120.051 100.092L121.087 101.268L119.729 102.248L118.903 100.918L118.077 102.248ZM124.708 102.248L123.35 101.268L124.386 100.092L122.846 99.7L123.364 98.104L124.82 98.734L124.694 97.138H126.374L126.248 98.734L127.704 98.104L128.222 99.7L126.682 100.092L127.718 101.268L126.36 102.248L125.534 100.918L124.708 102.248ZM131.339 102.248L129.981 101.268L131.017 100.092L129.477 99.7L129.995 98.104L131.451 98.734L131.325 97.138H133.005L132.879 98.734L134.335 98.104L134.853 99.7L133.313 100.092L134.349 101.268L132.991 102.248L132.165 100.918L131.339 102.248ZM137.97 102.248L136.611 101.268L137.648 100.092L136.108 99.7L136.626 98.104L138.082 98.734L137.956 97.138H139.636L139.51 98.734L140.966 98.104L141.484 99.7L139.944 100.092L140.98 101.268L139.622 102.248L138.796 100.918L137.97 102.248Z" fill="#D9D9D9"/>
<path d="M15.8251 82.8445L16.484 81.6534C15.994 81.2986 15.6111 80.8509 15.3351 80.3102C15.0592 79.7696 14.9212 79.198 14.9212 78.5954C14.9212 77.914 15.0929 77.2804 15.4365 76.6947C14.1468 77.3536 13.074 78.3476 12.218 79.6767C13.1585 81.1296 14.3608 82.1856 15.8251 82.8445ZM19.1111 76.4329C19.1111 76.3202 19.0717 76.2245 18.9928 76.1457C18.914 76.0668 18.8183 76.0274 18.7056 76.0274C18.0017 76.0274 17.3977 76.2794 16.8937 76.7834C16.3896 77.2875 16.1376 77.8915 16.1376 78.5954C16.1376 78.708 16.177 78.8038 16.2559 78.8826C16.3347 78.9615 16.4305 79.0009 16.5431 79.0009C16.6557 79.0009 16.7515 78.9615 16.8303 78.8826C16.9091 78.8038 16.9486 78.708 16.9486 78.5954C16.9486 78.1111 17.1203 77.6972 17.4639 77.3536C17.8074 77.0101 18.2213 76.8383 18.7056 76.8383C18.8183 76.8383 18.914 76.7989 18.9928 76.7201C19.0717 76.6412 19.1111 76.5455 19.1111 76.4329ZM22.1775 74.8194C22.1775 74.8588 22.1747 74.8842 22.1691 74.8954C21.5778 75.9542 20.6908 77.5479 19.5081 79.6767C18.3255 81.8054 17.4357 83.402 16.8387 84.4664L16.4248 85.2182C16.3685 85.3083 16.2897 85.3534 16.1883 85.3534C16.1207 85.3534 15.7434 85.1563 15.0563 84.7621C14.9662 84.7057 14.9212 84.6269 14.9212 84.5255C14.9212 84.4579 15.0451 84.213 15.2929 83.7906C14.4875 83.4245 13.7456 82.9374 13.067 82.3292C12.3883 81.721 11.8013 81.0311 11.3057 80.2596C11.193 80.085 11.1367 79.8907 11.1367 79.6767C11.1367 79.4627 11.193 79.2684 11.3057 79.0938C12.1673 77.7704 13.2373 76.7257 14.5157 75.9598C15.7941 75.1939 17.1907 74.811 18.7056 74.811C19.2069 74.811 19.7137 74.8588 20.2262 74.9546L20.6823 74.1352C20.7387 74.0451 20.8175 74 20.9189 74C20.947 74 20.9977 74.0169 21.0709 74.0507C21.1441 74.0845 21.2314 74.1281 21.3328 74.1816C21.4342 74.2351 21.5271 74.2872 21.6116 74.3379C21.696 74.3886 21.7847 74.4407 21.8777 74.4942C21.9706 74.5477 22.0255 74.5801 22.0424 74.5913C22.1325 74.6476 22.1775 74.7237 22.1775 74.8194ZM22.4901 78.5954C22.4901 79.3782 22.2676 80.092 21.8227 80.7368C21.3778 81.3817 20.7893 81.8449 20.0572 82.1264L22.4225 77.8858C22.4676 78.1393 22.4901 78.3758 22.4901 78.5954ZM26.2746 79.6767C26.2746 79.8738 26.2182 80.0681 26.1056 80.2596C25.886 80.62 25.579 81.0283 25.1848 81.4844C24.3401 82.4531 23.3616 83.2049 22.2493 83.7399C21.1371 84.2749 19.9559 84.5424 18.7056 84.5424L19.3307 83.4274C20.5247 83.326 21.6299 82.9402 22.6464 82.2701C23.6629 81.5999 24.5119 80.7354 25.1933 79.6767C24.5456 78.6686 23.7516 77.8408 22.8111 77.1931L23.3433 76.247C23.8783 76.6074 24.3922 77.0383 24.8849 77.5395C25.3777 78.0407 25.7846 78.5588 26.1056 79.0938C26.2182 79.2853 26.2746 79.4796 26.2746 79.6767Z" fill="#E8E3EA"/>
<path d="M105.612 120.902L104.776 120.297L105.612 119.274L104.33 118.917L104.649 117.932L105.887 118.416L105.821 117.08H106.855L106.789 118.416L108.032 117.932L108.351 118.917L107.064 119.274L107.9 120.297L107.064 120.902L106.338 119.802L105.612 120.902ZM110.617 120.902L109.781 120.297L110.617 119.274L109.336 118.917L109.655 117.932L110.892 118.416L110.826 117.08H111.86L111.794 118.416L113.037 117.932L113.356 118.917L112.069 119.274L112.905 120.297L112.069 120.902L111.343 119.802L110.617 120.902ZM116.784 117.08H117.944L115.832 125H114.672L116.784 117.08ZM120.221 120.902L119.385 120.297L120.221 119.274L118.939 118.917L119.258 117.932L120.496 118.416L120.43 117.08H121.464L121.398 118.416L122.641 117.932L122.96 118.917L121.673 119.274L122.509 120.297L121.673 120.902L120.947 119.802L120.221 120.902ZM125.227 120.902L124.391 120.297L125.227 119.274L123.945 118.917L124.264 117.932L125.502 118.416L125.436 117.08H126.47L126.404 118.416L127.647 117.932L127.966 118.917L126.679 119.274L127.515 120.297L126.679 120.902L125.953 119.802L125.227 120.902Z" fill="#D9D9D9"/>
<rect x="11.5" y="13.5" width="70.216" height="15.3025" rx="7.65123" stroke="#DADADA"/>
<path d="M23.394 24.105C23.0207 24.105 22.6835 24.0397 22.3825 23.909C22.0838 23.776 21.8377 23.587 21.644 23.342C21.4527 23.0947 21.3313 22.8007 21.28 22.46L22.274 22.313C22.344 22.6023 22.4887 22.8252 22.708 22.9815C22.9273 23.1378 23.177 23.216 23.457 23.216C23.6133 23.216 23.765 23.1915 23.912 23.1425C24.059 23.0935 24.1792 23.0212 24.2725 22.9255C24.3682 22.8298 24.416 22.712 24.416 22.572C24.416 22.5207 24.4078 22.4717 24.3915 22.425C24.3775 22.376 24.353 22.3305 24.318 22.2885C24.283 22.2465 24.2328 22.2068 24.1675 22.1695C24.1045 22.1322 24.024 22.0983 23.926 22.068L22.617 21.683C22.519 21.655 22.4047 21.6153 22.274 21.564C22.1457 21.5127 22.0208 21.4392 21.8995 21.3435C21.7782 21.2478 21.6767 21.1218 21.595 20.9655C21.5157 20.8068 21.476 20.6073 21.476 20.367C21.476 20.0287 21.5612 19.7475 21.7315 19.5235C21.9018 19.2995 22.1293 19.1327 22.414 19.023C22.6987 18.9133 23.0137 18.8597 23.359 18.862C23.7067 18.8667 24.017 18.9262 24.29 19.0405C24.563 19.1548 24.7917 19.3217 24.976 19.541C25.1603 19.758 25.2933 20.024 25.375 20.339L24.346 20.514C24.3087 20.3507 24.2398 20.213 24.1395 20.101C24.0392 19.989 23.919 19.9038 23.779 19.8455C23.6413 19.7872 23.4967 19.7557 23.345 19.751C23.1957 19.7463 23.0545 19.7673 22.9215 19.814C22.7908 19.8583 22.6835 19.9237 22.5995 20.01C22.5178 20.0963 22.477 20.199 22.477 20.318C22.477 20.4277 22.5108 20.5175 22.5785 20.5875C22.6462 20.6552 22.7313 20.71 22.834 20.752C22.9367 20.794 23.0417 20.829 23.149 20.857L24.024 21.095C24.1547 21.13 24.2993 21.1767 24.458 21.235C24.6167 21.291 24.7683 21.3703 24.913 21.473C25.06 21.5733 25.1802 21.7063 25.2735 21.872C25.3692 22.0377 25.417 22.2477 25.417 22.502C25.417 22.7727 25.3598 23.0095 25.2455 23.2125C25.1335 23.4132 24.9818 23.58 24.7905 23.713C24.5992 23.8437 24.3822 23.9417 24.1395 24.007C23.8992 24.0723 23.6507 24.105 23.394 24.105ZM26.1863 24V18.96H29.4763V19.849H27.1383V20.927H29.0563V21.816H27.1383V23.111H29.4763V24H26.1863ZM30.3852 24V18.96H31.3372V23.111H33.5072V24H30.3852ZM34.1023 24V18.96H37.3923V19.849H35.0543V20.927H36.9723V21.816H35.0543V23.111H37.3923V24H34.1023ZM40.2165 24.105C39.7125 24.105 39.2773 23.9953 38.911 23.776C38.547 23.5567 38.2658 23.2498 38.0675 22.8555C37.8715 22.4612 37.7735 22.0027 37.7735 21.48C37.7735 20.9573 37.8715 20.4988 38.0675 20.1045C38.2658 19.7102 38.547 19.4033 38.911 19.184C39.2773 18.9647 39.7125 18.855 40.2165 18.855C40.7951 18.855 41.2805 18.9985 41.6725 19.2855C42.0668 19.5725 42.3445 19.961 42.5055 20.451L41.5465 20.717C41.4531 20.4113 41.2956 20.1745 41.074 20.0065C40.8523 19.8362 40.5665 19.751 40.2165 19.751C39.8968 19.751 39.6296 19.8222 39.415 19.9645C39.2026 20.1068 39.0428 20.3075 38.9355 20.5665C38.8281 20.8255 38.7745 21.13 38.7745 21.48C38.7745 21.83 38.8281 22.1345 38.9355 22.3935C39.0428 22.6525 39.2026 22.8532 39.415 22.9955C39.6296 23.1378 39.8968 23.209 40.2165 23.209C40.5665 23.209 40.8523 23.1238 41.074 22.9535C41.2956 22.7832 41.4531 22.5463 41.5465 22.243L42.5055 22.509C42.3445 22.999 42.0668 23.3875 41.6725 23.6745C41.2805 23.9615 40.7951 24.105 40.2165 24.105ZM44.4451 24V19.849H42.8561V18.96H46.9861V19.849H45.3971V24H44.4451ZM50.901 24.105C50.397 24.105 49.9619 23.9953 49.5955 23.776C49.2315 23.5567 48.9504 23.2498 48.752 22.8555C48.556 22.4612 48.458 22.0027 48.458 21.48C48.458 20.9573 48.556 20.4988 48.752 20.1045C48.9504 19.7102 49.2315 19.4033 49.5955 19.184C49.9619 18.9647 50.397 18.855 50.901 18.855C51.4797 18.855 51.965 18.9985 52.357 19.2855C52.7514 19.5725 53.029 19.961 53.19 20.451L52.231 20.717C52.1377 20.4113 51.9802 20.1745 51.7585 20.0065C51.5369 19.8362 51.251 19.751 50.901 19.751C50.5814 19.751 50.3142 19.8222 50.0995 19.9645C49.8872 20.1068 49.7274 20.3075 49.62 20.5665C49.5127 20.8255 49.459 21.13 49.459 21.48C49.459 21.83 49.5127 22.1345 49.62 22.3935C49.7274 22.6525 49.8872 22.8532 50.0995 22.9955C50.3142 23.1378 50.5814 23.209 50.901 23.209C51.251 23.209 51.5369 23.1238 51.7585 22.9535C51.9802 22.7832 52.1377 22.5463 52.231 22.243L53.19 22.509C53.029 22.999 52.7514 23.3875 52.357 23.6745C51.965 23.9615 51.4797 24.105 50.901 24.105ZM53.474 24L55.014 18.96H56.435L57.975 24H56.995L55.623 19.555H55.805L54.454 24H53.474ZM54.398 22.95V22.061H57.058V22.95H54.398ZM58.6023 24V18.96H60.7303C60.7793 18.96 60.8446 18.9623 60.9263 18.967C61.0103 18.9693 61.085 18.9763 61.1503 18.988C61.4513 19.0347 61.6975 19.1338 61.8888 19.2855C62.0825 19.4372 62.2248 19.6285 62.3158 19.8595C62.4068 20.0882 62.4523 20.3437 62.4523 20.626C62.4523 21.0483 62.3473 21.41 62.1373 21.711C61.9273 22.0097 61.5983 22.194 61.1503 22.264L60.7303 22.292H59.5543V24H58.6023ZM61.4443 24L60.4503 21.949L61.4303 21.76L62.5223 24H61.4443ZM59.5543 21.403H60.6883C60.7373 21.403 60.791 21.4007 60.8493 21.396C60.9076 21.3913 60.9613 21.382 61.0103 21.368C61.1386 21.333 61.2378 21.2747 61.3078 21.193C61.3778 21.109 61.4256 21.0168 61.4513 20.9165C61.4793 20.8138 61.4933 20.717 61.4933 20.626C61.4933 20.535 61.4793 20.4393 61.4513 20.339C61.4256 20.2363 61.3778 20.1442 61.3078 20.0625C61.2378 19.9785 61.1386 19.919 61.0103 19.884C60.9613 19.87 60.9076 19.8607 60.8493 19.856C60.791 19.8513 60.7373 19.849 60.6883 19.849H59.5543V21.403ZM63.2918 24V18.96H64.9228C64.9624 18.96 65.0441 18.9612 65.1678 18.9635C65.2914 18.9658 65.4104 18.974 65.5248 18.988C65.9308 19.037 66.2749 19.1782 66.5573 19.4115C66.8396 19.6448 67.0543 19.9412 67.2013 20.3005C67.3483 20.6598 67.4218 21.053 67.4218 21.48C67.4218 21.907 67.3483 22.3002 67.2013 22.6595C67.0543 23.0188 66.8396 23.3152 66.5573 23.5485C66.2749 23.7818 65.9308 23.923 65.5248 23.972C65.4104 23.986 65.2914 23.9942 65.1678 23.9965C65.0441 23.9988 64.9624 24 64.9228 24H63.2918ZM64.2578 23.104H64.9228C64.9858 23.104 65.0709 23.1028 65.1783 23.1005C65.2856 23.0958 65.3824 23.0853 65.4688 23.069C65.6881 23.0247 65.8666 22.922 66.0043 22.761C66.1443 22.6 66.2469 22.4063 66.3123 22.18C66.3799 21.9537 66.4138 21.7203 66.4138 21.48C66.4138 21.228 66.3788 20.9888 66.3088 20.7625C66.2411 20.5362 66.1373 20.3448 65.9973 20.1885C65.8573 20.0322 65.6811 19.933 65.4688 19.891C65.3824 19.8723 65.2856 19.8618 65.1783 19.8595C65.0709 19.8572 64.9858 19.856 64.9228 19.856H64.2578V23.104Z" fill="#BBBBBB"/>
<path d="M220.381 27.9954L222.789 14.4515H226.551L224.218 27.9954H220.381Z" fill="#DADADA"/>
<path d="M220.381 27.9954L223.466 14.4515H226.551L224.218 27.9954H220.381Z" fill="#DADADA"/>
<path d="M237.837 14.602C237.085 14.301 235.881 14 234.376 14C230.614 14 227.905 15.8811 227.905 18.5899C227.905 20.6214 229.786 21.6749 231.291 22.352C232.796 23.0292 233.248 23.4807 233.248 24.0826C233.248 24.9856 232.044 25.437 230.99 25.437C229.485 25.437 228.658 25.2113 227.379 24.6846L226.852 24.4589L226.325 27.5439C227.228 27.9201 228.883 28.2963 230.614 28.2963C234.602 28.2963 237.236 26.4152 237.236 23.5559C237.236 21.9758 236.257 20.7719 234 19.7938C232.646 19.1166 231.818 18.7403 231.818 18.0632C231.818 17.4612 232.495 16.8593 234 16.8593C235.279 16.8593 236.182 17.085 236.859 17.386L237.236 17.5365L237.837 14.602Z" fill="#DADADA"/>
<path d="M237.837 14.602C237.085 14.301 235.881 14 234.376 14C230.614 14 228.583 15.8811 228.583 18.5899C228.583 20.6214 229.786 21.6749 231.291 22.352C232.796 23.0292 233.248 23.4807 233.248 24.0826C233.248 24.9856 232.044 25.437 230.99 25.437C229.485 25.437 228.658 25.2113 227.379 24.6846L226.852 24.4589L226.325 27.5439C227.228 27.9201 228.883 28.2963 230.614 28.2963C234.602 28.2963 237.236 26.4152 237.236 23.5559C237.236 21.9758 236.257 20.7719 234 19.7938C232.646 19.1166 231.818 18.7403 231.818 18.0632C231.818 17.4612 232.495 16.8593 234 16.8593C235.279 16.8593 236.182 17.085 236.859 17.386L237.236 17.5365L237.837 14.602Z" fill="#DADADA"/>
<path d="M244.309 14.4515C243.406 14.4515 242.728 14.5268 242.352 15.4297L236.709 27.9954H240.772L241.525 25.7381H246.34L246.792 27.9954H250.403L247.243 14.4515H244.309ZM242.578 23.4808C242.804 22.8036 244.083 19.4929 244.083 19.4929C244.083 19.4929 244.384 18.6652 244.61 18.1385L244.835 19.4176C244.835 19.4176 245.588 22.8036 245.738 23.556H242.578V23.4808Z" fill="#DADADA"/>
<path d="M245.212 14.4515C244.309 14.4515 243.631 14.5268 243.255 15.4297L236.709 27.9954H240.772L241.525 25.7381H246.34L246.792 27.9954H250.403L247.243 14.4515H245.212ZM242.578 23.4808C242.879 22.7283 244.083 19.4929 244.083 19.4929C244.083 19.4929 244.384 18.6652 244.61 18.1385L244.835 19.4176C244.835 19.4176 245.588 22.8036 245.738 23.556H242.578V23.4808Z" fill="#DADADA"/>
<path d="M213.459 23.9322L213.082 21.9759C212.405 19.7186 210.223 17.2356 207.815 16.0317L211.201 28.0706H215.265L221.359 14.5268H217.296L213.459 23.9322Z" fill="#DADADA"/>
<path d="M213.459 23.9322L213.082 21.9759C212.405 19.7186 210.223 17.2356 207.815 16.0317L211.201 28.0706H215.265L221.359 14.5268H218.049L213.459 23.9322Z" fill="#DADADA"/>
<path d="M203 14.4515L203.677 14.602C208.493 15.7307 211.804 18.5899 213.083 21.9759L211.728 15.5802C211.503 14.6773 210.825 14.4515 209.998 14.4515H203Z" fill="#DADADA"/>
<path d="M203 14.4515C207.816 15.5802 211.804 18.5147 213.083 21.9007L211.804 16.5584C211.578 15.6554 210.825 15.1287 209.998 15.1287L203 14.4515Z" fill="#DADADA"/>
<path d="M203 14.4515C207.816 15.5802 211.804 18.5147 213.083 21.9007L212.18 18.9662C211.954 18.0632 211.653 17.1603 210.6 16.7841L203 14.4515Z" fill="#DADADA"/>
<path d="M217.221 23.4807L214.663 20.9224L213.459 23.7816L213.158 21.9005C212.48 19.6432 210.298 17.1602 207.891 15.9563L211.277 27.9953H215.34L217.221 23.4807ZM224.218 27.9953L220.983 24.6846L220.381 27.9953H224.218ZM232.872 23.3302C233.172 23.6312 233.323 23.8569 233.248 24.1579C233.248 25.0608 232.044 25.5122 230.99 25.5122C229.486 25.5122 228.658 25.2865 227.379 24.7598L226.852 24.5341L226.325 27.6191C227.228 27.9953 228.884 28.3715 230.614 28.3715C233.022 28.3715 234.978 27.6943 236.107 26.4904L232.872 23.3302ZM237.236 27.9953H240.772L241.525 25.738H246.34L246.792 27.9953H250.403L249.124 22.5025L244.61 18.1384L244.835 19.3423C244.835 19.3423 245.588 22.7282 245.738 23.4807H242.578C242.879 22.7282 244.083 19.4928 244.083 19.4928C244.083 19.4928 244.384 18.6651 244.61 18.1384" fill="#DADADA"/>
</svg>
