<svg width="98" height="64" viewBox="0 0 98 64" fill="none" xmlns="http://www.w3.org/2000/svg">
<rect x="1" y="0.5" width="96.2467" height="62.1688" rx="8.5" fill="white" stroke="#E4E2EA"/>
<path d="M48.0043 26.4889V30.3215H50.3681C50.9309 30.3215 51.3966 30.1324 51.7651 29.7542C52.1436 29.3764 52.3328 28.9266 52.3326 28.4048C52.3326 27.8941 52.1434 27.4493 51.7651 27.0704C51.3964 26.6821 50.9307 26.488 50.3681 26.4878H48.0043V26.4889ZM48.0043 31.6709V36.1167H46.5928V25.1396H50.3378C51.2895 25.1396 52.0974 25.4565 52.7616 26.0902C53.438 26.7236 53.7759 27.4951 53.7753 28.4048C53.7753 29.3354 53.4374 30.1121 52.7615 30.7349C52.107 31.3588 51.299 31.6705 50.3377 31.67H48.0043L48.0043 31.6709ZM55.2017 33.8168C55.2017 34.1855 55.3578 34.4923 55.6701 34.7371C55.9827 34.9819 56.3476 35.1047 56.7675 35.1047C57.3615 35.1047 57.8895 34.8847 58.3552 34.4456C58.821 34.0064 59.0537 33.4903 59.0537 32.8983C58.6139 32.55 58 32.3761 57.2121 32.3766C56.6391 32.3766 56.1609 32.5148 55.7775 32.7911C55.3943 33.0669 55.2018 33.4079 55.2018 33.8168H55.2017ZM57.0287 28.3597C58.0729 28.3597 58.8967 28.6382 59.5 29.1952C60.1034 29.7522 60.405 30.516 60.4049 31.4865V36.1166H59.0546V35.0744H58.9931C58.4101 35.9324 57.6328 36.3614 56.6611 36.3615C55.8324 36.3615 55.139 36.1164 54.5811 35.6263C54.0229 35.1346 53.7439 34.5211 53.7441 33.7856C53.7441 33.0091 54.0381 32.3912 54.626 31.9316C55.2139 31.4721 55.9992 31.242 56.9819 31.2414C57.8207 31.2414 58.5113 31.3946 59.0538 31.7011V31.3789C59.0538 30.8884 58.8595 30.472 58.4709 30.1299C58.0812 29.7871 57.6275 29.6166 57.1049 29.6166C56.3166 29.6166 55.6926 29.9489 55.2331 30.6134L53.9892 29.8311C54.6758 28.8497 55.689 28.3592 57.0289 28.3593L57.0287 28.3597Z" fill="#5F6368"/>
<path d="M68.1551 28.6041L63.4426 39.4272H61.985L63.7349 35.6407L60.6348 28.6041H62.1701L64.4105 34.0007H64.4408L66.6197 28.6041H68.1551Z" fill="#5F6368"/>
<path d="M42.2997 30.7129C42.3003 30.283 42.2639 29.8538 42.191 29.4301H36.2363V31.8592H39.6468C39.5006 32.6512 39.058 33.3253 38.386 33.7759V35.3535H40.4215C41.613 34.2553 42.3002 32.632 42.3002 30.7129H42.2997Z" fill="#4285F4"/>
<path d="M36.2365 36.8769C37.9406 36.8769 39.3751 36.3177 40.4216 35.3534L38.3865 33.7758C37.82 34.1572 37.0903 34.3799 36.2369 34.3799C34.5901 34.3799 33.1922 33.2708 32.6921 31.7761H30.5947V33.401C31.6339 35.4616 33.7697 36.8769 36.2365 36.8769Z" fill="#34A853"/>
<path d="M32.6912 31.7761C32.4272 30.9931 32.4272 30.145 32.6912 29.3619V27.7368H30.5943C30.1521 28.6154 29.9219 29.5853 29.9219 30.5688C29.9219 31.5524 30.1521 32.5223 30.5943 33.4009L32.6912 31.7761Z" fill="#FABB05"/>
<path d="M36.2365 26.7583C37.167 26.7583 38.001 27.0778 38.6588 27.7043V27.7052L40.461 25.9049C39.3664 24.8865 37.9397 24.2617 36.2365 24.2617C33.7696 24.2617 31.6339 25.6761 30.5947 27.7369L32.6917 29.3616C33.1921 27.8669 34.5896 26.7583 36.2365 26.7583Z" fill="#E94235"/>
</svg>
