<svg width="98" height="64" viewBox="0 0 98 64" fill="none" xmlns="http://www.w3.org/2000/svg">
<rect x="0.5" y="0.5" width="96.2467" height="62.1688" rx="8.5" fill="white" stroke="#E4E2EA"/>
<path d="M59.1932 29.3845H57.0852C56.9612 29.3845 56.8372 29.498 56.7752 29.6115L55.9072 34.6073C55.9072 34.7208 55.9692 34.7776 56.0932 34.7776H57.2092C57.3332 34.7776 57.3952 34.7208 57.3952 34.6073L57.6432 33.188C57.6432 33.0745 57.7672 32.961 57.9532 32.961H58.6352C60.0612 32.961 60.8671 32.3365 61.0531 31.0876C61.1771 30.5766 61.0531 30.1225 60.8051 29.8386C60.4331 29.5548 59.8752 29.3845 59.1932 29.3845ZM59.4412 31.2579C59.3172 31.9391 58.7592 31.9391 58.2012 31.9391H57.8292L58.0772 30.6334C58.0772 30.5766 58.1392 30.5199 58.2632 30.5199H58.3872C58.7592 30.5199 59.1312 30.5199 59.3172 30.7469C59.4412 30.8037 59.4412 30.974 59.4412 31.2579Z" fill="#139AD6"/>
<path d="M44.0027 29.3845H41.8948C41.7708 29.3845 41.6468 29.498 41.5848 29.6115L40.7168 34.6073C40.7168 34.7208 40.7788 34.7776 40.9028 34.7776H41.8948C42.0188 34.7776 42.1428 34.6641 42.2048 34.5505L42.4528 33.188C42.4528 33.0745 42.5768 32.961 42.7628 32.961H43.4447C44.8707 32.961 45.6767 32.3365 45.8627 31.0876C45.9867 30.5766 45.8627 30.1225 45.6147 29.8386C45.2427 29.5548 44.7467 29.3845 44.0027 29.3845ZM44.2507 31.2579C44.1267 31.9391 43.5687 31.9391 43.0108 31.9391H42.7008L42.9488 30.6334C42.9488 30.5766 43.0108 30.5199 43.1348 30.5199H43.2588C43.6307 30.5199 44.0027 30.5199 44.1887 30.7469C44.2507 30.8037 44.3127 30.974 44.2507 31.2579ZM50.3886 31.2011H49.3966C49.3346 31.2011 49.2107 31.2579 49.2107 31.3146L49.1487 31.5985L49.0867 31.4849C48.8387 31.2011 48.4047 31.0876 47.9087 31.0876C46.7927 31.0876 45.8007 31.8823 45.6147 32.961C45.4907 33.5287 45.6767 34.0396 45.9867 34.3802C46.2967 34.7208 46.7307 34.8344 47.2887 34.8344C48.2187 34.8344 48.7147 34.3234 48.7147 34.3234L48.6527 34.6073C48.6527 34.7208 48.7147 34.7776 48.8387 34.7776H49.7686C49.8926 34.7776 50.0166 34.6641 50.0786 34.5505L50.6366 31.3714C50.5746 31.3146 50.4506 31.2011 50.3886 31.2011ZM48.9627 33.0177C48.8387 33.5287 48.4047 33.9261 47.7847 33.9261C47.4747 33.9261 47.2267 33.8125 47.1027 33.699C46.9787 33.5287 46.9167 33.3016 46.9167 33.0177C46.9787 32.5068 47.4747 32.1094 48.0327 32.1094C48.3427 32.1094 48.5287 32.223 48.7147 32.3365C48.9007 32.5068 48.9627 32.7907 48.9627 33.0177Z" fill="#263B80"/>
<path d="M65.5169 31.2011H64.5249C64.4629 31.2011 64.3389 31.2578 64.3389 31.3146L64.2769 31.5985L64.2149 31.4849C63.9669 31.2011 63.5329 31.0875 63.0369 31.0875C61.9209 31.0875 60.9289 31.8823 60.7429 32.9609C60.6189 33.5286 60.8049 34.0396 61.1149 34.3802C61.4249 34.7208 61.8589 34.8343 62.4169 34.8343C63.3469 34.8343 63.8429 34.3234 63.8429 34.3234L63.7809 34.6073C63.7809 34.7208 63.8429 34.7776 63.9669 34.7776H64.8969C65.0209 34.7776 65.1449 34.664 65.2069 34.5505L65.7649 31.3714C65.7029 31.3146 65.6409 31.2011 65.5169 31.2011ZM64.0909 33.0177C63.9669 33.5286 63.5329 33.926 62.9129 33.926C62.6029 33.926 62.3549 33.8125 62.2309 33.6989C62.1069 33.5286 62.0449 33.3016 62.0449 33.0177C62.1069 32.5068 62.6029 32.1094 63.1609 32.1094C63.4709 32.1094 63.6569 32.2229 63.8429 32.3365C64.0909 32.5068 64.1529 32.7906 64.0909 33.0177Z" fill="#139AD6"/>
<path d="M55.7837 31.201H54.7297C54.6057 31.201 54.5437 31.2578 54.4817 31.3145L53.1177 33.2447L52.4977 31.4281C52.4357 31.3145 52.3737 31.2578 52.1877 31.2578H51.1958C51.0718 31.2578 51.0098 31.3713 51.0098 31.4848L52.1257 34.4936L51.0718 35.8561C51.0098 35.9697 51.0718 36.14 51.1958 36.14H52.1877C52.3117 36.14 52.3737 36.0832 52.4357 36.0264L55.8457 31.5416C56.0317 31.3713 55.9077 31.201 55.7837 31.201Z" fill="#263B80"/>
<path d="M66.6961 29.5546L65.8281 34.6639C65.8281 34.7775 65.8901 34.8342 66.0141 34.8342H66.8821C67.0061 34.8342 67.1301 34.7207 67.1921 34.6072L68.0601 29.6114C68.0601 29.4979 67.9981 29.4411 67.8741 29.4411H66.8821C66.8201 29.3843 66.7581 29.4411 66.6961 29.5546Z" fill="#139AD6"/>
<path d="M36.1299 27.6812C35.6959 27.2271 34.8899 27 33.7739 27H30.674C30.488 27 30.302 27.1703 30.24 27.3406L29 34.7775C29 34.9478 29.124 35.0613 29.248 35.0613H31.17L31.666 32.2796V32.3931C31.728 32.2228 31.9139 32.0525 32.0999 32.0525H33.0299C34.8279 32.0525 36.1919 31.3713 36.6259 29.4979V29.3276C36.5639 29.3276 36.5639 29.3276 36.6259 29.3276C36.6879 28.5896 36.5639 28.1354 36.1299 27.6812Z" fill="#263B80"/>
<path d="M36.5643 29.3277V29.498C36.1303 31.4282 34.7663 32.0527 32.9683 32.0527H32.0384C31.8524 32.0527 31.6664 32.223 31.6044 32.3933L30.9844 35.8562C30.9844 35.9698 31.0464 36.0833 31.2324 36.0833H32.8443C33.0303 36.0833 33.2163 35.9698 33.2163 35.7995V35.7427L33.5263 33.9828V33.8693C33.5263 33.699 33.7123 33.5854 33.8983 33.5854H34.1463C35.6963 33.5854 36.9363 33.0177 37.2463 31.3146C37.3703 30.6334 37.3083 30.0089 36.9363 29.6115C36.8743 29.498 36.7503 29.3845 36.5643 29.3277Z" fill="#139AD6"/>
<path d="M36.1299 29.1574C36.0679 29.1574 36.0059 29.1006 35.9439 29.1006C35.8819 29.1006 35.8199 29.1006 35.7579 29.0438C35.5099 28.9871 35.262 28.9871 34.952 28.9871H32.534C32.472 28.9871 32.41 28.9871 32.348 29.0438C32.224 29.1006 32.162 29.2141 32.162 29.3277L31.666 32.2797V32.3933C31.728 32.2229 31.914 32.0526 32.1 32.0526H33.03C34.828 32.0526 36.1919 31.3714 36.6259 29.498C36.6259 29.4412 36.6259 29.3845 36.6879 29.3277C36.5639 29.2709 36.5019 29.2141 36.3779 29.2141C36.1919 29.1574 36.1919 29.1574 36.1299 29.1574Z" fill="#232C65"/>
</svg>
