<svg width="191" height="153" viewBox="0 0 191 153" fill="none" xmlns="http://www.w3.org/2000/svg">
<g clip-path="url(#clip0_232_4962)">
<g opacity="0.37">
<path opacity="0.41" d="M189.422 115.201C191.441 112.782 191.538 109.102 189.637 106.977C187.736 104.853 183.239 103.617 181.221 106.033C179.202 108.452 182.071 111.909 182.759 114.937C183.72 119.161 187.404 117.619 189.422 115.201Z" fill="#E4DED9"/>
<path opacity="0.41" d="M123.294 15.0335C123.44 13.9996 122.825 12.9492 121.92 12.6884C121.018 12.4275 119.541 12.8757 119.395 13.9095C119.249 14.9434 120.658 15.4081 121.379 16.1361C122.384 17.151 123.148 16.0673 123.294 15.0335Z" fill="#E4DED9"/>
<path opacity="0.41" d="M60.5536 5.71227C59.0908 1.814 54.9453 -0.671033 51.292 0.161262C47.6387 0.993557 43.3259 5.40401 44.7886 9.30228C46.2513 13.2005 52.0528 12.1074 55.9581 13.2598C61.4039 14.8699 62.0186 9.60817 60.5559 5.7099L60.5536 5.71227Z" fill="#E4DED9"/>
<path opacity="0.41" d="M2.2734 87.6471C0.360785 88.771 -0.515438 91.4552 0.313676 93.6391C1.14279 95.8254 3.94105 98.2037 5.85366 97.0798C7.76628 95.9558 6.56972 92.4701 6.76522 90.0135C7.0408 86.5871 4.18366 86.5208 2.2734 87.6471Z" fill="#E4DED9"/>
<g opacity="0.28">
<path d="M178.121 141.91C179.972 130.915 177.004 121.534 176.265 110.752C175.565 100.544 178.599 91.9603 180.281 82.2383C181.779 73.5858 181.279 63.7856 179.4 55.2824C176.832 43.673 170.92 32.9219 162.401 26.3679C149.128 16.1551 131.424 17.3573 116.762 24.3832C110.621 27.3258 104.671 31.2407 98.0949 32.2319C88.5012 33.6759 79.1666 28.7343 69.8202 25.7703C57.1009 21.7345 43.1355 21.4357 31.1345 27.8048C17.5272 35.0251 7.85103 51.3249 8.98164 69.2797C9.49277 77.4153 12.1144 85.4418 11.1863 93.5229C10.2465 101.72 6.1716 108.575 4.01402 116.296C1.06973 126.831 0.801208 142.318 5.53564 153.007H174.932C176.392 149.512 177.471 145.768 178.118 141.915L178.121 141.91Z" fill="#E4DED9"/>
</g>
<g opacity="0.84">
<path opacity="0.47" d="M27.7123 102.114C28.3129 94.7228 31.2077 87.3199 36.2201 82.0297C44.0307 73.785 55.8456 71.7078 66.2001 73.6143C70.5365 74.4134 74.8375 75.8266 79.2798 75.3808C85.7573 74.7311 91.4622 70.2827 97.3578 67.0199C105.385 62.581 114.588 60.1908 123.122 62.121C132.798 64.312 140.731 72.5852 141.678 83.5639C142.106 88.5387 137.749 97.3027 139.124 102.017C140.519 106.799 150.706 121.444 150.454 132.586C150.204 143.686 147.858 147.138 144.542 152.777H36.2814C34.218 147.063 32.5998 142.491 35.0165 134.984C36.9479 128.987 31.7 124.048 29.672 118.466C27.8654 113.498 27.2718 107.523 27.7123 102.109V102.114Z" fill="#E4DED9"/>
</g>
</g>
<path d="M90.2469 152.222L21.4069 152.779L20.5943 51.2585C20.5213 42.191 27.7666 34.7786 36.7738 34.705L78.8913 34.3636C87.8985 34.2901 95.2616 41.5839 95.3323 50.6514L96.0955 146.235C96.1214 149.514 93.5021 152.194 90.2446 152.222H90.2469Z" fill="#F3F4F6"/>
<path opacity="0.34" d="M47.5334 35.5634H21.3975V151.85H47.5334V35.5634Z" fill="#EAECF0"/>
<path d="M78.1325 34.392V34.373L18.1018 34.8591C11.1933 34.9161 5.63921 40.8417 5.69574 48.1L5.71929 51.0948C5.72872 52.1974 6.62378 53.0843 7.71906 53.0748L64.4168 52.6148C65.538 52.6053 66.4377 51.6853 66.4283 50.5566L66.4048 47.6091C66.3482 40.5927 71.5396 34.8188 78.1325 34.3944V34.392Z" fill="#EAECF0"/>
<path d="M34.9829 62.3961C34.6296 62.3961 34.3422 62.1092 34.3399 61.7535C34.3375 61.3978 34.6225 61.1061 34.9782 61.1014L50.2815 60.9781C50.663 61.0326 50.9268 61.2626 50.9292 61.6207C50.9316 61.9764 50.6465 62.2704 50.2909 62.2728L34.9876 62.3961H34.9829Z" fill="white"/>
<path d="M35.1265 80.5595C34.7755 80.5595 34.4882 80.275 34.4835 79.9217C34.4787 79.5636 34.7614 79.2696 35.1171 79.2649L65.4998 78.8286C65.8744 78.8404 66.1452 79.1107 66.1499 79.4664C66.1547 79.8245 65.872 80.1185 65.5163 80.1232L35.1336 80.5595H35.1241H35.1265Z" fill="white"/>
<path d="M34.8559 90.585C34.5026 90.585 34.2152 90.2957 34.2129 89.94C34.2129 89.5843 34.4979 89.2927 34.8536 89.2927L47.5305 89.2666C47.8838 89.2666 48.1712 89.5559 48.1736 89.9116C48.1759 90.2673 47.8886 90.5589 47.5329 90.5589L34.8559 90.585Z" fill="white"/>
<path d="M35.0542 71.4849C34.7009 71.4849 34.4135 71.198 34.4111 70.8423C34.4088 70.4866 34.6938 70.1926 35.0495 70.1902L56.8702 70.0148H56.8749C57.2283 70.0148 57.5156 70.3017 57.518 70.6574C57.5203 71.0131 57.2353 71.3071 56.8797 71.3095L35.0589 71.4849H35.0542Z" fill="white"/>
<path d="M62.1675 71.2644C61.8141 71.2644 61.5268 70.9775 61.5244 70.6218C61.5221 70.2661 61.8071 69.9744 62.1627 69.9697L64.9963 69.946H65.001C65.3544 69.946 65.6417 70.2329 65.6441 70.5886C65.6464 70.9443 65.3614 71.2359 65.0058 71.2407L62.1722 71.2644H62.1675Z" fill="white"/>
<path d="M56.8774 62.2822C56.5241 62.2822 56.2367 61.9929 56.2344 61.6372C56.2344 61.2792 56.5194 60.9899 56.8751 60.9875L64.9966 60.9638C65.3499 60.9638 65.6373 61.2531 65.6396 61.6088C65.6396 61.9668 65.3546 62.2561 64.999 62.2561L56.8774 62.2798V62.2822Z" fill="white"/>
<path d="M34.9829 101.044C34.6296 101.044 34.3422 100.757 34.3399 100.402C34.3375 100.046 34.6225 99.7545 34.9782 99.7497L50.2815 99.6264C50.663 99.6762 50.9268 99.9109 50.9292 100.269C50.9316 100.625 50.6465 100.919 50.2909 100.921L34.9876 101.044H34.9829Z" fill="white"/>
<path d="M35.1265 119.208C34.7755 119.208 34.4882 118.923 34.4835 118.57C34.4787 118.212 34.7614 117.918 35.1171 117.913L65.4998 117.479C65.8744 117.486 66.1452 117.759 66.1499 118.117C66.1547 118.475 65.872 118.769 65.5163 118.774L35.1336 119.208H35.1241H35.1265Z" fill="white"/>
<path d="M34.8559 129.233C34.5026 129.233 34.2152 128.944 34.2129 128.588C34.2129 128.23 34.4979 127.941 34.8536 127.941L47.5305 127.915C47.8838 127.915 48.1712 128.204 48.1736 128.56C48.1736 128.918 47.8886 129.207 47.5329 129.207L34.8559 129.233Z" fill="white"/>
<path d="M35.0542 110.133C34.7009 110.133 34.4135 109.846 34.4111 109.491C34.4088 109.135 34.6938 108.841 35.0495 108.839L56.8702 108.661H56.8749C57.2283 108.661 57.5156 108.948 57.518 109.303C57.5203 109.659 57.2353 109.953 56.8797 109.955L35.0589 110.133H35.0542Z" fill="white"/>
<path d="M62.1675 109.915C61.8141 109.915 61.5268 109.628 61.5244 109.272C61.5221 108.917 61.8071 108.625 62.1627 108.62L64.9963 108.597H65.001C65.3544 108.597 65.6417 108.884 65.6441 109.239C65.6464 109.595 65.3614 109.889 65.0058 109.891L62.1722 109.915H62.1675Z" fill="white"/>
<path d="M86.6926 75.0204C86.669 76.5142 86.0519 77.9441 85.0179 78.9803C84.3206 79.6964 83.4892 80.1896 82.5423 80.4457L82.5258 81.5365C82.5164 82.0558 82.3162 82.5466 81.9629 82.9047C81.6095 83.2627 81.129 83.4619 80.6132 83.4548C80.0597 83.4453 79.5839 83.2295 79.2282 82.862C78.8725 82.4921 78.6605 81.9965 78.6676 81.4748L78.6817 80.5927L76.8892 80.5643C76.0766 80.5524 75.4124 80.2821 74.9554 79.8458C74.5103 79.4095 74.2747 78.7953 74.2865 78.0816C74.31 76.666 75.2616 75.9665 76.9623 75.9949L81.2068 76.0613C81.374 76.0637 81.6072 76.0021 81.7768 75.8622C81.9982 75.6962 82.1065 75.478 82.1089 75.2172C82.116 74.8425 81.977 74.5912 81.6967 74.4442C81.5554 74.3778 81.4659 74.3493 81.3999 74.3351C81.3104 74.3209 81.2586 74.3066 81.2586 74.3066L79.2329 74.2734C77.8267 74.2118 76.5336 73.6332 75.6079 72.6966C74.6798 71.7457 74.1452 70.4914 74.1687 69.0758C74.1923 67.608 74.8329 66.2018 75.8811 65.1799C76.7173 64.3618 77.7961 63.8212 78.9479 63.6457L78.9597 62.9177C78.9691 62.3842 79.167 61.9337 79.5627 61.5519C79.9419 61.182 80.4106 60.9947 80.9524 61.0018C81.4564 61.0089 81.9299 61.2247 82.2855 61.5946C82.653 61.9906 82.8273 62.4482 82.8179 62.9794L82.8085 63.6291L83.4915 63.6409C85.1804 63.667 86.1626 64.5017 86.139 65.9173C86.1131 67.4752 85.1074 68.2909 83.4185 68.2648L79.459 68.2008C79.0068 68.1937 78.7053 68.4877 78.7006 68.9027C78.6935 69.3318 78.9196 69.6852 79.2941 69.6923L81.2421 69.7231C82.7519 69.7468 84.1346 70.3017 85.1427 71.2525C86.1579 72.2034 86.7161 73.5241 86.6949 75.018L86.6926 75.0204Z" fill="white"/>
<path d="M80.6434 84.7495H80.5915C79.7153 84.7352 78.9027 84.3843 78.3044 83.7607C77.8027 83.2414 77.4871 82.5679 77.4046 81.8661L76.8699 81.859C75.7723 81.8424 74.7783 81.4606 74.0717 80.7848C73.3603 80.09 72.9835 79.125 73 78.0603C73.0235 76.5664 73.8903 74.9943 76.1869 74.7358C75.6404 74.4347 75.1387 74.0577 74.6982 73.6119C73.4993 72.3836 72.8586 70.7688 72.8845 69.0592C72.9128 67.2831 73.6783 65.5332 74.9879 64.2551C75.7488 63.5105 76.6839 62.9509 77.692 62.6237C77.7674 61.8625 78.1018 61.1773 78.6695 60.6248C79.2984 60.013 80.0521 59.7071 80.9731 59.7118C81.814 59.7261 82.6101 60.077 83.2084 60.6983C83.6654 61.1891 83.9504 61.7606 84.0564 62.3842C84.9538 62.4814 85.717 62.7849 86.2917 63.2758C87.0501 63.9255 87.4435 64.8479 87.427 65.9386C87.3988 67.7076 86.4048 68.9667 84.8007 69.3959C85.2412 69.6543 85.651 69.9602 86.0232 70.3112C87.3116 71.5181 88.0088 73.1993 87.9805 75.0393C87.9523 76.8486 87.2032 78.6199 85.929 79.898C85.3165 80.5287 84.6076 81.0219 83.8185 81.3681V81.5602C83.802 82.4209 83.4675 83.2224 82.8787 83.8199C82.2851 84.4222 81.4937 84.7518 80.6504 84.7518L80.6434 84.7495ZM76.8535 77.2873C75.5815 77.2873 75.5745 77.7568 75.5697 78.103C75.5627 78.4563 75.6592 78.7313 75.85 78.9187C76.0762 79.1344 76.4577 79.2648 76.91 79.272L79.9885 79.3218L79.9556 81.4985C79.9532 81.6621 80.0239 81.8305 80.1534 81.9633C80.283 82.0984 80.4361 82.1625 80.6363 82.1648H80.6457C80.8035 82.1648 80.9449 82.1079 81.0556 81.9965C81.1757 81.8755 81.2416 81.7048 81.244 81.5175L81.277 79.4545L82.2097 79.2008C82.9328 79.004 83.5688 78.627 84.1011 78.0769C84.9185 77.2588 85.3919 76.142 85.4084 75.0014C85.4249 73.8869 85.0292 72.9195 84.266 72.2034C83.4793 71.4588 82.3982 71.0391 81.2228 71.0202L79.2748 70.9893C78.6907 70.9798 78.1584 70.6977 77.8145 70.2187C77.5507 69.8488 77.407 69.3769 77.4164 68.8861C77.4258 68.3312 77.6449 67.8214 78.0382 67.4538C78.4175 67.0982 78.898 66.899 79.4821 66.9132L83.4416 66.9772C84.8879 66.9986 84.8525 66.3394 84.8572 65.9031C84.8643 65.4549 84.6924 65.3055 84.6288 65.251C84.405 65.0613 83.9951 64.9499 83.4746 64.9427L81.5054 64.9119L81.5361 62.9699C81.5408 62.7683 81.489 62.6379 81.35 62.4885C81.244 62.3771 81.0909 62.3083 80.9354 62.3036C80.7753 62.2917 80.601 62.3534 80.462 62.4885C80.29 62.6569 80.2547 62.7873 80.25 62.9462L80.2217 64.7673L79.1477 64.9309C78.2667 65.066 77.4258 65.4857 76.7804 66.1165C75.956 66.9203 75.4755 68.0087 75.459 69.1042C75.4425 70.1333 75.8124 71.0628 76.5284 71.7979C77.2397 72.5164 78.2243 72.9432 79.2937 72.9906L81.595 73.0665C81.8541 73.1187 82.0401 73.1827 82.2498 73.2847C83.0082 73.6806 83.411 74.3896 83.3969 75.248C83.3874 75.9167 83.0836 76.5071 82.5442 76.9102C82.2074 77.19 81.6303 77.3655 81.1851 77.3631L76.9453 77.2967C76.9147 77.2967 76.8864 77.2967 76.8582 77.2967L76.8535 77.2873Z" fill="#F3F4F6"/>
<path d="M137.214 152.779L50.166 152.723C47.4243 152.723 45.2031 150.482 45.2031 147.722L45.2408 89.9614C45.2408 87.2013 47.4667 84.9652 50.2084 84.9652L137.256 85.0221C139.998 85.0221 142.219 87.2629 142.219 90.023L142.181 147.783C142.181 150.543 139.955 152.779 137.214 152.779Z" fill="#4C4D51"/>
<path d="M137.626 147.179L57.7601 147.127C55.2445 147.127 53.2047 145.071 53.207 142.538L53.2424 89.5535C53.2424 87.0211 55.2845 84.97 57.8001 84.9724L137.666 85.0245C140.182 85.0245 142.221 87.0804 142.219 89.6128L142.184 142.598C142.184 145.13 140.141 147.181 137.626 147.179Z" fill="#EBEBED"/>
<path d="M68.9931 125.179L58.3442 125.195C58.078 125.195 57.8613 125.034 57.8613 124.832V123.156C57.859 122.957 58.0733 122.793 58.3395 122.793L68.9884 122.777C69.2546 122.777 69.4713 122.938 69.4713 123.139V124.816C69.4737 125.017 69.2593 125.179 68.9931 125.179Z" fill="#4C4A48"/>
<path d="M82.6377 125.157L71.9887 125.174C71.7226 125.174 71.5059 125.013 71.5059 124.811V123.135C71.5035 122.935 71.7179 122.772 71.984 122.772L82.633 122.755C82.8991 122.755 83.1158 122.916 83.1158 123.118V124.794C83.1182 124.996 82.9038 125.157 82.6377 125.157Z" fill="#4C4A48"/>
<path d="M95.9931 125.136L85.3442 125.152C85.078 125.152 84.8613 124.991 84.8613 124.79V123.113C84.859 122.914 85.0733 122.75 85.3395 122.75L95.9884 122.734C96.2546 122.734 96.4713 122.895 96.4713 123.097V124.773C96.4737 124.975 96.2593 125.136 95.9931 125.136Z" fill="#4C4A48"/>
<path d="M109.349 125.115L98.6997 125.131C98.4335 125.131 98.2168 124.97 98.2168 124.768V123.092C98.2145 122.893 98.4288 122.729 98.695 122.729L109.344 122.713C109.61 122.713 109.827 122.874 109.827 123.075V124.752C109.829 124.953 109.615 125.115 109.349 125.115Z" fill="#4C4A48"/>
<path d="M67.8525 129.719L58.1152 129.736C57.8184 129.736 57.5781 129.622 57.5781 129.478V128.887C57.5781 128.745 57.816 128.629 58.1128 128.629L67.8502 128.612C68.147 128.612 68.3872 128.726 68.3872 128.871V129.461C68.3872 129.603 68.1493 129.719 67.8525 129.719Z" fill="white"/>
<path d="M81.6631 129.67L71.9257 129.686C71.6289 129.686 71.3887 129.572 71.3887 129.428V128.837C71.3887 128.695 71.6266 128.579 71.9234 128.579L81.6607 128.562C81.9575 128.562 82.1978 128.676 82.1978 128.821V129.411C82.1978 129.553 81.9599 129.67 81.6631 129.67Z" fill="white"/>
<path d="M95.0957 129.696L85.3583 129.712C85.0616 129.712 84.8213 129.599 84.8213 129.454V128.863C84.8213 128.721 85.0592 128.605 85.356 128.605L95.0934 128.588C95.3901 128.588 95.6304 128.702 95.6304 128.847V129.437C95.6304 129.58 95.3925 129.696 95.0957 129.696Z" fill="white"/>
<path d="M67.542 140.52L57.8046 140.537C57.5078 140.537 57.2676 140.297 57.2676 139.999V138.77C57.2652 138.472 57.5055 138.23 57.7999 138.23L67.5373 138.213C67.8341 138.213 68.0743 138.455 68.0743 138.751V139.98C68.0767 140.278 67.8364 140.52 67.542 140.52Z" fill="#EFAEA1"/>
<path d="M73.5345 115.243L59.303 115.234C58.5163 115.234 57.8779 114.591 57.8779 113.797V109.486L57.8826 105.526C57.8826 104.734 58.521 104.091 59.31 104.091L73.5416 104.101C74.3283 104.101 74.9666 104.744 74.9666 105.538L74.9619 113.809C74.9619 114.601 74.3236 115.243 73.5345 115.243Z" fill="#EFAEA1"/>
<path d="M66.2963 116.073C65.9407 116.073 65.6533 115.784 65.6533 115.426V104.091C65.6533 103.733 65.9407 103.444 66.2963 103.444C66.652 103.444 66.9394 103.733 66.9394 104.091V115.426C66.9394 115.784 66.652 116.073 66.2963 116.073Z" fill="#EBEBED"/>
<path d="M68.9228 109.861C68.7155 111.324 67.3706 112.341 65.9173 112.132C64.464 111.924 63.4535 110.57 63.6607 109.107C63.868 107.644 65.213 106.626 66.6663 106.835C68.1196 107.044 69.1301 108.398 68.9228 109.861Z" fill="#EFAEA1"/>
<path d="M66.2987 112.806C66.1408 112.806 65.9854 112.794 65.8276 112.772C64.9537 112.647 64.1835 112.187 63.6535 111.478C63.1259 110.769 62.9021 109.894 63.027 109.016C63.1518 108.139 63.6088 107.361 64.313 106.828C65.0173 106.294 65.8841 106.069 66.758 106.195C67.6318 106.32 68.4044 106.78 68.932 107.489C69.462 108.198 69.6858 109.073 69.5609 109.951C69.4361 110.828 68.9791 111.606 68.2749 112.139C67.6954 112.576 67.01 112.806 66.301 112.806H66.2987ZM66.2869 107.454C65.8535 107.454 65.4342 107.594 65.0833 107.859C64.6522 108.184 64.3719 108.658 64.2989 109.194C64.1411 110.302 64.9089 111.331 66.0089 111.49C67.1183 111.648 68.1312 110.875 68.289 109.768C68.3667 109.232 68.2278 108.699 67.9074 108.265C67.5847 107.831 67.1113 107.551 66.579 107.475C66.4824 107.461 66.3858 107.454 66.2892 107.454H66.2869Z" fill="#EBEBED"/>
<path d="M118.297 99.7711C118.281 97.6915 119.157 95.8206 120.556 94.507C119.289 93.3546 117.609 92.6527 115.765 92.6669C111.857 92.6977 108.713 95.9107 108.743 99.8446C108.774 103.778 111.966 106.944 115.873 106.913C117.718 106.899 119.385 106.171 120.634 104.997C119.213 103.705 118.309 101.848 118.292 99.7687L118.297 99.7711Z" fill="#F32C19"/>
<path d="M127.817 92.6005C125.973 92.6148 124.305 93.3427 123.057 94.5165C121.655 95.8301 120.782 97.701 120.798 99.7806C120.815 101.86 121.719 103.717 123.139 105.009C124.407 106.161 126.086 106.863 127.93 106.849C131.838 106.818 134.983 103.605 134.952 99.6715C134.921 95.7376 131.73 92.5721 127.822 92.6029L127.817 92.6005Z" fill="#EFAEA1"/>
<path d="M114.058 66.2896H119.661C120.092 66.2896 120.438 66.65 120.424 67.0839L120.198 73.8442C120.175 74.5295 120.985 74.8994 121.482 74.4323L129.924 66.4959C130.065 66.3631 130.251 66.2896 130.444 66.2896H142.285C143.208 66.2896 143.957 65.5355 143.957 64.606V36.187C143.957 35.2575 143.208 34.5035 142.285 34.5035H114.055C113.132 34.5035 112.383 35.2575 112.383 36.187V64.606C112.383 65.5355 113.132 66.2896 114.055 66.2896H114.058Z" fill="#F32C19"/>
<path d="M132.621 52.3279C132.605 53.3025 132.204 54.2367 131.528 54.9125C131.074 55.3796 130.529 55.7021 129.912 55.8705L129.901 56.5818C129.896 56.9209 129.764 57.241 129.533 57.4734C129.302 57.7082 128.989 57.8386 128.652 57.8315C128.289 57.8267 127.981 57.6844 127.75 57.445C127.517 57.2031 127.38 56.8806 127.385 56.5415L127.394 55.9653L126.224 55.9464C125.694 55.9392 125.26 55.7614 124.961 55.4769C124.671 55.1923 124.516 54.7916 124.523 54.3244C124.537 53.402 125.159 52.9444 126.268 52.9634L129.038 53.0084C129.147 53.0084 129.3 52.9705 129.411 52.878C129.557 52.7689 129.625 52.6267 129.627 52.4583C129.632 52.2141 129.542 52.0505 129.359 51.9532C129.267 51.9106 129.208 51.8916 129.166 51.8821C129.107 51.8726 129.074 51.8631 129.074 51.8631L127.752 51.8418C126.836 51.8015 125.99 51.4245 125.387 50.8127C124.782 50.1938 124.434 49.3734 124.448 48.451C124.462 47.493 124.881 46.5753 125.564 45.909C126.111 45.3755 126.815 45.0222 127.566 44.9084L127.573 44.4341C127.578 44.0856 127.71 43.7915 127.967 43.5426C128.214 43.3007 128.52 43.1774 128.874 43.1845C129.201 43.1892 129.512 43.3315 129.743 43.571C129.983 43.8295 130.096 44.1282 130.091 44.4744L130.084 44.8989L130.529 44.906C131.632 44.9226 132.272 45.468 132.258 46.3904C132.242 47.4076 131.585 47.9388 130.482 47.9222L127.898 47.8819C127.604 47.8771 127.406 48.0692 127.404 48.3395C127.399 48.6193 127.547 48.8493 127.79 48.8541L129.06 48.8754C130.044 48.892 130.949 49.2524 131.603 49.8737C132.265 50.4949 132.63 51.3557 132.616 52.3303L132.621 52.3279Z" fill="white"/>
<path d="M128.674 58.6756H128.641C128.068 58.6661 127.538 58.4385 127.147 58.0306C126.82 57.6915 126.613 57.2529 126.561 56.7929L126.212 56.7881C125.496 56.7763 124.849 56.5273 124.387 56.0886C123.923 55.6357 123.678 55.005 123.687 54.3102C123.704 53.3356 124.267 52.3089 125.767 52.1405C125.409 51.9437 125.084 51.6995 124.794 51.4078C124.012 50.6064 123.593 49.5536 123.612 48.4367C123.631 47.2772 124.13 46.1343 124.985 45.302C125.482 44.8159 126.092 44.4507 126.749 44.2373C126.799 43.7417 127.018 43.2936 127.388 42.9331C127.798 42.5348 128.28 42.3285 128.89 42.338C129.439 42.3474 129.957 42.5751 130.348 42.9829C130.648 43.303 130.831 43.6753 130.902 44.0832C131.489 44.1472 131.986 44.3464 132.36 44.6665C132.855 45.0909 133.111 45.6909 133.1 46.4046C133.081 47.5594 132.433 48.3798 131.385 48.6596C131.672 48.828 131.941 49.0271 132.183 49.2572C133.024 50.0444 133.479 51.1423 133.46 52.3421C133.441 53.523 132.954 54.6777 132.12 55.5124C131.719 55.9226 131.258 56.2451 130.742 56.4704V56.596C130.73 57.158 130.513 57.6797 130.129 58.0709C129.741 58.4646 129.225 58.678 128.674 58.678V58.6756ZM126.203 53.8075C125.374 53.8075 125.367 54.1134 125.364 54.3387C125.36 54.5687 125.423 54.7489 125.548 54.8722C125.697 55.0145 125.944 55.0974 126.238 55.1022L128.247 55.1354L128.226 56.5557C128.226 56.6624 128.271 56.7739 128.356 56.8593C128.441 56.947 128.54 56.9897 128.669 56.9897C128.803 56.9897 128.869 56.9541 128.942 56.8806C129.02 56.8023 129.065 56.6909 129.065 56.5676L129.086 55.2207L129.696 55.0548C130.167 54.9267 130.584 54.6801 130.93 54.3221C131.463 53.7885 131.771 53.0606 131.783 52.316C131.795 51.5881 131.536 50.9573 131.036 50.4902C130.523 50.0041 129.816 49.7314 129.051 49.7195L127.781 49.6982C127.399 49.6911 127.053 49.5085 126.827 49.1955C126.655 48.9536 126.561 48.6454 126.568 48.3253C126.573 47.9625 126.716 47.6305 126.973 47.391C127.216 47.1634 127.541 47.0377 127.892 47.0377H127.915L130.499 47.078C131.406 47.097 131.42 46.6607 131.423 46.3761C131.427 46.0821 131.314 45.9873 131.272 45.9493C131.126 45.8236 130.857 45.7525 130.518 45.7478L129.234 45.7264L129.253 44.4578C129.256 44.3274 129.223 44.242 129.131 44.1448C129.062 44.0737 128.961 44.0263 128.86 44.0239C128.754 44.0239 128.641 44.0571 128.551 44.1448C128.438 44.2539 128.415 44.3393 128.415 44.4436L128.396 45.6316L127.696 45.7383C127.122 45.826 126.573 46.1011 126.151 46.5113C125.614 47.0353 125.298 47.7467 125.289 48.4604C125.277 49.1315 125.52 49.7385 125.986 50.2175C126.45 50.687 127.093 50.9644 127.79 50.9952L129.291 51.045C129.46 51.0782 129.581 51.1209 129.717 51.1873C130.212 51.4458 130.476 51.9082 130.466 52.4678C130.459 52.9041 130.261 53.2906 129.91 53.5514C129.691 53.734 129.314 53.8478 129.025 53.8454L126.257 53.8004C126.238 53.8004 126.219 53.8004 126.201 53.8004L126.203 53.8075Z" fill="#F32C19"/>
<path d="M128.534 61.6538C122.429 61.6538 117.464 56.6553 117.464 50.5091C117.464 44.363 122.429 39.3644 128.534 39.3644C134.64 39.3644 139.607 44.3653 139.607 50.5091C139.607 56.6529 134.64 61.6538 128.534 61.6538ZM128.534 40.6544C123.138 40.6544 118.748 45.0743 118.748 50.5068C118.748 55.9392 123.138 60.3591 128.534 60.3591C133.931 60.3591 138.321 55.9392 138.321 50.5068C138.321 45.0743 133.931 40.6544 128.534 40.6544Z" fill="white"/>
<path d="M150.518 58.4527H140.001C138.379 58.4527 137.063 59.7766 137.063 61.4096V71.9971C137.063 73.6301 138.379 74.954 140.001 74.954H150.518C152.14 74.954 153.455 73.6301 153.455 71.9971V61.4096C153.455 59.7766 152.14 58.4527 150.518 58.4527Z" fill="#F0EEEE"/>
<path d="M145.258 70.5767C143.135 70.5767 141.411 68.8386 141.411 66.7045C141.411 64.5704 143.138 62.83 145.258 62.83C147.377 62.83 149.106 64.5681 149.106 66.7045C149.106 68.841 147.38 70.5767 145.258 70.5767ZM145.258 63.4868C143.496 63.4868 142.061 64.9308 142.061 66.7045C142.061 68.4782 143.496 69.9222 145.258 69.9222C147.019 69.9222 148.454 68.4782 148.454 66.7045C148.454 64.9308 147.019 63.4868 145.258 63.4868Z" fill="#F32C19"/>
<path d="M145.173 67.7075C145.067 67.7075 144.97 67.6672 144.897 67.5913L143.376 66.0619C143.248 65.9339 143.248 65.7252 143.376 65.5972C143.503 65.4691 143.71 65.4691 143.837 65.5972L145.173 66.9416L150.032 62.0498C150.159 61.9218 150.367 61.9218 150.494 62.0498C150.621 62.1779 150.621 62.3865 150.494 62.5146L145.354 67.6886L145.175 67.7075H145.173ZM144.987 67.1266C144.987 67.1266 144.987 67.1266 144.987 67.129V67.1266Z" fill="#F32C19"/>
<path d="M146.02 152.782C156.288 152.782 164.612 144.402 164.612 134.066C164.612 123.729 156.288 115.35 146.02 115.35C135.752 115.35 127.429 123.729 127.429 134.066C127.429 144.402 135.752 152.782 146.02 152.782Z" fill="#EC3423"/>
<path d="M158.958 136.742C160.117 129.552 155.267 122.778 148.125 121.611C140.983 120.444 134.254 125.326 133.094 132.516C131.935 139.706 136.785 146.48 143.927 147.647C151.069 148.814 157.798 143.932 158.958 136.742Z" fill="#FBFCFD"/>
<path d="M146 144C151.523 144 156 139.523 156 134C156 128.477 151.523 124 146 124C140.477 124 136 128.477 136 134C136 139.523 140.477 144 146 144Z" fill="#EBE2E0"/>
<path d="M142.876 138.339C142.678 138.206 142.57 138.042 142.551 137.848C142.532 137.654 142.593 137.457 142.734 137.258L143.158 136.634C143.309 136.416 143.474 136.297 143.651 136.278C143.83 136.259 144.028 136.316 144.244 136.449C144.468 136.591 144.737 136.724 145.047 136.847C145.358 136.971 145.681 137.032 146.02 137.032C146.143 137.032 146.268 137.018 146.395 136.99C146.522 136.961 146.637 136.916 146.741 136.854C146.845 136.793 146.927 136.71 146.988 136.605C147.05 136.501 147.08 136.373 147.08 136.221C147.08 136.032 146.967 135.866 146.741 135.723C146.515 135.581 146.232 135.434 145.895 135.282C145.556 135.131 145.189 134.967 144.788 134.791C144.39 134.616 144.02 134.4 143.681 134.146C143.342 133.89 143.059 133.585 142.833 133.231C142.607 132.876 142.494 132.444 142.494 131.932C142.494 131.533 142.56 131.166 142.692 130.832C142.824 130.495 143.01 130.198 143.25 129.938C143.49 129.677 143.775 129.459 144.103 129.285C144.433 129.11 144.793 128.984 145.189 128.908V128.354C145.189 127.832 145.434 127.573 145.924 127.573H146.008C146.489 127.573 146.729 127.787 146.729 128.211V128.863C147.189 128.911 147.587 129.003 147.921 129.141C148.256 129.278 148.529 129.414 148.745 129.546C148.95 129.67 149.068 129.824 149.099 130.009C149.127 130.194 149.089 130.395 148.986 130.611L148.647 131.277C148.524 131.514 148.376 131.652 148.201 131.69C148.027 131.728 147.822 131.68 147.587 131.548C147.389 131.434 147.158 131.332 146.889 131.242C146.621 131.152 146.336 131.107 146.037 131.107C145.782 131.107 145.54 131.168 145.311 131.292C145.08 131.415 144.965 131.619 144.965 131.903C144.965 132.103 145.078 132.276 145.304 132.423C145.53 132.57 145.813 132.712 146.152 132.849C146.489 132.987 146.859 133.141 147.259 133.312C147.66 133.483 148.029 133.691 148.366 133.938C148.705 134.184 148.988 134.486 149.214 134.846C149.438 135.206 149.551 135.645 149.551 136.167C149.551 136.546 149.487 136.907 149.363 137.246C149.235 137.587 149.052 137.893 148.811 138.168C148.571 138.443 148.279 138.678 147.93 138.87C147.582 139.064 147.184 139.195 146.732 139.261V139.773C146.732 140.293 146.491 140.553 146.011 140.553H145.926C145.436 140.553 145.191 140.34 145.191 139.913V139.261C144.656 139.185 144.197 139.055 143.816 138.87C143.434 138.685 143.121 138.507 142.878 138.336L142.876 138.339Z" fill="#EC3423"/>
</g>
<defs>
<clipPath id="clip0_232_4962">
<rect width="191" height="153" fill="white"/>
</clipPath>
</defs>
</svg>
