<svg width="98" height="64" viewBox="0 0 98 64" fill="none" xmlns="http://www.w3.org/2000/svg">
<rect x="1.25293" y="0.5" width="96.2467" height="62.1688" rx="8.5" fill="white" stroke="#E4E2EA"/>
<path d="M51.6016 27.5649H54.0085L52.798 36.4498H50.3911L51.6016 27.5649ZM48.5668 27.5649L46.9427 32.6829L46.2338 27.5649H44.55L42.4233 32.6673L42.1574 27.5649H39.8243L40.6364 36.4498H42.571L44.9636 30.8305L45.805 36.4498H47.7103L50.8554 27.5649H48.5668ZM68.7762 32.7286H63.0614C63.0907 33.883 63.7632 34.6423 64.7523 34.6423C65.4976 34.6423 66.0891 34.2324 66.5463 33.4503L68.4755 34.3523C67.8129 35.6951 66.4155 36.5714 64.6927 36.5714C62.3445 36.5714 60.7871 34.9469 60.7871 32.3344C60.7871 29.4639 62.6184 27.4286 65.2023 27.4286C67.4767 27.4286 68.9087 29.0084 68.9087 31.4681C68.9087 31.8779 68.8642 32.2886 68.7762 32.7286ZM66.6343 31.0281C66.6343 29.9954 66.0731 29.3422 65.1721 29.3422C64.2711 29.3422 63.4741 30.0255 63.2669 31.0281H66.6335H66.6343ZM32.3013 30.2423L29.8438 33.196H34.2314L34.7251 31.8029H32.8448L33.994 30.4372L33.9975 30.4006L33.2504 29.0788H36.6107L34.0055 36.4498H35.788L38.9331 27.5649H30.807L32.3004 30.2423H32.3013ZM57.9221 29.3422C58.7715 29.3422 59.5151 29.8115 60.1653 30.6165L60.5069 28.1119C59.9012 27.6902 59.082 27.4286 57.9968 27.4286C55.8408 27.4286 54.6302 28.7275 54.6302 30.375C54.6302 31.5175 55.2502 32.2164 56.2695 32.6682L56.7569 32.896C57.6651 33.2948 57.9088 33.4924 57.9088 33.9132C57.9088 34.334 57.4987 34.6267 56.8752 34.6267C55.8452 34.6304 55.0109 34.0879 54.383 33.1613L54.0352 35.7134C54.7503 36.2742 55.6665 36.5705 56.8752 36.5705C58.9245 36.5705 60.1831 35.3558 60.1831 33.6699C60.1831 32.5237 59.6886 31.7864 58.4407 31.2092L57.9088 30.9513C57.1705 30.6137 56.9197 30.4271 56.9197 30.0548C56.9197 29.6523 57.263 29.3413 57.9239 29.3413L57.9221 29.3422Z" fill="#73737C"/>
</svg>
